<svg width="28" height="29" viewBox="0 0 28 29" fill="none" xmlns="http://www.w3.org/2000/svg">
<rect width="28" height="28" rx="14" transform="matrix(-1 0 0 1 28 0.932129)" fill="#416FE6"/>
<path d="M19.2417 20.1822C19.5667 19.8572 19.5667 19.3322 19.2417 19.0072L15.175 14.9322L19.25 10.8572C19.575 10.5322 19.575 10.0072 19.25 9.68223C18.925 9.35723 18.4 9.35723 18.075 9.68223L14 13.7572L9.92501 9.68223C9.60001 9.35723 9.07501 9.35723 8.75001 9.68223C8.42501 10.0072 8.42501 10.5322 8.75001 10.8572L12.825 14.9322L8.75001 19.0072C8.42501 19.3322 8.42501 19.8572 8.75001 20.1822C9.07501 20.5072 9.60001 20.5072 9.92501 20.1822L14 16.1072L18.075 20.1822C18.3917 20.4989 18.925 20.4989 19.2417 20.1822Z" fill="white"/>
</svg>
