<svg width="28" height="29" viewBox="0 0 28 29" fill="none" xmlns="http://www.w3.org/2000/svg">
<rect width="28" height="28" rx="14" transform="matrix(-1 0 0 1 28 0.932129)" fill="#416FE6"/>
<path d="M21.4187 14.9378C21.4187 14.4782 21.0475 14.107 20.5879 14.107L14.8309 14.1011L14.8309 8.33816C14.8309 7.87854 14.4596 7.50731 14 7.50731C13.5404 7.50731 13.1691 7.87854 13.1691 8.33816L13.1691 14.1011L7.40623 14.1011C6.94661 14.1011 6.57538 14.4723 6.57538 14.9319C6.57538 15.3916 6.94661 15.7628 7.40623 15.7628L13.1692 15.7628L13.1691 21.5257C13.1692 21.9853 13.5404 22.3566 14 22.3566C14.4596 22.3566 14.8308 21.9853 14.8309 21.5257L14.8308 15.7628L20.5938 15.7628C21.0416 15.7628 21.4187 15.3857 21.4187 14.9378Z" fill="white"/>
</svg>
