<svg width="23" height="22" viewBox="0 0 23 22" fill="none" xmlns="http://www.w3.org/2000/svg">
<path d="M11.4765 21.0016L1.74449 11.2168C-0.581496 8.87819 -0.581496 5.09053 1.74449 2.75194C4.0562 0.427692 7.8377 0.427692 10.1494 2.75194L11.4765 4.08623L12.8036 2.75194C15.1153 0.413345 18.8968 0.413345 21.2228 2.75194C23.5488 5.09053 23.5488 8.87819 21.2228 11.2168L11.4908 21.0016H11.4765ZM5.95409 2.07762C4.69834 2.07762 3.45687 2.55108 2.50079 3.51234C0.6029 5.42052 0.6029 8.53386 2.50079 10.4564L11.4765 19.4808L20.4522 10.4564C22.3501 8.54821 22.3501 5.43487 20.4522 3.52669C18.5543 1.61851 15.4578 1.61851 13.5456 3.52669L11.4622 5.62138L9.37885 3.52669C8.42277 2.56543 7.18129 2.09197 5.92555 2.09197L5.95409 2.07762Z" fill="#494949"/>
</svg>
