<svg width="24" height="21" viewBox="0 0 24 21" fill="none" xmlns="http://www.w3.org/2000/svg">
<path d="M8.40036 10.2299C8.25766 10.2299 8.10069 10.1725 8.0008 10.0577L0.737461 1.89419C0.594762 1.73637 0.566226 1.50681 0.651845 1.3203C0.737464 1.13379 0.922972 1.00466 1.13702 1.00466H23.1839C23.4265 1.00466 23.6405 1.17683 23.6976 1.40638C23.7547 1.65029 23.6548 1.89419 23.4408 2.00897L8.64295 10.1725C8.55733 10.2156 8.47171 10.2443 8.38609 10.2443L8.40036 10.2299ZM2.33569 2.06635L8.51452 9.0104L21.1005 2.06635H2.33569Z" fill="#494949"/>
<path d="M11.3399 20.7608C11.3399 20.7608 11.2829 20.7608 11.2686 20.7608C11.0546 20.7321 10.8833 20.5742 10.8262 20.3734L7.88665 9.82819C7.8153 9.58429 7.92946 9.32604 8.14351 9.21126L22.9271 1.06205C23.1411 0.947275 23.4122 0.990316 23.5692 1.16248C23.7404 1.33465 23.7547 1.60725 23.6263 1.82245L11.7823 20.5169C11.6824 20.6747 11.5112 20.7608 11.3257 20.7608H11.3399ZM9.02824 9.94297L11.5397 18.91L21.6285 2.99892L9.04251 9.94297H9.02824Z" fill="#494949"/>
</svg>
