<svg width="20" height="20" viewBox="0 0 20 20" fill="none" xmlns="http://www.w3.org/2000/svg">
<path d="M19.6037 10.3811C19.6037 12.1888 19.09 13.9392 18.1196 15.46L19.0472 18.5159C19.1042 18.7024 19.0472 18.9177 18.9187 19.0468C18.776 19.1902 18.5763 19.2333 18.3908 19.1759L15.3513 18.2433C13.8387 19.2189 12.0978 19.7354 10.2998 19.7354C5.14835 19.7354 0.967293 15.5317 0.967293 10.3524C0.967293 5.17303 5.11981 0.997993 10.2712 0.997993C15.4226 0.997993 19.6037 5.20172 19.6037 10.3811ZM16.9923 15.3739C16.9923 15.2735 17.0209 15.1587 17.0922 15.0726C18.034 13.6809 18.5334 12.0597 18.5334 10.3811C18.5334 5.80431 14.8233 2.07403 10.2712 2.07403C5.71914 2.07403 2.00899 5.80431 2.00899 10.3811C2.00899 14.9578 5.71914 18.6881 10.2712 18.6881C11.9408 18.6881 13.5533 18.1859 14.9375 17.239C15.0659 17.1529 15.2371 17.1243 15.3941 17.1673L17.7201 17.8847L17.0066 15.5461C17.0066 15.5461 16.978 15.4456 16.978 15.3882L16.9923 15.3739Z" fill="#494949"/>
</svg>
