<svg width="16" height="22" viewBox="0 0 16 22" fill="none" xmlns="http://www.w3.org/2000/svg">
<path d="M15.434 20.998C15.3324 20.998 15.2163 20.969 15.1292 20.9109L8.36575 16.3536L1.61684 20.9109C1.44268 21.027 1.23948 21.027 1.0508 20.9399C0.876639 20.8383 0.760529 20.6642 0.760529 20.461V1.54952C0.760529 1.24473 1.00726 0.997993 1.31205 0.997993H15.4485C15.7533 0.997993 16 1.24473 16 1.54952V20.461C16 20.6642 15.8839 20.8529 15.7097 20.9399C15.6226 20.9835 15.5356 20.998 15.4485 20.998H15.434ZM8.36575 15.1344C8.46735 15.1344 8.58346 15.1635 8.67054 15.2215L14.8824 19.416V2.08653H1.84906V19.4305L8.06096 15.236C8.14805 15.178 8.26416 15.1489 8.36575 15.1489V15.1344Z" fill="#494949"/>
</svg>
