<svg width="1317" height="362" viewBox="0 0 1317 362" fill="none" xmlns="http://www.w3.org/2000/svg">
<path d="M92 34.5C54.8 2.5 15.1667 21.1667 0 34.5V361.5H1315.5C1317.17 261.667 1315.5 34.5 1315.5 34.5C1310.5 7 1228 7.5 1218 34.5C1208 61.5 1117 81.5 1087.5 34.5C1058 -12.5 949 -9 926.5 34.5C904 78 831 78.5 797 34.5C763 -9.5 693.5 -6 661.5 34.5C629.5 75 554 65 534.5 34.5C515 4 449.5 -9 418.5 34.5C387.5 78 343.5 75.5 304.5 34.5C265.5 -6.5 222.5 8.5 198 34.5C173.5 60.5 138.5 74.5 92 34.5Z" fill="white"/>
</svg>
