<svg width="289" height="190" viewBox="0 0 289 190" fill="none" xmlns="http://www.w3.org/2000/svg">
<path d="M78.898 0.499999V-0.500001H78.1289L77.9315 0.243356L78.898 0.499999ZM90.058 0.499999L91.0188 0.777055L91.3871 -0.500001H90.058V0.499999ZM75.958 49.4V50.4H76.7104L76.9188 49.6771L75.958 49.4ZM64.918 49.4L63.9564 49.6747L64.1637 50.4H64.918V49.4ZM56.158 18.74L57.1195 18.4653L56.158 15.0999L55.1964 18.4653L56.158 18.74ZM47.398 49.4V50.4H48.1523L48.3595 49.6747L47.398 49.4ZM36.358 49.4L35.3971 49.6771L35.6056 50.4H36.358V49.4ZM22.258 0.499999V-0.500001H20.9289L21.2971 0.777055L22.258 0.499999ZM33.958 0.499999L34.9252 0.245952L34.7292 -0.500001H33.958V0.499999ZM42.358 32.48L41.3908 32.734L42.358 36.4163L43.3252 32.734L42.358 32.48ZM50.758 0.499999V-0.500001H49.9867L49.7908 0.245952L50.758 0.499999ZM62.098 0.499999L63.0654 0.246761L62.8699 -0.500001H62.098V0.499999ZM70.438 32.36L69.4706 32.6132L70.4311 36.2825L71.4045 32.6166L70.438 32.36ZM78.898 1.5H90.058V-0.500001H78.898V1.5ZM89.0971 0.222943L74.9971 49.1229L76.9188 49.6771L91.0188 0.777055L89.0971 0.222943ZM75.958 48.4H64.918V50.4H75.958V48.4ZM65.8795 49.1253L57.1195 18.4653L55.1964 19.0147L63.9564 49.6747L65.8795 49.1253ZM55.1964 18.4653L46.4364 49.1253L48.3595 49.6747L57.1195 19.0147L55.1964 18.4653ZM47.398 48.4H36.358V50.4H47.398V48.4ZM37.3188 49.1229L23.2188 0.222943L21.2971 0.777055L35.3971 49.6771L37.3188 49.1229ZM22.258 1.5H33.958V-0.500001H22.258V1.5ZM32.9908 0.754045L41.3908 32.734L43.3252 32.226L34.9252 0.245952L32.9908 0.754045ZM43.3252 32.734L51.7252 0.754045L49.7908 0.245952L41.3908 32.226L43.3252 32.734ZM50.758 1.5H62.098V-0.500001H50.758V1.5ZM61.1306 0.753236L69.4706 32.6132L71.4054 32.1068L63.0654 0.246761L61.1306 0.753236ZM71.4045 32.6166L79.8645 0.756642L77.9315 0.243356L69.4715 32.1034L71.4045 32.6166ZM122.028 49.4L121.087 49.7394L121.325 50.4H122.028V49.4ZM118.608 39.92L119.548 39.5806L119.31 38.92H118.608V39.92ZM99.6477 39.92V38.92H98.9453L98.707 39.5806L99.6477 39.92ZM96.2277 49.4V50.4H96.93L97.1683 49.7394L96.2277 49.4ZM84.9477 49.4L84.0153 49.0385L83.4874 50.4H84.9477V49.4ZM103.908 0.499999V-0.500001H103.223L102.975 0.138491L103.908 0.499999ZM115.248 0.499999L116.18 0.138491L115.932 -0.500001H115.248V0.499999ZM134.208 49.4V50.4H135.668L135.14 49.0385L134.208 49.4ZM103.008 30.44L102.067 30.102L101.586 31.44H103.008V30.44ZM115.248 30.44V31.44H116.669L116.189 30.102L115.248 30.44ZM109.128 13.4L110.069 13.062L109.128 10.4416L108.187 13.062L109.128 13.4ZM122.968 49.0606L119.548 39.5806L117.667 40.2594L121.087 49.7394L122.968 49.0606ZM118.608 38.92H99.6477V40.92H118.608V38.92ZM98.707 39.5806L95.287 49.0606L97.1683 49.7394L100.588 40.2594L98.707 39.5806ZM96.2277 48.4H84.9477V50.4H96.2277V48.4ZM85.88 49.7615L104.84 0.861506L102.975 0.138491L84.0153 49.0385L85.88 49.7615ZM103.908 1.5H115.248V-0.500001H103.908V1.5ZM114.315 0.861506L133.275 49.7615L135.14 49.0385L116.18 0.138491L114.315 0.861506ZM134.208 48.4H122.028V50.4H134.208V48.4ZM103.008 31.44H115.248V29.44H103.008V31.44ZM116.189 30.102L110.069 13.062L108.187 13.738L114.307 30.778L116.189 30.102ZM108.187 13.062L102.067 30.102L103.949 30.778L110.069 13.738L108.187 13.062ZM171.987 0.499999H172.987V-0.500001H171.987V0.499999ZM171.987 10.16V11.16H172.987V10.16H171.987ZM156.087 10.16V9.16H155.087V10.16H156.087ZM156.087 49.4V50.4H157.087V49.4H156.087ZM145.167 49.4H144.167V50.4H145.167V49.4ZM145.167 10.16H146.167V9.16H145.167V10.16ZM129.267 10.16H128.267V11.16H129.267V10.16ZM129.267 0.499999V-0.500001H128.267V0.499999H129.267ZM170.987 0.499999V10.16H172.987V0.499999H170.987ZM171.987 9.16H156.087V11.16H171.987V9.16ZM155.087 10.16V49.4H157.087V10.16H155.087ZM156.087 48.4H145.167V50.4H156.087V48.4ZM146.167 49.4V10.16H144.167V49.4H146.167ZM145.167 9.16H129.267V11.16H145.167V9.16ZM130.267 10.16V0.499999H128.267V10.16H130.267ZM129.267 1.5H171.987V-0.500001H129.267V1.5ZM177.847 49.4H176.847V50.4H177.847V49.4ZM177.847 0.499999V-0.500001H176.847V0.499999H177.847ZM214.207 0.499999H215.207V-0.500001H214.207V0.499999ZM214.207 9.98V10.98H215.207V9.98H214.207ZM188.767 9.98V8.98H187.767V9.98H188.767ZM188.767 19.94H187.767V20.94H188.767V19.94ZM212.107 19.94H213.107V18.94H212.107V19.94ZM212.107 29.42V30.42H213.107V29.42H212.107ZM188.767 29.42V28.42H187.767V29.42H188.767ZM188.767 39.92H187.767V40.92H188.767V39.92ZM214.747 39.92H215.747V38.92H214.747V39.92ZM214.747 49.4V50.4H215.747V49.4H214.747ZM178.847 49.4V0.499999H176.847V49.4H178.847ZM177.847 1.5H214.207V-0.500001H177.847V1.5ZM213.207 0.499999V9.98H215.207V0.499999H213.207ZM214.207 8.98H188.767V10.98H214.207V8.98ZM187.767 9.98V19.94H189.767V9.98H187.767ZM188.767 20.94H212.107V18.94H188.767V20.94ZM211.107 19.94V29.42H213.107V19.94H211.107ZM212.107 28.42H188.767V30.42H212.107V28.42ZM187.767 29.42V39.92H189.767V29.42H187.767ZM188.767 40.92H214.747V38.92H188.767V40.92ZM213.747 39.92V49.4H215.747V39.92H213.747ZM214.747 48.4H177.847V50.4H214.747V48.4ZM263.846 49.4V50.4H265.681L264.686 48.8579L263.846 49.4ZM251.186 49.4L250.334 49.9237L250.627 50.4H251.186V49.4ZM241.706 33.98L242.558 33.4563L242.265 32.98H241.706V33.98ZM233.006 33.98V32.98H232.006V33.98H233.006ZM233.006 49.4V50.4H234.006V49.4H233.006ZM222.086 49.4H221.086V50.4H222.086V49.4ZM222.086 0.499999V-0.500001H221.086V0.499999H222.086ZM252.506 31.82L252.081 30.9145L251.045 31.4003L251.665 32.3621L252.506 31.82ZM233.006 10.16V9.16H232.006V10.16H233.006ZM233.006 24.32H232.006V25.32H233.006V24.32ZM263.846 48.4H251.186V50.4H263.846V48.4ZM252.038 48.8763L242.558 33.4563L240.854 34.5037L250.334 49.9237L252.038 48.8763ZM241.706 32.98H233.006V34.98H241.706V32.98ZM232.006 33.98V49.4H234.006V33.98H232.006ZM233.006 48.4H222.086V50.4H233.006V48.4ZM223.086 49.4V0.499999H221.086V49.4H223.086ZM222.086 1.5H241.766V-0.500001H222.086V1.5ZM241.766 1.5C247.806 1.5 252.47 3.10438 255.608 5.8233C258.73 8.52824 260.446 12.4237 260.446 17.24H262.446C262.446 11.9163 260.531 7.44176 256.918 4.3117C253.321 1.19562 248.145 -0.500001 241.766 -0.500001V1.5ZM260.446 17.24C260.446 23.597 257.468 28.3895 252.081 30.9145L252.93 32.7255C259.063 29.8505 262.446 24.323 262.446 17.24H260.446ZM251.665 32.3621L263.005 49.9421L264.686 48.8579L253.346 31.2779L251.665 32.3621ZM232.006 10.16V24.32H234.006V10.16H232.006ZM233.006 25.32H241.286V23.32H233.006V25.32ZM241.286 25.32C244.288 25.32 246.84 24.6817 248.666 23.3125C250.533 21.9119 251.526 19.8313 251.526 17.24H249.526C249.526 19.2687 248.778 20.7281 247.466 21.7125C246.111 22.7283 244.043 23.32 241.286 23.32V25.32ZM251.526 17.24C251.526 14.6487 250.533 12.5681 248.666 11.1675C246.84 9.79827 244.288 9.16 241.286 9.16V11.16C244.043 11.16 246.111 11.7517 247.466 12.7675C248.778 13.7519 249.526 15.2113 249.526 17.24H251.526ZM241.286 9.16H233.006V11.16H241.286V9.16ZM0.747735 70.5V69.5H-0.252265V70.5H0.747735ZM11.6677 70.5H12.6677V69.5H11.6677V70.5ZM11.6677 109.74H10.6677V110.74H11.6677V109.74ZM36.0877 109.74H37.0877V108.74H36.0877V109.74ZM36.0877 119.4V120.4H37.0877V119.4H36.0877ZM0.747735 119.4H-0.252265V120.4H0.747735V119.4ZM0.747735 71.5H11.6677V69.5H0.747735V71.5ZM10.6677 70.5V109.74H12.6677V70.5H10.6677ZM11.6677 110.74H36.0877V108.74H11.6677V110.74ZM35.0877 109.74V119.4H37.0877V109.74H35.0877ZM36.0877 118.4H0.747735V120.4H36.0877V118.4ZM1.74773 119.4V70.5H-0.252265V119.4H1.74773ZM41.5876 119.4H40.5876V120.4H41.5876V119.4ZM41.5876 70.5V69.5H40.5876V70.5H41.5876ZM77.9476 70.5H78.9476V69.5H77.9476V70.5ZM77.9476 79.98V80.98H78.9476V79.98H77.9476ZM52.5076 79.98V78.98H51.5076V79.98H52.5076ZM52.5076 89.94H51.5076V90.94H52.5076V89.94ZM75.8476 89.94H76.8476V88.94H75.8476V89.94ZM75.8476 99.42V100.42H76.8476V99.42H75.8476ZM52.5076 99.42V98.42H51.5076V99.42H52.5076ZM52.5076 109.92H51.5076V110.92H52.5076V109.92ZM78.4876 109.92H79.4876V108.92H78.4876V109.92ZM78.4876 119.4V120.4H79.4876V119.4H78.4876ZM42.5876 119.4V70.5H40.5876V119.4H42.5876ZM41.5876 71.5H77.9476V69.5H41.5876V71.5ZM76.9476 70.5V79.98H78.9476V70.5H76.9476ZM77.9476 78.98H52.5076V80.98H77.9476V78.98ZM51.5076 79.98V89.94H53.5076V79.98H51.5076ZM52.5076 90.94H75.8476V88.94H52.5076V90.94ZM74.8476 89.94V99.42H76.8476V89.94H74.8476ZM75.8476 98.42H52.5076V100.42H75.8476V98.42ZM51.5076 99.42V109.92H53.5076V99.42H51.5076ZM52.5076 110.92H78.4876V108.92H52.5076V110.92ZM77.4876 109.92V119.4H79.4876V109.92H77.4876ZM78.4876 118.4H41.5876V120.4H78.4876V118.4ZM85.8259 70.5V69.5H84.8259V70.5H85.8259ZM96.7459 70.5H97.7459V69.5H96.7459V70.5ZM96.7459 119.4V120.4H97.7459V119.4H96.7459ZM85.8259 119.4H84.8259V120.4H85.8259V119.4ZM85.8259 71.5H96.7459V69.5H85.8259V71.5ZM95.7459 70.5V119.4H97.7459V70.5H95.7459ZM96.7459 118.4H85.8259V120.4H96.7459V118.4ZM86.8259 119.4V70.5H84.8259V119.4H86.8259ZM144.036 85.26V86.26H145.096L145.034 85.202L144.036 85.26ZM132.756 85.26L131.768 85.4131L131.899 86.26H132.756V85.26ZM129.096 90.3L128.893 91.2791L128.893 91.2792L129.096 90.3ZM103.116 103.62V102.62H102.069L102.117 103.666L103.116 103.62ZM114.336 103.62L115.328 103.493L115.216 102.62H114.336V103.62ZM120.996 98.94L120.813 99.9231L120.813 99.9231L120.996 98.94ZM124.416 70.3C134.945 70.3 142.536 76.6752 143.038 85.318L145.034 85.202C144.456 75.2448 135.727 68.3 124.416 68.3V70.3ZM144.036 84.26H132.756V86.26H144.036V84.26ZM133.744 85.1069C133.38 82.7557 132.304 80.8032 130.546 79.45C128.799 78.1054 126.467 77.42 123.696 77.42V79.42C126.146 79.42 128.013 80.0246 129.326 81.035C130.628 82.0368 131.472 83.5043 131.768 85.4131L133.744 85.1069ZM123.696 77.42C121.031 77.42 118.837 77.9503 117.277 78.9704C115.679 80.0146 114.776 81.5607 114.776 83.4H116.776C116.776 82.2993 117.283 81.3554 118.371 80.6445C119.495 79.9097 121.261 79.42 123.696 79.42V77.42ZM114.776 83.4C114.776 84.5039 115.067 85.4884 115.719 86.3481C116.355 87.1859 117.28 87.8346 118.428 88.3825C120.695 89.4642 124.15 90.2947 128.893 91.2791L129.299 89.3209C124.503 88.3253 121.298 87.5358 119.289 86.5775C118.3 86.1054 117.684 85.6291 117.313 85.1394C116.958 84.6716 116.776 84.1261 116.776 83.4H114.776ZM128.893 91.2792C134.412 92.4241 137.968 94.3334 140.147 96.7258C142.309 99.1004 143.216 102.063 143.216 105.54H145.216C145.216 101.697 144.203 98.2096 141.626 95.3792C139.064 92.5666 135.06 90.5159 129.299 89.3208L128.893 91.2792ZM143.216 105.54C143.216 109.866 141.193 113.343 137.853 115.771C134.49 118.216 129.775 119.6 124.476 119.6V121.6C130.098 121.6 135.252 120.134 139.029 117.389C142.829 114.627 145.216 110.574 145.216 105.54H143.216ZM124.476 119.6C118.62 119.6 113.63 118.012 110.068 115.236C106.524 112.474 104.342 108.499 104.115 103.574L102.117 103.666C102.371 109.181 104.839 113.696 108.839 116.814C112.822 119.918 118.273 121.6 124.476 121.6V119.6ZM103.116 104.62H114.336V102.62H103.116V104.62ZM113.344 103.747C113.68 106.362 114.997 108.558 117.093 110.083C119.175 111.6 121.975 112.42 125.256 112.42V110.42C122.297 110.42 119.937 109.68 118.27 108.467C116.616 107.262 115.593 105.558 115.328 103.493L113.344 103.747ZM125.256 112.42C127.631 112.42 129.777 111.828 131.359 110.735C132.957 109.632 133.996 107.998 133.996 106.02H131.996C131.996 107.222 131.385 108.288 130.223 109.09C129.046 109.902 127.321 110.42 125.256 110.42V112.42ZM133.996 106.02C133.996 104.898 133.757 103.878 133.195 102.97C132.638 102.069 131.809 101.352 130.75 100.754C128.675 99.5824 125.52 98.7652 121.179 97.9569L120.813 99.9231C125.172 100.735 128.017 101.508 129.767 102.496C130.621 102.978 131.161 103.484 131.494 104.022C131.823 104.554 131.996 105.192 131.996 106.02H133.996ZM121.179 97.9569C115.943 96.9807 112.06 95.4369 109.493 93.1266C106.969 90.8565 105.616 87.7551 105.616 83.4H103.616C103.616 88.2249 105.143 91.9035 108.155 94.6134C111.122 97.2831 115.429 98.9193 120.813 99.9231L121.179 97.9569ZM105.616 83.4C105.616 79.3694 107.6 76.135 110.938 73.87C114.301 71.5875 119.041 70.3 124.416 70.3V68.3C118.752 68.3 113.591 69.6525 109.815 72.215C106.013 74.795 103.616 78.6106 103.616 83.4H105.616ZM150.031 70.5V69.5H149.031V70.5H150.031ZM160.951 70.5H161.951V69.5H160.951V70.5ZM183.871 70.5V69.5H182.871V70.5H183.871ZM194.791 70.5H195.791V69.5H194.791V70.5ZM151.031 97.74V70.5H149.031V97.74H151.031ZM150.031 71.5H160.951V69.5H150.031V71.5ZM159.951 70.5V97.74H161.951V70.5H159.951ZM159.951 97.74C159.951 101.818 161.08 105.325 163.247 107.829C165.428 110.35 168.579 111.76 172.411 111.76V109.76C169.102 109.76 166.524 108.56 164.759 106.521C162.981 104.465 161.951 101.462 161.951 97.74H159.951ZM172.411 111.76C176.242 111.76 179.394 110.35 181.574 107.829C183.741 105.325 184.871 101.818 184.871 97.74H182.871C182.871 101.462 181.84 104.465 180.062 106.521C178.298 108.56 175.719 109.76 172.411 109.76V111.76ZM184.871 97.74V70.5H182.871V97.74H184.871ZM183.871 71.5H194.791V69.5H183.871V71.5ZM193.791 70.5V97.74H195.791V70.5H193.791ZM193.791 97.74C193.791 104.452 191.63 109.9 187.927 113.666C184.226 117.431 178.902 119.6 172.411 119.6V121.6C179.36 121.6 185.225 119.269 189.354 115.069C193.481 110.87 195.791 104.888 195.791 97.74H193.791ZM172.411 119.6C165.92 119.6 160.595 117.431 156.894 113.666C153.191 109.9 151.031 104.452 151.031 97.74H149.031C149.031 104.888 151.34 110.87 155.467 115.069C159.596 119.269 165.462 121.6 172.411 121.6V119.6ZM202.838 119.4H201.838V120.4H202.838V119.4ZM202.838 70.5V69.5H201.838V70.5H202.838ZM239.198 70.5H240.198V69.5H239.198V70.5ZM239.198 79.98V80.98H240.198V79.98H239.198ZM213.758 79.98V78.98H212.758V79.98H213.758ZM213.758 89.94H212.758V90.94H213.758V89.94ZM237.098 89.94H238.098V88.94H237.098V89.94ZM237.098 99.42V100.42H238.098V99.42H237.098ZM213.758 99.42V98.42H212.758V99.42H213.758ZM213.758 109.92H212.758V110.92H213.758V109.92ZM239.738 109.92H240.738V108.92H239.738V109.92ZM239.738 119.4V120.4H240.738V119.4H239.738ZM203.838 119.4V70.5H201.838V119.4H203.838ZM202.838 71.5H239.198V69.5H202.838V71.5ZM238.198 70.5V79.98H240.198V70.5H238.198ZM239.198 78.98H213.758V80.98H239.198V78.98ZM212.758 79.98V89.94H214.758V79.98H212.758ZM213.758 90.94H237.098V88.94H213.758V90.94ZM236.098 89.94V99.42H238.098V89.94H236.098ZM237.098 98.42H213.758V100.42H237.098V98.42ZM212.758 99.42V109.92H214.758V99.42H212.758ZM213.758 110.92H239.738V108.92H213.758V110.92ZM238.738 109.92V119.4H240.738V109.92H238.738ZM239.738 118.4H202.838V120.4H239.738V118.4ZM288.836 119.4V120.4H290.671L289.676 118.858L288.836 119.4ZM276.176 119.4L275.324 119.924L275.617 120.4H276.176V119.4ZM266.696 103.98L267.548 103.456L267.255 102.98H266.696V103.98ZM257.996 103.98V102.98H256.996V103.98H257.996ZM257.996 119.4V120.4H258.996V119.4H257.996ZM247.076 119.4H246.076V120.4H247.076V119.4ZM247.076 70.5V69.5H246.076V70.5H247.076ZM277.496 101.82L277.071 100.915L276.035 101.4L276.656 102.362L277.496 101.82ZM257.996 80.16V79.16H256.996V80.16H257.996ZM257.996 94.32H256.996V95.32H257.996V94.32ZM288.836 118.4H276.176V120.4H288.836V118.4ZM277.028 118.876L267.548 103.456L265.844 104.504L275.324 119.924L277.028 118.876ZM266.696 102.98H257.996V104.98H266.696V102.98ZM256.996 103.98V119.4H258.996V103.98H256.996ZM257.996 118.4H247.076V120.4H257.996V118.4ZM248.076 119.4V70.5H246.076V119.4H248.076ZM247.076 71.5H266.756V69.5H247.076V71.5ZM266.756 71.5C272.797 71.5 277.46 73.1044 280.599 75.8233C283.721 78.5282 285.436 82.4237 285.436 87.24H287.436C287.436 81.9163 285.521 77.4418 281.908 74.3117C278.311 71.1956 273.135 69.5 266.756 69.5V71.5ZM285.436 87.24C285.436 93.597 282.458 98.3895 277.071 100.915L277.92 102.725C284.054 99.8505 287.436 94.323 287.436 87.24H285.436ZM276.656 102.362L287.996 119.942L289.676 118.858L278.336 101.278L276.656 102.362ZM256.996 80.16V94.32H258.996V80.16H256.996ZM257.996 95.32H266.276V93.32H257.996V95.32ZM266.276 95.32C269.278 95.32 271.83 94.6817 273.656 93.3125C275.523 91.9119 276.516 89.8313 276.516 87.24H274.516C274.516 89.2687 273.768 90.7281 272.456 91.7125C271.102 92.7283 269.034 93.32 266.276 93.32V95.32ZM276.516 87.24C276.516 84.6487 275.523 82.5681 273.656 81.1675C271.83 79.7983 269.278 79.16 266.276 79.16V81.16C269.034 81.16 271.102 81.7517 272.456 82.7675C273.768 83.7519 274.516 85.2113 274.516 87.24H276.516ZM266.276 79.16H257.996V81.16H266.276V79.16ZM54.0095 189.4H53.0095V190.4H54.0095V189.4ZM54.0095 140.5V139.5H53.0095V140.5H54.0095ZM64.9295 176.38V175.38H63.9295V176.38H64.9295ZM64.9295 189.4V190.4H65.9295V189.4H64.9295ZM64.9295 166.72H63.9295V167.72H64.9295V166.72ZM64.9295 150.16V149.16H63.9295V150.16H64.9295ZM55.0095 189.4V140.5H53.0095V189.4H55.0095ZM54.0095 141.5H72.7895V139.5H54.0095V141.5ZM72.7895 141.5C78.9688 141.5 83.747 143.218 86.9687 146.132C90.1796 149.035 91.9495 153.22 91.9495 158.38H93.9495C93.9495 152.74 91.9993 147.985 88.3102 144.648C84.6319 141.322 79.3301 139.5 72.7895 139.5V141.5ZM91.9495 158.38C91.9495 163.603 90.1775 167.818 86.9669 170.735C83.7458 173.662 78.9688 175.38 72.7895 175.38V177.38C79.3301 177.38 84.6331 175.558 88.312 172.215C92.0014 168.862 93.9495 164.077 93.9495 158.38H91.9495ZM72.7895 175.38H64.9295V177.38H72.7895V175.38ZM63.9295 176.38V189.4H65.9295V176.38H63.9295ZM64.9295 188.4H54.0095V190.4H64.9295V188.4ZM64.9295 167.72H72.3095V165.72H64.9295V167.72ZM72.3095 167.72C75.4824 167.72 78.1721 166.967 80.0845 165.364C82.0239 163.737 83.0295 161.349 83.0295 158.38H81.0295C81.0295 160.871 80.205 162.653 78.7994 163.831C77.3668 165.033 75.1965 165.72 72.3095 165.72V167.72ZM83.0295 158.38C83.0295 155.437 82.0208 153.076 80.0784 151.474C78.1657 149.896 75.4779 149.16 72.3095 149.16V151.16C75.201 151.16 77.3732 151.834 78.8055 153.016C80.2081 154.174 81.0295 155.923 81.0295 158.38H83.0295ZM72.3095 149.16H64.9295V151.16H72.3095V149.16ZM63.9295 150.16V166.72H65.9295V150.16H63.9295ZM127.155 189.4L126.214 189.739L126.452 190.4H127.155V189.4ZM123.735 179.92L124.675 179.581L124.437 178.92H123.735V179.92ZM104.775 179.92V178.92H104.072L103.834 179.581L104.775 179.92ZM101.355 189.4V190.4H102.057L102.295 189.739L101.355 189.4ZM90.0746 189.4L89.1422 189.038L88.6143 190.4H90.0746V189.4ZM109.035 140.5V139.5H108.35L108.102 140.138L109.035 140.5ZM120.375 140.5L121.307 140.138L121.059 139.5H120.375V140.5ZM139.335 189.4V190.4H140.795L140.267 189.038L139.335 189.4ZM108.135 170.44L107.193 170.102L106.713 171.44H108.135V170.44ZM120.375 170.44V171.44H121.796L121.316 170.102L120.375 170.44ZM114.255 153.4L115.196 153.062L114.255 150.442L113.313 153.062L114.255 153.4ZM128.095 189.061L124.675 179.581L122.794 180.259L126.214 189.739L128.095 189.061ZM123.735 178.92H104.775V180.92H123.735V178.92ZM103.834 179.581L100.414 189.061L102.295 189.739L105.715 180.259L103.834 179.581ZM101.355 188.4H90.0746V190.4H101.355V188.4ZM91.007 189.762L109.967 140.862L108.102 140.138L89.1422 189.038L91.007 189.762ZM109.035 141.5H120.375V139.5H109.035V141.5ZM119.442 140.862L138.402 189.762L140.267 189.038L121.307 140.138L119.442 140.862ZM139.335 188.4H127.155V190.4H139.335V188.4ZM108.135 171.44H120.375V169.44H108.135V171.44ZM121.316 170.102L115.196 153.062L113.313 153.738L119.433 170.778L121.316 170.102ZM113.313 153.062L107.193 170.102L109.076 170.778L115.196 153.738L113.313 153.062ZM186.004 189.4V190.4H187.839L186.844 188.858L186.004 189.4ZM173.344 189.4L172.492 189.924L172.785 190.4H173.344V189.4ZM163.864 173.98L164.716 173.456L164.423 172.98H163.864V173.98ZM155.164 173.98V172.98H154.164V173.98H155.164ZM155.164 189.4V190.4H156.164V189.4H155.164ZM144.244 189.4H143.244V190.4H144.244V189.4ZM144.244 140.5V139.5H143.244V140.5H144.244ZM174.664 171.82L174.239 170.915L173.203 171.4L173.823 172.362L174.664 171.82ZM155.164 150.16V149.16H154.164V150.16H155.164ZM155.164 164.32H154.164V165.32H155.164V164.32ZM186.004 188.4H173.344V190.4H186.004V188.4ZM174.196 188.876L164.716 173.456L163.012 174.504L172.492 189.924L174.196 188.876ZM163.864 172.98H155.164V174.98H163.864V172.98ZM154.164 173.98V189.4H156.164V173.98H154.164ZM155.164 188.4H144.244V190.4H155.164V188.4ZM145.244 189.4V140.5H143.244V189.4H145.244ZM144.244 141.5H163.924V139.5H144.244V141.5ZM163.924 141.5C169.964 141.5 174.628 143.104 177.767 145.823C180.889 148.528 182.604 152.424 182.604 157.24H184.604C184.604 151.916 182.689 147.442 179.076 144.312C175.479 141.196 170.303 139.5 163.924 139.5V141.5ZM182.604 157.24C182.604 163.597 179.626 168.39 174.239 170.915L175.088 172.725C181.222 169.85 184.604 164.323 184.604 157.24H182.604ZM173.823 172.362L185.163 189.942L186.844 188.858L175.504 171.278L173.823 172.362ZM154.164 150.16V164.32H156.164V150.16H154.164ZM155.164 165.32H163.444V163.32H155.164V165.32ZM163.444 165.32C166.446 165.32 168.998 164.682 170.824 163.312C172.691 161.912 173.684 159.831 173.684 157.24H171.684C171.684 159.269 170.936 160.728 169.624 161.712C168.269 162.728 166.201 163.32 163.444 163.32V165.32ZM173.684 157.24C173.684 154.649 172.691 152.568 170.824 151.167C168.998 149.798 166.446 149.16 163.444 149.16V151.16C166.201 151.16 168.269 151.752 169.624 152.767C170.936 153.752 171.684 155.211 171.684 157.24H173.684ZM163.444 149.16H155.164V151.16H163.444V149.16ZM222.32 189.4L221.514 189.991L221.813 190.4H222.32V189.4ZM208.64 170.74L209.447 170.149L208.706 169.138L207.885 170.085L208.64 170.74ZM201.98 178.42L201.225 177.765L200.98 178.047V178.42H201.98ZM201.98 189.4V190.4H202.98V189.4H201.98ZM191.06 189.4H190.06V190.4H191.06V189.4ZM191.06 140.5V139.5H190.06V140.5H191.06ZM201.98 140.5H202.98V139.5H201.98V140.5ZM201.98 163.54H200.98V166.263L202.743 164.187L201.98 163.54ZM221.54 140.5V139.5H221.077L220.778 139.853L221.54 140.5ZM234.92 140.5L235.676 141.155L237.111 139.5H234.92V140.5ZM215.72 162.64L214.965 161.985L214.434 162.597L214.922 163.243L215.72 162.64ZM235.94 189.4V190.4H237.949L236.738 188.797L235.94 189.4ZM223.127 188.809L209.447 170.149L207.834 171.331L221.514 189.991L223.127 188.809ZM207.885 170.085L201.225 177.765L202.736 179.075L209.396 171.395L207.885 170.085ZM200.98 178.42V189.4H202.98V178.42H200.98ZM201.98 188.4H191.06V190.4H201.98V188.4ZM192.06 189.4V140.5H190.06V189.4H192.06ZM191.06 141.5H201.98V139.5H191.06V141.5ZM200.98 140.5V163.54H202.98V140.5H200.98ZM202.743 164.187L222.303 141.147L220.778 139.853L201.218 162.893L202.743 164.187ZM221.54 141.5H234.92V139.5H221.54V141.5ZM234.165 139.845L214.965 161.985L216.476 163.295L235.676 141.155L234.165 139.845ZM214.922 163.243L235.142 190.003L236.738 188.797L216.518 162.037L214.922 163.243ZM235.94 188.4H222.32V190.4H235.94V188.4Z" fill="white"/>
</svg>
