<svg width="279" height="111" viewBox="0 0 279 111" fill="none" xmlns="http://www.w3.org/2000/svg">
<path d="M64.8125 43.75C64.6458 44.75 64.2292 45.625 63.5625 46.375C62.8958 47.125 62.125 47.7292 61.25 48.1875H61.1875C60.1875 48.7708 59.1667 49.3542 58.125 49.9375C57.125 50.5208 56.0833 51.0417 55 51.5C53.7917 52 52.6667 52.5417 51.625 53.125C50.5833 53.7083 49.5208 54.3542 48.4375 55.0625L48.25 55.1875L48.875 55.6875C48.625 56.0208 48.2292 56.2917 47.6875 56.5C47.1458 56.6667 46.6042 56.875 46.0625 57.125C45.5625 57.3333 45.1458 57.625 44.8125 58C44.5208 58.375 44.4792 58.8958 44.6875 59.5625C42.4375 61.1875 39.9583 62.1875 37.25 62.5625C34.5833 62.9375 31.8958 62.9375 29.1875 62.5625C28.0208 62.3958 26.75 62.1458 25.375 61.8125C24.0417 61.4792 22.6875 61.0833 21.3125 60.625C19.9375 60.2083 18.6042 59.7292 17.3125 59.1875C16.0208 58.6458 14.8542 58.0833 13.8125 57.5C13.6042 57.375 13.3958 57.2292 13.1875 57.0625C12.9792 56.8542 12.7708 56.6875 12.5625 56.5625L9 54L8.875 54.0625C8.125 54.4375 7.54167 54.9375 7.125 55.5625C6.70833 56.1458 6.375 56.7708 6.125 57.4375C5.83333 58.1042 5.5625 58.7708 5.3125 59.4375C5.0625 60.1042 4.77083 60.6667 4.4375 61.125C4.0625 61.5833 3.58333 61.8958 3 62.0625C2.41667 62.2708 1.64583 62.2292 0.6875 61.9375C0.5625 61.0208 0.5625 60.1042 0.6875 59.1875C0.8125 58.2292 0.9375 57.2917 1.0625 56.375C1.1875 55.4583 1.29167 54.5833 1.375 53.75C1.45833 52.9167 1.41667 52.1458 1.25 51.4375C2.04167 51.1042 2.52083 50.6667 2.6875 50.125C2.8125 49.5417 2.89583 48.9583 2.9375 48.375C2.9375 47.7917 3.04167 47.25 3.25 46.75C3.45833 46.25 4.02083 45.875 4.9375 45.625C4.9375 44.7083 5.08333 43.875 5.375 43.125C5.66667 42.375 5.97917 41.6458 6.3125 40.9375C6.64583 40.1875 6.9375 39.4375 7.1875 38.6875C7.47917 37.9375 7.60417 37.0833 7.5625 36.125C8.89583 34.2083 10.0833 32.2083 11.125 30.125C12.1667 28 13.1667 25.875 14.125 23.75C15.125 21.5 16.1667 19.2708 17.25 17.0625C18.3333 14.8125 19.5625 12.7292 20.9375 10.8125C22.3542 8.85417 23.9583 7.10417 25.75 5.5625C27.5833 3.97917 29.7292 2.70833 32.1875 1.75C32.4375 1.66667 32.7708 1.5625 33.1875 1.4375C33.6458 1.27083 34.125 1.125 34.625 1C35.125 0.875 35.5833 0.770833 36 0.6875C36.4583 0.5625 36.7917 0.5 37 0.5C37.2083 0.5 37.4583 0.541667 37.75 0.625C38.0833 0.666667 38.3542 0.708333 38.5625 0.75C39.2292 0.875 39.8958 1 40.5625 1.125C41.2292 1.20833 41.8542 1.375 42.4375 1.625C43.0625 1.83333 43.6042 2.14583 44.0625 2.5625C44.5625 2.97917 44.9583 3.54167 45.25 4.25V4.3125C45.3333 4.64583 45.4375 5.02083 45.5625 5.4375C45.7292 5.8125 45.875 6.16667 46 6.5C46.2917 7.45833 46.5833 8.58333 46.875 9.875C47.2083 11.1667 47.375 12.3333 47.375 13.375C47.375 16.0833 46.9583 18.7292 46.125 21.3125C45.2917 23.8958 44.2708 26.375 43.0625 28.75L43.125 28.8125C45.25 31.9375 47 35.25 48.375 38.75C49.7917 42.2083 50.5 45.8333 50.5 49.625C51.7083 49.4167 52.8542 49.0417 53.9375 48.5C55.0208 47.9583 56.1042 47.3958 57.1875 46.8125C58.3958 46.1875 59.625 45.6042 60.875 45.0625C62.1667 44.4792 63.4792 44.0417 64.8125 43.75ZM35.625 31.5625C35.5 31.2292 35.2917 31.0417 35 31C34.75 30.9167 34.4583 30.8958 34.125 30.9375C33.9583 30.9792 33.8125 31 33.6875 31C33.6042 30.9583 33.4792 30.9375 33.3125 30.9375C32.6042 30.8958 32 31.0208 31.5 31.3125C31 31.5625 30.5625 31.9167 30.1875 32.375C29.8125 32.8333 29.4792 33.3542 29.1875 33.9375C28.8958 34.4792 28.6042 35 28.3125 35.5L28.5625 35.8125C29.3958 35.6458 30.1875 35.3958 30.9375 35.0625C31.6875 34.7292 32.4375 34.3542 33.1875 33.9375C33.5625 33.7292 33.9583 33.5417 34.375 33.375C34.7917 33.2083 35.2083 33.0208 35.625 32.8125V31.5625ZM46.9375 49.375C46.6458 48 46.3542 46.5625 46.0625 45.0625C45.7708 43.5208 45.3958 42.0208 44.9375 40.5625C44.5208 39.1042 43.9583 37.7083 43.25 36.375C42.5833 35.0417 41.7292 33.8542 40.6875 32.8125C40.3958 33.4375 39.9583 34.0417 39.375 34.625C38.7917 35.2083 38.125 35.7708 37.375 36.3125C36.6667 36.8125 35.9375 37.2917 35.1875 37.75C34.4792 38.1667 33.8333 38.5208 33.25 38.8125C32.5833 38.7708 31.8333 38.875 31 39.125C30.1667 39.3333 29.3333 39.5208 28.5 39.6875C27.6667 39.8125 26.875 39.8333 26.125 39.75C25.4167 39.625 24.8542 39.1875 24.4375 38.4375V38.375C24.1875 38.2083 23.9167 38.0833 23.625 38C23.375 37.9167 23.1667 37.7292 23 37.4375C22.875 37.1458 22.8958 36.8125 23.0625 36.4375C23.2708 36.0625 23.4792 35.6458 23.6875 35.1875C23.9375 34.7292 24.125 34.25 24.25 33.75C24.375 33.25 24.2917 32.7292 24 32.1875C24.25 30.9792 24.75 30.1458 25.5 29.6875C26.25 29.1875 27.1042 28.8542 28.0625 28.6875C29.0625 28.4792 30.0625 28.3333 31.0625 28.25C32.1042 28.1667 33.0208 27.9167 33.8125 27.5C34.6042 27.8333 35.5208 28.0208 36.5625 28.0625C37.6042 28.0625 38.5208 27.8542 39.3125 27.4375L40.5 24.8125C41.125 23.5208 41.6667 22.3333 42.125 21.25C42.625 20.125 43 19.0208 43.25 17.9375C43.5417 16.8542 43.7083 15.7292 43.75 14.5625C43.8333 13.3542 43.7708 12 43.5625 10.5V10.375H43.5C42.9167 10.0833 42.6042 9.6875 42.5625 9.1875C42.5208 8.6875 42.5 8.14583 42.5 7.5625C42.1667 7.02083 41.75 6.4375 41.25 5.8125C40.75 5.1875 40.2083 4.75 39.625 4.5C39.125 4.29167 38.5417 4.14583 37.875 4.0625C37.2083 3.97917 36.5208 3.95833 35.8125 4C35.1458 4 34.4792 4.08333 33.8125 4.25C33.1875 4.41667 32.625 4.64583 32.125 4.9375L32 5.0625C31.6667 5.60417 31.3125 6.02083 30.9375 6.3125C30.5625 6.5625 30.1042 6.83333 29.5625 7.125C29.1875 7.33333 28.7708 7.5625 28.3125 7.8125C27.8958 8.02083 27.5 8.27083 27.125 8.5625C26.7917 8.8125 26.5 9.125 26.25 9.5C26 9.875 25.875 10.3333 25.875 10.875V13.1875C25.875 13.2292 25.8125 13.375 25.6875 13.625C25.6042 13.875 25.4792 14.1458 25.3125 14.4375C25.1875 14.7292 25.0625 15.0208 24.9375 15.3125C24.8125 15.5625 24.7292 15.7292 24.6875 15.8125C24.1042 17.0625 23.5 18.2917 22.875 19.5C22.25 20.7083 21.5 21.8542 20.625 22.9375V23C20.125 24.375 19.6042 25.75 19.0625 27.125C18.5625 28.5 18.0833 29.8958 17.625 31.3125C16.5833 34.3958 15.5 37.4583 14.375 40.5C13.25 43.5417 11.7708 46.4375 9.9375 49.1875C11.2708 50.0625 12.625 50.9792 14 51.9375C15.375 52.8542 16.8125 53.5833 18.3125 54.125C18.9792 54.3333 19.6458 54.5417 20.3125 54.75C20.9792 54.9583 21.6042 55.2292 22.1875 55.5625L22.25 55.625C22.9167 55.625 23.625 55.7292 24.375 55.9375C25.125 56.1042 25.875 56.2708 26.625 56.4375C27.375 56.5625 28.1042 56.6458 28.8125 56.6875C29.5625 56.6875 30.2292 56.5 30.8125 56.125C31.1458 56.25 31.4375 56.25 31.6875 56.125C31.9792 56 32.25 55.8958 32.5 55.8125C32.75 55.6875 32.9792 55.6458 33.1875 55.6875C33.4375 55.6875 33.6667 55.875 33.875 56.25C34.625 55.7083 35.3958 55.3542 36.1875 55.1875C37.0208 55.0208 37.875 54.8542 38.75 54.6875C39.2083 54.6042 39.6458 54.5208 40.0625 54.4375C40.5208 54.3125 40.9792 54.2083 41.4375 54.125H41.5L41.5625 54.0625C41.8958 53.6042 42.25 53.2917 42.625 53.125C43 52.9583 43.4167 52.7708 43.875 52.5625C44.2083 52.4375 44.5417 52.2917 44.875 52.125C45.25 51.9583 45.5625 51.7708 45.8125 51.5625C46.0625 51.3125 46.1875 51.0417 46.1875 50.75C46.2292 50.4167 46.1042 50.0208 45.8125 49.5625L46 49.5C46.2083 49.2917 46.3542 49.2083 46.4375 49.25C46.5625 49.25 46.7292 49.2917 46.9375 49.375ZM99.0125 40.375C99.1792 41 99.1167 41.5417 98.825 42C98.5333 42.4167 98.1375 42.7917 97.6375 43.125C97.1792 43.4583 96.6583 43.7708 96.075 44.0625C95.5333 44.3125 95.075 44.6042 94.7 44.9375C92.825 45.3542 91.1167 45.6667 89.575 45.875C88.075 46.0417 86.4083 46.2708 84.575 46.5625C84.0333 46.6458 83.5125 46.6458 83.0125 46.5625C82.5542 46.4375 82.075 46.3958 81.575 46.4375C81.2833 46.4375 81.0125 46.4375 80.7625 46.4375C80.5125 46.3958 80.2625 46.3958 80.0125 46.4375C79.0542 46.5208 78.4292 46.8542 78.1375 47.4375C77.8458 47.9792 77.5958 48.625 77.3875 49.375C77.2208 50.0833 76.9917 50.7708 76.7 51.4375C76.45 52.0625 75.8875 52.5 75.0125 52.75C74.9292 52.9583 74.95 53.1458 75.075 53.3125C75.2417 53.4792 75.3667 53.625 75.45 53.75C74.7417 53.9583 74.2625 54.3333 74.0125 54.875C73.8042 55.4167 73.6167 55.9583 73.45 56.5C73.2833 57.0417 73.0333 57.5 72.7 57.875C72.4083 58.25 71.825 58.375 70.95 58.25C69.6583 59.625 68.1375 60.7292 66.3875 61.5625C64.6375 62.4375 62.825 63 60.95 63.25C60.6167 63.0833 60.2833 62.875 59.95 62.625C59.6583 62.375 59.3458 62.1458 59.0125 61.9375C58.7208 61.7292 58.3875 61.5625 58.0125 61.4375C57.6792 61.3542 57.2833 61.3542 56.825 61.4375C56.7833 60.5625 56.6167 59.75 56.325 59C55.9917 58.25 55.575 57.5417 55.075 56.875C54.9917 56.125 55.0958 55.4375 55.3875 54.8125C55.6375 54.1458 55.9083 53.5 56.2 52.875C56.4917 52.25 56.7417 51.625 56.95 51C57.1167 50.3333 57.075 49.5833 56.825 48.75C57.2417 48.5 57.5125 48.2083 57.6375 47.875C57.8042 47.5417 57.9083 47.2083 57.95 46.875C58.0333 46.5 58.1375 46.1667 58.2625 45.875C58.3875 45.5417 58.6792 45.2708 59.1375 45.0625C58.8042 44.0625 58.8458 43.3333 59.2625 42.875C59.7208 42.375 60.2625 41.9375 60.8875 41.5625C61.5125 41.1875 62.0958 40.7708 62.6375 40.3125C63.1792 39.8542 63.3875 39.1667 63.2625 38.25C63.5125 38 63.8042 37.7917 64.1375 37.625C64.4708 37.4583 64.7833 37.3125 65.075 37.1875C65.4083 37.0208 65.7208 36.8542 66.0125 36.6875C66.3042 36.5208 66.575 36.2917 66.825 36C66.5333 35.7917 66.3875 35.5833 66.3875 35.375C66.4292 35.1667 66.4917 34.9583 66.575 34.75C66.6583 34.5 66.7417 34.25 66.825 34C66.95 33.75 66.95 33.5 66.825 33.25C67.95 33.4167 68.9292 33.2708 69.7625 32.8125C70.6375 32.3125 71.45 31.8125 72.2 31.3125C72.9917 30.8125 73.7833 30.4583 74.575 30.25C75.3667 30.0417 76.2833 30.2917 77.325 31C77.4083 31.2917 77.5333 31.7292 77.7 32.3125C77.9083 32.8542 78.0958 33.4167 78.2625 34C78.4708 34.5833 78.6583 35.1458 78.825 35.6875C78.9917 36.2292 79.0958 36.625 79.1375 36.875C79.1375 37.0833 79.1375 37.4167 79.1375 37.875C79.1375 38.3333 79.1375 38.8333 79.1375 39.375C79.1375 39.875 79.1375 40.3542 79.1375 40.8125C79.1375 41.2708 79.1375 41.625 79.1375 41.875C80.3458 42.5833 81.5542 43.0208 82.7625 43.1875C83.9708 43.3125 85.1792 43.0208 86.3875 42.3125C86.8458 42.7292 87.2833 42.8542 87.7 42.6875C88.1167 42.4792 88.5125 42.25 88.8875 42C89.3042 41.75 89.7208 41.625 90.1375 41.625C90.5542 41.5833 90.9708 41.9167 91.3875 42.625C91.9708 42.0833 92.575 41.75 93.2 41.625C93.825 41.4583 94.4708 41.375 95.1375 41.375C95.8042 41.3333 96.45 41.2708 97.075 41.1875C97.7417 41.1042 98.3875 40.8333 99.0125 40.375ZM75.0125 41.4375C75.0125 40.8125 75.1167 40.1458 75.325 39.4375C75.5333 38.7292 75.7 38.0417 75.825 37.375C75.95 36.6667 75.9292 36 75.7625 35.375C75.6375 34.75 75.2417 34.1875 74.575 33.6875C74.1167 33.9375 73.7417 34.2917 73.45 34.75C73.1583 35.1667 72.8667 35.6042 72.575 36.0625C72.2833 36.4792 71.9292 36.8333 71.5125 37.125C71.1375 37.4167 70.6375 37.5 70.0125 37.375C69.8042 37.875 69.8042 38.2917 70.0125 38.625C70.2208 38.9167 70.4708 39.2083 70.7625 39.5C71.0542 39.75 71.325 40.0208 71.575 40.3125C71.8667 40.6042 71.9708 40.9792 71.8875 41.4375C72.0542 41.5625 72.2833 41.6875 72.575 41.8125C72.8667 41.8958 73.1583 41.9583 73.45 42C73.7833 42 74.0958 41.9583 74.3875 41.875C74.6792 41.7917 74.8875 41.6458 75.0125 41.4375ZM74.575 46.4375C73.7417 46.4375 73.0125 46.25 72.3875 45.875C71.8042 45.4583 71.2 45 70.575 44.5C69.9917 44 69.3667 43.5417 68.7 43.125C68.075 42.6667 67.3042 42.3958 66.3875 42.3125C66.0125 42.8125 65.575 43.2917 65.075 43.75C64.575 44.1667 64.1375 44.625 63.7625 45.125C63.3875 45.625 63.1167 46.1667 62.95 46.75C62.825 47.3333 62.9292 48 63.2625 48.75C62.3042 49.2083 61.6583 49.875 61.325 50.75C60.9917 51.5833 60.7625 52.5 60.6375 53.5C60.5542 54.5 60.4708 55.5 60.3875 56.5C60.3042 57.5 60.0333 58.3958 59.575 59.1875L60.95 58.25C61.1167 58.3333 61.2417 58.4583 61.325 58.625C61.45 58.7917 61.4708 58.9792 61.3875 59.1875C61.7208 58.8542 62.0958 58.6042 62.5125 58.4375C62.9292 58.2292 63.3458 58.0833 63.7625 58C64.2208 57.875 64.6583 57.7708 65.075 57.6875C65.5333 57.6042 65.9708 57.4792 66.3875 57.3125C67.4292 57.8958 68.1792 58.0208 68.6375 57.6875C69.0958 57.3542 69.4708 56.8542 69.7625 56.1875C70.0542 55.5208 70.3667 54.8333 70.7 54.125C71.0333 53.375 71.575 52.9167 72.325 52.75L71.8875 52.3125C72.5958 51.4375 73.2208 50.5417 73.7625 49.625C74.3458 48.6667 74.6167 47.6042 74.575 46.4375ZM124.275 57.75C124.317 58.25 124.233 58.625 124.025 58.875C123.817 59.125 123.525 59.3125 123.15 59.4375C122.817 59.5625 122.442 59.6667 122.025 59.75C121.608 59.7917 121.254 59.8958 120.963 60.0625C119.754 59.9375 118.588 59.7708 117.463 59.5625C116.338 59.3125 115.296 58.9583 114.338 58.5C113.379 58 112.504 57.3542 111.713 56.5625C110.963 55.7708 110.317 54.7708 109.775 53.5625C110.317 52.6875 110.504 51.7292 110.338 50.6875C110.171 49.6042 110.004 48.5625 109.838 47.5625C109.713 46.5625 109.733 45.6458 109.9 44.8125C110.108 43.9792 110.838 43.3125 112.088 42.8125C112.004 42.3542 112.004 41.8542 112.088 41.3125C112.213 40.7708 112.067 40.3125 111.65 39.9375C110.192 40.4375 108.921 41.1458 107.838 42.0625C106.754 42.9792 105.713 43.9792 104.713 45.0625C103.754 46.1458 102.775 47.25 101.775 48.375C100.817 49.4583 99.7542 50.4167 98.5875 51.25C98.0458 51.2917 97.4625 51.2708 96.8375 51.1875C96.2542 51.0625 95.7542 51.2292 95.3375 51.6875C95.3792 51.9792 95.4833 52.2292 95.65 52.4375C95.8167 52.6458 95.9417 52.8542 96.025 53.0625C96.15 53.2708 96.2125 53.5 96.2125 53.75C96.2125 53.9583 96.0667 54.2083 95.775 54.5C95.3583 54.9167 94.9 55.2708 94.4 55.5625C93.9417 55.8125 93.4833 56.1042 93.025 56.4375C92.6083 56.7292 92.2542 57.0833 91.9625 57.5C91.6708 57.9167 91.525 58.4792 91.525 59.1875C91.275 59.0625 91.0458 59.0417 90.8375 59.125C90.6292 59.1667 90.4417 59.2708 90.275 59.4375C90.0667 59.6042 89.8792 59.7917 89.7125 60C89.5458 60.2083 89.3792 60.375 89.2125 60.5C89.1292 60.7083 89.15 60.875 89.275 61C89.4 61.1667 89.5458 61.3333 89.7125 61.5C89.5458 61.9583 89.3375 62.2292 89.0875 62.3125C88.7958 62.4375 88.5042 62.4583 88.2125 62.375C87.8792 62.2917 87.5667 62.1458 87.275 61.9375C86.9417 61.7708 86.65 61.625 86.4 61.5C86.275 60.9583 86.1917 60.3333 86.15 59.625C86.1083 58.9167 86.1292 58.2292 86.2125 57.5625C86.2958 56.8542 86.4625 56.1875 86.7125 55.5625C86.9625 54.9375 87.3375 54.4167 87.8375 54C88.0042 53.875 88.1083 53.8125 88.15 53.8125C88.1917 53.7708 88.2125 53.75 88.2125 53.75C88.2125 53.75 88.2333 53.75 88.275 53.75C88.3167 53.7083 88.4 53.625 88.525 53.5C88.8583 53.125 89.0875 52.7292 89.2125 52.3125C89.3375 51.8542 89.4417 51.3958 89.525 50.9375C89.6083 50.4792 89.7333 50.0417 89.9 49.625C90.025 49.1667 90.275 48.7708 90.65 48.4375C90.4833 47.7708 90.4833 47.1875 90.65 46.6875C90.8583 46.1458 91.1083 45.6458 91.4 45.1875C91.7333 44.6875 92.0458 44.2083 92.3375 43.75C92.6708 43.25 92.8792 42.7083 92.9625 42.125C93.0042 41.9167 93.0042 41.7292 92.9625 41.5625C92.9625 41.3542 92.9625 41.1458 92.9625 40.9375C92.8792 40.2708 92.9417 39.7708 93.15 39.4375C93.4 39.0625 93.6917 38.7708 94.025 38.5625C94.4 38.3125 94.775 38.0625 95.15 37.8125C95.5667 37.5625 95.9208 37.1875 96.2125 36.6875C97.4208 37.2708 98.1292 38.0625 98.3375 39.0625C98.5875 40.0208 98.6708 41.1042 98.5875 42.3125C97.8792 42.7708 97.3375 43.4167 96.9625 44.25C96.5875 45.0417 96.3375 45.8125 96.2125 46.5625C96.2958 46.8125 96.4 46.9583 96.525 47C96.6917 47 96.8583 46.9792 97.025 46.9375C97.2333 46.8542 97.4208 46.7708 97.5875 46.6875C97.7542 46.6042 97.9208 46.5625 98.0875 46.5625C99.5875 45.5208 101.067 44.3542 102.525 43.0625C104.025 41.7708 105.192 40.2917 106.025 38.625C107.233 38.0417 108.379 37.375 109.463 36.625C110.546 35.8333 111.733 35.25 113.025 34.875L114.463 33.4375C114.671 33.7708 114.921 33.8542 115.213 33.6875C115.504 33.4792 115.796 33.25 116.088 33C116.379 32.75 116.65 32.6042 116.9 32.5625C117.192 32.5208 117.463 32.8125 117.713 33.4375C118.129 34.5208 118.233 35.5833 118.025 36.625C117.817 37.625 117.483 38.625 117.025 39.625C116.608 40.5833 116.171 41.5625 115.713 42.5625C115.254 43.5625 114.983 44.5833 114.9 45.625C114.9 45.875 114.9 46.1458 114.9 46.4375C114.9 46.6875 114.879 46.9583 114.838 47.25C114.754 48.125 114.629 49.0833 114.463 50.125C114.338 51.125 114.4 52.0417 114.65 52.875C114.858 53.625 115.296 54.2917 115.963 54.875C116.629 55.4583 117.213 56.0417 117.713 56.625C118.004 56.5833 118.296 56.6042 118.588 56.6875C118.879 56.7708 119.15 56.8542 119.4 56.9375C119.692 57.0208 119.963 57.0625 120.213 57.0625C120.463 57.0208 120.713 56.875 120.963 56.625C121.254 56.5 121.525 56.5208 121.775 56.6875C122.067 56.8125 122.338 56.9792 122.588 57.1875C122.838 57.3958 123.088 57.5833 123.338 57.75C123.629 57.875 123.942 57.875 124.275 57.75ZM171.787 42.125C171.329 42.7083 170.975 43.3542 170.725 44.0625C170.475 44.7708 170.162 45.4375 169.787 46.0625C169.454 46.6875 169.017 47.2083 168.475 47.625C167.975 48.0417 167.267 48.2292 166.35 48.1875C165.683 48.4375 165.183 48.8958 164.85 49.5625C164.558 50.1875 164.267 50.8333 163.975 51.5C163.683 52.125 163.308 52.6458 162.85 53.0625C162.392 53.4375 161.704 53.4792 160.787 53.1875C159.621 53.6875 158.558 54.3542 157.6 55.1875C156.683 55.9792 155.808 56.8125 154.975 57.6875C154.683 57.9792 154.35 58.3542 153.975 58.8125C153.6 59.2292 153.246 59.5417 152.912 59.75C152.621 59.9167 152.329 59.9375 152.037 59.8125C151.746 59.6875 151.475 59.5625 151.225 59.4375C150.975 59.2708 150.725 59.1875 150.475 59.1875C150.267 59.1875 150.079 59.375 149.912 59.75C150.204 60.3333 150.267 60.7292 150.1 60.9375C149.933 61.1875 149.662 61.375 149.287 61.5C148.912 61.625 148.517 61.7292 148.1 61.8125C147.683 61.8958 147.35 62.0417 147.1 62.25C146.6 62.7083 146.246 63.2708 146.037 63.9375C145.829 64.6042 145.642 65.2708 145.475 65.9375C145.308 66.6042 145.058 67.2292 144.725 67.8125C144.433 68.4375 143.933 68.9167 143.225 69.25C143.642 69.5417 143.808 69.8333 143.725 70.125C143.683 70.4167 143.579 70.7083 143.412 71C143.246 71.3333 143.121 71.6458 143.037 71.9375C142.996 72.2292 143.162 72.5208 143.537 72.8125C142.912 73.6042 142.35 74.4583 141.85 75.375C141.392 76.2917 140.933 77.2083 140.475 78.125C140.017 79.0833 139.517 80 138.975 80.875C138.475 81.7917 137.829 82.6042 137.037 83.3125L137.225 84.8125C136.6 84.6458 136.204 84.6667 136.037 84.875C135.912 85.0833 135.85 85.375 135.85 85.75C135.85 86.125 135.85 86.5 135.85 86.875C135.892 87.2917 135.767 87.6042 135.475 87.8125C135.35 87.9792 135.204 88.1042 135.037 88.1875C134.912 88.2708 134.787 88.375 134.662 88.5C133.329 89.5 132.412 90.7708 131.912 92.3125C131.829 92.5625 131.767 92.8125 131.725 93.0625C131.683 93.3125 131.621 93.5833 131.537 93.875C131.329 94.4583 130.996 95.0625 130.537 95.6875C130.079 96.3125 129.579 96.9583 129.037 97.625C128.496 98.2917 127.975 98.9792 127.475 99.6875C126.975 100.438 126.579 101.188 126.287 101.938C125.621 101.854 125.1 101.917 124.725 102.125C124.308 102.375 123.975 102.688 123.725 103.062C123.475 103.479 123.267 103.917 123.1 104.375C122.933 104.833 122.725 105.229 122.475 105.562C122.183 105.938 121.829 106.208 121.412 106.375C120.954 106.583 120.371 106.583 119.662 106.375L116.85 108.938C116.35 108.646 115.871 108.583 115.412 108.75C114.912 108.917 114.433 109.146 113.975 109.438C113.475 109.729 112.996 109.958 112.537 110.125C112.037 110.292 111.517 110.229 110.975 109.938C110.683 110.271 110.433 110.438 110.225 110.438C110.017 110.479 109.767 110.312 109.475 109.938L108.537 110.938C108.037 110.521 107.433 110.125 106.725 109.75C105.975 109.417 105.287 109.021 104.662 108.562C104.037 108.146 103.537 107.646 103.162 107.062C102.787 106.521 102.725 105.812 102.975 104.938C102.892 104.688 102.767 104.417 102.6 104.125C102.392 103.833 102.225 103.521 102.1 103.188C101.975 102.896 101.892 102.583 101.85 102.25C101.808 101.958 101.892 101.688 102.1 101.438C101.725 100.729 101.6 100 101.725 99.25C101.808 98.5417 101.954 97.8333 102.162 97.125C102.371 96.4167 102.537 95.7083 102.662 95C102.787 94.2917 102.662 93.5833 102.287 92.875C102.787 92.5 103.162 92.0208 103.412 91.4375C103.621 90.8542 103.829 90.25 104.037 89.625C104.204 89 104.392 88.3958 104.6 87.8125C104.808 87.2292 105.162 86.75 105.662 86.375L105.6 85.375C107.558 83.2917 109.642 81.375 111.85 79.625C114.017 77.9167 116.475 76.6458 119.225 75.8125C119.767 74.8542 120.475 74.1458 121.35 73.6875C122.225 73.2708 123.121 72.875 124.037 72.5C124.912 72.1667 125.725 71.7292 126.475 71.1875C127.225 70.6875 127.787 69.875 128.162 68.75C128.371 69.2083 128.579 69.3958 128.787 69.3125C128.996 69.2708 129.204 69.1667 129.412 69C129.662 68.875 129.892 68.7708 130.1 68.6875C130.308 68.6458 130.517 68.8333 130.725 69.25C131.142 68 131.808 67 132.725 66.25C133.683 65.5 134.725 64.8333 135.85 64.25C137.017 63.7083 138.183 63.1667 139.35 62.625C140.517 62.125 141.537 61.5 142.412 60.75C143.329 60 144.017 59.0833 144.475 58C144.933 56.875 145.037 55.4375 144.787 53.6875C145.162 53.4375 145.412 53.125 145.537 52.75C145.662 52.3333 145.746 51.9167 145.787 51.5C145.871 51.0833 145.975 50.7083 146.1 50.375C146.225 50.0417 146.496 49.8125 146.912 49.6875C146.621 49.2292 146.267 49.0208 145.85 49.0625C145.433 49.1042 144.996 49.2292 144.537 49.4375C144.121 49.6458 143.725 49.8542 143.35 50.0625C142.975 50.2708 142.662 50.3125 142.412 50.1875C142.287 50.7708 142.017 51.1875 141.6 51.4375C141.225 51.6875 140.808 51.9167 140.35 52.125C139.892 52.2917 139.412 52.4792 138.912 52.6875C138.412 52.8958 138.017 53.2292 137.725 53.6875C137.35 53.5208 136.996 53.6042 136.662 53.9375C136.371 54.2292 136.058 54.5625 135.725 54.9375C135.433 55.2708 135.1 55.5208 134.725 55.6875C134.35 55.8542 133.912 55.6875 133.412 55.1875C133.162 55.8542 132.746 56.2917 132.162 56.5C131.621 56.7083 131.017 56.8125 130.35 56.8125C129.683 56.8125 128.996 56.7708 128.287 56.6875C127.621 56.6042 127.017 56.625 126.475 56.75L125.412 55.6875C125.329 55.8958 125.204 56.0625 125.037 56.1875C124.829 56.3125 124.621 56.3333 124.412 56.25C124.079 55.5417 123.767 54.7917 123.475 54C123.142 53.1667 122.933 52.3542 122.85 51.5625C122.725 50.7292 122.787 49.9375 123.037 49.1875C123.287 48.3958 123.787 47.7083 124.537 47.125C125.704 45 127.225 43.3333 129.1 42.125C129.308 42.2917 129.537 42.3542 129.787 42.3125C130.037 42.2292 130.287 42.125 130.537 42C130.829 41.8333 131.1 41.6667 131.35 41.5C131.6 41.2917 131.829 41.1667 132.037 41.125C132.162 40.6667 132.392 40.2292 132.725 39.8125C133.1 39.3958 133.496 39.0208 133.912 38.6875C134.371 38.3542 134.829 38.0625 135.287 37.8125C135.787 37.5208 136.246 37.2708 136.662 37.0625C137.454 36.6875 138.183 36.2292 138.85 35.6875C139.558 35.1042 140.267 34.5625 140.975 34.0625C141.683 33.5208 142.412 33.0625 143.162 32.6875C143.912 32.3125 144.767 32.125 145.725 32.125L146.85 33.125C146.142 33.5417 145.517 34.0625 144.975 34.6875C144.475 35.2708 143.954 35.875 143.412 36.5C142.871 37.0833 142.287 37.625 141.662 38.125C141.037 38.625 140.267 38.9583 139.35 39.125C138.6 40.5833 137.579 41.8333 136.287 42.875C135.037 43.875 133.746 44.8125 132.412 45.6875C132.412 46.3125 132.225 46.8125 131.85 47.1875C131.475 47.5625 131.037 47.8958 130.537 48.1875C130.037 48.4792 129.537 48.75 129.037 49C128.537 49.2083 128.121 49.5 127.787 49.875C127.496 50.2083 127.35 50.6458 127.35 51.1875C127.35 51.6875 127.621 52.3542 128.162 53.1875C128.662 52.9375 129.267 52.7708 129.975 52.6875C130.683 52.6042 131.371 52.5 132.037 52.375C132.704 52.2083 133.287 51.9792 133.787 51.6875C134.329 51.3542 134.704 50.8542 134.912 50.1875C135.496 49.6875 136.121 49.375 136.787 49.25C137.454 49.125 138.142 49.1042 138.85 49.1875C140.225 47.6875 141.6 46.3125 142.975 45.0625C144.392 43.7708 145.725 42.4583 146.975 41.125C148.225 39.7917 149.371 38.375 150.412 36.875C151.496 35.3333 152.433 33.5625 153.225 31.5625C154.058 31.3125 154.808 31.4167 155.475 31.875C156.142 32.3333 156.621 32.9167 156.912 33.625C156.829 34.125 156.683 34.6042 156.475 35.0625C156.308 35.4792 156.142 35.8958 155.975 36.3125C155.85 36.6875 155.746 37.1042 155.662 37.5625C155.621 38.0208 155.704 38.5417 155.912 39.125C155.579 39.0417 155.308 39.1458 155.1 39.4375C154.933 39.7292 154.746 39.9792 154.537 40.1875C154.662 40.7292 154.642 41.2292 154.475 41.6875C154.308 42.1042 154.1 42.5208 153.85 42.9375C153.6 43.3125 153.371 43.7292 153.162 44.1875C152.996 44.6458 152.954 45.1458 153.037 45.6875C152.454 46.7708 152.017 47.9167 151.725 49.125C151.475 50.2917 151.308 51.4792 151.225 52.6875L152.35 53.6875C152.892 52.8958 153.558 52.3333 154.35 52C155.183 51.6667 156.017 51.3958 156.85 51.1875C157.683 50.9375 158.496 50.6667 159.287 50.375C160.079 50.0417 160.767 49.4792 161.35 48.6875C161.6 47.4792 162.121 46.625 162.912 46.125C163.704 45.5833 164.537 45.125 165.412 44.75C166.287 44.375 167.121 43.9583 167.912 43.5C168.746 43 169.329 42.2083 169.662 41.125H171.225C171.142 41.3333 171.183 41.5208 171.35 41.6875C171.517 41.8542 171.662 42 171.787 42.125ZM137.225 69.8125C136.808 70.0625 136.35 70.2917 135.85 70.5C135.35 70.7083 134.85 70.9375 134.35 71.1875C133.85 71.4375 133.392 71.7292 132.975 72.0625C132.558 72.3958 132.246 72.8125 132.037 73.3125C131.579 73.0625 131.142 73.0417 130.725 73.25C130.35 73.5 129.975 73.7708 129.6 74.0625C129.225 74.3958 128.829 74.6667 128.412 74.875C128.037 75.0833 127.621 75.0625 127.162 74.8125C126.371 75.3125 125.621 75.8542 124.912 76.4375C124.162 77.0208 123.412 77.5833 122.662 78.125C121.912 78.7083 121.142 79.2292 120.35 79.6875C119.517 80.1875 118.642 80.5625 117.725 80.8125C117.267 81.5625 116.662 82.1458 115.912 82.5625C115.162 83.0208 114.412 83.4583 113.662 83.875C112.871 84.2917 112.162 84.7917 111.537 85.375C110.912 85.9583 110.517 86.7708 110.35 87.8125C109.058 88.6458 108.183 89.7083 107.725 91C107.225 92.3333 106.954 93.7292 106.912 95.1875C106.871 96.6875 106.933 98.1875 107.1 99.6875C107.267 101.229 107.35 102.625 107.35 103.875C107.892 104.5 108.433 104.938 108.975 105.188C109.517 105.438 110.079 105.562 110.662 105.562C111.246 105.562 111.85 105.479 112.475 105.312C113.058 105.188 113.704 105.062 114.412 104.938C114.579 104.312 114.892 103.896 115.35 103.688C115.767 103.521 116.225 103.396 116.725 103.312C117.183 103.229 117.621 103.104 118.037 102.938C118.412 102.812 118.621 102.479 118.662 101.938L119.225 102.438C119.267 101.771 119.454 101.208 119.787 100.75C120.121 100.333 120.517 99.9375 120.975 99.5625C121.433 99.1875 121.933 98.8333 122.475 98.5C122.975 98.1667 123.412 97.7917 123.787 97.375C123.704 96.5833 123.85 95.9167 124.225 95.375C124.6 94.8333 125.017 94.3333 125.475 93.875C125.933 93.4167 126.35 92.9167 126.725 92.375C127.058 91.8333 127.183 91.1458 127.1 90.3125C127.517 90.1458 127.808 89.875 127.975 89.5C128.142 89.125 128.308 88.7708 128.475 88.4375C128.642 88.1042 128.85 87.8542 129.1 87.6875C129.392 87.5208 129.829 87.5625 130.412 87.8125C129.829 87.3542 129.579 87 129.662 86.75C129.787 86.5 129.996 86.2708 130.287 86.0625C130.579 85.8958 130.85 85.6875 131.1 85.4375C131.35 85.1875 131.35 84.8125 131.1 84.3125C132.1 83.8958 132.746 83.2917 133.037 82.5C133.329 81.7083 133.537 80.8542 133.662 79.9375C133.829 79.0625 134.058 78.1875 134.35 77.3125C134.642 76.4792 135.287 75.8125 136.287 75.3125C136.204 74.5625 136.329 73.8958 136.662 73.3125C137.037 72.7708 137.392 72.25 137.725 71.75C138.1 71.25 138.35 70.7292 138.475 70.1875C138.642 69.6458 138.496 69 138.037 68.25L137.225 69.8125ZM210.55 44.375C210.342 45.6667 210.092 46.6667 209.8 47.375C209.508 48.0417 209.133 48.6042 208.675 49.0625C208.258 49.4792 207.717 49.8958 207.05 50.3125C206.383 50.6875 205.592 51.25 204.675 52C204.342 52.25 204.029 52.4792 203.738 52.6875C203.446 52.8958 203.154 53.1458 202.863 53.4375C202.029 53.6875 201.008 54.1042 199.8 54.6875C198.592 55.2292 197.342 55.7917 196.05 56.375C194.8 56.9167 193.592 57.3958 192.425 57.8125C191.3 58.2292 190.383 58.3958 189.675 58.3125C189.425 58.6458 188.988 58.8542 188.363 58.9375C187.738 59.0208 187.258 59.0625 186.925 59.0625C186.383 59.0625 185.821 59.1042 185.238 59.1875C184.696 59.2708 184.217 59.5208 183.8 59.9375C183.717 60.0208 183.654 60.0625 183.613 60.0625C183.613 60.1042 183.613 60.125 183.613 60.125C183.654 60.125 183.654 60.125 183.613 60.125C183.613 60.1667 183.571 60.25 183.488 60.375C183.029 60.9167 182.55 61.2083 182.05 61.25C181.592 61.2917 181.133 61.2083 180.675 61C180.217 60.8333 179.738 60.6042 179.238 60.3125C178.779 60.0208 178.3 59.8125 177.8 59.6875C177.342 59.5208 176.863 59.5 176.363 59.625C175.863 59.7083 175.363 60.0417 174.863 60.625C174.571 59.875 174.113 59.4375 173.488 59.3125C172.863 59.1875 172.217 59.125 171.55 59.125C170.925 59.0833 170.321 59.0208 169.738 58.9375C169.154 58.8125 168.758 58.4167 168.55 57.75V57.6875L167.238 56.5625L167.05 56.75C166.842 56.9583 166.675 57.1875 166.55 57.4375C166.425 57.6875 166.279 57.9167 166.113 58.125C165.779 58.625 165.425 59.125 165.05 59.625C164.675 60.0833 164.258 60.4792 163.8 60.8125C163.3 61.1875 162.779 61.4583 162.238 61.625C161.696 61.8333 161.113 61.8958 160.488 61.8125C160.488 60.8125 160.779 59.8958 161.363 59.0625C161.904 58.2292 162.446 57.4167 162.988 56.625C163.488 55.7917 163.821 54.9583 163.988 54.125C164.113 53.25 163.758 52.3333 162.925 51.375C162.883 50.7917 162.633 50.2292 162.175 49.6875C161.675 49.1042 161.217 48.5417 160.8 48C160.383 47.4167 160.154 46.8542 160.113 46.3125C160.029 45.7708 160.383 45.2292 161.175 44.6875C160.8 44.6042 160.55 44.4583 160.425 44.25C160.425 44.0417 160.488 43.8333 160.613 43.625C160.696 43.375 160.779 43.1458 160.863 42.9375C161.113 42.9375 161.383 42.8958 161.675 42.8125C161.925 42.6875 162.175 42.6042 162.425 42.5625C162.633 42.4792 162.842 42.4792 163.05 42.5625C163.217 42.6042 163.383 42.7917 163.55 43.125C163.675 43.375 163.779 43.6458 163.863 43.9375C163.946 44.2292 164.05 44.5208 164.175 44.8125C164.508 45.6458 164.925 46.4375 165.425 47.1875C165.925 47.8958 166.488 48.5625 167.113 49.1875L167.3 49.375C167.3 49.3333 167.383 49.2292 167.55 49.0625C167.717 48.8958 167.904 48.7292 168.113 48.5625C168.321 48.3542 168.508 48.1667 168.675 48C168.842 47.8333 168.967 47.7083 169.05 47.625C169.55 47.1667 170.029 46.7292 170.488 46.3125C170.946 45.8958 171.342 45.4792 171.675 45.0625C172.05 44.6042 172.321 44.1042 172.488 43.5625C172.696 42.9792 172.8 42.3125 172.8 41.5625C174.092 40.6875 175.363 39.7292 176.613 38.6875C177.863 37.6042 179.133 36.5625 180.425 35.5625C181.717 34.5625 183.05 33.6667 184.425 32.875C185.842 32.0833 187.363 31.5417 188.988 31.25C189.363 31.9167 189.8 32.4375 190.3 32.8125C190.8 33.1875 191.279 33.5625 191.738 33.9375C192.238 34.3125 192.675 34.7708 193.05 35.3125C193.467 35.8542 193.758 36.6042 193.925 37.5625C194.258 39.3542 194.258 41.0417 193.925 42.625C193.633 44.2083 193.196 45.8542 192.613 47.5625C192.279 48.5625 191.967 49.5833 191.675 50.625C191.425 51.6667 191.3 52.7292 191.3 53.8125L191.738 53.9375C192.113 53.4375 192.529 53.125 192.988 53C193.488 52.875 193.988 52.7917 194.488 52.75C194.988 52.7083 195.467 52.6458 195.925 52.5625C196.425 52.4375 196.842 52.125 197.175 51.625C197.717 51.8333 198.217 51.8542 198.675 51.6875C199.175 51.4792 199.654 51.2083 200.113 50.875C200.571 50.5417 201.029 50.1875 201.488 49.8125C201.946 49.4375 202.425 49.1875 202.925 49.0625L202.863 48.5625C203.613 48.0625 204.258 47.7083 204.8 47.5C205.342 47.2917 205.842 47.0833 206.3 46.875C206.758 46.6667 207.217 46.375 207.675 46C208.133 45.625 208.654 45 209.238 44.125C209.446 44.0417 209.675 44.0208 209.925 44.0625C210.217 44.0625 210.425 44.1667 210.55 44.375ZM188.738 38.1875C188.529 38.1042 188.3 38.0417 188.05 38C187.842 37.9167 187.633 37.8125 187.425 37.6875C187.05 37.4375 186.696 37.25 186.363 37.125C186.029 37 185.633 37.0417 185.175 37.25V37.375H185.113C182.988 39 181.008 40.7917 179.175 42.75C177.383 44.6667 175.488 46.5417 173.488 48.375L172.925 47.8125C172.633 48.1875 172.467 48.5833 172.425 49C172.425 49.4167 172.425 49.8125 172.425 50.1875C172.425 50.5625 172.383 50.9167 172.3 51.25C172.217 51.5833 171.967 51.8958 171.55 52.1875L171.363 52.3125C171.529 52.8958 171.758 53.2708 172.05 53.4375C172.383 53.5625 172.717 53.625 173.05 53.625C173.425 53.5833 173.779 53.5417 174.113 53.5C174.446 53.4583 174.717 53.5208 174.925 53.6875C175.05 53.7708 175.133 53.8958 175.175 54.0625C175.217 54.2292 175.238 54.375 175.238 54.5C175.446 54.5 175.654 54.5 175.863 54.5C176.113 54.5 176.363 54.4792 176.613 54.4375C177.071 54.3542 177.55 54.3542 178.05 54.4375C178.592 54.4792 178.904 54.7917 178.988 55.375C179.821 55.0417 180.675 54.6875 181.55 54.3125C182.425 53.9375 183.133 53.3333 183.675 52.5L184.113 52.9375C184.154 52.9375 184.175 52.9375 184.175 52.9375C184.217 52.8958 184.258 52.875 184.3 52.875C185.342 52.25 186.154 51.3333 186.738 50.125C187.363 48.9167 187.821 47.6042 188.113 46.1875C188.404 44.7708 188.571 43.3542 188.613 41.9375C188.696 40.5208 188.738 39.2708 188.738 38.1875ZM247.375 53.4375C246.792 54.4375 246.333 55.25 246 55.875C245.708 56.4583 245.396 56.9583 245.062 57.375C244.771 57.75 244.417 58.1042 244 58.4375C243.625 58.7292 243.083 59.1042 242.375 59.5625C241.917 59.9792 241.458 60.3333 241 60.625C240.625 60.9167 240.25 61.1667 239.875 61.375C239.542 61.5833 239.271 61.6875 239.062 61.6875C238.979 61.6875 238.896 61.6667 238.812 61.625C238.729 61.625 238.646 61.625 238.562 61.625C238.312 61.625 238.062 61.625 237.812 61.625C237.604 61.6667 237.417 61.5208 237.25 61.1875C237.125 61.3125 237.021 61.4583 236.938 61.625C236.854 61.7917 236.771 61.9375 236.688 62.0625C236.604 62.2292 236.479 62.3542 236.312 62.4375C236.188 62.5208 236 62.5208 235.75 62.4375L235.438 62.0625L234.5 62.875C233.333 62.2917 232.208 61.7917 231.125 61.375C230.083 61 229.146 60.5417 228.312 60C227.479 59.4583 226.771 58.7708 226.188 57.9375C225.604 57.0625 225.188 55.875 224.938 54.375C224.729 54.125 224.5 53.9167 224.25 53.75C224 53.5417 223.708 53.4792 223.375 53.5625C222.958 54.2708 222.458 54.875 221.875 55.375C221.292 55.875 220.708 56.4167 220.125 57C219.917 57.2083 219.75 57.4375 219.625 57.6875C219.5 57.9375 219.333 58.1667 219.125 58.375C218.792 58.75 218.396 59.0208 217.938 59.1875C217.479 59.3125 217.021 59.4375 216.562 59.5625C216.104 59.6875 215.667 59.8958 215.25 60.1875C214.875 60.4792 214.604 60.9792 214.438 61.6875C213.938 61.3958 213.438 61.3125 212.938 61.4375C212.562 61.5208 212.167 61.6042 211.75 61.6875C211.333 61.8125 210.917 61.875 210.5 61.875C210.125 61.9167 209.75 61.875 209.375 61.75C209 61.625 208.667 61.3542 208.375 60.9375C207.792 61.1875 207.25 61.1667 206.75 60.875C206.25 60.625 205.771 60.2708 205.312 59.8125C204.896 59.3125 204.479 58.7917 204.062 58.25C203.646 57.7083 203.25 57.3125 202.875 57.0625C202.625 56.3958 202.646 55.8333 202.938 55.375C203.188 54.875 203.479 54.4167 203.812 54C204.104 53.5417 204.312 53.1042 204.438 52.6875C204.562 52.2292 204.375 51.6875 203.875 51.0625C204.292 50.4375 204.667 49.7917 205 49.125C205.333 48.4167 205.667 47.7292 206 47.0625C206.375 46.3542 206.75 45.6875 207.125 45.0625C207.542 44.3958 208.042 43.8333 208.625 43.375C208.375 43.0833 208.25 42.8125 208.25 42.5625C208.25 42.2708 208.312 42 208.438 41.75C208.562 41.4583 208.708 41.1875 208.875 40.9375C209.042 40.6458 209.167 40.375 209.25 40.125L211.062 39.25L210.625 37.75C211.083 37.8333 211.417 37.8125 211.625 37.6875C211.875 37.5625 212.042 37.375 212.125 37.125C212.25 36.875 212.333 36.6042 212.375 36.3125C212.458 35.9792 212.562 35.6875 212.688 35.4375C212.896 35.0625 213.208 34.7917 213.625 34.625C214.5 33.9583 215.354 33.25 216.188 32.5C217.062 31.75 217.917 31.0208 218.75 30.3125C219.625 29.6042 220.521 28.9375 221.438 28.3125C222.354 27.6458 223.354 27.0833 224.438 26.625C225.188 26.75 225.771 26.9792 226.188 27.3125C226.646 27.6458 226.979 28.0417 227.188 28.5C227.438 28.9583 227.625 29.4792 227.75 30.0625C227.875 30.6042 228 31.1458 228.125 31.6875C228.333 32.3958 228.583 33 228.875 33.5C229.167 34 229.667 34.4167 230.375 34.75C229.792 35.75 229.562 36.75 229.688 37.75C229.812 38.7083 229.938 39.7292 230.062 40.8125C230.188 41.8125 230.167 42.7917 230 43.75C229.875 44.7083 229.271 45.5625 228.188 46.3125C228.104 46.6042 228.083 46.9167 228.125 47.25C228.167 47.5833 228.188 47.9167 228.188 48.25C228.188 48.5833 228.125 48.8958 228 49.1875C227.875 49.4792 227.646 49.7083 227.312 49.875C227.688 50.3333 227.875 50.7917 227.875 51.25C227.917 51.7083 227.938 52.1458 227.938 52.5625C227.979 52.9792 228.083 53.3542 228.25 53.6875C228.458 54.0208 228.917 54.2708 229.625 54.4375C229.75 54.9792 229.854 55.3958 229.938 55.6875C230.062 55.9375 230.188 56.1458 230.312 56.3125C230.479 56.4792 230.688 56.6458 230.938 56.8125C231.188 56.9375 231.521 57.1458 231.938 57.4375C232.271 57.5208 232.646 57.5208 233.062 57.4375C233.479 57.3542 233.812 57.4792 234.062 57.8125C234.271 57.6042 234.521 57.5 234.812 57.5C235.104 57.4583 235.375 57.4583 235.625 57.5L236.438 58.875C236.896 58.5417 237.417 58.25 238 58C238.583 57.75 239.146 57.5417 239.688 57.375C240.312 57.2083 240.938 57.0625 241.562 56.9375L247.375 53.4375ZM223.375 32.0625C223 32.3958 222.542 32.7292 222 33.0625C221.458 33.3958 220.917 33.75 220.375 34.125C219.875 34.5 219.438 34.9167 219.062 35.375C218.688 35.7917 218.458 36.2917 218.375 36.875C217.417 37.0417 216.75 37.4375 216.375 38.0625C216 38.6875 215.688 39.375 215.438 40.125C215.188 40.875 214.917 41.625 214.625 42.375C214.333 43.0833 213.812 43.6458 213.062 44.0625C212.812 44.2292 212.583 44.3125 212.375 44.3125C212.417 44.3125 212.292 44.3958 212 44.5625C211.542 44.8958 211.146 45.3125 210.812 45.8125C210.479 46.3125 210.188 46.8542 209.938 47.4375C209.729 48.0208 209.521 48.625 209.312 49.25C209.146 49.8333 208.979 50.375 208.812 50.875C208.229 50.9583 207.792 51.0833 207.5 51.25C207.208 51.4167 207.021 51.6042 206.938 51.8125C206.896 51.9792 206.917 52.1875 207 52.4375C207.083 52.6875 207.208 52.9583 207.375 53.25C207.542 53.5 207.708 53.7917 207.875 54.125C208.083 54.4583 208.25 54.7917 208.375 55.125C208.5 55.4583 208.562 55.7917 208.562 56.125C208.604 56.4583 208.521 56.7708 208.312 57.0625C208.896 57.5208 209.458 57.625 210 57.375C210.542 57.0833 211.042 56.7708 211.5 56.4375C211.667 56.3125 211.833 56.1875 212 56.0625C212.208 55.8958 212.417 55.7708 212.625 55.6875C213.583 55.8958 214.458 55.8333 215.25 55.5C216.042 55.1667 216.771 54.7083 217.438 54.125C218.104 53.5417 218.75 52.9167 219.375 52.25C220 51.5833 220.625 51 221.25 50.5L220.75 50C221.5 49.7917 222.021 49.5208 222.312 49.1875C222.646 48.8125 222.854 48.3958 222.938 47.9375C223.021 47.4792 223.021 47 222.938 46.5C222.854 45.9583 222.792 45.3958 222.75 44.8125C222.708 44.4792 222.688 44.1667 222.688 43.875C222.729 43.5417 222.812 43.2083 222.938 42.875C222.604 41.9167 222.542 41 222.75 40.125C223 39.25 223.312 38.4167 223.688 37.625C224.104 36.7917 224.5 35.9583 224.875 35.125C225.25 34.2917 225.438 33.4167 225.438 32.5L223.375 32.0625ZM278.325 57.75C278.367 58.25 278.283 58.625 278.075 58.875C277.867 59.125 277.575 59.3125 277.2 59.4375C276.867 59.5625 276.492 59.6667 276.075 59.75C275.658 59.7917 275.304 59.8958 275.012 60.0625C273.804 59.9375 272.637 59.7708 271.512 59.5625C270.387 59.3125 269.346 58.9583 268.387 58.5C267.429 58 266.554 57.3542 265.762 56.5625C265.012 55.7708 264.367 54.7708 263.825 53.5625C264.367 52.6875 264.554 51.7292 264.387 50.6875C264.221 49.6042 264.054 48.5625 263.887 47.5625C263.762 46.5625 263.783 45.6458 263.95 44.8125C264.158 43.9792 264.887 43.3125 266.137 42.8125C266.054 42.3542 266.054 41.8542 266.137 41.3125C266.262 40.7708 266.117 40.3125 265.7 39.9375C264.242 40.4375 262.971 41.1458 261.887 42.0625C260.804 42.9792 259.762 43.9792 258.762 45.0625C257.804 46.1458 256.825 47.25 255.825 48.375C254.867 49.4583 253.804 50.4167 252.637 51.25C252.096 51.2917 251.512 51.2708 250.887 51.1875C250.304 51.0625 249.804 51.2292 249.387 51.6875C249.429 51.9792 249.533 52.2292 249.7 52.4375C249.867 52.6458 249.992 52.8542 250.075 53.0625C250.2 53.2708 250.262 53.5 250.262 53.75C250.262 53.9583 250.117 54.2083 249.825 54.5C249.408 54.9167 248.95 55.2708 248.45 55.5625C247.992 55.8125 247.533 56.1042 247.075 56.4375C246.658 56.7292 246.304 57.0833 246.012 57.5C245.721 57.9167 245.575 58.4792 245.575 59.1875C245.325 59.0625 245.096 59.0417 244.887 59.125C244.679 59.1667 244.492 59.2708 244.325 59.4375C244.117 59.6042 243.929 59.7917 243.762 60C243.596 60.2083 243.429 60.375 243.262 60.5C243.179 60.7083 243.2 60.875 243.325 61C243.45 61.1667 243.596 61.3333 243.762 61.5C243.596 61.9583 243.387 62.2292 243.137 62.3125C242.846 62.4375 242.554 62.4583 242.262 62.375C241.929 62.2917 241.617 62.1458 241.325 61.9375C240.992 61.7708 240.7 61.625 240.45 61.5C240.325 60.9583 240.242 60.3333 240.2 59.625C240.158 58.9167 240.179 58.2292 240.262 57.5625C240.346 56.8542 240.512 56.1875 240.762 55.5625C241.012 54.9375 241.387 54.4167 241.887 54C242.054 53.875 242.158 53.8125 242.2 53.8125C242.242 53.7708 242.262 53.75 242.262 53.75C242.262 53.75 242.283 53.75 242.325 53.75C242.367 53.7083 242.45 53.625 242.575 53.5C242.908 53.125 243.137 52.7292 243.262 52.3125C243.387 51.8542 243.492 51.3958 243.575 50.9375C243.658 50.4792 243.783 50.0417 243.95 49.625C244.075 49.1667 244.325 48.7708 244.7 48.4375C244.533 47.7708 244.533 47.1875 244.7 46.6875C244.908 46.1458 245.158 45.6458 245.45 45.1875C245.783 44.6875 246.096 44.2083 246.387 43.75C246.721 43.25 246.929 42.7083 247.012 42.125C247.054 41.9167 247.054 41.7292 247.012 41.5625C247.012 41.3542 247.012 41.1458 247.012 40.9375C246.929 40.2708 246.992 39.7708 247.2 39.4375C247.45 39.0625 247.742 38.7708 248.075 38.5625C248.45 38.3125 248.825 38.0625 249.2 37.8125C249.617 37.5625 249.971 37.1875 250.262 36.6875C251.471 37.2708 252.179 38.0625 252.387 39.0625C252.637 40.0208 252.721 41.1042 252.637 42.3125C251.929 42.7708 251.387 43.4167 251.012 44.25C250.637 45.0417 250.387 45.8125 250.262 46.5625C250.346 46.8125 250.45 46.9583 250.575 47C250.742 47 250.908 46.9792 251.075 46.9375C251.283 46.8542 251.471 46.7708 251.637 46.6875C251.804 46.6042 251.971 46.5625 252.137 46.5625C253.637 45.5208 255.117 44.3542 256.575 43.0625C258.075 41.7708 259.242 40.2917 260.075 38.625C261.283 38.0417 262.429 37.375 263.512 36.625C264.596 35.8333 265.783 35.25 267.075 34.875L268.512 33.4375C268.721 33.7708 268.971 33.8542 269.262 33.6875C269.554 33.4792 269.846 33.25 270.137 33C270.429 32.75 270.7 32.6042 270.95 32.5625C271.242 32.5208 271.512 32.8125 271.762 33.4375C272.179 34.5208 272.283 35.5833 272.075 36.625C271.867 37.625 271.533 38.625 271.075 39.625C270.658 40.5833 270.221 41.5625 269.762 42.5625C269.304 43.5625 269.033 44.5833 268.95 45.625C268.95 45.875 268.95 46.1458 268.95 46.4375C268.95 46.6875 268.929 46.9583 268.887 47.25C268.804 48.125 268.679 49.0833 268.512 50.125C268.387 51.125 268.45 52.0417 268.7 52.875C268.908 53.625 269.346 54.2917 270.012 54.875C270.679 55.4583 271.262 56.0417 271.762 56.625C272.054 56.5833 272.346 56.6042 272.637 56.6875C272.929 56.7708 273.2 56.8542 273.45 56.9375C273.742 57.0208 274.012 57.0625 274.262 57.0625C274.512 57.0208 274.762 56.875 275.012 56.625C275.304 56.5 275.575 56.5208 275.825 56.6875C276.117 56.8125 276.387 56.9792 276.637 57.1875C276.887 57.3958 277.137 57.5833 277.387 57.75C277.679 57.875 277.992 57.875 278.325 57.75Z" fill="white"/>
</svg>
