<svg width="194" height="59" viewBox="0 0 194 59" fill="none" xmlns="http://www.w3.org/2000/svg">
<path d="M0.426749 39.808C0.426749 38.688 0.538749 37.376 0.762749 35.872C0.986749 34.336 1.30675 32.704 1.72275 30.976C2.17075 29.248 2.68275 27.44 3.25875 25.552C3.86675 23.664 4.53875 21.776 5.27475 19.888C5.91475 18.192 6.65075 16.48 7.48275 14.752C8.34675 13.024 9.27475 11.328 10.2667 9.66402C11.2587 8.00002 12.2827 6.41602 13.3387 4.91202C14.4267 3.40802 15.5147 2.03202 16.6027 0.784021C17.1147 0.784021 17.6587 0.848022 18.2347 0.976022C18.8427 1.10402 19.4187 1.28002 19.9627 1.50402C20.5387 1.69602 21.0507 1.93602 21.4987 2.22402C21.9787 2.51202 22.3627 2.80002 22.6507 3.08802C20.2507 5.55202 18.0907 8.04802 16.1707 10.576C14.2507 13.072 12.7307 15.424 11.6107 17.632C11.0027 18.848 10.4427 19.984 9.93075 21.04C9.45075 22.096 9.00275 23.152 8.58675 24.208C8.17075 25.232 7.78675 26.272 7.43475 27.328C7.11475 28.352 6.81075 29.44 6.52275 30.592C12.6667 22.752 17.2267 18.832 20.2027 18.832C21.0347 18.832 21.9307 19.104 22.8907 19.648C23.8507 20.192 24.6988 20.928 25.4348 21.856C24.4427 22.944 23.4187 24.256 22.3628 25.792C21.3068 27.328 20.3307 28.88 19.4347 30.448C18.5707 31.984 17.8507 33.424 17.2747 34.768C16.7307 36.08 16.4587 37.056 16.4587 37.696C16.4587 38.016 16.5067 38.24 16.6027 38.368C16.6987 38.464 16.9067 38.512 17.2267 38.512C17.7067 38.512 18.0907 38.448 18.3787 38.32C18.6667 38.192 18.8428 38.128 18.9068 38.128C19.0668 38.384 19.1627 38.56 19.1947 38.656C19.2267 38.752 19.2428 38.832 19.2428 38.896C19.2428 39.024 19.0507 39.216 18.6667 39.472C18.2827 39.696 17.8187 39.936 17.2747 40.192C16.7627 40.416 16.2507 40.624 15.7387 40.816C15.2267 41.008 14.8427 41.104 14.5868 41.104C14.2667 41.104 13.9467 41.008 13.6267 40.816C13.3067 40.656 13.0187 40.432 12.7627 40.144C12.5387 39.856 12.3467 39.536 12.1867 39.184C12.0587 38.832 11.9947 38.464 11.9947 38.08C11.9947 37.6 12.1227 36.896 12.3787 35.968C12.6667 35.008 13.0507 33.904 13.5307 32.656C14.0107 31.376 14.5867 29.984 15.2587 28.48C15.9307 26.976 16.6507 25.44 17.4187 23.872C17.4187 23.744 17.3547 23.68 17.2267 23.68C17.1307 23.68 16.8747 23.808 16.4587 24.064C16.0747 24.32 15.7067 24.576 15.3547 24.832C14.2027 25.696 13.0347 26.768 11.8507 28.048C10.6987 29.296 9.56275 30.672 8.44275 32.176C7.35475 33.68 6.31475 35.28 5.32275 36.976C4.36275 38.64 3.53075 40.32 2.82675 42.016C2.73075 42.24 2.58675 42.448 2.39475 42.64C2.20275 42.832 2.04275 42.928 1.91475 42.928C1.81875 42.928 1.67475 42.816 1.48275 42.592C1.32275 42.368 1.16275 42.08 1.00275 41.728C0.874749 41.408 0.746749 41.072 0.618749 40.72C0.490749 40.368 0.426749 40.064 0.426749 39.808ZM41.0316 21.232C41.3516 21.232 41.7196 21.296 42.1356 21.424C42.5836 21.52 42.9836 21.664 43.3356 21.856C43.6876 22.016 43.9756 22.192 44.1996 22.384C44.4556 22.576 44.5836 22.752 44.5836 22.912C43.9436 24.256 43.3516 25.616 42.8076 26.992C42.2636 28.336 41.7996 29.632 41.4156 30.88C41.0316 32.128 40.7276 33.296 40.5036 34.384C40.3116 35.472 40.2156 36.416 40.2156 37.216C40.2156 38.112 40.3116 38.864 40.5036 39.472C40.6956 40.048 41.0156 40.464 41.4636 40.72C41.0796 40.976 40.5836 41.184 39.9756 41.344C39.3676 41.504 38.8236 41.584 38.3436 41.584C36.6156 41.584 35.7516 40.4 35.7516 38.032C35.7516 36.208 36.3596 33.712 37.5756 30.544C36.9356 32.016 36.1996 33.408 35.3676 34.72C34.5356 36 33.6876 37.136 32.8236 38.128C31.9596 39.12 31.0796 39.936 30.1836 40.576C29.3196 41.184 28.5196 41.552 27.7836 41.68C26.5996 41.616 25.6396 41.056 24.9036 40C24.1676 38.912 23.7996 37.536 23.7996 35.872C23.7996 34.08 24.1836 32.192 24.9516 30.208C25.7196 28.224 26.6956 26.384 27.8796 24.688C29.0956 22.992 30.4076 21.584 31.8156 20.464C33.2236 19.312 34.5836 18.704 35.8956 18.64C36.2156 18.736 36.5676 18.928 36.9516 19.216C37.3676 19.504 37.7516 19.84 38.1036 20.224C38.4876 20.608 38.8076 21.008 39.0636 21.424C39.3196 21.808 39.4636 22.144 39.4956 22.432C38.2156 22.624 36.8876 23.248 35.5116 24.304C34.1676 25.36 32.9356 26.64 31.8156 28.144C30.7276 29.616 29.8316 31.2 29.1276 32.896C28.4236 34.592 28.0716 36.176 28.0716 37.648C28.0716 38.256 28.2956 38.64 28.7436 38.8C29.6716 38.608 30.7436 37.824 31.9596 36.448C33.1756 35.04 34.6476 32.88 36.3756 29.968C36.6956 29.392 37.0476 28.752 37.4316 28.048C37.8476 27.344 38.2636 26.608 38.6796 25.84C39.0956 25.072 39.4956 24.304 39.8796 23.536C40.2956 22.736 40.6796 21.968 41.0316 21.232ZM42.7145 56.512C42.2665 56.384 42.0105 55.904 41.9465 55.072C41.8185 54.656 41.7225 54.16 41.6585 53.584C41.6265 53.008 41.6105 52.352 41.6105 51.616C41.6105 50.944 41.7225 50.016 41.9465 48.832C42.1705 47.68 42.4745 46.368 42.8585 44.896C43.2745 43.424 43.7705 41.84 44.3465 40.144C44.9225 38.416 45.5625 36.672 46.2665 34.912C47.1305 32.704 47.8825 30.8 48.5225 29.2C49.1625 27.568 49.6905 26.16 50.1065 24.976C50.5545 23.792 50.9065 22.816 51.1625 22.048C51.4505 21.28 51.6745 20.624 51.8345 20.08C51.9625 19.696 52.1545 19.232 52.4105 18.688C52.6665 18.144 52.9545 17.6 53.2745 17.056C53.6265 16.48 53.9785 15.952 54.3305 15.472C54.6825 14.96 55.0025 14.576 55.2905 14.32C56.4105 14.48 57.4665 14.768 58.4585 15.184C59.4505 15.6 60.0585 16 60.2825 16.384C59.8345 16.8 59.3225 17.456 58.7465 18.352C58.1705 19.216 57.6105 20.176 57.0665 21.232C56.5225 22.256 56.0265 23.312 55.5785 24.4C55.1305 25.488 54.7945 26.448 54.5705 27.28C54.8905 26.736 55.3065 26.144 55.8185 25.504C56.3305 24.864 57.1145 23.984 58.1705 22.864C59.3545 21.648 60.4585 20.72 61.4825 20.08C62.5385 19.408 63.4505 19.072 64.2185 19.072C65.4345 19.072 66.4265 19.408 67.1945 20.08C67.9945 20.752 68.3945 21.616 68.3945 22.672C68.3945 24.976 68.0105 27.264 67.2425 29.536C66.4745 31.776 65.3705 33.808 63.9305 35.632C63.3865 36.336 62.7465 37.008 62.0105 37.648C61.2745 38.288 60.5065 38.864 59.7065 39.376C58.9065 39.856 58.1225 40.24 57.3545 40.528C56.5865 40.816 55.8985 40.96 55.2905 40.96C54.7145 40.96 54.2025 40.848 53.7545 40.624C53.3385 40.368 53.0505 40.064 52.8905 39.712C54.1385 38.976 55.3545 37.952 56.5385 36.64C57.7225 35.328 58.8105 33.824 59.8025 32.128C60.8265 30.4 61.7065 28.544 62.4425 26.56C63.2105 24.576 63.7865 22.56 64.1705 20.512C62.9545 21.152 61.8505 21.856 60.8585 22.624C59.8985 23.36 58.9385 24.336 57.9785 25.552C56.8265 26.96 55.9145 28.096 55.2425 28.96C54.5705 29.824 54.0105 30.56 53.5625 31.168C53.1465 31.776 52.7945 32.352 52.5065 32.896C52.2505 33.408 51.9625 34.048 51.6425 34.816C51.1945 35.84 50.6665 37.2 50.0585 38.896C49.4825 40.56 48.8745 42.432 48.2345 44.512C47.6265 46.592 47.0025 48.8 46.3625 51.136C45.7545 53.504 45.1625 55.856 44.5865 58.192C44.2345 58.128 43.9305 57.872 43.6745 57.424C43.4185 57.136 43.2265 56.928 43.0985 56.8C43.0025 56.672 42.8745 56.576 42.7145 56.512ZM65.8207 56.512C65.3727 56.384 65.1167 55.904 65.0527 55.072C64.9247 54.656 64.8287 54.16 64.7647 53.584C64.7327 53.008 64.7167 52.352 64.7167 51.616C64.7167 50.944 64.8287 50.016 65.0527 48.832C65.2767 47.68 65.5807 46.368 65.9647 44.896C66.3807 43.424 66.8767 41.84 67.4527 40.144C68.0287 38.416 68.6687 36.672 69.3727 34.912C70.2367 32.704 70.9887 30.8 71.6287 29.2C72.2687 27.568 72.7967 26.16 73.2127 24.976C73.6607 23.792 74.0127 22.816 74.2687 22.048C74.5567 21.28 74.7807 20.624 74.9407 20.08C75.0687 19.696 75.2607 19.232 75.5167 18.688C75.7727 18.144 76.0607 17.6 76.3807 17.056C76.7327 16.48 77.0847 15.952 77.4367 15.472C77.7887 14.96 78.1087 14.576 78.3967 14.32C79.5167 14.48 80.5727 14.768 81.5647 15.184C82.5567 15.6 83.1647 16 83.3887 16.384C82.9407 16.8 82.4287 17.456 81.8527 18.352C81.2767 19.216 80.7167 20.176 80.1727 21.232C79.6287 22.256 79.1327 23.312 78.6847 24.4C78.2367 25.488 77.9007 26.448 77.6767 27.28C77.9967 26.736 78.4127 26.144 78.9247 25.504C79.4367 24.864 80.2207 23.984 81.2767 22.864C82.4607 21.648 83.5647 20.72 84.5887 20.08C85.6447 19.408 86.5567 19.072 87.3247 19.072C88.5407 19.072 89.5327 19.408 90.3007 20.08C91.1007 20.752 91.5007 21.616 91.5007 22.672C91.5007 24.976 91.1167 27.264 90.3487 29.536C89.5807 31.776 88.4767 33.808 87.0367 35.632C86.4927 36.336 85.8527 37.008 85.1167 37.648C84.3807 38.288 83.6127 38.864 82.8127 39.376C82.0127 39.856 81.2287 40.24 80.4607 40.528C79.6927 40.816 79.0047 40.96 78.3967 40.96C77.8207 40.96 77.3087 40.848 76.8607 40.624C76.4447 40.368 76.1567 40.064 75.9967 39.712C77.2447 38.976 78.4607 37.952 79.6447 36.64C80.8287 35.328 81.9167 33.824 82.9087 32.128C83.9327 30.4 84.8127 28.544 85.5487 26.56C86.3167 24.576 86.8927 22.56 87.2767 20.512C86.0607 21.152 84.9567 21.856 83.9647 22.624C83.0047 23.36 82.0447 24.336 81.0847 25.552C79.9327 26.96 79.0207 28.096 78.3487 28.96C77.6767 29.824 77.1167 30.56 76.6687 31.168C76.2527 31.776 75.9007 32.352 75.6127 32.896C75.3567 33.408 75.0687 34.048 74.7487 34.816C74.3007 35.84 73.7727 37.2 73.1647 38.896C72.5887 40.56 71.9807 42.432 71.3407 44.512C70.7327 46.592 70.1087 48.8 69.4687 51.136C68.8607 53.504 68.2687 55.856 67.6927 58.192C67.3407 58.128 67.0367 57.872 66.7807 57.424C66.5247 57.136 66.3327 56.928 66.2047 56.8C66.1087 56.672 65.9807 56.576 65.8207 56.512ZM110.479 33.184C109.743 35.52 109.007 37.648 108.271 39.568C107.535 41.488 106.751 43.248 105.919 44.848C105.087 46.48 104.191 47.968 103.231 49.312C102.271 50.688 101.215 51.984 100.063 53.2C98.591 54.736 97.071 55.904 95.503 56.704C93.935 57.536 92.367 57.952 90.799 57.952C89.999 57.952 89.199 57.856 88.399 57.664C87.631 57.504 86.911 57.264 86.239 56.944C85.535 56.656 84.927 56.304 84.415 55.888C83.871 55.504 83.487 55.088 83.263 54.64C83.263 54.256 83.487 53.92 83.935 53.632C84.319 53.984 84.639 54.256 84.895 54.448C85.151 54.64 85.407 54.8 85.663 54.928C85.887 55.056 86.143 55.136 86.431 55.168C86.687 55.2 86.991 55.216 87.343 55.216C89.167 55.216 90.943 54.672 92.671 53.584C94.431 52.528 96.079 51.008 97.615 49.024C99.183 47.072 100.607 44.688 101.887 41.872C103.167 39.088 104.255 35.968 105.151 32.512C104.735 33.152 104.223 33.936 103.615 34.864C103.007 35.792 102.335 36.72 101.599 37.648C100.863 38.544 100.095 39.36 99.295 40.096C98.527 40.832 97.775 41.328 97.039 41.584C96.527 41.552 95.983 41.44 95.407 41.248C94.863 41.088 94.335 40.848 93.823 40.528C93.343 40.208 92.911 39.824 92.527 39.376C92.143 38.928 91.887 38.416 91.759 37.84C91.759 36.912 91.791 36.176 91.855 35.632C91.919 35.056 92.031 34.432 92.191 33.76C92.479 32.544 92.895 31.168 93.439 29.632C94.015 28.096 94.671 26.592 95.407 25.12C96.175 23.616 97.007 22.224 97.903 20.944C98.831 19.632 99.791 18.608 100.783 17.872C101.039 17.872 101.359 17.904 101.743 17.968C102.127 18 102.527 18.08 102.943 18.208C103.359 18.336 103.759 18.496 104.143 18.688C104.527 18.848 104.863 19.072 105.151 19.36C104.799 19.68 104.031 20.752 102.847 22.576C101.663 24.4 100.351 27.024 98.911 30.448C98.751 30.8 98.559 31.312 98.335 31.984C98.111 32.656 97.887 33.36 97.663 34.096C97.471 34.832 97.295 35.552 97.135 36.256C96.975 36.96 96.895 37.52 96.895 37.936C96.895 38.192 96.927 38.384 96.991 38.512C97.087 38.64 97.167 38.736 97.231 38.8C97.807 38.704 98.575 38.24 99.535 37.408C100.495 36.544 101.583 35.216 102.799 33.424C103.567 32.272 104.271 31.136 104.911 30.016C105.551 28.864 106.175 27.712 106.783 26.56C107.423 25.408 108.079 24.224 108.751 23.008C109.423 21.792 110.143 20.544 110.911 19.264C111.327 19.264 111.775 19.312 112.255 19.408C112.735 19.504 113.199 19.632 113.647 19.792C114.095 19.92 114.479 20.08 114.799 20.272C115.151 20.432 115.407 20.608 115.567 20.8C114.575 22.912 113.647 24.976 112.783 26.992C111.919 29.008 111.151 31.072 110.479 33.184ZM128.585 22.24C128.425 22.048 128.281 21.648 128.153 21.04C128.025 20.4 127.961 19.856 127.961 19.408C128.793 19.472 129.593 19.536 130.361 19.6C131.129 19.632 131.833 19.664 132.473 19.696C132.953 18.736 133.465 17.792 134.009 16.864C134.585 15.904 135.129 15.04 135.641 14.272C136.185 13.472 136.681 12.8 137.129 12.256C137.609 11.712 137.977 11.36 138.233 11.2C138.553 11.2 138.953 11.264 139.433 11.392C139.945 11.488 140.457 11.632 140.969 11.824C141.481 11.984 141.945 12.16 142.361 12.352C142.777 12.544 143.065 12.736 143.225 12.928C142.265 14.144 141.433 15.28 140.729 16.336C140.057 17.36 139.321 18.544 138.521 19.888C139.161 19.888 139.801 19.872 140.441 19.84C141.113 19.808 141.785 19.76 142.457 19.696C142.617 19.856 142.745 20.064 142.841 20.32C142.937 20.544 142.985 20.784 142.985 21.04C141.417 21.616 139.513 21.936 137.273 22C136.473 23.536 135.753 25.072 135.113 26.608C134.505 28.112 133.977 29.568 133.529 30.976C133.113 32.384 132.777 33.712 132.521 34.96C132.297 36.208 132.185 37.328 132.185 38.32C132.185 39.728 132.713 40.512 133.769 40.672C134.729 40.544 135.641 40.304 136.505 39.952C137.369 39.6 138.137 39.152 138.809 38.608C139.001 38.896 139.113 39.136 139.145 39.328C138.953 39.616 138.617 39.952 138.137 40.336C137.689 40.72 137.193 41.088 136.649 41.44C136.105 41.824 135.577 42.144 135.065 42.4C134.553 42.656 134.169 42.8 133.913 42.832C133.113 42.8 132.313 42.624 131.513 42.304C130.713 41.984 129.977 41.584 129.305 41.104C128.665 40.624 128.137 40.096 127.721 39.52C127.305 38.912 127.097 38.32 127.097 37.744C127.097 36.976 127.193 36.016 127.385 34.864C127.609 33.68 127.913 32.4 128.297 31.024C128.681 29.648 129.129 28.208 129.641 26.704C130.153 25.2 130.713 23.712 131.321 22.24H128.585ZM140.676 39.664C140.836 38.736 141.108 37.52 141.492 36.016C141.908 34.48 142.388 32.864 142.932 31.168C143.476 29.44 144.052 27.712 144.66 25.984C145.268 24.256 145.86 22.704 146.436 21.328C146.852 20.336 147.22 19.568 147.54 19.024C147.86 18.448 148.212 17.968 148.596 17.584C149.044 17.648 149.508 17.76 149.988 17.92C150.468 18.08 150.932 18.272 151.38 18.496C151.828 18.72 152.228 18.96 152.58 19.216C152.932 19.44 153.204 19.664 153.396 19.888C152.532 20.912 151.764 22.08 151.092 23.392C150.452 24.704 149.796 26.384 149.124 28.432C150.852 26.896 152.372 25.424 153.684 24.016C155.028 22.608 156.276 21.04 157.428 19.312C157.62 19.152 157.956 19.072 158.436 19.072C158.884 19.072 159.316 19.152 159.732 19.312C160.148 19.44 160.436 19.632 160.596 19.888C160.02 21.424 159.732 22.944 159.732 24.448C159.732 25.856 159.94 26.912 160.356 27.616C160.324 27.808 160.1 28.176 159.684 28.72C159.3 29.264 158.868 29.776 158.388 30.256C157.524 29.808 156.756 29.2 156.084 28.432C155.412 27.632 154.916 26.768 154.596 25.84C153.092 26.896 151.812 27.936 150.756 28.96C149.7 29.952 148.788 31.072 148.02 32.32C147.284 33.536 146.644 34.944 146.1 36.544C145.588 38.144 145.092 40.048 144.612 42.256C144.324 42.224 143.972 42.112 143.556 41.92C143.172 41.76 142.772 41.552 142.356 41.296C141.972 41.04 141.62 40.768 141.3 40.48C140.98 40.192 140.772 39.92 140.676 39.664ZM160.435 37.408C160.435 37.12 160.451 36.768 160.483 36.352C160.547 35.904 160.643 35.328 160.771 34.624C160.899 33.888 161.059 33.008 161.251 31.984C161.475 30.96 161.747 29.728 162.067 28.288C162.131 27.968 162.275 27.456 162.499 26.752C162.723 26.048 163.011 25.312 163.363 24.544C163.747 23.744 164.195 22.976 164.707 22.24C165.251 21.504 165.891 20.96 166.627 20.608C167.171 20.736 167.891 21.072 168.787 21.616C169.683 22.128 170.451 22.848 171.091 23.776C170.355 24.608 169.731 25.44 169.219 26.272C168.739 27.104 168.291 27.968 167.875 28.864C167.491 29.76 167.123 30.688 166.771 31.648C166.451 32.608 166.083 33.616 165.667 34.672C165.315 35.568 164.995 36.496 164.707 37.456C164.419 38.384 164.259 39.2 164.227 39.904C164.227 40.48 164.211 40.88 164.179 41.104C164.179 41.36 164.099 41.488 163.939 41.488C163.811 41.488 163.555 41.408 163.171 41.248C162.787 41.088 162.387 40.848 161.971 40.528C161.587 40.176 161.235 39.744 160.915 39.232C160.595 38.72 160.435 38.112 160.435 37.408ZM169.603 16.576C169.603 16.384 169.651 16.096 169.747 15.712C169.587 15.552 169.443 15.312 169.315 14.992C169.219 14.672 169.171 14.384 169.171 14.128C169.171 13.84 169.203 13.456 169.267 12.976C169.363 12.464 169.475 11.92 169.603 11.344C169.731 10.768 169.891 10.176 170.083 9.56802C170.275 8.92802 170.467 8.35202 170.659 7.84002C171.043 7.84002 171.507 7.95202 172.051 8.17602C172.627 8.36802 173.203 8.64002 173.779 8.99202C174.355 9.31202 174.883 9.68002 175.363 10.096C175.843 10.48 176.211 10.848 176.467 11.2C176.115 11.552 175.651 12.048 175.075 12.688C174.499 13.296 173.939 13.952 173.395 14.656C172.851 15.328 172.355 15.968 171.907 16.576C171.459 17.184 171.171 17.616 171.043 17.872C170.659 17.808 170.323 17.648 170.035 17.392C169.747 17.104 169.603 16.832 169.603 16.576ZM167.427 56.512C166.979 56.384 166.723 55.904 166.659 55.072C166.531 54.656 166.435 54.16 166.371 53.584C166.339 53.008 166.323 52.352 166.323 51.616C166.323 50.944 166.435 50.016 166.659 48.832C166.883 47.68 167.187 46.368 167.571 44.896C167.987 43.424 168.483 41.84 169.059 40.144C169.635 38.416 170.275 36.672 170.979 34.912C171.843 32.704 172.595 30.8 173.235 29.2C173.875 27.568 174.403 26.16 174.819 24.976C175.267 23.792 175.619 22.816 175.875 22.048C176.163 21.28 176.387 20.624 176.547 20.08C176.675 19.696 176.867 19.232 177.123 18.688C177.379 18.144 177.667 17.6 177.987 17.056C178.339 16.48 178.691 15.952 179.043 15.472C179.395 14.96 179.715 14.576 180.003 14.32C181.123 14.48 182.179 14.768 183.171 15.184C184.163 15.6 184.771 16 184.995 16.384C184.547 16.8 184.035 17.456 183.459 18.352C182.883 19.216 182.323 20.176 181.779 21.232C181.235 22.256 180.739 23.312 180.291 24.4C179.843 25.488 179.507 26.448 179.283 27.28C179.603 26.736 180.019 26.144 180.531 25.504C181.043 24.864 181.827 23.984 182.883 22.864C184.067 21.648 185.171 20.72 186.195 20.08C187.251 19.408 188.163 19.072 188.931 19.072C190.147 19.072 191.139 19.408 191.907 20.08C192.707 20.752 193.107 21.616 193.107 22.672C193.107 24.976 192.723 27.264 191.955 29.536C191.187 31.776 190.083 33.808 188.643 35.632C188.099 36.336 187.459 37.008 186.723 37.648C185.987 38.288 185.219 38.864 184.419 39.376C183.619 39.856 182.835 40.24 182.067 40.528C181.299 40.816 180.611 40.96 180.003 40.96C179.427 40.96 178.915 40.848 178.467 40.624C178.051 40.368 177.763 40.064 177.603 39.712C178.851 38.976 180.067 37.952 181.251 36.64C182.435 35.328 183.523 33.824 184.515 32.128C185.539 30.4 186.419 28.544 187.155 26.56C187.923 24.576 188.499 22.56 188.883 20.512C187.667 21.152 186.563 21.856 185.571 22.624C184.611 23.36 183.651 24.336 182.691 25.552C181.539 26.96 180.627 28.096 179.955 28.96C179.283 29.824 178.723 30.56 178.275 31.168C177.859 31.776 177.507 32.352 177.219 32.896C176.963 33.408 176.675 34.048 176.355 34.816C175.907 35.84 175.379 37.2 174.771 38.896C174.195 40.56 173.587 42.432 172.947 44.512C172.339 46.592 171.715 48.8 171.075 51.136C170.467 53.504 169.875 55.856 169.299 58.192C168.947 58.128 168.643 57.872 168.387 57.424C168.131 57.136 167.939 56.928 167.811 56.8C167.715 56.672 167.587 56.576 167.427 56.512Z" fill="#416FE6"/>
</svg>
