<svg width="143" height="83" viewBox="0 0 143 83" fill="none" xmlns="http://www.w3.org/2000/svg">
<path d="M46.1143 44.9448C46.3596 45.417 46.513 45.9133 46.5744 46.4335C46.6231 46.9252 46.6639 47.4375 46.6968 47.9705C46.717 48.475 46.7435 48.9937 46.7764 49.5267C46.8251 50.0184 46.9578 50.5067 47.1746 50.9917C46.8481 51.1035 46.6359 51.3181 46.5383 51.6356C46.4564 51.9119 46.4143 52.2388 46.4119 52.6164C46.4381 52.9812 46.4849 53.3539 46.5524 53.7345C46.6071 54.0866 46.63 54.3674 46.6209 54.5768C46.535 55.916 46.2731 57.2825 45.8351 58.6764C45.4129 60.029 44.8653 61.3692 44.1924 62.697C43.5352 63.9835 42.7892 65.2242 41.9541 66.419C41.1191 67.6139 40.2394 68.7089 39.3151 69.7041L39.2914 69.766C38.7779 69.9956 38.201 70.2364 37.5606 70.4885C36.9487 70.7278 36.3396 70.7434 35.7331 70.5354C35.3592 70.771 34.8978 70.9259 34.3491 71.0001C33.8131 71.1028 33.3387 71.0753 32.9258 70.9175L32.8639 70.8939C32.4571 70.5965 32.0616 70.3626 31.6773 70.1921C31.2929 70.0216 30.8737 69.8496 30.4196 69.6761C29.8289 69.4267 29.2588 69.1852 28.7094 68.9516C28.1885 68.7053 27.7006 68.3415 27.2458 67.8602C26.7243 67.3061 26.2169 66.7456 25.7239 66.1787C25.2466 65.5705 24.7186 65.0021 24.14 64.4735C23.9071 65.3307 23.6216 66.1087 23.2837 66.8075C22.9329 67.4778 22.5965 68.1417 22.2743 68.7992C21.9521 69.4567 21.6839 70.1585 21.4698 70.9046C21.2842 71.638 21.2052 72.4949 21.2327 73.4753L21.2282 73.58C20.3723 73.9626 19.7326 74.5225 19.3091 75.2595C18.9013 75.9553 18.5014 76.6304 18.1094 77.2849C17.7174 77.9394 17.2458 78.4926 16.6947 78.9443C16.1721 79.3833 15.3839 79.4961 14.33 79.2827L12.8751 79.9332L12.794 79.8667C11.8086 79.0407 10.8119 78.1513 9.80396 77.1985C8.82457 76.2329 7.93864 75.2084 7.14619 74.125C6.34099 73.013 5.6848 71.8516 5.17764 70.6406C4.65772 69.4011 4.36452 68.0945 4.29804 66.7208C4.28092 66.1465 4.29081 65.5944 4.32772 65.0644C4.39316 64.5217 4.48712 63.9662 4.60962 63.398C4.6254 63.3567 4.6269 63.3218 4.61415 63.2933C4.84909 63.3594 5.00113 63.2401 5.07027 62.9353C5.16793 62.6178 5.24043 62.3971 5.28775 62.2733L4.63727 60.8183C4.7101 60.7515 4.81783 60.6862 4.96048 60.6225C5.13165 60.5459 5.28856 60.4758 5.4312 60.412C5.57384 60.3482 5.70222 60.2908 5.81634 60.2398C5.9177 60.1603 5.95713 60.0571 5.93464 59.9302C5.95042 59.8889 5.93128 59.8461 5.87725 59.8018C5.82321 59.7575 5.78343 59.7068 5.75793 59.6498C5.60487 59.3074 5.56929 58.9981 5.65118 58.7219C5.74884 58.4044 5.88779 58.1027 6.06802 57.8167C6.24825 57.5307 6.44123 57.2733 6.64697 57.0444C6.83996 56.787 6.96162 56.5614 7.01196 56.3678C7.24019 56.2657 7.46053 56.1843 7.67299 56.1236C7.87269 56.0343 8.09001 56.0227 8.32496 56.0888C8.5599 56.1549 8.7633 56.3036 8.93515 56.5349C9.13552 56.7534 9.29949 57.0053 9.42703 57.2905C9.57035 57.5345 9.72005 57.7928 9.87612 58.0653C10.0322 58.3379 10.1977 58.5549 10.3725 58.7163L10.4345 58.74C10.613 59.1394 10.6662 59.5263 10.5941 59.9009C10.5377 60.2342 10.4321 60.5724 10.2774 60.9154C10.1512 61.2456 10.0108 61.5823 9.85605 61.9253C9.72986 62.2556 9.69412 62.5967 9.74884 62.9488L9.76797 62.9916C9.63272 63.5313 9.4832 64.0774 9.31942 64.6298C9.18417 65.1695 9.02039 65.722 8.82808 66.2872C9.25669 66.4037 9.45858 66.5873 9.43374 66.838C9.42469 67.0474 9.35219 67.2681 9.21627 67.5C9.10887 67.7192 9.04426 67.9192 9.02245 68.1001C9.02916 68.2683 9.25622 68.355 9.70362 68.3604C9.73283 68.6554 9.70497 68.976 9.62006 69.322C9.5224 69.6395 9.43111 69.9713 9.3462 70.3173C9.28982 70.6506 9.27624 70.9648 9.30544 71.2598C9.36318 71.5421 9.57631 71.7891 9.94484 72.0009L10.0496 72.0054C10.0277 72.1863 10.1204 72.4701 10.3275 72.8567C10.5503 73.2021 10.8066 73.5839 11.0963 74.002C11.4017 74.379 11.7071 74.7559 12.0126 75.1328C12.3052 75.4812 12.5105 75.7488 12.6283 75.9358C13.0223 76.2046 13.4081 76.3402 13.7857 76.3425C14.1791 76.3036 14.512 76.2061 14.7846 76.05C15.0856 75.8812 15.3041 75.6808 15.4401 75.4489C15.6045 75.2042 15.6421 74.982 15.5528 74.7823L15.795 74.52C15.9413 74.6942 16.0715 74.7558 16.1857 74.7048C16.287 74.6252 16.3899 74.5108 16.4943 74.3614C16.6114 74.2406 16.6921 74.1532 16.7364 74.0991C16.7807 74.0451 16.8678 73.9719 16.9977 73.8796C17.4602 73.5359 17.8796 73.0575 18.2558 72.4442C18.6606 71.8183 18.997 71.1544 19.2652 70.4526C19.5333 69.7508 19.7111 69.038 19.7983 68.3144C19.9141 67.578 19.9349 66.9355 19.8607 66.3867L19.8224 66.3011L19.908 66.2629C20.3766 65.7795 20.7006 65.241 20.8802 64.6473C21.0597 64.0535 21.2107 63.4725 21.3332 62.9043C21.443 62.3076 21.6068 61.7551 21.8246 61.2469C22.0296 60.7103 22.3919 60.2573 22.9115 59.8881C22.895 59.6216 22.9341 59.3645 23.0288 59.1168C23.1107 58.8406 23.1847 58.585 23.2508 58.3501C23.3327 58.0738 23.3924 57.8246 23.43 57.6024C23.4834 57.339 23.459 57.0931 23.357 56.8649C23.306 56.7508 23.2137 56.6209 23.0801 56.4752C22.975 56.3168 22.9098 56.2091 22.8842 56.152C22.9473 55.9869 23.0927 55.6994 23.3202 55.2896C23.535 54.8512 23.7434 54.3986 23.9455 53.9318C24.1761 53.4521 24.3845 52.9995 24.5707 52.574C24.757 52.1484 24.8468 51.8515 24.8401 51.6833L24.9639 51.7307C25.418 51.9042 25.7787 52.1366 26.0458 52.4279C26.3003 52.6907 26.504 52.9933 26.6571 53.3356C26.7974 53.6495 26.9076 54.0109 26.9878 54.4201C27.0553 54.8007 27.137 55.1749 27.233 55.5428L27.2094 55.6047C27.1658 55.9665 27.1094 56.2998 27.0402 56.6045C26.9869 56.868 26.8971 57.1649 26.7709 57.4951C26.5658 58.0318 26.4276 58.6413 26.3561 59.3237C26.633 59.7133 26.8243 60.1413 26.9301 60.6075C27.0358 61.0737 27.1415 61.5399 27.2472 62.0061C27.3402 62.4437 27.476 62.8622 27.6546 63.2616C27.8617 63.6483 28.1829 63.9839 28.6182 64.2685C28.4252 64.526 28.3527 64.7466 28.4007 64.9306C28.4645 65.0732 28.5774 65.211 28.7395 65.3439C28.9302 65.4641 29.1208 65.5842 29.3115 65.7044C29.5306 65.8118 29.6991 65.9589 29.8169 66.1459C30.4459 66.4808 31.0952 66.6698 31.7648 66.7127C32.4344 66.7557 33.0942 66.7003 33.7444 66.5466C34.3945 66.3928 35.0255 66.1963 35.6373 65.957C36.265 65.6764 36.8783 65.4022 37.4774 65.1343L38.6756 64.5986C39.5885 64.1905 40.2204 63.6513 40.5711 62.981C40.9218 62.3107 41.1629 61.5868 41.2945 60.8091C41.4546 60.0187 41.6083 59.214 41.7556 58.395C41.903 57.5761 42.2297 56.8139 42.7358 56.1084C42.5317 55.6519 42.4785 55.2649 42.5762 54.9474C42.6738 54.6299 42.7843 54.3409 42.9074 54.0805C43.0591 53.8072 43.1474 53.5453 43.1722 53.2946C43.2128 53.0026 43.0519 52.6809 42.6894 52.3295C42.9807 52.0623 43.1704 51.7208 43.2583 51.3049C43.3462 50.8891 43.3929 50.4575 43.3982 50.0101C43.4194 49.5214 43.4184 49.0597 43.3952 48.6251C43.3878 48.1491 43.4202 47.7239 43.4923 47.3493C43.2664 47.0738 43.104 46.787 43.005 46.4889C42.9345 46.1781 42.8561 45.888 42.7699 45.6185C42.6708 45.3204 42.5211 45.0622 42.3208 44.8437C42.1204 44.6252 41.7852 44.4498 41.3154 44.3176L41.2534 44.2939L41.2343 44.2511C40.9386 43.9725 40.7825 43.7 40.7661 43.4335C40.7782 43.1543 40.8251 42.8765 40.907 42.6003C41.0174 42.3113 41.1057 42.0494 41.1718 41.8144C41.2665 41.5667 41.2485 41.3351 41.118 41.1197C42.0023 40.7243 42.7001 40.6006 43.2113 40.7486C43.7382 40.8553 44.1672 41.1256 44.4981 41.5596C44.8163 41.9651 45.0808 42.4801 45.2916 43.1047C45.5309 43.7165 45.8051 44.3299 46.1143 44.9448ZM78.2641 33.1386C78.5695 33.5155 78.6925 33.9055 78.6331 34.3086C78.561 34.6832 78.4047 35.0611 78.1644 35.4424C77.9526 35.8109 77.6917 36.1843 77.3816 36.5626C77.0872 36.8995 76.8627 37.2395 76.708 37.5826C75.5517 38.4418 74.4777 39.1787 73.4859 39.7933C72.5099 40.3666 71.4389 41.0336 70.2729 41.7945C69.9276 42.0174 69.571 42.1768 69.2031 42.2728C68.851 42.3276 68.5102 42.4457 68.1806 42.6273C67.9809 42.7166 67.7955 42.7995 67.6243 42.876C67.4404 42.924 67.2692 43.0005 67.1108 43.1056C66.4802 43.456 66.1543 43.8755 66.1331 44.3642C66.0992 44.8244 66.1258 45.3431 66.2127 45.9204C66.3154 46.4564 66.3689 46.9973 66.3733 47.543C66.3935 48.0475 66.1423 48.5192 65.6197 48.9582C65.6264 49.1264 65.6981 49.2484 65.8347 49.3242C65.9998 49.3873 66.13 49.4489 66.2253 49.509C65.8041 49.8685 65.5908 50.2719 65.5855 50.7193C65.6086 51.1539 65.6461 51.5822 65.6978 52.0041C65.7495 52.426 65.7186 52.8163 65.6052 53.1751C65.5202 53.5212 65.1591 53.7853 64.5217 53.9676C64.0583 55.3044 63.355 56.526 62.4118 57.6322C61.4815 58.767 60.4127 59.707 59.2054 60.4521C58.9262 60.44 58.6342 60.3994 58.3294 60.3303C58.0532 60.2484 57.7691 60.1872 57.4771 60.1465C57.2136 60.0932 56.9343 60.0811 56.6393 60.1103C56.3856 60.1553 56.1146 60.2765 55.8263 60.4738C55.5299 59.8875 55.1671 59.3822 54.7378 58.9579C54.28 58.5465 53.7778 58.189 53.2314 57.8856C52.9448 57.3976 52.8057 56.895 52.814 56.3778C52.7811 55.8448 52.7689 55.3197 52.7773 54.8025C52.7856 54.2853 52.7655 53.7808 52.7168 53.2891C52.6269 52.7817 52.3688 52.2809 51.9425 51.7868C52.1513 51.4881 52.2474 51.2055 52.231 50.939C52.243 50.6598 52.2123 50.3997 52.1388 50.1587C52.0811 49.8764 52.0504 49.6163 52.0467 49.3783C52.0302 49.1118 52.147 48.8371 52.3971 48.5542C51.8627 47.9715 51.668 47.4595 51.813 47.0182C51.9738 46.5355 52.2107 46.0702 52.5239 45.6221C52.837 45.174 53.1089 44.7102 53.3394 44.2305C53.57 43.7509 53.5022 43.2164 53.136 42.627C53.2307 42.3793 53.3666 42.1474 53.5438 41.9313C53.721 41.7151 53.8903 41.5196 54.0518 41.3447C54.229 41.1286 54.3919 40.9188 54.5406 40.7154C54.6893 40.512 54.8046 40.2722 54.8865 39.996C54.623 39.9426 54.4594 39.8446 54.3956 39.702C54.3603 39.5466 54.3394 39.3848 54.3327 39.2167C54.3132 39.02 54.2937 38.8233 54.2742 38.6266C54.2833 38.4172 54.2068 38.246 54.0447 38.1131C54.866 37.8828 55.4917 37.4833 55.922 36.9143C56.3681 36.3042 56.7713 35.7131 57.1318 35.1412C57.5208 34.5565 57.9544 34.0717 58.4327 33.6867C58.9109 33.3017 59.6151 33.1923 60.5451 33.3584C60.6915 33.5326 60.911 33.7939 61.2037 34.1423C61.5121 34.4494 61.8127 34.7771 62.1054 35.1255C62.4266 35.4611 62.7271 35.7888 63.0071 36.1087C63.287 36.4286 63.4795 36.6677 63.5845 36.8261C63.6483 36.9688 63.7503 37.197 63.8906 37.5108C64.0309 37.8246 64.184 38.167 64.3498 38.5378C64.5029 38.8802 64.6495 39.2082 64.7898 39.5221C64.9301 39.8359 65.0385 40.0784 65.1151 40.2495C66.1592 40.3646 67.1205 40.2943 67.9988 40.0385C68.8644 39.7543 69.6025 39.1847 70.213 38.3298C70.6543 38.4748 70.9922 38.4264 71.2264 38.1848C71.4479 37.9146 71.6488 37.6365 71.829 37.3506C72.0378 37.0518 72.2848 36.8387 72.5701 36.7112C72.8426 36.5551 73.23 36.6558 73.7321 37.0132C73.9657 36.4638 74.2773 36.0506 74.667 35.7737C75.0439 35.4683 75.4606 35.2135 75.917 35.0094C76.3607 34.7768 76.7838 34.5364 77.1862 34.288C77.6171 34.0268 77.9764 33.6437 78.2641 33.1386ZM62.1568 41.2127C61.9655 40.7848 61.8327 40.2964 61.7586 39.7477C61.6844 39.1989 61.588 38.6772 61.4696 38.1824C61.3383 37.6592 61.12 37.2091 60.8145 36.8322C60.5376 36.4425 60.0944 36.1786 59.4849 36.0403C59.2476 36.3518 59.0993 36.7091 59.0399 37.1121C58.9677 37.4867 58.9019 37.8755 58.8425 38.2786C58.7704 38.6532 58.6363 39.0041 58.4403 39.3314C58.2728 39.6459 57.956 39.856 57.4898 39.9617C57.5002 40.3678 57.6278 40.6531 57.8724 40.8176C58.1044 40.9535 58.3648 41.0767 58.6538 41.1871C58.93 41.269 59.1984 41.3715 59.4588 41.4947C59.7478 41.6051 59.9339 41.83 60.0172 42.1693C60.1695 42.2039 60.3647 42.2193 60.6027 42.2156C60.8279 42.1834 61.0467 42.1369 61.2592 42.0761C61.4874 41.9741 61.6886 41.8499 61.8628 41.7036C62.037 41.5572 62.135 41.3936 62.1568 41.2127ZM63.3878 44.7701C62.8172 45.0251 62.2606 45.12 61.7179 45.0545C61.1909 44.9478 60.637 44.8189 60.056 44.6679C59.5035 44.5041 58.9353 44.3816 58.3513 44.3004C57.7831 44.1779 57.1724 44.2285 56.5192 44.452C56.4155 44.9091 56.2627 45.3711 56.0606 45.838C55.8458 46.2763 55.6866 46.7241 55.5829 47.1812C55.4792 47.6384 55.4595 48.0921 55.524 48.5425C55.617 48.9802 55.8924 49.4048 56.3502 49.8163C55.8343 50.4234 55.5962 51.0776 55.6358 51.7787C55.6627 52.4513 55.7864 53.1491 56.0069 53.8721C56.2559 54.5823 56.505 55.2925 56.754 56.0027C57.0031 56.7129 57.0919 57.4091 57.0204 58.0915L57.6749 57.0287C57.8145 57.0347 57.9383 57.082 58.0464 57.1706C58.183 57.2465 58.2547 57.3685 58.2614 57.5366C58.3876 57.2064 58.5678 56.9204 58.8021 56.6788C59.0236 56.4086 59.2642 56.1812 59.524 55.9966C59.7996 55.7707 60.0672 55.5654 60.327 55.3808C60.6153 55.1835 60.8766 54.964 61.1109 54.7223C62.0027 54.8028 62.5544 54.6588 62.7662 54.2903C62.978 53.9218 63.0817 53.4647 63.0773 52.9189C63.073 52.3732 63.0765 51.8068 63.0879 51.2198C63.0865 50.6042 63.3171 50.1246 63.7796 49.7809L63.3461 49.6153C63.5633 48.7993 63.717 47.9947 63.8072 47.2012C63.9133 46.3665 63.7735 45.5561 63.3878 44.7701ZM113.764 14.6999C114.01 15.1721 114.163 15.6683 114.224 16.1885C114.273 16.6803 114.314 17.1926 114.347 17.7256C114.367 18.23 114.393 18.7488 114.426 19.2817C114.475 19.7734 114.608 20.2618 114.825 20.7468C114.498 20.8585 114.286 21.0732 114.188 21.3907C114.106 21.6669 114.064 21.9938 114.062 22.3714C114.088 22.7363 114.135 23.109 114.202 23.4896C114.257 23.8417 114.28 24.1224 114.271 24.3319C114.185 25.671 113.923 27.0376 113.485 28.4315C113.063 29.7841 112.515 31.1243 111.842 32.4521C111.185 33.7386 110.439 34.9792 109.604 36.1741C108.769 37.369 107.889 38.464 106.965 39.4592L106.941 39.5211C106.428 39.7507 105.851 39.9915 105.211 40.2436C104.599 40.4829 103.99 40.4985 103.383 40.2904C103.009 40.526 102.548 40.6809 101.999 40.7551C101.463 40.8578 100.989 40.8303 100.576 40.6726L100.514 40.6489C100.107 40.3516 99.7115 40.1176 99.3272 39.9471C98.9429 39.7766 98.5237 39.6046 98.0696 39.4311C97.4789 39.1818 96.9088 38.9403 96.3594 38.7067C95.8384 38.4603 95.3506 38.0965 94.8958 37.6152C94.3742 37.0611 93.8669 36.5006 93.3738 35.9337C92.8966 35.3256 92.3686 34.7572 91.79 34.2286C91.557 35.0858 91.2716 35.8638 90.9336 36.5626C90.5829 37.2329 90.2464 37.8967 89.9242 38.5543C89.602 39.2118 89.3339 39.9136 89.1198 40.6597C88.9342 41.3931 88.8551 42.2499 88.8827 43.2303L88.8782 43.335C88.0223 43.7177 87.3826 44.2775 86.959 45.0146C86.5513 45.7104 86.1514 46.3855 85.7593 47.04C85.3673 47.6945 84.8958 48.2476 84.3447 48.6994C83.8221 49.1384 83.0339 49.2512 81.98 49.0377L80.525 49.6882L80.444 49.6218C79.4585 48.7958 78.4618 47.9064 77.4539 46.9535C76.4745 45.9879 75.5886 44.9634 74.7962 43.88C73.9909 42.7681 73.3348 41.6066 72.8276 40.3957C72.3077 39.1562 72.0145 37.8496 71.948 36.4758C71.9309 35.9016 71.9408 35.3494 71.9777 34.8195C72.0431 34.2768 72.1371 33.7213 72.2596 33.153C72.2754 33.1118 72.2769 33.0769 72.2641 33.0483C72.4991 33.1144 72.6511 32.9951 72.7202 32.6904C72.8179 32.3729 72.8904 32.1522 72.9377 32.0283L72.2872 30.5734C72.3601 30.5066 72.4678 30.4413 72.6104 30.3775C72.7816 30.301 72.9385 30.2308 73.0812 30.1671C73.2238 30.1033 73.3522 30.0459 73.4663 29.9949C73.5677 29.9153 73.6071 29.8121 73.5846 29.6853C73.6004 29.644 73.5812 29.6012 73.5272 29.5569C73.4732 29.5126 73.4334 29.4619 73.4079 29.4048C73.2548 29.0625 73.2192 28.7532 73.3011 28.477C73.3988 28.1595 73.5378 27.8577 73.718 27.5718C73.8982 27.2858 74.0912 27.0284 74.2969 26.7995C74.4899 26.542 74.6116 26.3165 74.6619 26.1228C74.8902 26.0208 75.1105 25.9394 75.323 25.8786C75.5227 25.7894 75.74 25.7778 75.9749 25.8439C76.2099 25.91 76.4133 26.0587 76.5851 26.2899C76.7855 26.5084 76.9494 26.7603 77.077 27.0456C77.2203 27.2896 77.37 27.5479 77.5261 27.8204C77.6822 28.0929 77.8476 28.3099 78.0225 28.4714L78.0844 28.495C78.263 28.8944 78.3162 29.2814 78.244 29.656C78.1877 29.9893 78.0821 30.3274 77.9274 30.6704C77.8012 31.0007 77.6607 31.3373 77.506 31.6804C77.3798 32.0106 77.3441 32.3518 77.3988 32.7039L77.4179 32.7467C77.2827 33.2864 77.1332 33.8325 76.9694 34.3849C76.8341 34.9246 76.6704 35.4771 76.478 36.0423C76.9067 36.1587 77.1085 36.3423 77.0837 36.593C77.0746 36.8025 77.0022 37.0232 76.8662 37.2551C76.7588 37.4743 76.6942 37.6743 76.6724 37.8552C76.6791 38.0234 76.9062 38.1101 77.3536 38.1155C77.3828 38.4105 77.3549 38.731 77.27 39.0771C77.1724 39.3946 77.0811 39.7263 76.9962 40.0724C76.9398 40.4057 76.9262 40.7198 76.9554 41.0148C77.0131 41.2971 77.2263 41.5441 77.5948 41.7559L77.6995 41.7604C77.6777 41.9414 77.7703 42.2251 77.9774 42.6118C78.2003 42.9571 78.4566 43.3389 78.7462 43.7571C79.0517 44.134 79.3571 44.5109 79.6625 44.8878C79.9552 45.2362 80.1604 45.5039 80.2783 45.6908C80.6723 45.9597 81.0581 46.0953 81.4357 46.0976C81.8291 46.0587 82.162 45.9612 82.4345 45.8051C82.7356 45.6363 82.9541 45.4359 83.09 45.204C83.2545 44.9593 83.2921 44.7371 83.2028 44.5374L83.4449 44.2751C83.5913 44.4493 83.7215 44.5109 83.8356 44.4598C83.937 44.3803 84.0398 44.2658 84.1442 44.1165C84.2614 43.9957 84.3421 43.9082 84.3864 43.8542C84.4307 43.8001 84.5178 43.727 84.6477 43.6347C85.1102 43.291 85.5295 42.8125 85.9058 42.1993C86.3105 41.5733 86.647 40.9095 86.9152 40.2076C87.1833 39.5058 87.361 38.7931 87.4483 38.0695C87.564 37.3331 87.5848 36.6905 87.5107 36.1418L87.4724 36.0562L87.558 36.0179C88.0265 35.5346 88.3506 34.9961 88.5301 34.4023C88.7097 33.8086 88.8607 33.2276 88.9832 32.6594C89.0929 32.0626 89.2567 31.5102 89.4745 31.002C89.6796 30.4653 90.0419 30.0124 90.5615 29.6432C90.545 29.3767 90.5841 29.1196 90.6787 28.8719C90.7606 28.5957 90.8346 28.3401 90.9008 28.1051C90.9826 27.8289 91.0424 27.5797 91.08 27.3575C91.1333 27.094 91.109 26.8482 91.007 26.6199C90.9559 26.5058 90.8636 26.3759 90.7301 26.2303C90.625 26.0719 90.5597 25.9641 90.5342 25.9071C90.5973 25.7419 90.7426 25.4545 90.9702 25.0447C91.185 24.6063 91.3934 24.1537 91.5954 23.6868C91.826 23.2072 92.0344 22.7546 92.2207 22.329C92.407 21.9034 92.4967 21.6066 92.49 21.4384L92.6139 21.4857C93.068 21.6592 93.4286 21.8917 93.6958 22.183C93.9502 22.4458 94.154 22.7484 94.307 23.0907C94.4473 23.4045 94.5576 23.766 94.6378 24.1751C94.7053 24.5557 94.787 24.93 94.883 25.2978L94.8593 25.3597C94.8157 25.7216 94.7593 26.0548 94.6902 26.3596C94.6368 26.6231 94.5471 26.9199 94.4209 27.2502C94.2158 27.7869 94.0775 28.3964 94.0061 29.0787C94.283 29.4684 94.4743 29.8963 94.58 30.3625C94.6857 30.8287 94.7915 31.2949 94.8972 31.7611C94.9902 32.1988 95.126 32.6173 95.3045 33.0167C95.5116 33.4034 95.8328 33.739 96.2681 34.0236C96.0752 34.281 96.0027 34.5017 96.0507 34.6856C96.1144 34.8283 96.2274 34.9661 96.3895 35.099C96.5801 35.2191 96.7708 35.3393 96.9614 35.4594C97.1806 35.5668 97.3491 35.714 97.4669 35.9009C98.0959 36.2359 98.7452 36.4248 99.4148 36.4678C100.084 36.5107 100.744 36.4554 101.394 36.3016C102.044 36.1479 102.675 35.9514 103.287 35.712C103.915 35.4314 104.528 35.1572 105.127 34.8894L106.326 34.3537C107.238 33.9455 107.87 33.4063 108.221 32.7361C108.572 32.0658 108.813 31.3418 108.944 30.5642C109.105 29.7737 109.258 28.9691 109.406 28.1501C109.553 27.3312 109.88 26.5689 110.386 25.8634C110.182 25.407 110.128 25.02 110.226 24.7025C110.324 24.385 110.434 24.096 110.557 23.8355C110.709 23.5623 110.797 23.3003 110.822 23.0496C110.863 22.7576 110.702 22.4359 110.339 22.0845C110.631 21.8174 110.82 21.4758 110.908 21.06C110.996 20.6441 111.043 20.2125 111.048 19.7651C111.069 19.2764 111.068 18.8148 111.045 18.3801C111.038 17.9042 111.07 17.4789 111.142 17.1044C110.916 16.8288 110.754 16.542 110.655 16.244C110.584 15.9332 110.506 15.643 110.42 15.3735C110.321 15.0755 110.171 14.8172 109.971 14.5987C109.77 14.3802 109.435 14.2049 108.965 14.0726L108.903 14.049L108.884 14.0062C108.589 13.7276 108.432 13.4551 108.416 13.1886C108.428 12.9093 108.475 12.6316 108.557 12.3554C108.667 12.0664 108.756 11.8044 108.822 11.5695C108.916 11.3218 108.898 11.0902 108.768 10.8747C109.652 10.4793 110.35 10.3556 110.861 10.5036C111.388 10.6104 111.817 10.8807 112.148 11.3147C112.466 11.7201 112.731 12.2351 112.942 12.8598C113.181 13.4716 113.455 14.085 113.764 14.6999ZM127.473 14.4758C127.044 14.3594 126.666 14.2032 126.339 14.0072C126.012 13.8111 125.705 13.623 125.419 13.4428C125.149 13.2213 124.871 13.0204 124.585 12.8402C124.328 12.6472 124.054 12.4955 123.765 12.3851C123.588 12.2935 123.364 12.2908 123.094 12.377C122.841 12.422 122.584 12.5368 122.324 12.7214C122.08 12.8647 121.882 13.073 121.73 13.3462C121.607 13.6067 121.567 13.8987 121.609 14.2222C121.618 14.3206 121.606 14.4459 121.571 14.5983C121.565 14.7379 121.442 14.8445 121.201 14.918C121.173 15.2385 121.012 15.5673 120.718 15.9043C120.439 16.2 120.226 16.6034 120.078 17.1146L119.119 18.416L119.467 18.6199C119.264 18.779 119.042 18.8953 118.801 18.9688C118.548 19.0138 118.28 19.0651 117.997 19.1229C117.463 18.5402 117.228 17.8236 117.293 16.9731C117.358 16.1226 117.697 15.3889 118.312 14.772C118.269 14.1407 118.346 13.6614 118.542 13.3342C118.766 12.9942 119.038 12.5303 119.357 11.9426C119.465 11.7235 119.665 11.4454 119.96 11.1084C120.283 10.7587 120.484 10.4806 120.562 10.2742C120.686 10.0137 120.882 9.84036 121.151 9.7541C121.437 9.62655 121.762 9.54968 122.127 9.5235C122.586 9.24961 122.982 9.14086 123.316 9.19724C123.465 9.30162 123.711 9.43117 124.054 9.58589C124.413 9.69933 124.632 9.80673 124.712 9.90809C125.582 10.1695 126.195 10.3919 126.55 10.5751C126.935 10.7456 127.256 11.0813 127.514 11.582C128.283 11.923 128.884 11.928 129.318 11.5971C129.768 11.2249 129.93 10.7073 129.805 10.0444C129.811 9.90481 129.817 9.76519 129.823 9.62556C129.857 9.47318 129.987 9.38088 130.213 9.34866C130.234 9.16775 130.297 9.00262 130.402 8.85326C130.535 8.69115 130.668 8.52903 130.801 8.36692C130.962 8.19205 131.082 8.00141 131.161 7.79499C131.256 7.54729 131.288 7.27593 131.259 6.98091L132.275 5.80785L131.927 5.60396C132.13 5.44487 132.358 5.34283 132.612 5.29785C132.853 5.22435 133.129 5.15235 133.44 5.08186C133.974 5.66451 134.215 6.39535 134.163 7.27437C134.098 8.12487 133.759 8.85857 133.145 9.47548C133.146 10.091 133.054 10.6116 132.867 11.0372C132.71 11.45 132.477 11.9645 132.171 12.5808C132.079 12.7587 131.859 12.9939 131.511 13.2866C131.178 13.538 130.973 13.7669 130.894 13.9733C130.771 14.2338 130.566 14.4278 130.281 14.5553C129.996 14.6829 129.664 14.7455 129.287 14.7431C128.827 15.017 128.431 15.1258 128.098 15.0694C127.853 14.9049 127.645 14.7071 127.473 14.4758Z" fill="white"/>
</svg>
