<svg width="317" height="118" viewBox="0 0 317 118" fill="none" xmlns="http://www.w3.org/2000/svg">
<path d="M32.92 8.688C32.92 10.672 32.376 12.448 31.288 14.016C30.2 15.552 28.712 16.832 26.824 17.856C28.04 18.688 29 19.712 29.704 20.928C30.44 22.112 30.808 23.424 30.808 24.864C30.808 26.592 30.28 28.304 29.224 30C28.2 31.664 26.824 33.152 25.096 34.464C23.368 35.744 21.4 36.784 19.192 37.584C16.984 38.384 14.728 38.784 12.424 38.784C9.928 38.784 7.736 38.304 5.848 37.344C3.992 36.416 2.536 35.088 1.48 33.36C1.8 32.4 2.216 31.216 2.728 29.808C3.272 28.368 3.864 26.864 4.504 25.296C5.144 23.696 5.784 22.112 6.424 20.544C7.096 18.976 7.72 17.568 8.296 16.32C9.512 13.6 10.6 11.344 11.56 9.552C12.52 7.76 13.4 6.336 14.2 5.28C12.44 5.824 10.84 6.448 9.4 7.152C7.96 7.824 6.904 8.48 6.232 9.12C5.944 8.928 5.64 8.64 5.32 8.256C5.032 7.872 4.744 7.456 4.456 7.008C4.2 6.528 3.976 6.048 3.784 5.568C3.624 5.088 3.528 4.656 3.496 4.272C4.328 3.696 5.4 3.152 6.712 2.64C8.056 2.096 9.512 1.632 11.08 1.248C12.648 0.864 14.248 0.56 15.88 0.336001C17.544 0.112 19.128 0 20.632 0C24.472 0 27.48 0.768001 29.656 2.304C31.832 3.84 32.92 5.968 32.92 8.688ZM14.632 20.16C14.024 19.872 13.464 19.44 12.952 18.864C12.216 20.496 11.512 22.096 10.84 23.664C10.2 25.232 9.624 26.688 9.112 28.032C8.6 29.376 8.184 30.544 7.864 31.536C7.544 32.528 7.368 33.248 7.336 33.696C7.784 33.952 8.312 34.144 8.92 34.272C9.56 34.4 10.344 34.464 11.272 34.464C13.448 34.464 15.528 34.16 17.512 33.552C19.496 32.944 21.24 32.128 22.744 31.104C24.248 30.048 25.448 28.848 26.344 27.504C27.24 26.16 27.688 24.752 27.688 23.28C27.688 21.168 26.776 19.648 24.952 18.72C22.456 19.744 19.64 20.256 16.504 20.256C16.056 20.256 15.704 20.256 15.448 20.256C15.224 20.256 14.952 20.224 14.632 20.16ZM23.944 3.504C23.272 3.504 22.552 3.552 21.784 3.648C21.048 3.712 20.264 3.824 19.432 3.984C19.56 4.112 19.656 4.256 19.72 4.416C19.816 4.544 19.896 4.688 19.96 4.848C19.672 5.232 19.32 5.792 18.904 6.528C18.488 7.264 18.024 8.128 17.512 9.12C17 10.08 16.456 11.152 15.88 12.336C15.336 13.52 14.776 14.736 14.2 15.984C14.744 15.856 15.4 15.76 16.168 15.696C16.968 15.6 17.752 15.552 18.52 15.552C18.936 15.552 19.336 15.568 19.72 15.6C20.136 15.632 20.536 15.68 20.92 15.744C22.456 15.488 23.832 15.12 25.048 14.64C26.296 14.128 27.368 13.552 28.264 12.912C29.16 12.24 29.848 11.504 30.328 10.704C30.808 9.904 31.048 9.056 31.048 8.16C31.048 6.624 30.44 5.472 29.224 4.704C28.008 3.904 26.248 3.504 23.944 3.504Z" fill="#416FE6"/>
<path d="M38.7856 36.816C36.9616 36.624 35.5056 35.824 34.4176 34.416C33.3296 33.008 32.7856 31.216 32.7856 29.04C32.7856 27.76 32.9776 26.432 33.3616 25.056C33.7456 23.68 34.2896 22.352 34.9936 21.072C35.6976 19.76 36.5296 18.528 37.4896 17.376C38.4496 16.224 39.4896 15.232 40.6096 14.4C42.3696 13.088 44.0176 12.432 45.5536 12.432C46.5776 12.976 47.5856 14.112 48.5776 15.84C48.7376 15.84 48.8816 15.84 49.0096 15.84C49.1376 15.808 49.2816 15.792 49.4416 15.792C51.1376 15.792 51.9856 17.296 51.9856 20.304C51.9856 22.32 51.6496 24.24 50.9776 26.064C50.3376 27.856 49.4256 29.488 48.2416 30.96C47.0896 32.432 45.6976 33.68 44.0656 34.704C42.4656 35.696 40.7056 36.4 38.7856 36.816ZM41.2336 21.696C40.6896 22.432 40.1776 23.232 39.6976 24.096C39.2176 24.96 38.8016 25.84 38.4496 26.736C38.0976 27.6 37.8256 28.448 37.6336 29.28C37.4416 30.08 37.3456 30.8 37.3456 31.44C37.3456 32.208 37.4736 32.944 37.7296 33.648C37.9856 34.352 38.2736 34.752 38.5936 34.848C40.0336 34.528 41.3456 33.936 42.5296 33.072C43.7456 32.176 44.7856 31.072 45.6496 29.76C46.5456 28.448 47.2336 26.96 47.7136 25.296C48.2256 23.632 48.4816 21.856 48.4816 19.968C48.4816 19.136 48.4336 18.48 48.3376 18C48.2416 17.52 48.0816 17.104 47.8576 16.752C46.4496 17.168 45.1856 17.84 44.0656 18.768C42.9776 19.696 42.0336 20.672 41.2336 21.696Z" fill="#416FE6"/>
<path d="M61.2851 11.856C62.1171 12.112 62.9011 12.688 63.6371 13.584C64.3731 14.448 64.9171 15.408 65.2691 16.464C64.9171 17.328 64.3731 18.368 63.6371 19.584C62.9011 20.8 62.1651 22.048 61.4291 23.328C60.6931 24.576 60.0211 25.776 59.4131 26.928C58.8371 28.048 58.5011 28.976 58.4051 29.712C58.9171 29.168 59.4771 28.544 60.0851 27.84C60.7251 27.104 61.3331 26.384 61.9091 25.68C62.5171 24.944 63.0771 24.288 63.5891 23.712C64.1011 23.104 64.5011 22.656 64.7891 22.368C65.3971 21.728 66.1171 20.992 66.9491 20.16C67.7811 19.296 68.6451 18.496 69.5411 17.76C70.4691 16.992 71.3971 16.352 72.3251 15.84C73.2531 15.296 74.1011 15.024 74.8691 15.024C75.7011 15.024 76.3891 15.312 76.9331 15.888C77.5091 16.432 77.9571 17.008 78.2771 17.616C78.2771 17.68 78.1491 17.776 77.8931 17.904C77.6691 18 77.3331 18.304 76.8851 18.816C76.4371 19.392 75.9251 20.192 75.3491 21.216C74.8051 22.208 74.2611 23.296 73.7171 24.48C73.2051 25.632 72.7731 26.816 72.4211 28.032C72.0691 29.248 71.8931 30.352 71.8931 31.344C71.8931 32.144 71.9891 32.656 72.1811 32.88C72.4051 33.104 72.7091 33.216 73.0931 33.216C73.4451 33.216 73.8131 33.136 74.1971 32.976C74.5811 32.816 74.8851 32.736 75.1091 32.736C75.2371 32.8 75.3331 32.944 75.3971 33.168C75.4931 33.36 75.5411 33.536 75.5411 33.696C75.2851 33.92 74.9811 34.144 74.6291 34.368C74.2771 34.592 73.9091 34.8 73.5251 34.992C73.1411 35.184 72.7571 35.344 72.3731 35.472C72.0211 35.6 71.7011 35.664 71.4131 35.664C70.4851 35.664 69.7171 35.52 69.1091 35.232C68.5331 34.976 68.0691 34.624 67.7171 34.176C67.3971 33.728 67.1731 33.2 67.0451 32.592C66.9171 31.952 66.8531 31.28 66.8531 30.576C66.8531 30.192 66.8851 29.76 66.9491 29.28C67.0131 28.8 67.1411 28.24 67.3331 27.6C67.5251 26.928 67.7971 26.144 68.1491 25.248C68.5011 24.32 68.9491 23.216 69.4931 21.936C69.4291 21.936 68.9971 22.16 68.1971 22.608C67.3971 23.056 66.5331 23.744 65.6051 24.672C64.1011 26.112 62.7411 27.536 61.5251 28.944C60.3411 30.352 59.1251 31.92 57.8771 33.648C57.1731 34.64 56.5491 35.472 56.0051 36.144C55.4931 36.848 55.0451 37.312 54.6611 37.536C53.9891 37.152 53.4931 36.608 53.1731 35.904C52.8531 35.232 52.6131 34.528 52.4531 33.792C52.4531 33.184 52.5331 32.416 52.6931 31.488C52.8851 30.56 53.1251 29.536 53.4131 28.416C53.7331 27.264 54.1171 26.064 54.5651 24.816C55.0131 23.568 55.5091 22.32 56.0531 21.072C57.2691 18.256 58.3731 16.048 59.3651 14.448C60.3891 12.848 61.0291 11.984 61.2851 11.856Z" fill="#416FE6"/>
<path d="M68.935 49.44C68.935 49.248 68.999 49.072 69.127 48.912C69.255 48.752 69.399 48.592 69.559 48.432C69.943 48.784 70.279 49.056 70.567 49.248C70.823 49.44 71.079 49.6 71.335 49.728C71.559 49.856 71.799 49.936 72.055 49.968C72.311 50 72.615 50.016 72.967 50.016C74.631 50.016 76.215 49.568 77.719 48.672C79.223 47.808 80.631 46.544 81.943 44.88C83.287 43.216 84.503 41.184 85.591 38.784C86.679 36.384 87.639 33.664 88.471 30.624C88.087 31.008 87.607 31.44 87.031 31.92C86.487 32.368 85.911 32.8 85.303 33.216C84.695 33.632 84.087 34.016 83.479 34.368C82.903 34.72 82.407 34.976 81.991 35.136C81.447 35.04 80.935 34.816 80.455 34.464C80.007 34.08 79.607 33.616 79.255 33.072C78.903 32.528 78.631 31.92 78.439 31.248C78.247 30.544 78.151 29.808 78.151 29.04C78.151 27.792 78.375 26.512 78.823 25.2C79.303 23.888 79.927 22.608 80.695 21.36C81.463 20.08 82.359 18.88 83.383 17.76C84.439 16.64 85.543 15.664 86.695 14.832C87.879 14 89.063 13.344 90.247 12.864C91.463 12.352 92.647 12.096 93.799 12.096C94.919 12.096 95.751 12.336 96.295 12.816C96.871 13.264 97.287 14.048 97.543 15.168C97.191 14.976 96.743 14.88 96.199 14.88C95.431 14.88 94.535 15.184 93.511 15.792C92.519 16.4 91.495 17.2 90.439 18.192C89.415 19.152 88.391 20.272 87.367 21.552C86.343 22.8 85.431 24.08 84.631 25.392C83.863 26.704 83.223 27.984 82.711 29.232C82.231 30.48 81.991 31.6 81.991 32.592C81.991 32.816 82.007 32.96 82.039 33.024C82.071 33.056 82.119 33.072 82.183 33.072C82.471 33.072 82.855 32.912 83.335 32.592C83.847 32.272 84.407 31.872 85.015 31.392C85.655 30.88 86.311 30.304 86.983 29.664C87.655 28.992 88.295 28.32 88.903 27.648C90.279 26.112 91.527 24.4 92.647 22.512C93.799 20.592 94.711 18.736 95.383 16.944C96.247 17.008 97.015 17.152 97.687 17.376C98.359 17.6 98.823 17.84 99.079 18.096C97.991 20.592 97.111 22.688 96.439 24.384C95.799 26.08 95.239 27.584 94.759 28.896C93.895 31.2 93.079 33.296 92.311 35.184C91.575 37.104 90.807 38.864 90.007 40.464C89.239 42.096 88.391 43.6 87.463 44.976C86.567 46.384 85.543 47.728 84.391 49.008C83.847 49.616 83.223 50.144 82.519 50.592C81.847 51.072 81.143 51.472 80.407 51.792C79.703 52.112 78.999 52.352 78.295 52.512C77.623 52.672 76.999 52.752 76.423 52.752C75.655 52.752 74.871 52.656 74.071 52.464C73.271 52.304 72.535 52.064 71.863 51.744C71.159 51.456 70.551 51.104 70.039 50.688C69.527 50.304 69.159 49.888 68.935 49.44Z" fill="#416FE6"/>
<path d="M116 16.032C115.968 16.64 115.856 17.28 115.664 17.952C115.504 18.592 115.296 19.184 115.04 19.728C114.784 20.24 114.512 20.672 114.224 21.024C113.936 21.376 113.664 21.552 113.408 21.552C113.056 21.52 112.848 21.28 112.784 20.832C112.784 20.736 112.816 20.592 112.88 20.4C112.976 20.176 113.072 19.936 113.168 19.68C113.264 19.424 113.344 19.168 113.408 18.912C113.504 18.656 113.552 18.432 113.552 18.24C113.552 17.792 113.44 17.424 113.216 17.136C113.024 16.816 112.752 16.656 112.4 16.656C111.12 16.656 110.144 17.456 109.472 19.056C108.8 20.656 108.464 23.008 108.464 26.112C108.464 26.432 108.48 26.624 108.512 26.688C109.184 26.656 109.776 26.64 110.288 26.64C110.832 26.608 111.36 26.592 111.872 26.592C111.904 26.656 111.92 26.784 111.92 26.976C111.92 27.264 111.856 27.472 111.728 27.6C110.992 27.76 110.4 27.904 109.952 28.032C109.536 28.128 109.216 28.224 108.992 28.32C108.768 28.416 108.624 28.528 108.56 28.656C108.528 28.752 108.512 28.896 108.512 29.088C108.512 29.344 108.512 29.6 108.512 29.856C108.544 30.112 108.56 30.432 108.56 30.816C108.56 33.504 107.824 35.664 106.352 37.296C104.912 38.928 102.896 39.872 100.304 40.128C99.8564 40.096 99.3924 39.968 98.9124 39.744C98.4324 39.52 97.9684 39.232 97.5204 38.88C97.1044 38.528 96.7364 38.128 96.4164 37.68C96.0964 37.264 95.8724 36.832 95.7444 36.384C95.7444 35.168 96.0004 34.016 96.5124 32.928C97.0244 31.808 97.7124 30.832 98.5764 30C99.4724 29.136 100.512 28.448 101.696 27.936C102.912 27.392 104.224 27.072 105.632 26.976C105.632 26.176 105.552 25.392 105.392 24.624C105.232 23.856 105.056 23.12 104.864 22.416C104.704 21.68 104.544 20.976 104.384 20.304C104.224 19.6 104.144 18.912 104.144 18.24C104.144 17.376 104.32 16.528 104.672 15.696C105.024 14.832 105.488 14.048 106.064 13.344C106.64 12.608 107.312 11.984 108.08 11.472C108.848 10.96 109.648 10.608 110.48 10.416C110.832 10.512 111.296 10.8 111.872 11.28C112.48 11.728 113.072 12.24 113.648 12.816C114.224 13.392 114.736 13.984 115.184 14.592C115.632 15.168 115.904 15.648 116 16.032ZM100.16 37.92C100.928 37.6 101.648 37.136 102.32 36.528C103.024 35.92 103.632 35.232 104.144 34.464C104.656 33.696 105.056 32.88 105.344 32.016C105.664 31.152 105.824 30.304 105.824 29.472C105.184 29.568 104.48 29.872 103.712 30.384C102.944 30.864 102.224 31.456 101.552 32.16C100.88 32.832 100.32 33.536 99.8724 34.272C99.4244 35.008 99.2004 35.648 99.2004 36.192C99.2004 36.896 99.5204 37.472 100.16 37.92Z" fill="#416FE6"/>
<path d="M131.794 15.744C132.114 15.744 132.482 15.808 132.898 15.936C133.346 16.032 133.746 16.176 134.098 16.368C134.45 16.528 134.738 16.704 134.962 16.896C135.218 17.088 135.346 17.264 135.346 17.424C134.706 18.768 134.114 20.128 133.57 21.504C133.026 22.848 132.562 24.144 132.178 25.392C131.794 26.64 131.49 27.808 131.266 28.896C131.074 29.984 130.978 30.928 130.978 31.728C130.978 32.624 131.074 33.376 131.266 33.984C131.458 34.56 131.778 34.976 132.226 35.232C131.842 35.488 131.346 35.696 130.738 35.856C130.13 36.016 129.586 36.096 129.106 36.096C127.378 36.096 126.514 34.912 126.514 32.544C126.514 30.72 127.122 28.224 128.338 25.056C127.698 26.528 126.962 27.92 126.13 29.232C125.298 30.512 124.45 31.648 123.586 32.64C122.722 33.632 121.842 34.448 120.946 35.088C120.082 35.696 119.282 36.064 118.546 36.192C117.362 36.128 116.402 35.568 115.666 34.512C114.93 33.424 114.562 32.048 114.562 30.384C114.562 28.592 114.946 26.704 115.714 24.72C116.482 22.736 117.458 20.896 118.642 19.2C119.858 17.504 121.17 16.096 122.578 14.976C123.986 13.824 125.346 13.216 126.658 13.152C126.978 13.248 127.33 13.44 127.714 13.728C128.13 14.016 128.514 14.352 128.866 14.736C129.25 15.12 129.57 15.52 129.826 15.936C130.082 16.32 130.226 16.656 130.258 16.944C128.978 17.136 127.65 17.76 126.274 18.816C124.93 19.872 123.698 21.152 122.578 22.656C121.49 24.128 120.594 25.712 119.89 27.408C119.186 29.104 118.834 30.688 118.834 32.16C118.834 32.768 119.058 33.152 119.506 33.312C120.434 33.12 121.506 32.336 122.722 30.96C123.938 29.552 125.41 27.392 127.138 24.48C127.458 23.904 127.81 23.264 128.194 22.56C128.61 21.856 129.026 21.12 129.442 20.352C129.858 19.584 130.258 18.816 130.642 18.048C131.058 17.248 131.442 16.48 131.794 15.744Z" fill="#416FE6"/>
<path d="M144.757 11.856C145.589 12.112 146.373 12.688 147.109 13.584C147.845 14.448 148.389 15.408 148.741 16.464C148.389 17.328 147.845 18.368 147.109 19.584C146.373 20.8 145.637 22.048 144.901 23.328C144.165 24.576 143.493 25.776 142.885 26.928C142.309 28.048 141.973 28.976 141.877 29.712C142.389 29.168 142.949 28.544 143.557 27.84C144.197 27.104 144.805 26.384 145.381 25.68C145.989 24.944 146.549 24.288 147.061 23.712C147.573 23.104 147.973 22.656 148.261 22.368C148.869 21.728 149.589 20.992 150.421 20.16C151.253 19.296 152.117 18.496 153.013 17.76C153.941 16.992 154.869 16.352 155.797 15.84C156.725 15.296 157.573 15.024 158.341 15.024C159.173 15.024 159.861 15.312 160.405 15.888C160.981 16.432 161.429 17.008 161.749 17.616C161.749 17.68 161.621 17.776 161.365 17.904C161.141 18 160.805 18.304 160.357 18.816C159.909 19.392 159.397 20.192 158.821 21.216C158.277 22.208 157.733 23.296 157.189 24.48C156.677 25.632 156.245 26.816 155.893 28.032C155.541 29.248 155.365 30.352 155.365 31.344C155.365 32.144 155.461 32.656 155.653 32.88C155.877 33.104 156.181 33.216 156.565 33.216C156.917 33.216 157.285 33.136 157.669 32.976C158.053 32.816 158.357 32.736 158.581 32.736C158.709 32.8 158.805 32.944 158.869 33.168C158.965 33.36 159.013 33.536 159.013 33.696C158.757 33.92 158.453 34.144 158.101 34.368C157.749 34.592 157.381 34.8 156.997 34.992C156.613 35.184 156.229 35.344 155.845 35.472C155.493 35.6 155.173 35.664 154.885 35.664C153.957 35.664 153.189 35.52 152.581 35.232C152.005 34.976 151.541 34.624 151.189 34.176C150.869 33.728 150.645 33.2 150.517 32.592C150.389 31.952 150.325 31.28 150.325 30.576C150.325 30.192 150.357 29.76 150.421 29.28C150.485 28.8 150.613 28.24 150.805 27.6C150.997 26.928 151.269 26.144 151.621 25.248C151.973 24.32 152.421 23.216 152.965 21.936C152.901 21.936 152.469 22.16 151.669 22.608C150.869 23.056 150.005 23.744 149.077 24.672C147.573 26.112 146.213 27.536 144.997 28.944C143.813 30.352 142.597 31.92 141.349 33.648C140.645 34.64 140.021 35.472 139.477 36.144C138.965 36.848 138.517 37.312 138.133 37.536C137.461 37.152 136.965 36.608 136.645 35.904C136.325 35.232 136.085 34.528 135.925 33.792C135.925 33.184 136.005 32.416 136.165 31.488C136.357 30.56 136.597 29.536 136.885 28.416C137.205 27.264 137.589 26.064 138.037 24.816C138.485 23.568 138.981 22.32 139.525 21.072C140.741 18.256 141.845 16.048 142.837 14.448C143.861 12.848 144.501 11.984 144.757 11.856Z" fill="#416FE6"/>
<path d="M29.056 106.032C30.256 108.096 30.856 110.088 30.856 112.008C30.856 112.44 30.808 112.824 30.712 113.16C30.664 113.544 30.592 113.928 30.496 114.312C29.68 114.216 28.816 114.144 27.904 114.096C27.04 114.048 26.128 114.024 25.168 114.024C24.016 114.024 22.84 114.048 21.64 114.096C20.488 114.192 19.192 114.312 17.752 114.456C16.312 114.6 14.704 114.792 12.928 115.032C11.152 115.272 9.088 115.584 6.736 115.968C5.632 115.584 4.528 114.816 3.424 113.664C2.32 112.56 1.288 111.216 0.328003 109.632C0.808003 108.576 1.408 107.28 2.128 105.744C2.848 104.16 3.688 102.264 4.648 100.056C5.608 97.8 6.664 95.184 7.816 92.208C9.016 89.184 10.288 85.704 11.632 81.768C12.496 79.176 13.24 76.896 13.864 74.928C14.488 72.96 15.04 71.064 15.52 69.24C16.048 67.368 16.552 65.424 17.032 63.408C17.512 61.392 18.04 59.064 18.616 56.424C20.536 56.808 22.192 57.528 23.584 58.584C25.024 59.592 26.392 61.056 27.688 62.976C27.304 63.6 26.8 64.608 26.176 66C25.552 67.392 24.808 69.096 23.944 71.112C23.128 73.08 22.216 75.336 21.208 77.88C20.2 80.376 19.144 83.064 18.04 85.944C16.984 88.776 15.952 91.44 14.944 93.936C13.936 96.432 13.024 98.688 12.208 100.704C11.44 102.72 10.816 104.448 10.336 105.888C9.856 107.328 9.616 108.408 9.616 109.128C10.384 109.08 11.08 109.032 11.704 108.984C12.328 108.936 12.976 108.864 13.648 108.768C14.32 108.624 15.04 108.48 15.808 108.336C16.624 108.144 17.584 107.904 18.688 107.616C19.648 107.376 20.536 107.184 21.352 107.04C22.168 106.848 22.96 106.704 23.728 106.608C24.544 106.464 25.36 106.368 26.176 106.32C27.04 106.224 28 106.128 29.056 106.032Z" fill="#416FE6"/>
<path d="M59.7256 80.328C59.5336 83.304 59.0056 85.872 58.1416 88.032C57.2776 90.144 56.0296 92.016 54.3976 93.648C52.8136 95.232 50.8696 96.672 48.5656 97.968C46.2616 99.264 43.5736 100.512 40.5016 101.712C40.5016 102 40.4776 102.312 40.4296 102.648C40.4296 102.936 40.4296 103.248 40.4296 103.584C40.4296 104.208 40.4776 104.856 40.5736 105.528C40.6696 106.2 40.8376 106.824 41.0776 107.4C41.3176 107.976 41.6536 108.456 42.0856 108.84C42.5176 109.176 43.0696 109.344 43.7416 109.344C45.0376 109.344 46.3096 109.056 47.5576 108.48C48.8056 107.904 49.9816 107.208 51.0856 106.392C52.2376 105.528 53.2936 104.616 54.2536 103.656C55.2616 102.648 56.1496 101.736 56.9176 100.92C57.3976 101.352 57.8056 101.76 58.1416 102.144C55.9816 105.024 53.6056 107.424 51.0136 109.344C48.4696 111.216 46.0456 112.416 43.7416 112.944C40.4296 112.56 37.8376 111.36 35.9656 109.344C34.1416 107.28 33.2296 104.808 33.2296 101.928C33.2296 99.96 33.4936 97.968 34.0216 95.952C34.5976 93.888 35.3656 91.92 36.3256 90.048C37.3336 88.128 38.4856 86.328 39.7816 84.648C41.1256 82.968 42.5416 81.504 44.0296 80.256C45.5656 79.008 47.1256 78.024 48.7096 77.304C50.3416 76.584 51.9496 76.224 53.5336 76.224C55.7416 76.512 57.8056 77.88 59.7256 80.328ZM54.7576 82.704C53.4616 82.896 52.1176 83.424 50.7256 84.288C49.3336 85.152 48.0136 86.304 46.7656 87.744C45.5656 89.184 44.4616 90.864 43.4536 92.784C42.4456 94.704 41.6536 96.768 41.0776 98.976C44.9176 97.056 48.1096 94.704 50.6536 91.92C53.1976 89.088 54.5656 86.016 54.7576 82.704Z" fill="#416FE6"/>
<path d="M62.331 105.312C62.331 104.88 62.355 104.352 62.403 103.728C62.499 103.056 62.643 102.192 62.835 101.136C63.027 100.032 63.267 98.712 63.555 97.176C63.891 95.64 64.299 93.792 64.779 91.632C64.875 91.152 65.091 90.384 65.427 89.328C65.763 88.272 66.195 87.168 66.723 86.016C67.299 84.816 67.971 83.664 68.739 82.56C69.555 81.456 70.515 80.64 71.619 80.112C72.435 80.304 73.515 80.808 74.859 81.624C76.203 82.392 77.355 83.472 78.315 84.864C77.211 86.112 76.275 87.36 75.507 88.608C74.787 89.856 74.115 91.152 73.491 92.496C72.915 93.84 72.363 95.232 71.835 96.672C71.355 98.112 70.803 99.624 70.179 101.208C69.651 102.552 69.171 103.944 68.739 105.384C68.307 106.776 68.067 108 68.019 109.056C68.019 109.92 67.995 110.52 67.947 110.856C67.947 111.24 67.827 111.432 67.587 111.432C67.395 111.432 67.011 111.312 66.435 111.072C65.859 110.832 65.259 110.472 64.635 109.992C64.059 109.464 63.531 108.816 63.051 108.048C62.571 107.28 62.331 106.368 62.331 105.312ZM76.083 74.064C76.083 73.776 76.155 73.344 76.299 72.768C76.059 72.528 75.843 72.168 75.651 71.688C75.507 71.208 75.435 70.776 75.435 70.392C75.435 69.96 75.483 69.384 75.579 68.664C75.723 67.896 75.891 67.08 76.083 66.216C76.275 65.352 76.515 64.464 76.803 63.552C77.091 62.592 77.379 61.728 77.667 60.96C78.243 60.96 78.939 61.128 79.755 61.464C80.619 61.752 81.483 62.16 82.347 62.688C83.211 63.168 84.003 63.72 84.723 64.344C85.443 64.92 85.995 65.472 86.379 66C85.851 66.528 85.155 67.272 84.291 68.232C83.427 69.144 82.587 70.128 81.771 71.184C80.955 72.192 80.211 73.152 79.539 74.064C78.867 74.976 78.435 75.624 78.243 76.008C77.667 75.912 77.163 75.672 76.731 75.288C76.299 74.856 76.083 74.448 76.083 74.064Z" fill="#416FE6"/>
<path d="M103.315 81.48C103.267 82.392 103.099 83.352 102.811 84.36C102.571 85.32 102.259 86.208 101.875 87.024C101.491 87.792 101.083 88.44 100.651 88.968C100.219 89.496 99.8106 89.76 99.4266 89.76C98.8986 89.712 98.5866 89.352 98.4906 88.68C98.4906 88.536 98.5386 88.32 98.6346 88.032C98.7786 87.696 98.9226 87.336 99.0666 86.952C99.2106 86.568 99.3306 86.184 99.4266 85.8C99.5706 85.416 99.6426 85.08 99.6426 84.792C99.6426 84.12 99.4746 83.568 99.1386 83.136C98.8506 82.656 98.4426 82.416 97.9146 82.416C95.9946 82.416 94.5306 83.616 93.5226 86.016C92.5146 88.416 92.0106 91.944 92.0106 96.6C92.0106 97.08 92.0346 97.368 92.0826 97.464C93.0906 97.416 93.9786 97.392 94.7466 97.392C95.5626 97.344 96.3546 97.32 97.1226 97.32C97.1706 97.416 97.1946 97.608 97.1946 97.896C97.1946 98.328 97.0986 98.64 96.9066 98.832C95.8026 99.072 94.9146 99.288 94.2426 99.48C93.6186 99.624 93.1386 99.768 92.8026 99.912C92.4666 100.056 92.2506 100.224 92.1546 100.416C92.1066 100.56 92.0826 100.776 92.0826 101.064C92.0826 101.448 92.0826 101.832 92.0826 102.216C92.1306 102.6 92.1546 103.08 92.1546 103.656C92.1546 107.688 91.0506 110.928 88.8426 113.376C86.6826 115.824 83.6586 117.24 79.7706 117.624C79.0986 117.576 78.4026 117.384 77.6826 117.048C76.9626 116.712 76.2666 116.28 75.5946 115.752C74.9706 115.224 74.4186 114.624 73.9386 113.952C73.4586 113.328 73.1226 112.68 72.9306 112.008C72.9306 110.184 73.3146 108.456 74.0826 106.824C74.8506 105.144 75.8826 103.68 77.1786 102.432C78.5226 101.136 80.0826 100.104 81.8586 99.336C83.6826 98.52 85.6506 98.04 87.7626 97.896C87.7626 96.696 87.6426 95.52 87.4026 94.368C87.1626 93.216 86.8986 92.112 86.6106 91.056C86.3706 89.952 86.1306 88.896 85.8906 87.888C85.6506 86.832 85.5306 85.8 85.5306 84.792C85.5306 83.496 85.7946 82.224 86.3226 80.976C86.8506 79.68 87.5466 78.504 88.4106 77.448C89.2746 76.344 90.2826 75.408 91.4346 74.64C92.5866 73.872 93.7866 73.344 95.0346 73.056C95.5626 73.2 96.2586 73.632 97.1226 74.352C98.0346 75.024 98.9226 75.792 99.7866 76.656C100.651 77.52 101.419 78.408 102.091 79.32C102.763 80.184 103.171 80.904 103.315 81.48ZM79.5546 114.312C80.7066 113.832 81.7866 113.136 82.7946 112.224C83.8506 111.312 84.7626 110.28 85.5306 109.128C86.2986 107.976 86.8986 106.752 87.3306 105.456C87.8106 104.16 88.0506 102.888 88.0506 101.64C87.0906 101.784 86.0346 102.24 84.8826 103.008C83.7306 103.728 82.6506 104.616 81.6426 105.672C80.6346 106.68 79.7946 107.736 79.1226 108.84C78.4506 109.944 78.1146 110.904 78.1146 111.72C78.1146 112.776 78.5946 113.64 79.5546 114.312Z" fill="#416FE6"/>
<path d="M122.149 108.552C121.237 107.784 120.613 106.824 120.277 105.672C119.989 104.52 119.845 103.536 119.845 102.72C119.845 101.712 119.965 100.848 120.205 100.128C120.013 100.128 119.581 100.512 118.909 101.28C118.237 102.048 117.493 102.96 116.677 104.016C115.909 105.072 115.141 106.104 114.373 107.112C113.605 108.12 113.029 108.864 112.645 109.344C112.021 110.016 111.421 110.544 110.845 110.928C110.317 111.312 109.885 111.528 109.549 111.576C108.781 111.528 107.965 111.36 107.101 111.072C106.285 110.832 105.493 110.472 104.725 109.992C104.005 109.512 103.357 108.936 102.781 108.264C102.253 107.592 101.893 106.824 101.701 105.96C101.701 104.616 101.725 103.512 101.773 102.648C101.869 101.784 102.037 100.848 102.277 99.84C102.709 98.016 103.333 95.952 104.149 93.648C105.013 91.344 105.997 89.088 107.101 86.88C108.205 84.624 109.429 82.536 110.773 80.616C112.165 78.648 113.629 77.112 115.165 76.008C115.597 76.008 116.101 76.056 116.677 76.152C117.253 76.2 117.829 76.32 118.405 76.512C119.029 76.704 119.605 76.944 120.133 77.232C120.709 77.472 121.189 77.808 121.573 78.24C121.141 78.72 120.037 80.328 118.261 83.064C116.533 85.8 114.589 89.736 112.429 94.872C112.189 95.4 111.901 96.168 111.565 97.176C111.229 98.184 110.893 99.24 110.557 100.344C110.221 101.448 109.933 102.528 109.693 103.584C109.501 104.64 109.405 105.48 109.405 106.104C109.405 106.488 109.453 106.776 109.549 106.968C109.693 107.16 109.813 107.304 109.909 107.4C110.629 107.112 111.541 106.32 112.645 105.024C113.749 103.728 115.285 101.736 117.253 99.048C117.733 98.376 118.285 97.608 118.909 96.744C119.581 95.88 120.253 94.968 120.925 94.008C121.597 93 122.221 91.968 122.797 90.912C123.421 89.856 123.925 88.8 124.309 87.744C124.501 87.168 124.741 86.496 125.029 85.728C125.365 84.912 125.749 84.072 126.181 83.208C126.661 82.344 127.189 81.48 127.765 80.616C128.389 79.704 129.109 78.864 129.925 78.096C130.549 78.096 131.221 78.168 131.941 78.312C132.661 78.456 133.333 78.648 133.957 78.888C134.629 79.08 135.205 79.32 135.685 79.608C136.165 79.848 136.525 80.112 136.765 80.4C135.901 82.512 134.941 84.6 133.885 86.664C132.829 88.728 131.845 90.768 130.933 92.784C130.021 94.752 129.253 96.72 128.629 98.688C128.005 100.656 127.693 102.576 127.693 104.448C127.693 105.456 127.765 106.344 127.909 107.112C128.101 107.832 128.293 108.456 128.485 108.984C128.677 109.464 128.845 109.872 128.989 110.208C129.181 110.544 129.277 110.832 129.277 111.072C129.277 111.12 129.229 111.192 129.133 111.288C129.085 111.336 129.037 111.36 128.989 111.36C128.653 111.36 128.221 111.288 127.693 111.144C127.165 111 126.565 110.784 125.893 110.496C125.269 110.256 124.621 109.968 123.949 109.632C123.325 109.296 122.725 108.936 122.149 108.552Z" fill="#416FE6"/>
<path d="M135.615 108.696C135.855 107.304 136.263 105.48 136.839 103.224C137.463 100.92 138.183 98.496 138.999 95.952C139.815 93.36 140.679 90.768 141.591 88.176C142.503 85.584 143.391 83.256 144.255 81.192C144.879 79.704 145.431 78.552 145.911 77.736C146.391 76.872 146.919 76.152 147.495 75.576C148.167 75.672 148.863 75.84 149.583 76.08C150.303 76.32 150.999 76.608 151.671 76.944C152.343 77.28 152.943 77.64 153.471 78.024C153.999 78.36 154.407 78.696 154.695 79.032C153.399 80.568 152.247 82.32 151.239 84.288C150.279 86.256 149.295 88.776 148.287 91.848C150.879 89.544 153.159 87.336 155.127 85.224C157.143 83.112 159.015 80.76 160.743 78.168C161.031 77.928 161.535 77.808 162.255 77.808C162.927 77.808 163.575 77.928 164.199 78.168C164.823 78.36 165.255 78.648 165.495 79.032C164.631 81.336 164.199 83.616 164.199 85.872C164.199 87.984 164.511 89.568 165.135 90.624C165.087 90.912 164.751 91.464 164.127 92.28C163.551 93.096 162.903 93.864 162.183 94.584C160.887 93.912 159.735 93 158.727 91.848C157.719 90.648 156.975 89.352 156.495 87.96C154.239 89.544 152.319 91.104 150.735 92.64C149.151 94.128 147.783 95.808 146.631 97.68C145.527 99.504 144.567 101.616 143.751 104.016C142.983 106.416 142.239 109.272 141.519 112.584C141.087 112.536 140.559 112.368 139.935 112.08C139.359 111.84 138.759 111.528 138.135 111.144C137.559 110.76 137.031 110.352 136.551 109.92C136.071 109.488 135.759 109.08 135.615 108.696Z" fill="#416FE6"/>
<path d="M191.358 80.328C191.166 83.304 190.638 85.872 189.774 88.032C188.91 90.144 187.662 92.016 186.03 93.648C184.446 95.232 182.502 96.672 180.198 97.968C177.894 99.264 175.206 100.512 172.134 101.712C172.134 102 172.11 102.312 172.062 102.648C172.062 102.936 172.062 103.248 172.062 103.584C172.062 104.208 172.11 104.856 172.206 105.528C172.302 106.2 172.47 106.824 172.71 107.4C172.95 107.976 173.286 108.456 173.718 108.84C174.15 109.176 174.702 109.344 175.374 109.344C176.67 109.344 177.942 109.056 179.19 108.48C180.438 107.904 181.614 107.208 182.718 106.392C183.87 105.528 184.926 104.616 185.886 103.656C186.894 102.648 187.782 101.736 188.55 100.92C189.03 101.352 189.438 101.76 189.774 102.144C187.614 105.024 185.238 107.424 182.646 109.344C180.102 111.216 177.678 112.416 175.374 112.944C172.062 112.56 169.47 111.36 167.598 109.344C165.774 107.28 164.862 104.808 164.862 101.928C164.862 99.96 165.126 97.968 165.654 95.952C166.23 93.888 166.998 91.92 167.958 90.048C168.966 88.128 170.118 86.328 171.414 84.648C172.758 82.968 174.174 81.504 175.662 80.256C177.198 79.008 178.758 78.024 180.342 77.304C181.974 76.584 183.582 76.224 185.166 76.224C187.374 76.512 189.438 77.88 191.358 80.328ZM186.39 82.704C185.094 82.896 183.75 83.424 182.358 84.288C180.966 85.152 179.646 86.304 178.398 87.744C177.198 89.184 176.094 90.864 175.086 92.784C174.078 94.704 173.286 96.768 172.71 98.976C176.55 97.056 179.742 94.704 182.286 91.92C184.83 89.088 186.198 86.016 186.39 82.704Z" fill="#416FE6"/>
<path d="M197.204 96.6C197.204 95.304 197.54 93.432 198.212 90.984C198.932 88.488 199.844 85.752 200.948 82.776C202.052 79.752 203.3 76.656 204.692 73.488C206.084 70.272 207.476 67.272 208.868 64.488C210.308 61.704 211.676 59.304 212.972 57.288C214.268 55.224 215.396 53.856 216.356 53.184C217.124 53.328 217.94 53.688 218.804 54.264C219.716 54.792 220.556 55.416 221.324 56.136C222.092 56.808 222.764 57.528 223.34 58.296C223.916 59.064 224.252 59.736 224.348 60.312C221.9 62.328 219.476 64.848 217.076 67.872C214.676 70.848 212.444 74.16 210.38 77.808C208.364 81.456 206.588 85.368 205.052 89.544C203.516 93.672 202.364 97.896 201.596 102.216C201.02 102.072 200.444 101.904 199.868 101.712C199.34 101.472 198.884 101.16 198.5 100.776C198.116 100.392 197.804 99.864 197.564 99.192C197.324 98.52 197.204 97.656 197.204 96.6ZM195.62 115.68C195.044 115.68 194.492 115.536 193.964 115.248C193.436 115.008 192.956 114.696 192.524 114.312C192.14 113.976 191.828 113.592 191.588 113.16C191.348 112.776 191.228 112.464 191.228 112.224C191.228 111.648 191.3 110.904 191.444 109.992C191.588 109.08 191.804 108.216 192.092 107.4C192.38 106.536 192.74 105.816 193.172 105.24C193.604 104.616 194.084 104.304 194.612 104.304C195.956 104.304 197.3 104.784 198.644 105.744C200.036 106.656 201.068 107.688 201.74 108.84C201.164 109.464 200.66 110.16 200.228 110.928C199.796 111.744 199.364 112.488 198.932 113.16C198.5 113.88 198.02 114.48 197.492 114.96C196.964 115.44 196.34 115.68 195.62 115.68Z" fill="#416FE6"/>
<path d="M217 108.136H317V110.136H217V108.136Z" fill="#416FE6"/>
</svg>
