<svg width="391" height="154" viewBox="0 0 391 154" fill="none" xmlns="http://www.w3.org/2000/svg">
<path fill-rule="evenodd" clip-rule="evenodd" d="M386 153.331L234 1.33113L234.707 0.624023L386.707 152.624L386 153.331Z" fill="#BACBF6"/>
<path fill-rule="evenodd" clip-rule="evenodd" d="M315.5 135.331C344.495 135.331 368 111.826 368 82.8311C368 53.8361 344.495 30.3311 315.5 30.3311C286.505 30.3311 263 53.8361 263 82.8311C263 111.826 286.505 135.331 315.5 135.331ZM315.5 136.331C345.047 136.331 369 112.378 369 82.8311C369 53.2838 345.047 29.3311 315.5 29.3311C285.953 29.3311 262 53.2838 262 82.8311C262 112.378 285.953 136.331 315.5 136.331Z" fill="#BACBF6"/>
<path fill-rule="evenodd" clip-rule="evenodd" d="M353.604 56.3152L354.039 57.0852C356.779 61.9372 361.07 64.7968 365.719 64.8311H365.74C370.388 64.7968 374.673 61.9375 377.42 57.0848L377.856 56.3154L378.291 57.0851C381.037 61.9463 385.335 64.8059 390.003 64.8311L389.997 65.8311C385.141 65.8049 380.751 62.973 377.855 58.3111C374.961 62.9641 370.584 65.7962 365.746 65.8311L365.742 65.8311H365.717L365.713 65.8311C360.876 65.7962 356.493 62.9645 353.603 58.3112C350.708 62.9645 346.325 65.7962 341.482 65.8311L341.475 65.8311V65.8311C336.619 65.8049 332.229 62.973 329.333 58.3111C326.439 62.9641 322.062 65.7962 317.224 65.8311L317.22 65.8311H317.195C316.775 65.8311 316.352 65.8034 315.944 65.7577L316.056 64.764C316.432 64.8061 316.818 64.8311 317.195 64.8311H317.218C321.866 64.7968 326.151 61.9375 328.898 57.0848L329.334 56.3154L329.769 57.0851C332.515 61.9452 336.811 64.8047 341.478 64.8311C346.132 64.7963 350.422 61.9367 353.169 57.0848L353.604 56.3152Z" fill="#BACBF6"/>
<path d="M229.105 130.569C228.327 130.942 227.802 131.399 227.531 131.941C227.26 132.482 227.04 133.041 226.871 133.616C226.736 134.192 226.549 134.75 226.312 135.292C226.109 135.8 225.652 136.223 224.941 136.562C224.772 137.171 224.434 137.594 223.926 137.831C223.452 138.068 222.944 138.288 222.402 138.491C221.861 138.661 221.37 138.898 220.93 139.202C220.523 139.507 220.32 140.032 220.32 140.776C219.643 141.149 218.898 141.487 218.086 141.792C217.307 142.097 216.478 142.317 215.598 142.452C214.751 142.622 213.905 142.689 213.059 142.655C212.212 142.622 211.417 142.452 210.672 142.148C210.164 141.911 209.673 141.606 209.199 141.234C209.03 141.098 208.861 140.98 208.691 140.878C208.556 140.81 208.404 140.692 208.234 140.523C207.828 140.116 207.49 139.642 207.219 139.101C206.948 138.559 206.728 137.984 206.559 137.374C206.389 136.765 206.254 136.155 206.152 135.546C206.051 134.937 205.966 134.361 205.898 133.819L207.777 128.741C206.796 127.963 206 127.066 205.391 126.05C204.781 125 204.036 124.036 203.156 123.155C202.987 123.392 202.767 123.595 202.496 123.765C202.225 123.934 202.124 124.205 202.191 124.577L202.699 125.034C201.582 126.253 200.448 127.641 199.297 129.198C198.18 130.722 197.299 132.262 196.656 133.819C195.911 133.786 195.387 133.972 195.082 134.378C194.777 134.75 194.523 135.191 194.32 135.698C194.117 136.172 193.863 136.612 193.559 137.019C193.254 137.425 192.746 137.594 192.035 137.526C191.866 137.899 191.697 138.305 191.527 138.745C191.358 139.151 191.155 139.541 190.918 139.913C190.681 140.286 190.393 140.59 190.055 140.827C189.716 141.098 189.293 141.234 188.785 141.234C188.514 140.963 188.362 140.675 188.328 140.37C188.294 140.066 188.328 139.761 188.43 139.456C188.531 139.118 188.667 138.796 188.836 138.491C189.005 138.153 189.124 137.831 189.191 137.526C189.462 136.545 189.953 135.665 190.664 134.886C191.375 134.073 192.086 133.278 192.797 132.499C193.508 131.687 194.117 130.84 194.625 129.96C195.133 129.08 195.336 128.047 195.234 126.862C195.674 126.829 196.115 126.744 196.555 126.609C197.029 126.439 197.452 126.236 197.824 125.999C198.23 125.728 198.535 125.407 198.738 125.034C198.975 124.628 199.06 124.154 198.992 123.612C198.721 123.477 198.569 123.291 198.535 123.054C198.501 122.783 198.501 122.512 198.535 122.241C199.28 122.004 199.872 121.598 200.312 121.023C200.786 120.413 201.21 119.77 201.582 119.093C201.954 118.416 202.31 117.739 202.648 117.062C203.021 116.351 203.495 115.741 204.07 115.234C204.544 115.504 205.018 115.741 205.492 115.944C205.966 116.114 206.423 116.351 206.863 116.655C206.559 117.062 206.372 117.451 206.305 117.823C206.237 118.196 206.203 118.585 206.203 118.991C206.203 119.364 206.203 119.736 206.203 120.109C206.203 120.481 206.102 120.87 205.898 121.276C206.44 121.75 206.897 122.309 207.27 122.952C207.642 123.595 208.116 124.137 208.691 124.577C209.098 124.273 209.555 124.12 210.062 124.12C210.57 124.086 211.078 124.086 211.586 124.12C212.128 124.12 212.635 124.086 213.109 124.019C213.583 123.917 213.973 123.629 214.277 123.155C214.413 123.291 214.616 123.359 214.887 123.359C215.158 123.359 215.428 123.359 215.699 123.359C215.97 123.359 216.207 123.409 216.41 123.511C216.613 123.579 216.732 123.731 216.766 123.968C216.799 124.239 216.783 124.425 216.715 124.526C216.681 124.628 216.63 124.797 216.562 125.034C216.495 125.305 216.478 125.441 216.512 125.441C216.546 125.441 216.512 125.559 216.41 125.796C216.241 126.236 215.953 126.609 215.547 126.913C215.174 127.218 214.785 127.523 214.379 127.827C214.007 128.098 213.651 128.42 213.312 128.792C213.008 129.131 212.855 129.571 212.855 130.112C212.111 130.383 211.586 130.79 211.281 131.331C210.977 131.839 210.773 132.431 210.672 133.109C210.57 133.752 210.503 134.429 210.469 135.14C210.435 135.817 210.316 136.443 210.113 137.019L210.57 137.526L210.977 137.019C211.451 137.696 212.009 138.119 212.652 138.288C213.329 138.457 214.023 138.508 214.734 138.441C215.073 137.933 215.462 137.526 215.902 137.222C216.376 136.917 216.867 136.663 217.375 136.46C217.917 136.257 218.458 136.071 219 135.901C219.576 135.732 220.117 135.529 220.625 135.292C221.031 135.089 221.37 134.869 221.641 134.632C221.945 134.395 222.267 134.124 222.605 133.819C223.621 132.872 224.62 131.941 225.602 131.026C226.617 130.112 227.633 129.181 228.648 128.234C228.852 128.234 228.987 128.335 229.055 128.538C229.122 128.741 229.156 128.978 229.156 129.249C229.156 129.486 229.139 129.74 229.105 130.011C229.105 130.248 229.105 130.434 229.105 130.569Z" fill="#BACBF6"/>
<path d="M239.173 108.937C238.563 109.174 238.225 109.529 238.157 110.003C238.089 110.477 238.055 110.968 238.055 111.476C238.089 111.984 238.072 112.457 238.005 112.898C237.937 113.338 237.598 113.625 236.989 113.761C236.752 113.355 236.447 112.982 236.075 112.644C235.736 112.271 235.398 111.916 235.059 111.577C234.721 111.205 234.45 110.816 234.247 110.409C234.044 110.003 233.976 109.512 234.044 108.937L236.583 105.991C236.989 106.127 237.311 106.296 237.548 106.499C237.785 106.702 237.988 106.939 238.157 107.21C238.326 107.481 238.479 107.769 238.614 108.073C238.783 108.344 238.97 108.632 239.173 108.937ZM249.024 131.687C249.058 132.431 248.99 132.956 248.821 133.261C248.686 133.566 248.516 133.819 248.313 134.023C248.11 134.192 247.924 134.395 247.755 134.632C247.619 134.835 247.552 135.207 247.552 135.749C246.773 136.595 246.147 137.222 245.673 137.628C245.199 138 244.742 138.322 244.302 138.593C243.861 138.83 243.371 139.101 242.829 139.405C242.287 139.71 241.542 140.184 240.595 140.827L240.239 140.878C240.138 141.386 239.951 141.674 239.68 141.741C239.443 141.843 239.156 141.894 238.817 141.894C238.513 141.894 238.208 141.928 237.903 141.995C237.598 142.063 237.345 142.351 237.141 142.859C236.566 143.028 236.075 143.095 235.669 143.062C235.263 143.028 234.738 143.011 234.095 143.011C233.891 143.011 233.621 142.994 233.282 142.96C232.977 142.926 232.723 142.943 232.52 143.011C232.385 143.045 232.233 143.129 232.063 143.265C231.928 143.434 231.776 143.569 231.606 143.671C231.437 143.773 231.268 143.806 231.098 143.773C230.929 143.773 230.777 143.637 230.641 143.366C230.235 143.468 229.863 143.468 229.524 143.366C229.186 143.265 228.864 143.095 228.559 142.859C228.255 142.622 227.967 142.334 227.696 141.995C227.459 141.691 227.222 141.403 226.985 141.132C226.816 140.929 226.63 140.743 226.427 140.573C226.223 140.404 226.037 140.235 225.868 140.066C225.496 139.693 225.225 139.219 225.055 138.644C224.886 138.068 224.785 137.476 224.751 136.866C224.717 136.257 224.734 135.648 224.802 135.038C224.869 134.429 224.971 133.887 225.106 133.413C225.411 133.109 225.631 132.77 225.766 132.398C225.868 131.991 225.953 131.585 226.02 131.179C226.122 130.773 226.223 130.383 226.325 130.011C226.46 129.605 226.68 129.249 226.985 128.944C226.985 128.504 227.053 128.098 227.188 127.726C227.358 127.353 227.561 126.998 227.798 126.659C228.068 126.321 228.356 126.016 228.661 125.745C228.999 125.441 229.304 125.153 229.575 124.882C229.846 124.882 230.117 124.882 230.388 124.882C230.658 124.848 230.912 124.865 231.149 124.933C231.386 124.967 231.589 125.068 231.759 125.237C231.928 125.373 232.063 125.61 232.165 125.948C232.402 126.862 232.334 127.607 231.962 128.183C231.623 128.724 231.234 129.249 230.794 129.757C230.354 130.265 229.998 130.79 229.727 131.331C229.457 131.873 229.524 132.567 229.93 133.413C229.558 133.413 229.304 133.515 229.169 133.718C229.067 133.921 228.983 134.158 228.915 134.429C228.881 134.666 228.813 134.903 228.712 135.14C228.61 135.377 228.407 135.546 228.102 135.648C228.305 135.851 228.407 136.206 228.407 136.714C228.441 137.222 228.492 137.713 228.559 138.187C228.661 138.627 228.813 138.982 229.016 139.253C229.253 139.524 229.677 139.541 230.286 139.304C230.726 139.676 231.251 139.829 231.86 139.761C232.503 139.693 233.096 139.676 233.638 139.71C234.111 139.405 234.518 139.253 234.856 139.253C235.195 139.219 235.516 139.253 235.821 139.355C236.126 139.422 236.447 139.49 236.786 139.558C237.124 139.625 237.531 139.575 238.005 139.405C238.14 138.83 238.377 138.491 238.716 138.39C239.054 138.288 239.393 138.237 239.731 138.237C240.07 138.204 240.374 138.136 240.645 138.034C240.95 137.933 241.153 137.594 241.255 137.019C241.526 136.68 241.847 136.494 242.22 136.46C242.592 136.392 242.964 136.325 243.337 136.257C243.743 136.189 244.098 136.054 244.403 135.851C244.742 135.614 244.979 135.174 245.114 134.53C245.69 134.09 246.096 133.769 246.333 133.566C246.604 133.329 246.824 133.142 246.993 133.007C247.162 132.872 247.382 132.719 247.653 132.55C247.924 132.381 248.381 132.093 249.024 131.687Z" fill="#BACBF6"/>
<path d="M283.771 129.554C283.026 131.247 282.349 132.567 281.74 133.515C281.13 134.429 280.453 135.191 279.709 135.8C278.998 136.409 278.168 136.985 277.22 137.526C276.272 138.034 275.104 138.762 273.716 139.71C273.141 139.744 272.515 139.879 271.838 140.116C271.16 140.319 270.585 140.607 270.111 140.98C269.095 140.878 268.164 140.658 267.318 140.319C266.472 139.981 265.676 139.439 264.931 138.694C264.762 138.525 264.61 138.339 264.474 138.136C264.339 137.933 264.186 137.747 264.017 137.577C263.645 137.137 263.408 136.748 263.306 136.409C263.205 136.071 263.12 135.631 263.052 135.089C262.917 134.31 262.714 133.752 262.443 133.413C262.172 133.075 261.647 133.244 260.869 133.921L260.412 133.515L260.31 133.616C260.005 133.853 259.752 134.056 259.548 134.226C259.379 134.395 259.193 134.581 258.99 134.784C258.821 134.954 258.651 135.14 258.482 135.343C258.313 135.546 258.11 135.8 257.873 136.105C257.466 136.612 257.009 137.137 256.502 137.679C256.028 138.22 255.469 138.593 254.826 138.796C254.724 138.898 254.64 138.999 254.572 139.101C254.504 139.168 254.386 139.219 254.216 139.253C254.013 139.321 253.776 139.304 253.505 139.202C253.235 139.101 253.015 138.965 252.845 138.796C252.473 138.796 252.134 138.898 251.83 139.101C251.559 139.27 251.288 139.507 251.017 139.812C250.78 140.082 250.543 140.37 250.306 140.675C250.103 140.98 249.866 141.234 249.595 141.437C249.054 141.234 248.546 141.2 248.072 141.335C247.632 141.47 247.192 141.589 246.752 141.691C246.311 141.826 245.871 141.877 245.431 141.843C244.991 141.843 244.551 141.589 244.111 141.081C243.908 140.066 243.739 139.135 243.603 138.288C243.468 137.577 243.349 136.9 243.248 136.257C243.146 135.614 243.095 135.224 243.095 135.089C243.265 134.92 243.349 134.7 243.349 134.429C243.315 134.124 243.265 133.87 243.197 133.667C243.129 133.633 243.095 133.599 243.095 133.566C243.095 133.532 243.061 133.498 242.994 133.464C243.163 133.329 243.298 133.159 243.4 132.956C243.468 132.753 243.586 132.584 243.755 132.448C243.654 132.178 243.535 131.873 243.4 131.534C243.265 131.196 243.197 130.857 243.197 130.519C243.298 130.248 243.4 130.095 243.502 130.062C243.569 130.028 243.755 129.977 244.06 129.909C244.026 129.74 243.992 129.588 243.959 129.452C243.891 129.283 243.874 129.114 243.908 128.944C243.908 128.606 243.992 128.318 244.162 128.081C244.297 127.81 244.449 127.556 244.619 127.319C244.788 127.049 244.94 126.761 245.076 126.456C245.211 126.151 245.279 125.796 245.279 125.39V125.136C245.787 125.136 246.125 125 246.295 124.73C246.464 124.425 246.565 124.086 246.599 123.714C246.633 123.342 246.65 122.969 246.65 122.597C246.65 122.224 246.752 121.954 246.955 121.784C247.09 121.649 247.209 121.598 247.31 121.632C247.446 121.632 247.598 121.632 247.767 121.632C247.97 121.395 248.106 121.226 248.173 121.124C248.241 120.989 248.224 120.752 248.123 120.413C248.36 120.413 248.546 120.362 248.681 120.261C248.817 120.159 248.918 120.024 248.986 119.855C249.088 119.685 249.172 119.516 249.24 119.347C249.341 119.178 249.46 119.025 249.595 118.89C249.595 118.043 249.815 117.451 250.255 117.112C250.696 116.774 251.186 116.503 251.728 116.3C252.304 116.063 252.862 115.792 253.404 115.487C253.979 115.183 254.403 114.641 254.673 113.862C255.114 114.133 255.486 114.167 255.791 113.964C256.095 113.727 256.383 113.49 256.654 113.253C256.925 112.982 257.229 112.813 257.568 112.745C257.907 112.644 258.33 112.864 258.838 113.405C259.041 112.762 259.447 112.424 260.056 112.39C260.699 112.356 261.275 112.491 261.783 112.796V112.847H261.834C262.375 112.948 262.782 113.219 263.052 113.659C263.323 114.066 263.543 114.54 263.713 115.081C263.916 115.589 264.119 116.097 264.322 116.605C264.559 117.112 264.88 117.519 265.287 117.823C265.49 116.943 265.676 116.046 265.845 115.132C266.048 114.218 266.37 113.355 266.81 112.542C267.115 112.915 267.436 112.982 267.775 112.745L267.724 112.644C267.724 112.102 267.826 111.611 268.029 111.171C268.266 110.731 268.486 110.308 268.689 109.901C268.926 109.461 269.061 109.021 269.095 108.581C269.163 108.107 269.011 107.582 268.638 107.007C269.214 106.838 269.62 106.516 269.857 106.042C270.128 105.568 270.331 105.06 270.466 104.519C270.636 103.943 270.805 103.368 270.974 102.792C271.177 102.217 271.482 101.726 271.888 101.319C271.888 101.218 271.871 101.116 271.838 101.015C271.838 100.913 271.838 100.812 271.838 100.71C271.871 100.439 271.973 100.202 272.142 99.9991C272.311 99.796 272.498 99.5929 272.701 99.3898C272.904 99.1866 273.073 98.9666 273.209 98.7296C273.378 98.4588 273.446 98.1372 273.412 97.7648C273.75 97.3247 274.055 96.7491 274.326 96.0382C274.597 95.2934 274.884 94.5994 275.189 93.9562C275.494 93.3129 275.849 92.839 276.255 92.5343C276.662 92.1958 277.186 92.2127 277.83 92.5851C277.965 92.9913 278.016 93.3637 277.982 93.7023C277.948 94.007 277.762 94.3286 277.423 94.6671C277.627 94.8702 277.779 95.0395 277.88 95.1749C277.779 96.2244 277.576 97.2739 277.271 98.3234C277 99.339 276.729 100.338 276.459 101.319C276.526 101.387 276.594 101.455 276.662 101.523C276.729 101.59 276.797 101.658 276.865 101.726C276.289 102.538 275.815 103.351 275.443 104.163C275.104 104.976 274.8 105.856 274.529 106.804C274.427 107.176 274.326 107.566 274.224 107.972C274.157 108.378 274.055 108.75 273.92 109.089C273.75 109.428 273.547 109.8 273.31 110.206C273.073 110.579 272.87 110.951 272.701 111.323C272.328 112.102 271.99 112.898 271.685 113.71C271.414 114.489 271.143 115.284 270.873 116.097C270.534 117.079 270.179 118.043 269.806 118.991C269.468 119.939 269.045 120.87 268.537 121.784V122.597C268.503 122.969 268.384 123.24 268.181 123.409C267.978 123.545 267.741 123.68 267.47 123.816C267.233 123.917 266.996 124.086 266.759 124.323C266.522 124.526 266.353 124.882 266.252 125.39V125.441L266.302 125.491C266.641 126.236 266.709 126.93 266.505 127.573C266.336 128.183 266.133 128.792 265.896 129.401C265.659 129.977 265.49 130.553 265.388 131.128C265.321 131.704 265.558 132.296 266.099 132.905C266.065 133.582 266.201 134.124 266.505 134.53C266.81 134.903 267.166 135.224 267.572 135.495C267.978 135.766 268.384 136.02 268.791 136.257C269.231 136.46 269.552 136.731 269.755 137.069C270.094 136.731 270.449 136.477 270.822 136.308C271.228 136.105 271.617 135.952 271.99 135.851C272.396 135.749 272.785 135.665 273.158 135.597C273.564 135.495 273.953 135.377 274.326 135.241C275.206 135.004 275.815 134.717 276.154 134.378C276.492 134.04 276.662 133.819 276.662 133.718C276.696 133.244 276.865 132.939 277.17 132.804C277.508 132.668 277.88 132.584 278.287 132.55C278.727 132.482 279.15 132.398 279.556 132.296C279.996 132.194 280.318 131.941 280.521 131.534C280.893 131.568 281.215 131.45 281.486 131.179C281.791 130.874 282.061 130.569 282.298 130.265C282.535 129.96 282.772 129.706 283.009 129.503C283.246 129.3 283.5 129.317 283.771 129.554ZM262.9 121.734C262.358 121.327 261.986 120.87 261.783 120.362C261.614 119.821 261.461 119.279 261.326 118.737C261.224 118.196 261.072 117.688 260.869 117.214C260.699 116.706 260.344 116.283 259.802 115.944L259.701 115.894C259.667 115.894 259.481 115.928 259.142 115.995C258.804 116.063 258.601 116.114 258.533 116.148C258.804 116.385 258.973 116.588 259.041 116.757C259.108 116.926 259.108 117.095 259.041 117.265C259.007 117.434 258.922 117.62 258.787 117.823C258.685 117.993 258.601 118.213 258.533 118.484C258.465 118.551 258.33 118.534 258.127 118.433C257.923 118.297 257.771 118.196 257.67 118.128C257.196 118.839 256.518 119.313 255.638 119.55C254.792 119.753 253.979 119.956 253.201 120.159C253.268 120.329 253.336 120.481 253.404 120.616C253.472 120.752 253.539 120.904 253.607 121.073C252.591 121.75 251.847 122.58 251.373 123.562C250.933 124.51 250.526 125.508 250.154 126.558C249.815 127.573 249.392 128.572 248.884 129.554C248.41 130.502 247.666 131.314 246.65 131.991C246.819 132.262 246.938 132.533 247.005 132.804C247.073 133.075 247.293 133.278 247.666 133.413C247.767 133.786 247.801 134.175 247.767 134.581C247.767 134.954 247.733 135.326 247.666 135.698C247.598 136.071 247.547 136.46 247.513 136.866C247.513 137.239 247.564 137.628 247.666 138.034L247.767 138.136C248.817 138.508 249.629 138.542 250.205 138.237C250.814 137.933 251.339 137.543 251.779 137.069C252.253 136.595 252.761 136.155 253.302 135.749C253.844 135.343 254.606 135.241 255.588 135.444L255.791 135.14C255.723 134.97 255.672 134.818 255.638 134.683C255.604 134.547 255.588 134.395 255.588 134.226C255.621 133.853 255.723 133.566 255.892 133.362C256.061 133.125 256.282 132.872 256.552 132.601C256.789 132.33 257.009 132.042 257.213 131.737C257.449 131.433 257.67 131.111 257.873 130.773C258.076 130.468 258.313 130.214 258.584 130.011C258.854 129.774 259.21 129.74 259.65 129.909L260.615 126.253C260.649 126.084 260.801 125.931 261.072 125.796C261.377 125.661 261.63 125.508 261.834 125.339C262.071 125.17 262.206 124.95 262.24 124.679C262.308 124.408 262.121 124.053 261.681 123.612C261.749 123.477 261.8 123.308 261.834 123.105C261.867 122.901 261.918 122.715 261.986 122.546C262.054 122.377 262.138 122.241 262.24 122.14C262.341 122.038 262.511 122.021 262.748 122.089L262.9 121.734Z" fill="#BACBF6"/>
<path d="M316.436 125.085C316.131 125.39 315.894 125.627 315.725 125.796C315.59 125.965 315.454 126.135 315.319 126.304C315.217 126.439 315.082 126.592 314.912 126.761C314.777 126.93 314.557 127.184 314.252 127.523C313.982 127.793 313.728 128.081 313.491 128.386C313.254 128.691 312.983 128.961 312.678 129.198C312.272 129.097 311.95 129.148 311.713 129.351C311.51 129.554 311.307 129.791 311.104 130.062C310.935 130.299 310.765 130.536 310.596 130.773C310.461 130.976 310.274 131.06 310.037 131.026C309.225 131.467 308.412 131.856 307.6 132.194C306.787 132.499 306.009 132.956 305.264 133.566L304.858 133.159L299.577 135.698C299.407 135.766 299.238 135.868 299.069 136.003C298.899 136.138 298.73 136.257 298.561 136.359C297.816 136.765 297.037 137.137 296.225 137.476C295.446 137.78 294.668 138.068 293.889 138.339L293.229 138.542C293.5 139.219 293.5 139.693 293.229 139.964C292.958 140.235 292.569 140.438 292.061 140.573C291.553 140.675 290.995 140.743 290.385 140.776C289.776 140.81 289.302 140.929 288.963 141.132C288.557 141.064 288.134 141.03 287.694 141.03C287.287 141.064 286.864 141.115 286.424 141.183C285.95 141.25 285.51 141.284 285.104 141.284C284.698 141.284 284.258 141.234 283.784 141.132H283.682C283.107 141.403 282.599 141.454 282.159 141.284C281.752 141.149 281.38 140.912 281.041 140.573C280.703 140.201 280.381 139.778 280.077 139.304C279.806 138.796 279.518 138.339 279.213 137.933C279.01 137.662 278.756 137.273 278.452 136.765C278.147 136.257 277.893 135.715 277.69 135.14C277.453 134.564 277.317 133.989 277.284 133.413C277.216 132.804 277.334 132.279 277.639 131.839C277.944 131.399 278.198 130.925 278.401 130.417C278.57 129.909 278.655 129.317 278.655 128.64C278.655 128.403 278.655 128.183 278.655 127.98C278.621 127.776 278.604 127.556 278.604 127.319C278.773 127.319 278.959 127.336 279.162 127.37C279.366 127.37 279.552 127.37 279.721 127.37C279.924 127.336 280.077 127.269 280.178 127.167C280.314 127.032 280.381 126.812 280.381 126.507C280.381 126.338 280.314 126.202 280.178 126.101C280.077 125.999 280.009 125.898 279.975 125.796C280.178 125.491 280.364 125.254 280.534 125.085C280.737 124.882 280.906 124.696 281.041 124.526C281.177 124.323 281.278 124.103 281.346 123.866C281.414 123.595 281.397 123.24 281.295 122.8C281.702 122.089 282.176 121.463 282.717 120.921C283.293 120.345 283.885 119.821 284.495 119.347C285.104 118.839 285.73 118.348 286.373 117.874C287.017 117.4 287.626 116.892 288.202 116.351C288.845 116.622 289.353 116.622 289.725 116.351C290.131 116.08 290.487 115.792 290.791 115.487C291.096 115.149 291.401 114.878 291.705 114.675C292.01 114.472 292.416 114.556 292.924 114.929L293.026 115.03C293.94 114.116 294.854 113.71 295.768 113.812C296.716 113.913 297.511 114.218 298.155 114.726C298.832 115.234 299.272 115.826 299.475 116.503C299.678 117.146 299.492 117.586 298.916 117.823C299.289 118.196 299.475 118.636 299.475 119.144C299.475 119.651 299.34 120.092 299.069 120.464C298.764 120.87 298.493 121.293 298.256 121.734C298.053 122.14 297.833 122.58 297.596 123.054C297.258 123.832 296.885 124.577 296.479 125.288C296.073 125.965 295.497 126.541 294.752 127.015C294.143 126.845 293.72 126.913 293.483 127.218C293.28 127.523 293.127 127.861 293.026 128.234C292.924 128.572 292.806 128.843 292.67 129.046C292.535 129.249 292.247 129.181 291.807 128.843L291.705 128.741L291.604 128.843C291.333 129.114 291.113 129.418 290.944 129.757C290.808 130.095 290.605 130.349 290.334 130.519C290.03 130.417 289.708 130.332 289.37 130.265C289.031 130.197 288.709 130.129 288.405 130.062C288.405 130.773 288.269 131.331 287.998 131.737C287.728 132.144 287.372 132.482 286.932 132.753C286.526 132.99 286.052 133.193 285.51 133.362C284.968 133.498 284.427 133.684 283.885 133.921C283.377 134.124 282.886 134.395 282.412 134.734C281.972 135.038 281.617 135.478 281.346 136.054C281.685 136.426 282.108 136.646 282.616 136.714C283.123 136.748 283.648 136.748 284.19 136.714C284.732 136.646 285.256 136.612 285.764 136.612C286.306 136.612 286.78 136.748 287.186 137.019L287.237 137.069L287.287 137.019C288.1 136.917 288.879 136.731 289.623 136.46C290.402 136.155 291.147 135.851 291.858 135.546C292.603 135.207 293.347 134.903 294.092 134.632C294.871 134.327 295.666 134.107 296.479 133.972C296.648 134.243 296.868 134.395 297.139 134.429C297.444 134.463 297.732 134.446 298.002 134.378L298.053 134.276C298.121 134.04 298.189 133.836 298.256 133.667C298.324 133.464 298.426 133.244 298.561 133.007C298.798 132.635 299.086 132.347 299.424 132.144C299.763 131.941 300.118 131.788 300.491 131.687C300.897 131.585 301.32 131.517 301.76 131.484C302.2 131.45 302.64 131.399 303.08 131.331H303.182L303.233 131.179C303.368 130.773 303.537 130.502 303.741 130.366C303.978 130.197 304.215 130.079 304.452 130.011C304.722 129.943 304.993 129.892 305.264 129.859C305.569 129.825 305.857 129.723 306.127 129.554C306.737 129.757 307.245 129.689 307.651 129.351C308.057 129.012 308.446 128.657 308.819 128.284L309.225 128.792L309.377 128.589C309.885 128.115 310.258 127.76 310.495 127.523C310.765 127.286 311.019 127.082 311.256 126.913C311.493 126.71 311.764 126.524 312.069 126.355C312.407 126.151 312.864 125.864 313.44 125.491C313.914 125.187 314.371 124.882 314.811 124.577C315.285 124.273 315.742 123.934 316.182 123.562C316.351 123.629 316.436 123.765 316.436 123.968C316.436 124.137 316.436 124.306 316.436 124.476C316.402 124.543 316.368 124.645 316.334 124.78C316.334 124.916 316.368 125.017 316.436 125.085ZM295.412 118.737C295.379 118.704 295.345 118.687 295.311 118.687C295.311 118.687 295.294 118.67 295.26 118.636C294.549 118.263 293.957 118.094 293.483 118.128C293.009 118.128 292.569 118.263 292.162 118.534C291.79 118.771 291.435 119.093 291.096 119.499C290.791 119.872 290.453 120.227 290.08 120.566C289.742 120.87 289.336 121.107 288.862 121.276C288.388 121.446 287.812 121.429 287.135 121.226C287.034 121.767 286.932 122.309 286.83 122.851C286.763 123.359 286.712 123.883 286.678 124.425C286.103 124.628 285.646 124.916 285.307 125.288C285.002 125.661 284.732 126.067 284.495 126.507C284.291 126.947 284.088 127.421 283.885 127.929C283.716 128.403 283.479 128.86 283.174 129.3L283.377 129.554C283.513 129.486 283.665 129.537 283.834 129.706C284.004 129.875 284.122 129.994 284.19 130.062C284.562 129.52 285.053 129.063 285.662 128.691C286.306 128.318 286.949 127.98 287.592 127.675C288.269 127.336 288.912 126.981 289.522 126.609C290.131 126.236 290.588 125.745 290.893 125.136C291.976 124.831 292.789 124.222 293.33 123.308C293.872 122.394 294.329 121.446 294.702 120.464C294.769 120.261 294.888 119.973 295.057 119.601C295.26 119.194 295.379 118.907 295.412 118.737Z" fill="#BACBF6"/>
<path d="M52.2734 122.14C52.3073 122.715 52.2396 123.274 52.0703 123.815C51.901 124.323 51.7148 124.848 51.5117 125.39C51.3086 125.897 51.1055 126.422 50.9023 126.964C50.7331 127.472 50.6484 128.013 50.6484 128.589C50.276 128.555 49.9714 128.674 49.7344 128.944C49.5312 129.181 49.345 129.486 49.1758 129.858C49.0404 130.231 48.9219 130.62 48.8203 131.026C48.7187 131.399 48.6172 131.687 48.5156 131.89C47.8385 133.176 46.9753 134.412 45.9258 135.597C44.9102 136.748 43.776 137.831 42.5234 138.847C41.3047 139.828 40.0182 140.726 38.6641 141.538C37.3099 142.351 35.9557 143.045 34.6016 143.62L34.5508 143.671C33.9414 143.671 33.2643 143.654 32.5195 143.62C31.8086 143.586 31.1992 143.332 30.6914 142.858C30.2174 142.926 29.6927 142.875 29.1172 142.706C28.5417 142.571 28.0846 142.334 27.7461 141.995L27.6953 141.944C27.4245 141.47 27.1367 141.064 26.832 140.726C26.5273 140.387 26.1888 140.032 25.8164 139.659C25.3424 139.151 24.8854 138.66 24.4453 138.187C24.0391 137.713 23.7174 137.137 23.4805 136.46C23.2096 135.681 22.9557 134.903 22.7187 134.124C22.5156 133.312 22.2448 132.516 21.9062 131.737C21.2969 132.482 20.6706 133.125 20.0273 133.667C19.3841 134.175 18.7578 134.683 18.1484 135.19C17.5391 135.698 16.9635 136.274 16.4219 136.917C15.9141 137.56 15.457 138.373 15.0508 139.354L15 139.456C13.9844 139.456 13.1042 139.727 12.3594 140.269C11.6484 140.776 10.9544 141.267 10.2773 141.741C9.60026 142.215 8.88932 142.554 8.14453 142.757C7.43359 142.96 6.60416 142.723 5.65625 142.046H3.92968L3.8789 141.944C3.26953 140.692 2.67708 139.371 2.10156 137.983C1.55989 136.595 1.13672 135.19 0.832028 133.769C0.527341 132.313 0.391924 130.874 0.425778 129.452C0.459632 127.996 0.747393 126.575 1.28906 125.187C1.52604 124.611 1.77994 124.069 2.05078 123.562C2.35547 123.054 2.69401 122.546 3.0664 122.038C3.10026 122.004 3.11718 121.97 3.11718 121.937C3.32031 122.106 3.52343 122.055 3.72656 121.784C3.96354 121.513 4.13281 121.327 4.23437 121.226V119.499C4.33593 119.465 4.47135 119.448 4.64062 119.448C4.84375 119.448 5.02995 119.448 5.19922 119.448C5.36849 119.448 5.52083 119.448 5.65625 119.448C5.79166 119.414 5.8763 119.33 5.91015 119.194C5.94401 119.16 5.94401 119.11 5.91015 119.042C5.8763 118.974 5.85937 118.907 5.85937 118.839C5.85937 118.433 5.96093 118.111 6.16406 117.874C6.40104 117.603 6.67187 117.366 6.97656 117.163C7.28125 116.96 7.58593 116.791 7.89062 116.655C8.19531 116.486 8.41536 116.317 8.55078 116.147C8.82161 116.147 9.07552 116.164 9.3125 116.198C9.54948 116.198 9.76953 116.283 9.97265 116.452C10.1758 116.621 10.3112 116.858 10.3789 117.163C10.4805 117.468 10.5312 117.789 10.5312 118.128C10.5651 118.433 10.599 118.754 10.6328 119.093C10.6667 119.431 10.7344 119.719 10.8359 119.956L10.8867 120.007C10.8867 120.481 10.7682 120.887 10.5312 121.226C10.3281 121.53 10.0742 121.818 9.76953 122.089C9.4987 122.36 9.21093 122.631 8.90625 122.901C8.63541 123.172 8.44922 123.494 8.34765 123.866V123.917C7.97526 124.391 7.58593 124.865 7.17968 125.339C6.80729 125.813 6.40104 126.287 5.96093 126.761C6.33333 127.065 6.45182 127.336 6.3164 127.573C6.21484 127.776 6.04557 127.963 5.80859 128.132C5.60547 128.301 5.45312 128.47 5.35156 128.64C5.28385 128.809 5.47005 128.995 5.91015 129.198C5.80859 129.503 5.63932 129.808 5.40234 130.112C5.16536 130.383 4.92838 130.671 4.6914 130.976C4.48828 131.28 4.33593 131.585 4.23437 131.89C4.16666 132.194 4.26823 132.533 4.53906 132.905L4.64062 132.956C4.53906 133.125 4.50521 133.447 4.53906 133.921C4.60677 134.361 4.6914 134.852 4.79297 135.394C4.92838 135.901 5.0638 136.409 5.19922 136.917C5.33463 137.391 5.41927 137.746 5.45312 137.983C5.72396 138.424 6.04557 138.728 6.41797 138.897C6.82422 139.033 7.19661 139.084 7.53515 139.05C7.90755 139.016 8.21224 138.914 8.44922 138.745C8.72005 138.576 8.85547 138.373 8.85547 138.136L9.21093 137.983C9.27864 138.22 9.38021 138.339 9.51562 138.339C9.65104 138.305 9.80338 138.237 9.97265 138.136C10.1419 138.068 10.2604 138.017 10.3281 137.983C10.3958 137.95 10.5143 137.916 10.6836 137.882C11.293 137.746 11.9193 137.459 12.5625 137.019C13.2396 136.578 13.8659 136.071 14.4414 135.495C15.0169 134.92 15.5078 134.293 15.9141 133.616C16.3542 132.939 16.6589 132.313 16.8281 131.737V131.636H16.9297C17.6068 131.365 18.1654 130.976 18.6055 130.468C19.0456 129.96 19.4518 129.452 19.8242 128.944C20.1966 128.403 20.6029 127.929 21.043 127.522C21.4831 127.082 22.0417 126.795 22.7187 126.659C22.8203 126.388 22.9727 126.151 23.1758 125.948C23.3789 125.711 23.5651 125.491 23.7344 125.288C23.9375 125.051 24.1068 124.831 24.2422 124.628C24.4115 124.391 24.4961 124.137 24.4961 123.866C24.4961 123.731 24.4622 123.562 24.3945 123.358C24.3607 123.155 24.3437 123.02 24.3437 122.952C24.4792 122.817 24.75 122.597 25.1562 122.292C25.5625 121.953 25.9687 121.598 26.375 121.226C26.8151 120.853 27.2214 120.498 27.5937 120.159C27.9661 119.821 28.1862 119.567 28.2539 119.397L28.3555 119.499C28.7279 119.871 28.9818 120.261 29.1172 120.667C29.2526 121.039 29.3203 121.429 29.3203 121.835C29.3203 122.207 29.2695 122.614 29.168 123.054C29.0664 123.46 28.9818 123.866 28.9141 124.272L28.8633 124.323C28.6602 124.662 28.457 124.966 28.2539 125.237C28.0846 125.474 27.8646 125.728 27.5937 125.999C27.1536 126.439 26.7474 126.981 26.375 127.624C26.4766 128.132 26.4766 128.64 26.375 129.147C26.2734 129.655 26.1719 130.163 26.0703 130.671C25.9687 131.145 25.918 131.619 25.918 132.093C25.9518 132.567 26.1211 133.041 26.4258 133.515C26.1211 133.684 25.9518 133.87 25.918 134.073C25.918 134.243 25.9687 134.429 26.0703 134.632C26.2057 134.835 26.3411 135.038 26.4766 135.241C26.6458 135.444 26.7474 135.664 26.7812 135.901C27.2552 136.511 27.8138 136.985 28.457 137.323C29.1003 137.662 29.7773 137.899 30.4883 138.034C31.1992 138.17 31.9102 138.254 32.6211 138.288C33.3659 138.288 34.0937 138.288 34.8047 138.288H36.2266C37.3099 138.288 38.1732 138.034 38.8164 137.526C39.4596 137.019 40.0182 136.409 40.4922 135.698C41 134.987 41.5078 134.259 42.0156 133.515C42.5234 132.77 43.1836 132.16 43.9961 131.687C43.9961 131.145 44.1146 130.739 44.3516 130.468C44.5885 130.197 44.8255 129.96 45.0625 129.757C45.3333 129.554 45.5365 129.334 45.6719 129.097C45.8411 128.826 45.8242 128.437 45.6211 127.929C46.0273 127.793 46.3659 127.539 46.6367 127.167C46.9075 126.795 47.1445 126.388 47.3477 125.948C47.5846 125.474 47.7878 125.017 47.957 124.577C48.1602 124.103 48.3802 123.697 48.6172 123.358C48.5156 122.986 48.4818 122.631 48.5156 122.292C48.5833 121.953 48.6341 121.632 48.668 121.327C48.7018 120.989 48.668 120.667 48.5664 120.362C48.4648 120.058 48.2109 119.736 47.8047 119.397L47.7539 119.347V119.296C47.5846 118.89 47.5508 118.551 47.6523 118.28C47.7878 118.009 47.957 117.756 48.1602 117.519C48.3971 117.282 48.6003 117.062 48.7695 116.858C48.9727 116.655 49.0573 116.418 49.0234 116.147C50.0729 116.147 50.8177 116.334 51.2578 116.706C51.7318 117.045 52.0365 117.502 52.1719 118.077C52.3073 118.619 52.3411 119.245 52.2734 119.956C52.2396 120.667 52.2396 121.395 52.2734 122.14Z" fill="white"/>
<path d="M90.4227 135.292C89.9487 136.104 89.5763 136.765 89.3055 137.272C89.0685 137.746 88.8146 138.153 88.5437 138.491C88.3068 138.796 88.019 139.084 87.6805 139.354C87.3758 139.591 86.9357 139.896 86.3602 140.269C85.9878 140.607 85.6154 140.895 85.243 141.132C84.9383 141.369 84.6336 141.572 84.3289 141.741C84.0581 141.91 83.838 141.995 83.6687 141.995C83.601 141.995 83.5333 141.978 83.4656 141.944C83.3979 141.944 83.3302 141.944 83.2625 141.944C83.0594 141.944 82.8562 141.944 82.6531 141.944C82.4839 141.978 82.3315 141.86 82.1961 141.589C82.0945 141.69 82.0099 141.809 81.9422 141.944C81.8745 142.08 81.8068 142.198 81.7391 142.3C81.6714 142.435 81.5698 142.537 81.4344 142.604C81.3328 142.672 81.1805 142.672 80.9773 142.604L80.7234 142.3L79.9617 142.96C79.0138 142.486 78.0997 142.08 77.2195 141.741C76.3732 141.437 75.6115 141.064 74.9344 140.624C74.2573 140.184 73.6818 139.625 73.2078 138.948C72.7339 138.237 72.3953 137.272 72.1922 136.054C72.0229 135.851 71.8367 135.681 71.6336 135.546C71.4305 135.377 71.1935 135.326 70.9227 135.394C70.5841 135.969 70.1779 136.46 69.7039 136.866C69.2299 137.272 68.756 137.713 68.282 138.187C68.1128 138.356 67.9773 138.542 67.8758 138.745C67.7742 138.948 67.6388 139.134 67.4695 139.304C67.1987 139.608 66.8771 139.828 66.5047 139.964C66.1323 140.065 65.7599 140.167 65.3875 140.269C65.0151 140.37 64.6596 140.539 64.3211 140.776C64.0164 141.013 63.7964 141.42 63.6609 141.995C63.2547 141.758 62.8484 141.69 62.4422 141.792C62.1375 141.86 61.8159 141.927 61.4773 141.995C61.1388 142.097 60.8003 142.147 60.4617 142.147C60.157 142.181 59.8523 142.147 59.5477 142.046C59.243 141.944 58.9721 141.724 58.7352 141.386C58.2612 141.589 57.8211 141.572 57.4148 141.335C57.0086 141.132 56.6193 140.844 56.2469 140.472C55.9083 140.065 55.5698 139.642 55.2312 139.202C54.8927 138.762 54.5711 138.44 54.2664 138.237C54.0633 137.696 54.0802 137.239 54.3172 136.866C54.5203 136.46 54.7573 136.088 55.0281 135.749C55.2651 135.377 55.4344 135.021 55.5359 134.683C55.6375 134.31 55.4852 133.87 55.0789 133.362C55.4174 132.854 55.7221 132.33 55.993 131.788C56.2638 131.213 56.5346 130.654 56.8055 130.112C57.1102 129.537 57.4148 128.995 57.7195 128.487C58.0581 127.946 58.4643 127.489 58.9383 127.116C58.7352 126.879 58.6336 126.659 58.6336 126.456C58.6336 126.219 58.6844 125.999 58.7859 125.796C58.8875 125.559 59.006 125.339 59.1414 125.136C59.2768 124.899 59.3784 124.679 59.4461 124.476L60.9187 123.765L60.5633 122.546C60.9357 122.614 61.2065 122.597 61.3758 122.495C61.5789 122.394 61.7143 122.241 61.782 122.038C61.8836 121.835 61.9513 121.615 61.9852 121.378C62.0529 121.107 62.1375 120.87 62.2391 120.667C62.4083 120.362 62.6622 120.142 63.0008 120.007C63.7117 119.465 64.4057 118.89 65.0828 118.28C65.7937 117.671 66.4878 117.078 67.1648 116.503C67.8758 115.927 68.6036 115.386 69.3484 114.878C70.0932 114.336 70.9057 113.879 71.7859 113.507C72.3953 113.608 72.8693 113.795 73.2078 114.065C73.5802 114.336 73.851 114.658 74.0203 115.03C74.2234 115.403 74.3758 115.826 74.4773 116.3C74.5789 116.74 74.6805 117.18 74.782 117.62C74.9513 118.196 75.1544 118.687 75.3914 119.093C75.6284 119.499 76.0346 119.838 76.6102 120.108C76.1362 120.921 75.95 121.733 76.0516 122.546C76.1531 123.325 76.2547 124.154 76.3562 125.034C76.4578 125.847 76.4409 126.642 76.3055 127.421C76.2039 128.2 75.713 128.894 74.8328 129.503C74.7651 129.74 74.7482 129.994 74.782 130.265C74.8159 130.535 74.8328 130.806 74.8328 131.077C74.8328 131.348 74.782 131.602 74.6805 131.839C74.5789 132.076 74.3927 132.262 74.1219 132.397C74.4266 132.77 74.5789 133.142 74.5789 133.515C74.6128 133.887 74.6297 134.243 74.6297 134.581C74.6635 134.92 74.7482 135.224 74.8836 135.495C75.0529 135.766 75.4253 135.969 76.0008 136.104C76.1023 136.545 76.187 136.883 76.2547 137.12C76.3562 137.323 76.4578 137.493 76.5594 137.628C76.6948 137.763 76.8641 137.899 77.0672 138.034C77.2703 138.136 77.5411 138.305 77.8797 138.542C78.1505 138.61 78.4552 138.61 78.7937 138.542C79.1323 138.474 79.4031 138.576 79.6062 138.847C79.7755 138.677 79.9786 138.593 80.2156 138.593C80.4526 138.559 80.6727 138.559 80.8758 138.593L81.5359 139.71C81.9083 139.439 82.3315 139.202 82.8055 138.999C83.2794 138.796 83.7365 138.627 84.1766 138.491C84.6844 138.356 85.1922 138.237 85.7 138.136L90.4227 135.292ZM70.9227 117.925C70.618 118.196 70.2456 118.466 69.8055 118.737C69.3654 119.008 68.9253 119.296 68.4852 119.601C68.0789 119.905 67.7234 120.244 67.4187 120.616C67.1141 120.955 66.9279 121.361 66.8602 121.835C66.0815 121.97 65.5398 122.292 65.2352 122.8C64.9305 123.308 64.6766 123.866 64.4734 124.476C64.2703 125.085 64.0503 125.694 63.8133 126.304C63.5763 126.879 63.1531 127.336 62.5437 127.675C62.3406 127.81 62.1544 127.878 61.9852 127.878C62.019 127.878 61.9174 127.946 61.6805 128.081C61.3081 128.352 60.9865 128.69 60.7156 129.097C60.4448 129.503 60.2078 129.943 60.0047 130.417C59.8354 130.891 59.6661 131.382 59.4969 131.89C59.3615 132.364 59.226 132.804 59.0906 133.21C58.6167 133.278 58.2612 133.379 58.0242 133.515C57.7872 133.65 57.6349 133.802 57.5672 133.972C57.5333 134.107 57.5503 134.276 57.618 134.479C57.6857 134.683 57.7872 134.903 57.9227 135.14C58.0581 135.343 58.1935 135.58 58.3289 135.851C58.4982 136.121 58.6336 136.392 58.7352 136.663C58.8367 136.934 58.8875 137.205 58.8875 137.476C58.9214 137.746 58.8536 138 58.6844 138.237C59.1583 138.61 59.6154 138.694 60.0555 138.491C60.4956 138.254 60.9018 138 61.2742 137.729C61.4096 137.628 61.545 137.526 61.6805 137.425C61.8497 137.289 62.019 137.188 62.1883 137.12C62.9669 137.289 63.6779 137.239 64.3211 136.968C64.9643 136.697 65.5568 136.325 66.0984 135.851C66.6401 135.377 67.1648 134.869 67.6727 134.327C68.1805 133.785 68.6883 133.312 69.1961 132.905L68.7898 132.499C69.3992 132.33 69.8224 132.11 70.0594 131.839C70.3302 131.534 70.4995 131.196 70.5672 130.823C70.6349 130.451 70.6349 130.062 70.5672 129.655C70.4995 129.215 70.4487 128.758 70.4148 128.284C70.381 128.013 70.3641 127.759 70.3641 127.522C70.3979 127.252 70.4656 126.981 70.5672 126.71C70.2964 125.931 70.2456 125.187 70.4148 124.476C70.618 123.765 70.8719 123.088 71.1766 122.444C71.5151 121.767 71.8367 121.09 72.1414 120.413C72.4461 119.736 72.5984 119.025 72.5984 118.28L70.9227 117.925Z" fill="white"/>
<path d="M124.205 103.909C123.731 104.417 123.206 104.688 122.63 104.722C122.055 104.722 121.479 104.671 120.904 104.569C120.362 104.468 119.821 104.434 119.279 104.468C118.771 104.468 118.331 104.739 117.959 105.28C117.417 105.145 116.858 105.128 116.283 105.229C115.707 105.297 115.115 105.416 114.505 105.585C113.896 105.72 113.287 105.856 112.677 105.991C112.068 106.127 111.459 106.177 110.849 106.144L109.986 105.28C109.749 105.653 109.41 105.89 108.97 105.991C108.564 106.059 108.158 105.957 107.752 105.687C107.041 106.16 106.33 106.381 105.619 106.347C104.908 106.313 104.214 106.296 103.537 106.296C102.86 106.262 102.216 106.397 101.607 106.702C101.032 106.973 100.541 107.667 100.134 108.784C99.8297 109.563 99.5419 110.358 99.2711 111.171C99.0003 111.95 98.7294 112.728 98.4586 113.507C97.7138 115.538 96.9521 117.552 96.1734 119.55C95.4286 121.513 94.5823 123.46 93.6344 125.39C93.5667 126.913 93.6005 128.453 93.7359 130.011C93.8714 131.568 94.0237 133.108 94.193 134.632C94.0576 135.038 94.0068 135.461 94.0406 135.901C94.1083 136.341 94.2268 136.782 94.3961 137.222C94.5654 137.662 94.7685 138.085 95.0055 138.491C95.2424 138.864 95.4964 139.202 95.7672 139.507L96.6813 138.644L97.9508 140.421C98.2893 139.981 98.6786 139.524 99.1188 139.05C99.5927 138.542 100.084 138.085 100.591 137.679C101.099 137.239 101.624 136.883 102.166 136.612C102.741 136.308 103.317 136.104 103.892 136.003C104.129 135.766 104.349 135.512 104.552 135.241C104.755 134.97 104.976 134.75 105.213 134.581C105.449 134.378 105.703 134.243 105.974 134.175C106.279 134.073 106.634 134.09 107.041 134.226C108.124 133.616 109.089 132.854 109.935 131.94C110.782 130.993 111.628 130.062 112.474 129.147C113.321 128.2 114.201 127.336 115.115 126.558C116.063 125.779 117.163 125.237 118.416 124.933C117.603 126.896 116.571 128.809 115.318 130.671C114.065 132.499 112.66 134.141 111.103 135.597C110.697 136.071 110.189 136.494 109.58 136.866C109.309 137.035 109.021 137.222 108.716 137.425C108.412 137.594 108.124 137.763 107.853 137.933C106.939 138.542 106.059 139.202 105.213 139.913C104.366 140.59 103.554 141.352 102.775 142.198C102.673 141.995 102.538 141.86 102.369 141.792C102.199 141.724 101.996 141.69 101.759 141.69C101.556 141.69 101.336 141.707 101.099 141.741C100.896 141.775 100.71 141.775 100.541 141.741C99.8974 142.215 99.051 142.588 98.0016 142.858C96.9859 143.163 96.0719 143.231 95.2594 143.062C95.0224 142.994 94.7008 142.858 94.2945 142.655C93.8883 142.486 93.5836 142.334 93.3805 142.198C92.0602 141.318 91.0615 140.235 90.3844 138.948C89.7411 137.628 89.3857 136.189 89.318 134.632L88.9117 134.226C89.3518 133.819 89.6227 133.413 89.7242 133.007C89.8596 132.601 89.8935 132.194 89.8258 131.788C89.7919 131.348 89.7073 130.908 89.5719 130.468C89.4703 129.994 89.4026 129.52 89.3688 129.046C89.3349 128.741 89.3349 128.487 89.3688 128.284C89.4365 128.081 89.5042 127.844 89.5719 127.573C89.8427 126.49 90.0966 125.44 90.3336 124.425C90.5706 123.375 90.8245 122.326 91.0953 121.276C91.7724 118.703 92.551 116.164 93.4313 113.659C94.3453 111.12 95.2932 108.615 96.275 106.144C95.7333 105.94 95.1917 105.822 94.65 105.788C94.1083 105.72 93.5497 105.687 92.9742 105.687C92.4326 105.687 91.874 105.67 91.2984 105.636C90.7568 105.602 90.2151 105.483 89.6734 105.28C89.4365 105.179 89.318 105.128 89.318 105.128C89.318 105.094 89.1826 105.077 88.9117 105.077C88.7424 105.077 88.5055 105.111 88.2008 105.179C87.8961 105.213 87.5914 105.229 87.2867 105.229C86.982 105.229 86.7112 105.196 86.4742 105.128C86.2034 105.06 86.051 104.908 86.0172 104.671V104.163C86.051 103.621 86.1695 103.266 86.3727 103.097C86.5758 102.894 86.8297 102.775 87.1344 102.741C87.4391 102.674 87.7776 102.64 88.15 102.64C88.5224 102.606 88.8779 102.487 89.2164 102.284C90.1643 102.487 91.0615 102.64 91.9078 102.741C92.7542 102.809 93.5667 102.792 94.3453 102.69C95.1578 102.589 95.9365 102.369 96.6813 102.03C97.4599 101.692 98.2216 101.184 98.9664 100.507C99.5081 99.4574 99.9143 98.3402 100.185 97.1553C100.456 95.9365 100.761 94.7516 101.099 93.6006C101.472 92.4157 101.946 91.3324 102.521 90.3506C103.097 89.335 103.977 88.4886 105.162 87.8115C105.703 87.7438 106.177 87.8115 106.584 88.0146C106.99 88.2178 107.396 88.4378 107.802 88.6748C107.633 89.1488 107.498 89.6396 107.396 90.1475C107.295 90.6553 107.176 91.1631 107.041 91.6709C106.939 92.1787 106.804 92.6696 106.634 93.1436C106.465 93.6175 106.211 94.0576 105.873 94.4639C106.313 94.6331 106.567 94.8363 106.634 95.0732C106.702 95.3102 106.668 95.5641 106.533 95.835C106.397 96.1058 106.228 96.3936 106.025 96.6982C105.822 97.0029 105.703 97.2738 105.67 97.5107C105.297 97.5446 104.976 97.7816 104.705 98.2217C104.468 98.6618 104.214 99.0003 103.943 99.2373C103.672 99.8128 103.723 100.304 104.095 100.71C104.468 101.116 104.806 101.506 105.111 101.878C105.416 101.979 105.72 101.996 106.025 101.929C106.33 101.827 106.601 101.726 106.838 101.624C107.108 101.522 107.362 101.472 107.599 101.472C107.836 101.472 108.056 101.607 108.259 101.878C108.598 101.506 108.936 101.353 109.275 101.421C109.614 101.455 109.952 101.539 110.291 101.675C110.629 101.776 110.968 101.827 111.306 101.827C111.645 101.793 111.966 101.522 112.271 101.015C112.677 100.812 113.05 100.761 113.388 100.862C113.761 100.964 114.099 101.099 114.404 101.269C114.709 101.404 114.996 101.522 115.267 101.624C115.572 101.692 115.877 101.624 116.181 101.421C116.689 101.489 117.248 101.506 117.857 101.472C118.5 101.438 119.127 101.37 119.736 101.269C120.379 101.167 121.005 101.049 121.615 100.913C122.258 100.744 122.834 100.608 123.341 100.507C123.849 100.812 124.154 101.082 124.255 101.319C124.357 101.556 124.374 101.793 124.306 102.03C124.272 102.267 124.205 102.538 124.103 102.843C124.035 103.114 124.069 103.469 124.205 103.909Z" fill="white"/>
<path d="M149.202 125.085C148.897 125.39 148.66 125.627 148.491 125.796C148.355 125.965 148.22 126.134 148.084 126.304C147.983 126.439 147.847 126.591 147.678 126.761C147.543 126.93 147.323 127.184 147.018 127.522C146.747 127.793 146.493 128.081 146.256 128.386C146.019 128.69 145.748 128.961 145.444 129.198C145.038 129.097 144.716 129.147 144.479 129.351C144.276 129.554 144.073 129.791 143.87 130.062C143.7 130.299 143.531 130.535 143.362 130.772C143.226 130.976 143.04 131.06 142.803 131.026C141.991 131.466 141.178 131.856 140.366 132.194C139.553 132.499 138.774 132.956 138.03 133.565L137.623 133.159L132.342 135.698C132.173 135.766 132.004 135.868 131.834 136.003C131.665 136.138 131.496 136.257 131.327 136.358C130.582 136.765 129.803 137.137 128.991 137.476C128.212 137.78 127.433 138.068 126.655 138.339L125.995 138.542C126.265 139.219 126.265 139.693 125.995 139.964C125.724 140.235 125.334 140.438 124.827 140.573C124.319 140.675 123.76 140.743 123.151 140.776C122.541 140.81 122.067 140.929 121.729 141.132C121.323 141.064 120.899 141.03 120.459 141.03C120.053 141.064 119.63 141.115 119.19 141.183C118.716 141.25 118.276 141.284 117.87 141.284C117.463 141.284 117.023 141.233 116.549 141.132H116.448C115.872 141.403 115.364 141.453 114.924 141.284C114.518 141.149 114.146 140.912 113.807 140.573C113.468 140.201 113.147 139.778 112.842 139.304C112.571 138.796 112.284 138.339 111.979 137.933C111.776 137.662 111.522 137.272 111.217 136.765C110.912 136.257 110.659 135.715 110.455 135.14C110.218 134.564 110.083 133.989 110.049 133.413C109.982 132.804 110.1 132.279 110.405 131.839C110.709 131.399 110.963 130.925 111.166 130.417C111.336 129.909 111.42 129.317 111.42 128.64C111.42 128.403 111.42 128.183 111.42 127.979C111.386 127.776 111.37 127.556 111.37 127.319C111.539 127.319 111.725 127.336 111.928 127.37C112.131 127.37 112.317 127.37 112.487 127.37C112.69 127.336 112.842 127.269 112.944 127.167C113.079 127.032 113.147 126.812 113.147 126.507C113.147 126.338 113.079 126.202 112.944 126.101C112.842 125.999 112.774 125.897 112.741 125.796C112.944 125.491 113.13 125.254 113.299 125.085C113.502 124.882 113.672 124.696 113.807 124.526C113.942 124.323 114.044 124.103 114.112 123.866C114.179 123.595 114.162 123.24 114.061 122.8C114.467 122.089 114.941 121.463 115.483 120.921C116.058 120.345 116.651 119.821 117.26 119.347C117.87 118.839 118.496 118.348 119.139 117.874C119.782 117.4 120.392 116.892 120.967 116.351C121.61 116.621 122.118 116.621 122.491 116.351C122.897 116.08 123.252 115.792 123.557 115.487C123.862 115.149 124.166 114.878 124.471 114.675C124.776 114.472 125.182 114.556 125.69 114.929L125.791 115.03C126.705 114.116 127.62 113.71 128.534 113.812C129.482 113.913 130.277 114.218 130.92 114.726C131.597 115.233 132.038 115.826 132.241 116.503C132.444 117.146 132.258 117.586 131.682 117.823C132.054 118.196 132.241 118.636 132.241 119.144C132.241 119.651 132.105 120.091 131.834 120.464C131.53 120.87 131.259 121.293 131.022 121.733C130.819 122.14 130.599 122.58 130.362 123.054C130.023 123.832 129.651 124.577 129.245 125.288C128.838 125.965 128.263 126.541 127.518 127.015C126.909 126.845 126.485 126.913 126.248 127.218C126.045 127.522 125.893 127.861 125.791 128.233C125.69 128.572 125.571 128.843 125.436 129.046C125.301 129.249 125.013 129.181 124.573 128.843L124.471 128.741L124.37 128.843C124.099 129.114 123.879 129.418 123.709 129.757C123.574 130.095 123.371 130.349 123.1 130.519C122.795 130.417 122.474 130.332 122.135 130.265C121.797 130.197 121.475 130.129 121.17 130.062C121.17 130.772 121.035 131.331 120.764 131.737C120.493 132.144 120.138 132.482 119.698 132.753C119.291 132.99 118.817 133.193 118.276 133.362C117.734 133.498 117.192 133.684 116.651 133.921C116.143 134.124 115.652 134.395 115.178 134.733C114.738 135.038 114.383 135.478 114.112 136.054C114.45 136.426 114.873 136.646 115.381 136.714C115.889 136.748 116.414 136.748 116.955 136.714C117.497 136.646 118.022 136.612 118.53 136.612C119.071 136.612 119.545 136.748 119.952 137.019L120.002 137.069L120.053 137.019C120.866 136.917 121.644 136.731 122.389 136.46C123.168 136.155 123.912 135.851 124.623 135.546C125.368 135.207 126.113 134.903 126.858 134.632C127.636 134.327 128.432 134.107 129.245 133.972C129.414 134.243 129.634 134.395 129.905 134.429C130.209 134.463 130.497 134.446 130.768 134.378L130.819 134.276C130.886 134.039 130.954 133.836 131.022 133.667C131.09 133.464 131.191 133.244 131.327 133.007C131.564 132.634 131.851 132.347 132.19 132.144C132.528 131.94 132.884 131.788 133.256 131.687C133.663 131.585 134.086 131.517 134.526 131.483C134.966 131.45 135.406 131.399 135.846 131.331H135.948L135.998 131.179C136.134 130.772 136.303 130.502 136.506 130.366C136.743 130.197 136.98 130.078 137.217 130.011C137.488 129.943 137.759 129.892 138.03 129.858C138.334 129.825 138.622 129.723 138.893 129.554C139.502 129.757 140.01 129.689 140.416 129.351C140.823 129.012 141.212 128.657 141.584 128.284L141.991 128.792L142.143 128.589C142.651 128.115 143.023 127.759 143.26 127.522C143.531 127.285 143.785 127.082 144.022 126.913C144.259 126.71 144.53 126.524 144.834 126.354C145.173 126.151 145.63 125.864 146.205 125.491C146.679 125.187 147.136 124.882 147.577 124.577C148.051 124.272 148.508 123.934 148.948 123.562C149.117 123.629 149.202 123.765 149.202 123.968C149.202 124.137 149.202 124.306 149.202 124.476C149.168 124.543 149.134 124.645 149.1 124.78C149.1 124.916 149.134 125.017 149.202 125.085ZM128.178 118.737C128.144 118.703 128.11 118.687 128.077 118.687C128.077 118.687 128.06 118.67 128.026 118.636C127.315 118.263 126.722 118.094 126.248 118.128C125.774 118.128 125.334 118.263 124.928 118.534C124.556 118.771 124.2 119.093 123.862 119.499C123.557 119.871 123.218 120.227 122.846 120.565C122.508 120.87 122.101 121.107 121.627 121.276C121.153 121.446 120.578 121.429 119.901 121.226C119.799 121.767 119.698 122.309 119.596 122.851C119.528 123.358 119.478 123.883 119.444 124.425C118.868 124.628 118.411 124.916 118.073 125.288C117.768 125.66 117.497 126.067 117.26 126.507C117.057 126.947 116.854 127.421 116.651 127.929C116.482 128.403 116.245 128.86 115.94 129.3L116.143 129.554C116.278 129.486 116.431 129.537 116.6 129.706C116.769 129.875 116.888 129.994 116.955 130.062C117.328 129.52 117.819 129.063 118.428 128.69C119.071 128.318 119.715 127.979 120.358 127.675C121.035 127.336 121.678 126.981 122.287 126.608C122.897 126.236 123.354 125.745 123.659 125.136C124.742 124.831 125.554 124.222 126.096 123.308C126.638 122.394 127.095 121.446 127.467 120.464C127.535 120.261 127.653 119.973 127.823 119.601C128.026 119.194 128.144 118.907 128.178 118.737Z" fill="white"/>
<path d="M177.753 130.569C176.974 130.942 176.45 131.399 176.179 131.94C175.908 132.482 175.688 133.041 175.519 133.616C175.383 134.192 175.197 134.75 174.96 135.292C174.757 135.8 174.3 136.223 173.589 136.562C173.42 137.171 173.081 137.594 172.573 137.831C172.099 138.068 171.592 138.288 171.05 138.491C170.508 138.66 170.017 138.897 169.577 139.202C169.171 139.507 168.968 140.032 168.968 140.776C168.291 141.149 167.546 141.487 166.734 141.792C165.955 142.097 165.126 142.317 164.245 142.452C163.399 142.621 162.553 142.689 161.706 142.655C160.86 142.621 160.064 142.452 159.32 142.147C158.812 141.91 158.321 141.606 157.847 141.233C157.678 141.098 157.508 140.979 157.339 140.878C157.204 140.81 157.051 140.692 156.882 140.522C156.476 140.116 156.137 139.642 155.866 139.101C155.596 138.559 155.376 137.983 155.206 137.374C155.037 136.765 154.902 136.155 154.8 135.546C154.698 134.937 154.614 134.361 154.546 133.819L156.425 128.741C155.443 127.963 154.648 127.065 154.038 126.05C153.429 125 152.684 124.035 151.804 123.155C151.635 123.392 151.415 123.595 151.144 123.765C150.873 123.934 150.771 124.205 150.839 124.577L151.347 125.034C150.23 126.253 149.096 127.641 147.945 129.198C146.827 130.722 145.947 132.262 145.304 133.819C144.559 133.785 144.034 133.972 143.73 134.378C143.425 134.75 143.171 135.19 142.968 135.698C142.765 136.172 142.511 136.612 142.206 137.019C141.902 137.425 141.394 137.594 140.683 137.526C140.514 137.899 140.344 138.305 140.175 138.745C140.006 139.151 139.803 139.541 139.566 139.913C139.329 140.285 139.041 140.59 138.702 140.827C138.364 141.098 137.941 141.233 137.433 141.233C137.162 140.963 137.01 140.675 136.976 140.37C136.942 140.065 136.976 139.761 137.077 139.456C137.179 139.118 137.314 138.796 137.484 138.491C137.653 138.153 137.771 137.831 137.839 137.526C138.11 136.545 138.601 135.664 139.312 134.886C140.023 134.073 140.734 133.278 141.445 132.499C142.155 131.687 142.765 130.84 143.273 129.96C143.78 129.08 143.984 128.047 143.882 126.862C144.322 126.828 144.762 126.744 145.202 126.608C145.676 126.439 146.099 126.236 146.472 125.999C146.878 125.728 147.183 125.407 147.386 125.034C147.623 124.628 147.708 124.154 147.64 123.612C147.369 123.477 147.217 123.291 147.183 123.054C147.149 122.783 147.149 122.512 147.183 122.241C147.928 122.004 148.52 121.598 148.96 121.022C149.434 120.413 149.857 119.77 150.23 119.093C150.602 118.416 150.958 117.739 151.296 117.062C151.668 116.351 152.142 115.741 152.718 115.233C153.192 115.504 153.666 115.741 154.14 115.944C154.614 116.114 155.071 116.351 155.511 116.655C155.206 117.062 155.02 117.451 154.952 117.823C154.885 118.196 154.851 118.585 154.851 118.991C154.851 119.364 154.851 119.736 154.851 120.108C154.851 120.481 154.749 120.87 154.546 121.276C155.088 121.75 155.545 122.309 155.917 122.952C156.29 123.595 156.764 124.137 157.339 124.577C157.745 124.272 158.202 124.12 158.71 124.12C159.218 124.086 159.726 124.086 160.234 124.12C160.775 124.12 161.283 124.086 161.757 124.019C162.231 123.917 162.62 123.629 162.925 123.155C163.06 123.291 163.264 123.358 163.534 123.358C163.805 123.358 164.076 123.358 164.347 123.358C164.618 123.358 164.855 123.409 165.058 123.511C165.261 123.578 165.379 123.731 165.413 123.968C165.447 124.239 165.43 124.425 165.363 124.526C165.329 124.628 165.278 124.797 165.21 125.034C165.142 125.305 165.126 125.44 165.159 125.44C165.193 125.44 165.159 125.559 165.058 125.796C164.889 126.236 164.601 126.608 164.195 126.913C163.822 127.218 163.433 127.522 163.027 127.827C162.654 128.098 162.299 128.42 161.96 128.792C161.655 129.131 161.503 129.571 161.503 130.112C160.758 130.383 160.234 130.789 159.929 131.331C159.624 131.839 159.421 132.431 159.32 133.108C159.218 133.752 159.15 134.429 159.116 135.14C159.083 135.817 158.964 136.443 158.761 137.019L159.218 137.526L159.624 137.019C160.098 137.696 160.657 138.119 161.3 138.288C161.977 138.457 162.671 138.508 163.382 138.44C163.721 137.933 164.11 137.526 164.55 137.222C165.024 136.917 165.515 136.663 166.023 136.46C166.564 136.257 167.106 136.071 167.648 135.901C168.223 135.732 168.765 135.529 169.273 135.292C169.679 135.089 170.017 134.869 170.288 134.632C170.593 134.395 170.915 134.124 171.253 133.819C172.269 132.871 173.267 131.94 174.249 131.026C175.265 130.112 176.28 129.181 177.296 128.233C177.499 128.233 177.635 128.335 177.702 128.538C177.77 128.741 177.804 128.978 177.804 129.249C177.804 129.486 177.787 129.74 177.753 130.011C177.753 130.248 177.753 130.434 177.753 130.569Z" fill="white"/>
</svg>
