<svg width="197" height="67" viewBox="0 0 197 67" fill="none" xmlns="http://www.w3.org/2000/svg">
<path d="M63.8136 23.7713C63.0036 24.1001 62.1726 24.3655 61.3205 24.5676C60.4847 24.7547 59.6413 24.9337 58.7905 25.1046C58.7592 25.1034 58.6728 25.1157 58.5311 25.1416C58.405 25.1681 58.2707 25.2021 58.1284 25.2436C57.9867 25.2694 57.8528 25.2956 57.7267 25.3221C57.6168 25.3335 57.5619 25.3393 57.5619 25.3393C57.3769 25.2697 57.1895 25.2625 56.9998 25.3179C56.8263 25.3582 56.6443 25.4138 56.454 25.4847C56.2793 25.5562 56.0895 25.6116 55.8848 25.6507C55.6806 25.6742 55.4557 25.6265 55.21 25.5077C55.1638 25.4903 55.0773 25.5027 54.9506 25.5447C54.8245 25.5712 54.6978 25.6133 54.5705 25.671C54.4433 25.7287 54.331 25.8026 54.2337 25.8927C54.1371 25.9672 54.0798 26.0354 54.0618 26.0973L54.1969 26.2431C54.2108 26.2906 54.1838 26.3834 54.116 26.5215C54.0488 26.644 53.9732 26.7819 53.8891 26.9351C53.8057 27.0726 53.7148 27.2021 53.6164 27.3234C53.5335 27.4453 53.4681 27.521 53.4201 27.5505C53.4303 27.6916 53.3848 27.8618 53.2834 28.0613C53.1982 28.2456 53.0967 28.4451 52.9791 28.6595C52.8771 28.8745 52.7748 29.0973 52.6722 29.328C52.5852 29.5592 52.5379 29.7763 52.5301 29.9793C52.5278 30.0418 52.5332 30.1045 52.5464 30.1676C52.5597 30.2306 52.5576 30.2853 52.5402 30.3315L52.515 30.3775C52.3541 30.4964 52.2307 30.6559 52.145 30.8559C52.0754 31.0409 52.013 31.2418 51.9578 31.4586C51.9189 31.6604 51.8643 31.8616 51.7941 32.0622C51.7395 32.2634 51.6468 32.4397 51.516 32.591L51.5151 32.6145L51.4908 32.637C51.2842 32.7229 51.1119 32.732 50.9737 32.6642C50.8512 32.597 50.7377 32.4989 50.6331 32.3698C50.5442 32.2413 50.4559 32.0972 50.3681 31.9375C50.2966 31.7628 50.2086 31.6109 50.104 31.4818C50.0493 31.2765 50.0324 31.1038 50.0534 30.9639C50.075 30.8084 50.1512 30.6549 50.282 30.5035L50.3297 30.4819C50.2408 30.3534 50.2138 30.2429 50.2485 30.1504C50.2995 30.0429 50.3503 29.9432 50.4007 29.8513C50.4667 29.76 50.5093 29.6678 50.5285 29.5747C50.5639 29.4666 50.5218 29.3399 50.4022 29.1946L50.4508 29.1496C50.6615 28.9543 50.7795 28.7321 50.8046 28.4829C50.8303 28.218 50.8248 27.952 50.7881 27.6848C50.7669 27.4182 50.7536 27.1519 50.7481 26.8858C50.7582 26.6204 50.8455 26.3814 51.01 26.1687L51.0343 26.1462C51.0535 26.0531 50.9958 25.9258 50.8612 25.7643C50.7266 25.6028 50.6218 25.4816 50.5467 25.4005C50.4441 25.6312 50.3144 25.7513 50.1577 25.761C50.0171 25.7556 49.8541 25.726 49.6685 25.672C49.4985 25.6186 49.3283 25.573 49.1577 25.5353C48.9872 25.4975 48.8289 25.5462 48.6831 25.6814L48.5624 25.7706L48.5191 25.6751C48.462 25.5322 48.3788 25.4587 48.2695 25.4545C48.1764 25.4354 48.0671 25.4312 47.9416 25.4421C47.7537 25.4505 47.5735 25.4593 47.4012 25.4684C47.245 25.4624 47.0811 25.4562 46.9094 25.4497C46.8186 25.368 46.7105 25.3326 46.585 25.3435C46.4751 25.355 46.3574 25.3661 46.2319 25.377C46.1221 25.3884 46.0047 25.3918 45.8797 25.387C45.771 25.3672 45.6644 25.2928 45.5599 25.1637C45.4488 25.2064 45.2699 25.3872 45.0232 25.7062C44.7771 26.0096 44.5139 26.3514 44.2336 26.7316C43.969 27.1124 43.7124 27.4858 43.4639 27.8516C43.2316 28.2024 43.0738 28.4465 42.9904 28.5841C42.9244 28.6754 42.8418 28.7895 42.7428 28.9265C42.6594 29.064 42.5679 29.2091 42.4682 29.3617C42.3692 29.4986 42.278 29.6359 42.1946 29.7734C42.1117 29.8954 42.0451 30.0023 41.9947 30.0942L42.0155 30.1653C42.0095 30.3215 41.9813 30.4455 41.9309 30.5374C41.8811 30.6137 41.816 30.6815 41.7355 30.741C41.6713 30.7855 41.6071 30.83 41.5428 30.8744C41.4792 30.9033 41.423 30.9402 41.3744 30.9853C41.2495 30.9805 41.1546 31.0082 41.0898 31.0683C41.025 31.1283 40.9677 31.1965 40.9178 31.2728C40.868 31.3491 40.8107 31.4173 40.7459 31.4773C40.6654 31.5368 40.5471 31.5636 40.391 31.5576C40.3256 31.6333 40.2845 31.6865 40.2676 31.7171C40.2508 31.7478 40.225 31.8093 40.1903 31.9018C40.1549 32.0099 40.1285 32.0871 40.1111 32.1334C40.0781 32.179 40.0535 32.2093 40.0372 32.2244C40.0048 32.2544 39.9727 32.2766 39.9409 32.2911C39.9085 32.3211 39.8758 32.3589 39.8427 32.4046C39.7485 32.4166 39.6788 32.3983 39.6337 32.3497C39.5887 32.3011 39.5442 32.2369 39.5004 32.157C39.4559 32.0928 39.4195 32.021 39.3913 31.9418C39.3468 31.8775 39.294 31.8286 39.2327 31.795L39.2588 31.7256C39.6061 30.8163 40.0141 29.9562 40.4828 29.1453C40.9521 28.3188 41.4523 27.5013 41.9835 26.6928C42.0171 26.6316 42.0429 26.57 42.0609 26.5082C42.0789 26.4463 42.1047 26.3847 42.1383 26.3235C42.2241 26.1235 42.3096 25.9313 42.3948 25.7469C42.4956 25.5631 42.6117 25.3877 42.7432 25.2207C42.859 25.0531 42.9589 24.8927 43.0429 24.7395C43.1426 24.587 43.2347 24.4263 43.3193 24.2575L43.2742 24.2089C42.7901 23.7839 42.3686 23.3535 42.01 22.9177C41.6675 22.4668 41.3427 21.9619 41.0356 21.4029C40.9629 21.2595 40.8902 21.116 40.8175 20.9725C40.7454 20.8134 40.6726 20.6699 40.5993 20.542L40.5768 20.5177C40.5887 20.2054 40.624 19.894 40.6827 19.5835C40.7415 19.273 40.8924 19.0051 41.1355 18.7798L41.1598 18.7573L41.1607 18.7339C41.2447 18.5807 41.3351 18.4669 41.4317 18.3924C41.5284 18.3179 41.6244 18.259 41.7199 18.2157C41.831 18.1731 41.9417 18.1382 42.0522 18.1111C42.1633 18.0684 42.2753 18.0023 42.3881 17.9128L42.389 17.8894C42.7541 17.7469 43.1105 17.6276 43.4581 17.5314C43.8058 17.4352 44.1709 17.496 44.5535 17.7138L44.6013 17.6922C44.7448 17.6195 44.918 17.587 45.121 17.5947C45.3246 17.5868 45.5044 17.5858 45.6605 17.5918C45.7524 17.6422 45.8437 17.7082 45.9345 17.7898C46.0414 17.8565 46.1405 17.9228 46.2318 17.9888C46.3387 18.0554 46.4462 18.1064 46.5543 18.1418C46.6624 18.1772 46.7642 18.1733 46.8597 18.13L46.8831 18.1309L46.884 18.1074C47.0461 17.9573 47.1793 17.7434 47.2837 17.4659C47.3887 17.1728 47.4942 16.8641 47.6004 16.5398C47.7222 16.2161 47.8515 15.9005 47.9883 15.593C48.1257 15.2698 48.3081 14.9953 48.5356 14.7694C48.5374 14.7226 48.5725 14.6223 48.6409 14.4685C48.7099 14.2992 48.7795 14.1142 48.8497 13.9136C48.9361 13.698 48.9987 13.4893 49.0377 13.2875C49.0929 13.0707 49.0997 12.8911 49.0582 12.7488L49.2681 12.7802C49.3329 12.7202 49.374 12.667 49.3914 12.6208L49.3707 12.5496C49.3106 12.4848 49.2902 12.4058 49.3093 12.3127C49.3285 12.2196 49.3552 12.1346 49.3894 12.0578L49.366 12.0569L49.3461 11.9623C49.3936 11.9485 49.4806 11.9205 49.6073 11.8784C49.7496 11.8369 49.8922 11.7876 50.0352 11.7305C50.1781 11.6734 50.305 11.6235 50.4161 11.5809C50.5428 11.5388 50.614 11.518 50.6296 11.5186C50.8434 11.6519 50.9552 11.7968 50.9648 11.9536C50.9901 12.1109 50.9752 12.298 50.92 12.5148C50.9002 12.6235 50.8889 12.7169 50.8859 12.7949C50.8991 12.858 50.904 12.9363 50.9004 13.03C50.8945 13.1862 50.848 13.3798 50.761 13.6111C50.6746 13.8267 50.572 14.0573 50.4532 14.303C50.35 14.5492 50.2318 14.7793 50.0986 14.9931C49.9653 15.207 49.8492 15.3824 49.7502 15.5193L49.7448 15.6598C49.7323 15.9877 49.6724 16.3294 49.5651 16.685C49.4583 17.0249 49.3281 17.364 49.1745 17.7021C49.0209 18.0403 48.852 18.37 48.6678 18.6914C48.4991 19.0133 48.3311 19.3196 48.1637 19.6104C48.0473 19.7936 47.9218 20.0077 47.7874 20.2527C47.6536 20.4822 47.5195 20.7195 47.385 20.9645C47.2662 21.2102 47.1549 21.4639 47.0511 21.7258C46.9636 21.9726 46.9003 22.197 46.8613 22.3988L46.8604 22.4222L46.233 23.5006C46.2925 23.5811 46.3835 23.6549 46.506 23.7221C46.6448 23.7743 46.7835 23.8265 46.9223 23.8787C47.0766 23.9315 47.2235 23.9762 47.3628 24.0128C47.5183 24.0343 47.6508 24.0472 47.76 24.0513C47.9318 24.0579 48.0717 24.0788 48.1798 24.1142C48.3041 24.1346 48.4261 24.2174 48.5456 24.3627L48.5907 24.4113L48.6375 24.4131C48.7636 24.3866 48.8735 24.3752 48.9672 24.3788C49.0609 24.3823 49.1702 24.3865 49.2951 24.3912C49.4188 24.4272 49.5356 24.4395 49.6455 24.428C49.771 24.4172 49.8965 24.4063 50.022 24.3955L49.9924 24.5585C50.0675 24.6396 50.1278 24.6966 50.1735 24.7296C50.2563 24.6076 50.3548 24.4863 50.4688 24.3656C50.5277 24.4616 50.5797 24.534 50.6247 24.5826C50.6728 24.5531 50.7298 24.4928 50.7958 24.4015C50.8774 24.3108 50.9339 24.266 50.9651 24.2672L50.9894 24.2447L51.0119 24.269C51.2894 24.3733 51.5458 24.4144 51.7812 24.3921C52.0166 24.3698 52.2749 24.364 52.5559 24.3747C52.6069 24.2671 52.6726 24.1837 52.7531 24.1242C52.8491 24.0653 52.9296 24.0058 52.9944 23.9457C53.0755 23.8706 53.1253 23.7943 53.1439 23.7169C53.1624 23.6394 53.1276 23.5286 53.0392 23.3845L53.0176 23.3368C53.0176 23.3368 53.0428 23.2908 53.0932 23.1989C53.1592 23.1076 53.2256 23.0085 53.2922 22.9016C53.3594 22.7791 53.4182 22.6719 53.4686 22.58C53.5346 22.4887 53.576 22.4277 53.5928 22.3971C53.9247 21.8937 54.2179 21.381 54.4723 20.8591C54.7273 20.3215 54.8664 19.7483 54.8896 19.1393L54.8958 18.9754C54.9277 18.961 54.9592 18.9544 54.9904 18.9556C55.2282 18.8708 55.3578 18.7506 55.3794 18.5951C55.4016 18.4239 55.4006 18.2441 55.3765 18.0555C55.3524 17.867 55.3595 17.6796 55.3979 17.4934C55.4519 17.3079 55.6221 17.1502 55.9085 17.0203L55.9562 16.9987L55.9814 16.9527C56.084 16.7221 56.171 16.4909 56.2423 16.259C56.3299 16.0122 56.425 15.7735 56.5276 15.5428C56.851 14.8515 57.0985 14.1026 57.2699 13.296C57.3083 13.1098 57.3848 12.9485 57.4994 12.8122C57.6303 12.6608 57.7608 12.5172 57.8911 12.3815C58.0219 12.2301 58.1372 12.0781 58.2368 11.9255C58.3526 11.7579 58.4144 11.5727 58.4221 11.3697C58.4269 11.2448 58.4146 11.1583 58.3851 11.1103L58.3878 11.04L58.4355 11.0184C58.7537 10.8741 59.0032 10.6882 59.1838 10.4605C59.3645 10.2328 59.4617 9.93945 59.4754 9.58034C59.4771 9.5335 59.4726 9.44732 59.4617 9.32182C59.4665 9.19691 59.4539 9.11825 59.4238 9.08583C59.5679 8.9975 59.721 8.87824 59.8831 8.72805L59.929 8.75325C60.2174 8.98314 60.3883 9.21637 60.4418 9.45296C60.5116 9.67452 60.5186 9.90151 60.4628 10.1339C60.4227 10.367 60.3588 10.6069 60.2712 10.8537C60.1837 11.1006 60.1348 11.3567 60.1247 11.6221L60.1004 11.6447C59.8507 12.0417 59.6458 12.4952 59.4857 13.0051C59.3255 13.515 59.2363 14.012 59.2178 14.496C59.0461 14.4894 58.9353 14.5243 58.8855 14.6006C58.8513 14.6775 58.8162 14.7778 58.7802 14.9015C58.7604 15.0102 58.7248 15.1261 58.6732 15.2492C58.6372 15.373 58.5393 15.4787 58.3796 15.5664L58.4238 15.6385C58.4226 15.6697 58.4217 15.6931 58.4211 15.7087C58.4361 15.7249 58.443 15.7487 58.4419 15.7799C58.4383 15.8736 58.4116 15.9585 58.3618 16.0348C58.3126 16.0955 58.2631 16.164 58.2132 16.2403C58.164 16.3009 58.1301 16.37 58.1115 16.4475C58.1086 16.5256 58.1443 16.6129 58.2188 16.7096C58.2777 16.8056 58.3147 16.8618 58.3297 16.878L58.0721 16.8682C57.8038 17.3427 57.5587 17.8259 57.3367 18.3178C57.1147 18.8097 56.908 19.31 56.7166 19.8187C56.5595 20.2506 56.3948 20.6743 56.2226 21.0899C56.0504 21.5055 55.8473 21.9122 55.6132 22.3098L55.6106 22.3801C55.741 22.6508 55.7408 22.8619 55.6099 23.0133C55.4947 23.1653 55.3644 23.3011 55.2191 23.4206C55.0901 23.5252 55 23.6312 54.949 23.7387C54.898 23.8462 55.002 23.9909 55.2609 24.1727C55.4716 23.9775 55.6616 23.9144 55.831 23.9834C56.0003 24.0524 56.2088 24.1228 56.4562 24.1948C56.5048 24.1497 56.5453 24.1122 56.5778 24.0822C56.6264 24.0371 56.6969 24.032 56.7894 24.0668C56.8045 24.083 56.8195 24.0992 56.8345 24.1154C56.8501 24.116 56.8654 24.1244 56.8804 24.1406C56.9795 24.0036 57.0683 23.9288 57.147 23.9162C57.2256 23.9036 57.3034 23.9143 57.3803 23.9485C57.4572 23.9827 57.5341 24.0169 57.6109 24.0511C57.6878 24.0853 57.7662 24.0805 57.846 24.0366C57.8941 24.0072 57.9271 23.9615 57.9451 23.8997C57.9637 23.8222 57.9897 23.7528 58.0234 23.6916C58.2486 23.9347 58.4394 24.0592 58.5955 24.0652C58.7678 24.0561 58.9258 24.0152 59.0693 23.9425C59.229 23.8547 59.3806 23.7745 59.5241 23.7018C59.6832 23.6297 59.8624 23.6443 60.0618 23.7457C60.2336 23.7523 60.4059 23.7432 60.5789 23.7185C60.768 23.6788 60.9491 23.6466 61.122 23.6219C61.5778 23.5611 62.0251 23.5156 62.4641 23.4854C62.9031 23.4552 63.3475 23.4877 63.7973 23.583L63.8136 23.7713ZM45.9744 18.5888C45.8339 18.5835 45.7009 18.5862 45.5754 18.5971C45.4655 18.6085 45.3619 18.6593 45.2646 18.7494C45.2496 18.7332 45.2343 18.7248 45.2187 18.7242C44.6163 18.5293 44.0296 18.5382 43.4586 18.751C42.8876 18.9638 42.3908 19.2811 41.9682 19.7028L41.9142 19.8884C41.8968 19.9346 41.8869 19.989 41.8845 20.0515C41.8828 20.0983 41.8813 20.1373 41.8801 20.1686C41.8688 20.4652 41.9286 20.7411 42.0597 20.9963C42.1462 21.1872 42.2496 21.3475 42.3697 21.4772C42.5055 21.6075 42.6493 21.7302 42.8013 21.8454C42.9689 21.9613 43.1287 22.0768 43.2807 22.1921C43.4483 22.3079 43.5993 22.4466 43.7339 22.608C44.0462 22.6199 44.2599 22.5499 44.3752 22.3979C44.5066 22.2309 44.5999 22.039 44.6551 21.8222C44.7265 21.5904 44.7979 21.3586 44.8692 21.1267C44.9406 20.8949 45.0804 20.7126 45.2888 20.5798C45.3044 20.5804 45.3122 20.5807 45.3122 20.5807C45.3128 20.5651 45.3209 20.5576 45.3365 20.5582C45.28 20.3996 45.2859 20.2435 45.3543 20.0897C45.4384 19.9366 45.5302 19.7837 45.6298 19.6311C45.745 19.4792 45.8372 19.3185 45.9062 19.1491C45.9908 18.9803 46.0135 18.7936 45.9744 18.5888ZM76.4698 25.7777C76.324 25.9129 76.2105 26.018 76.1295 26.0931C76.064 26.1688 75.9986 26.2445 75.9332 26.3202C75.884 26.3809 75.8188 26.4487 75.7378 26.5238C75.6724 26.5995 75.5664 26.7128 75.42 26.8636C75.2903 26.9837 75.1681 27.112 75.0535 27.2483C74.9388 27.3847 74.8092 27.5048 74.6645 27.6088C74.4789 27.5548 74.3297 27.5726 74.2168 27.6621C74.1196 27.7522 74.0217 27.858 73.9233 27.9793C73.8411 28.0856 73.7588 28.1919 73.6766 28.2983C73.6106 28.3896 73.5232 28.4253 73.4145 28.4056C73.0321 28.5943 72.6505 28.7596 72.2698 28.9014C71.8897 29.0277 71.5226 29.2248 71.1684 29.4928L70.9882 29.2983L68.5079 30.3766C68.4286 30.4048 68.3487 30.4487 68.2683 30.5082C68.1878 30.5676 68.1077 30.6193 68.0278 30.6632C67.6772 30.8375 67.3116 30.9956 66.9309 31.1374C66.5664 31.2643 66.2023 31.3833 65.8384 31.4946L65.5303 31.5766C65.6434 31.8937 65.635 32.1123 65.5054 32.2324C65.3757 32.3526 65.1926 32.4394 64.956 32.493C64.72 32.5309 64.4612 32.5523 64.1796 32.5572C63.8979 32.5621 63.6772 32.6084 63.5175 32.6962C63.3314 32.6578 63.1368 32.6348 62.9338 32.627C62.7459 32.6355 62.5498 32.6515 62.3456 32.675C62.1258 32.6979 61.9223 32.7058 61.7349 32.6987C61.5475 32.6915 61.3455 32.6604 61.1287 32.6052L61.0818 32.6034C60.8116 32.7182 60.5765 32.7327 60.3765 32.647C60.1915 32.5774 60.0239 32.4615 59.8738 32.2994C59.7242 32.1218 59.5833 31.9209 59.4511 31.697C59.3351 31.458 59.2104 31.2422 59.077 31.0495C58.9881 30.921 58.8778 30.737 58.7462 30.4974C58.6146 30.2579 58.507 30.0036 58.4234 29.7346C58.3242 29.465 58.2719 29.1972 58.2664 28.9312C58.2458 28.6489 58.3097 28.409 58.458 28.2114C58.6062 28.0137 58.7316 27.7996 58.8342 27.569C58.9212 27.3377 58.9707 27.066 58.9825 26.7537C58.9867 26.6444 58.9906 26.5429 58.9941 26.4492C58.9821 26.355 58.9781 26.2532 58.9823 26.1439C59.0604 26.1469 59.146 26.1579 59.239 26.1771C59.3327 26.1807 59.4186 26.184 59.4967 26.1869C59.5909 26.1749 59.6624 26.1463 59.711 26.1013C59.7759 26.0412 59.8109 25.9409 59.8163 25.8004C59.8193 25.7223 59.7904 25.6587 59.7297 25.6094C59.6847 25.5608 59.6552 25.5128 59.6414 25.4653C59.7404 25.3284 59.8305 25.2224 59.9115 25.1473C60.0088 25.0572 60.0901 24.9742 60.1555 24.8986C60.2216 24.8073 60.2723 24.7075 60.3077 24.5994C60.3436 24.4757 60.3421 24.3115 60.303 24.1067C60.5028 23.786 60.7324 23.5054 60.9917 23.2651C61.2673 23.0098 61.5497 22.7782 61.8391 22.5703C62.1291 22.3468 62.4265 22.1314 62.7315 21.9241C63.0365 21.7168 63.3265 21.4933 63.6014 21.2536C63.8933 21.3898 64.1275 21.3987 64.304 21.2803C64.4961 21.1626 64.6651 21.0361 64.811 20.9009C64.9575 20.7501 65.1028 20.6306 65.2468 20.5422C65.3909 20.4539 65.5768 20.5001 65.8045 20.6807L65.8495 20.7294C66.2872 20.3238 66.7159 20.1525 67.1356 20.2154C67.571 20.2789 67.9326 20.4334 68.2204 20.6789C68.5237 20.925 68.7163 21.206 68.7981 21.5218C68.8805 21.822 68.7869 22.0217 68.5173 22.1209C68.6825 22.2992 68.7606 22.5055 68.7517 22.7397C68.7428 22.9739 68.6726 23.1745 68.5412 23.3415C68.3935 23.5235 68.2612 23.7139 68.1441 23.9127C68.0433 24.0965 67.9341 24.2956 67.8165 24.5101C67.6467 24.8632 67.4619 25.2002 67.262 25.521C67.0627 25.8261 66.7872 26.0814 66.4354 26.2869C66.1573 26.1982 65.961 26.222 65.8463 26.3583C65.7473 26.4953 65.6711 26.6487 65.6177 26.8187C65.5649 26.9731 65.5055 27.0959 65.4395 27.1872C65.3735 27.2785 65.2419 27.2422 65.0449 27.0784L64.9998 27.0297L64.9512 27.0748C64.8215 27.1949 64.7147 27.3316 64.6307 27.4848C64.5623 27.6385 64.4642 27.7521 64.3363 27.8254C64.1975 27.7732 64.0507 27.7285 63.8957 27.6913C63.7408 27.6541 63.5937 27.6173 63.4543 27.5807C63.4418 27.9086 63.3696 28.1638 63.2375 28.3464C63.1055 28.529 62.9356 28.6789 62.7279 28.7961C62.5363 28.8983 62.3142 28.9836 62.0614 29.0522C61.8092 29.1051 61.5561 29.1815 61.3021 29.2813C61.0643 29.3661 60.8332 29.4823 60.6087 29.6302C60.4003 29.763 60.2287 29.9597 60.0936 30.2204C60.2432 30.3981 60.4345 30.507 60.6676 30.5471C60.9012 30.5717 61.1432 30.5809 61.3936 30.5748C61.6446 30.5531 61.8872 30.5467 62.1214 30.5556C62.3712 30.5651 62.5874 30.6359 62.7701 30.7679L62.7926 30.7922L62.8169 30.7697C63.1934 30.7371 63.5558 30.6649 63.9041 30.5531C64.2685 30.4262 64.6174 30.2988 64.9506 30.1708C65.3001 30.0277 65.6489 29.9002 65.9972 29.7884C66.3616 29.6616 66.7324 29.574 67.1095 29.5259C67.1828 29.6537 67.2816 29.7279 67.406 29.7482C67.5459 29.7692 67.6789 29.7665 67.805 29.74L67.8302 29.694C67.8656 29.5859 67.9004 29.4934 67.9346 29.4165C67.9694 29.3241 68.0201 29.2244 68.0867 29.1174C68.2025 28.9498 68.3403 28.8222 68.5 28.7344C68.6597 28.6467 68.8263 28.5827 68.9999 28.5424C69.189 28.5027 69.3854 28.4789 69.5889 28.471C69.7925 28.4631 69.9964 28.4474 70.2006 28.4239L70.2474 28.4257L70.2735 28.3563C70.3431 28.1713 70.4259 28.0494 70.522 27.9905C70.6342 27.9166 70.7456 27.8661 70.8561 27.8391C70.9822 27.8126 71.108 27.7939 71.2335 27.7831C71.3746 27.7728 71.5091 27.731 71.637 27.6577C71.9145 27.7621 72.1499 27.7398 72.3432 27.5908C72.5365 27.4418 72.7223 27.2847 72.9006 27.1195L73.079 27.3608L73.1529 27.2698C73.3954 27.0601 73.5734 26.9027 73.6868 26.7976C73.8159 26.693 73.9366 26.6038 74.0488 26.5299C74.1617 26.4404 74.2899 26.3593 74.4334 26.2865C74.5931 26.1988 74.8089 26.0741 75.0809 25.9125C75.3048 25.7803 75.521 25.6478 75.7293 25.515C75.9532 25.3828 76.17 25.2347 76.3795 25.0706C76.4564 25.1048 76.493 25.1688 76.4895 25.2625C76.4865 25.3405 76.4835 25.4186 76.4805 25.4967C76.4637 25.5273 76.4463 25.5736 76.4283 25.6354C76.426 25.6979 76.4398 25.7453 76.4698 25.7777ZM66.8852 22.481C66.8702 22.4648 66.8549 22.4564 66.8393 22.4558C66.8393 22.4558 66.8317 22.4477 66.8167 22.4315C66.4954 22.2472 66.2251 22.1588 66.0059 22.166C65.7873 22.1577 65.582 22.2124 65.3899 22.3302C65.2139 22.433 65.0444 22.5751 64.8811 22.7565C64.734 22.9229 64.5716 23.0809 64.3939 23.2305C64.2325 23.3651 64.0409 23.4672 63.8194 23.537C63.5978 23.6067 63.3327 23.5888 63.024 23.4832C62.9676 23.7313 62.9113 23.9793 62.8549 24.2273C62.8148 24.4604 62.7821 24.7015 62.757 24.9507C62.488 25.0343 62.2722 25.159 62.1095 25.3248C61.9624 25.4912 61.8304 25.6738 61.7134 25.8726C61.6119 26.072 61.5099 26.287 61.4073 26.5177C61.321 26.7333 61.2036 26.9399 61.0554 27.1375L61.1446 27.2582C61.2082 27.2294 61.2776 27.2555 61.3527 27.3365C61.4278 27.4175 61.4804 27.4743 61.5104 27.5067C61.6917 27.2634 61.9261 27.0612 62.2137 26.9002C62.5169 26.7397 62.8195 26.5949 63.1215 26.4657C63.4397 26.3214 63.7426 26.1688 64.0302 26.0077C64.3178 25.8467 64.5372 25.6283 64.6884 25.3526C65.1934 25.2311 65.5788 24.9643 65.8447 24.5523C66.1106 24.1402 66.338 23.711 66.527 23.2648C66.5618 23.1723 66.6215 23.0417 66.7061 22.8729C66.8069 22.6891 66.8666 22.5585 66.8852 22.481ZM88.6301 30.9551C88.3972 31.3215 88.2139 31.6194 88.0801 31.8488C87.9625 32.0633 87.8382 32.2462 87.7074 32.3976C87.5927 32.5339 87.4549 32.6616 87.2941 32.7806C87.1494 32.8845 86.941 33.0173 86.6691 33.1789C86.4914 33.3285 86.3146 33.4547 86.1387 33.5575C85.994 33.6614 85.8499 33.7497 85.7064 33.8225C85.5785 33.8958 85.4755 33.9309 85.3975 33.928C85.3662 33.9268 85.3353 33.9178 85.3047 33.901C85.2734 33.8998 85.2422 33.8986 85.211 33.8974C85.1173 33.8939 85.0236 33.8903 84.9299 33.8867C84.8513 33.8994 84.7831 33.842 84.7254 33.7148C84.6768 33.7598 84.6357 33.813 84.6021 33.8742C84.5684 33.9355 84.5351 33.989 84.5021 34.0346C84.4685 34.0959 84.4199 34.1409 84.3563 34.1698C84.3082 34.1992 84.238 34.1966 84.1455 34.1618L84.0337 34.0168L83.6708 34.3079C83.242 34.0726 82.8275 33.8692 82.4275 33.6976C82.0425 33.5422 81.6977 33.3571 81.3932 33.1422C81.0887 32.9274 80.833 32.6596 80.6263 32.339C80.4202 32.0028 80.281 31.5519 80.2088 30.9862C80.1342 30.8896 80.0513 30.8083 79.96 30.7422C79.8693 30.6606 79.7609 30.633 79.6348 30.6595C79.4686 30.919 79.2726 31.1382 79.0469 31.3173C78.8212 31.4963 78.5948 31.691 78.3679 31.9012C78.2869 31.9763 78.2212 32.0598 78.1707 32.1517C78.1203 32.2436 78.0546 32.3271 77.9736 32.4022C77.8433 32.538 77.6911 32.6338 77.517 32.6898C77.3435 32.7301 77.1699 32.7704 76.9964 32.8107C76.8229 32.851 76.6559 32.9228 76.4956 33.0261C76.351 33.1301 76.2423 33.3136 76.1698 33.5766C75.9866 33.4602 75.8004 33.4218 75.6112 33.4616C75.4695 33.4874 75.32 33.513 75.1627 33.5383C75.0048 33.5792 74.8477 33.5967 74.6916 33.5907C74.5505 33.601 74.4106 33.58 74.2718 33.5278C74.1331 33.4756 74.012 33.3694 73.9087 33.2091C73.6865 33.2945 73.4838 33.2789 73.3006 33.1625C73.1168 33.0617 72.9423 32.9221 72.7771 32.7438C72.6281 32.5505 72.4794 32.3494 72.331 32.1405C72.1826 31.9316 72.0399 31.7776 71.903 31.6785C71.8188 31.4252 71.8346 31.2147 71.9505 31.0471C72.0513 30.8633 72.1671 30.6957 72.298 30.5443C72.4138 30.3767 72.4981 30.2158 72.5509 30.0614C72.6043 29.8914 72.5417 29.6858 72.3633 29.4444C72.5283 29.2162 72.6781 28.9795 72.8125 28.7345C72.9475 28.4738 73.0822 28.2209 73.2167 27.9758C73.3673 27.7158 73.5173 27.4713 73.6668 27.2424C73.8324 26.9986 74.0278 26.7949 74.2529 26.6315C74.1634 26.5186 74.1204 26.4154 74.124 26.3217C74.1282 26.2124 74.1555 26.1118 74.2059 26.0199C74.2569 25.9124 74.3154 25.813 74.3814 25.7217C74.448 25.6147 74.4987 25.515 74.5335 25.4225L75.2252 25.1205L75.0826 24.5522C75.2532 24.5899 75.3784 24.5869 75.4583 24.543C75.5537 24.4998 75.6189 24.4319 75.6537 24.3394C75.7041 24.2475 75.7392 24.1472 75.7589 24.0385C75.7949 23.9148 75.8381 23.8069 75.8885 23.715C75.9719 23.5775 76.0929 23.4805 76.2514 23.424C76.5888 23.1866 76.919 22.9334 77.242 22.6642C77.5806 22.3957 77.9111 22.1346 78.2334 21.8811C78.5714 21.6281 78.9166 21.3911 79.2691 21.1699C79.6221 20.9332 80.0048 20.7367 80.4173 20.5804C80.6966 20.6379 80.9119 20.7321 81.0633 20.863C81.2303 20.9944 81.3495 21.1475 81.4211 21.3222C81.5082 21.4976 81.571 21.6954 81.6096 21.9158C81.6487 22.1205 81.6878 22.3253 81.7269 22.5301C81.7949 22.7985 81.8799 23.0284 81.9821 23.22C82.0842 23.4115 82.2657 23.5748 82.5263 23.7098C82.2935 24.0762 82.1933 24.4476 82.2259 24.8242C82.2591 25.1851 82.2914 25.5694 82.3227 25.9771C82.3553 26.3536 82.3335 26.7202 82.2574 27.077C82.1969 27.4343 81.9583 27.7458 81.5417 28.0114C81.5063 28.1195 81.494 28.2363 81.5049 28.3618C81.5157 28.4873 81.5188 28.6125 81.514 28.7374C81.5093 28.8623 81.4814 28.9785 81.4304 29.086C81.3794 29.1935 81.2902 29.2762 81.1629 29.3339C81.2969 29.511 81.3606 29.6854 81.3541 29.8571C81.3632 30.0295 81.3647 30.1937 81.3588 30.3499C81.3685 30.5066 81.4021 30.6486 81.4598 30.7759C81.5332 30.9038 81.7013 31.004 81.9644 31.0765C82.0035 31.2813 82.0366 31.4389 82.0637 31.5494C82.1069 31.6449 82.1508 31.7247 82.1953 31.789C82.2554 31.8538 82.331 31.9192 82.4223 31.9853C82.5142 32.0357 82.6362 32.1185 82.7882 32.2337C82.9119 32.2697 83.0524 32.2751 83.2097 32.2498C83.3671 32.2245 83.4902 32.2761 83.5791 32.4046C83.6601 32.3295 83.7553 32.294 83.8646 32.2982C83.9745 32.2867 84.076 32.2906 84.1691 32.3098L84.4539 32.8366C84.6304 32.7182 84.8298 32.6164 85.0519 32.531C85.2741 32.4456 85.4878 32.3756 85.6932 32.3209C85.9298 32.2673 86.1661 32.2216 86.4021 32.1837L88.6301 30.9551ZM79.9416 22.6028C79.7963 22.7224 79.6198 22.8408 79.4121 22.9579C79.2043 23.0751 78.9963 23.2001 78.788 23.3329C78.5953 23.4663 78.4254 23.6162 78.2783 23.7826C78.1318 23.9334 78.0388 24.1175 77.9993 24.3349C77.6378 24.3836 77.3823 24.5225 77.2329 24.7513C77.0834 24.9802 76.9565 25.2333 76.8521 25.5108C76.7478 25.7883 76.6356 26.0655 76.5156 26.3424C76.3962 26.6036 76.193 26.807 75.906 26.9524C75.8099 27.0113 75.7229 27.0393 75.6448 27.0363C75.6604 27.0369 75.6124 27.0663 75.5007 27.1246C75.3242 27.243 75.1699 27.3935 75.0379 27.5761C74.9058 27.7587 74.7888 27.9575 74.6868 28.1726C74.6004 28.3882 74.5137 28.6116 74.4267 28.8428C74.356 29.059 74.2858 29.2596 74.2162 29.4446C73.9964 29.4675 73.8307 29.5081 73.719 29.5664C73.6073 29.6247 73.5344 29.6923 73.5002 29.7692C73.4822 29.831 73.487 29.9094 73.5147 30.0043C73.5424 30.0992 73.5853 30.2024 73.6436 30.3141C73.7025 30.4102 73.7608 30.5218 73.8185 30.6491C73.8918 30.777 73.9495 30.9043 73.9916 31.031C74.0337 31.1577 74.0524 31.2835 74.0476 31.4084C74.0585 31.5339 74.0228 31.6498 73.9405 31.7561C74.1526 31.9362 74.3619 31.9833 74.5684 31.8973C74.7756 31.7957 74.9674 31.6858 75.1439 31.5674C75.2081 31.5229 75.2724 31.4785 75.3366 31.434C75.4171 31.3745 75.4969 31.3307 75.5762 31.3024C75.9323 31.3941 76.2611 31.3832 76.5625 31.2696C76.8639 31.156 77.1437 30.9946 77.4019 30.7856C77.66 30.5765 77.9109 30.3515 78.1546 30.1106C78.3984 29.8697 78.6409 29.66 78.8822 29.4816L78.702 29.2871C78.986 29.2197 79.1851 29.1256 79.2991 29.0049C79.4294 28.8691 79.5134 28.716 79.5511 28.5454C79.5889 28.3748 79.5957 28.1953 79.5717 28.0067C79.5482 27.8026 79.5328 27.5909 79.5255 27.3717C79.5146 27.2462 79.5113 27.1288 79.5154 27.0195C79.5358 26.8952 79.5718 26.7715 79.6234 26.6483C79.5121 26.2845 79.5018 25.9401 79.5923 25.6152C79.6985 25.2908 79.8275 24.983 79.9793 24.6917C80.1474 24.3854 80.3076 24.0788 80.46 23.7718C80.6124 23.4649 80.6951 23.1397 80.7082 22.7962L79.9416 22.6028ZM102.738 26.2619C102.744 26.4967 102.689 26.7213 102.571 26.9357C102.469 27.1507 102.376 27.3426 102.291 27.5114L101.512 28.2792L101.016 29.5972C100.839 29.7156 100.647 29.8333 100.439 29.9505C100.248 30.0527 100.072 30.1632 99.9107 30.2822C99.7336 30.4162 99.5716 30.5664 99.4245 30.7328C99.293 30.8998 99.1469 31.0428 98.986 31.1617C98.8251 31.2807 98.6336 31.3829 98.4114 31.4682C98.2055 31.5386 98.0145 31.6251 97.8386 31.7279C97.5192 31.9033 97.2151 32.0872 96.9263 32.2795C96.6532 32.4724 96.3647 32.6568 96.0609 32.8329C95.9816 32.8612 95.9177 32.8978 95.8691 32.9429C95.8367 32.9729 95.7808 33.002 95.7016 33.0303C95.6535 33.0597 95.4482 33.1145 95.0855 33.1945C94.7228 33.2745 94.3205 33.3686 93.8786 33.4769C93.4528 33.5701 93.0508 33.6565 92.6725 33.7359C92.2942 33.8153 92.0817 33.8541 92.0348 33.8523C91.7526 33.8729 91.4631 33.8775 91.1665 33.8662C90.8698 33.8549 90.5729 33.8514 90.2756 33.8557L89.9163 34.0531C89.7493 33.9217 89.5664 33.7974 89.3676 33.6804C89.1687 33.5634 89.0015 33.4397 88.8657 33.3095C88.7149 33.163 88.5647 33.0009 88.4151 32.8232C88.2661 32.6299 88.1321 32.4528 88.0132 32.2919C87.9434 32.0704 87.8734 31.8566 87.803 31.6507C87.7333 31.4291 87.6789 31.2159 87.6397 31.0112L87.5565 30.1167C87.5366 29.8189 87.5164 29.5288 87.4958 29.2466C87.4909 28.965 87.4785 28.6752 87.4586 28.3774C87.7519 27.6536 88.0141 26.9287 88.245 26.2026C88.4921 25.4615 88.7855 24.7377 89.1251 24.0314C89.2097 23.8626 89.2865 23.6935 89.3555 23.5242C89.4407 23.3398 89.5256 23.1632 89.6102 22.9944C89.7111 22.8106 89.8191 22.6427 89.9343 22.4907C90.0502 22.3232 90.1504 22.155 90.235 21.9862C90.3202 21.8018 90.3898 21.6168 90.4438 21.4312C90.4983 21.23 90.5679 21.0451 90.6525 20.8763C90.7029 20.7844 90.7861 20.6546 90.9019 20.487C91.0183 20.3038 91.1426 20.1209 91.2746 19.9383C91.4072 19.7401 91.5318 19.5494 91.6482 19.3662C91.7802 19.1836 91.8874 19.0391 91.9696 18.9328C92.1005 18.7814 92.231 18.6378 92.3613 18.5021C92.4915 18.3663 92.599 18.214 92.6836 18.0453C92.8498 17.7858 93.0109 17.4557 93.1669 17.0551C93.3229 16.6545 93.4927 16.3013 93.6764 15.9956C93.8768 15.6592 94.1076 15.3475 94.3687 15.0603C94.646 14.7582 94.9002 14.4473 95.1313 14.1277C95.378 13.8088 95.618 13.4583 95.8515 13.0762L96.9105 12.366L97.3611 12.8523L98.4924 12.7077L99.1549 13.7884C99.1148 14.0214 99.0656 14.2853 99.0075 14.5802C98.965 14.8757 98.9222 15.179 98.879 15.4901C98.8521 15.7861 98.8252 16.0822 98.7983 16.3783C98.7876 16.6593 98.7937 16.9097 98.8166 17.1295C98.7278 17.4076 98.5995 17.6998 98.4314 18.0061C98.2796 18.2974 98.1059 18.5488 97.9102 18.7603L97.7683 20.0214L96.7994 20.8289L96.6368 22.0189L95.8049 22.9254C95.7497 23.1422 95.6942 23.3668 95.6385 23.5992C95.5833 23.816 95.5128 24.0244 95.427 24.2244C95.3418 24.4088 95.2407 24.6004 95.1237 24.7992C95.0073 24.9824 94.8905 25.1734 94.7735 25.3723C94.4511 25.6258 94.1198 25.9103 93.7794 26.2257C93.439 26.5411 93.1299 26.8577 92.852 27.1755C92.7049 27.3419 92.565 27.5242 92.4324 27.7224C92.316 27.9056 92.192 28.0807 92.0606 28.2477C91.635 28.7475 91.1794 29.2149 90.6938 29.6498C90.2081 30.0848 89.7297 30.5357 89.2584 31.0024L89.7389 31.9355C90.0626 32.0572 90.3945 32.1715 90.7344 32.2783C91.0743 32.385 91.4146 32.484 91.7551 32.5751C91.9124 32.5499 92.0932 32.5255 92.2973 32.502C92.5021 32.4629 92.7147 32.424 92.935 32.3855C93.156 32.3314 93.3692 32.277 93.5745 32.2222C93.7955 32.1681 93.9774 32.1125 94.1203 32.0554C94.4374 31.9424 94.8033 31.7765 95.2182 31.5577C95.6337 31.3234 95.9855 31.1178 96.2737 30.9412C96.7852 30.6479 97.3048 30.3472 97.8326 30.0389C98.3603 29.7306 98.8652 29.4059 99.3473 29.0646C99.6685 28.8423 100.008 28.5581 100.365 28.2121C100.722 27.866 101.055 27.5425 101.363 27.2415C101.688 26.9255 101.972 26.6705 102.213 26.4764C102.471 26.283 102.646 26.2114 102.738 26.2619ZM96.789 14.9414C96.4403 15.4754 96.0688 15.9929 95.6745 16.4939C95.2963 16.9798 94.9407 17.4901 94.6076 18.0247C94.4912 18.2079 94.3901 18.3995 94.3043 18.5995C94.2191 18.7839 94.1105 18.9674 93.9784 19.15C93.8626 19.3176 93.739 19.4849 93.6075 19.6519C93.4761 19.8189 93.3596 20.0021 93.2582 20.2015C93.0572 20.5535 92.8709 20.9295 92.6993 21.3295C92.5439 21.7145 92.3732 22.0911 92.1872 22.4593C91.9855 22.8268 91.7536 23.1698 91.4913 23.4882C91.229 23.8066 90.9892 24.1493 90.7719 24.5163L90.3687 25.2515C90.3345 25.3283 90.3009 25.3896 90.2679 25.4353C90.2354 25.4653 90.2021 25.5188 90.1679 25.5956C90.0989 25.765 90.0606 25.9512 90.0528 26.1542C90.0451 26.3571 90.0146 26.5436 89.9612 26.7136C89.9072 26.8992 89.8301 27.076 89.7299 27.2442C89.6297 27.4124 89.5373 27.5809 89.4526 27.7497C89.368 27.9184 89.2987 28.0956 89.2448 28.2812C89.1914 28.4512 89.1302 28.6208 89.0612 28.7902C89.1909 28.6701 89.3278 28.5658 89.4718 28.4775C89.6321 28.3741 89.7849 28.2627 89.9302 28.1431C90.0761 28.0079 90.2144 27.8647 90.3453 27.7133C90.4762 27.5619 90.622 27.4267 90.7829 27.3078C90.9282 27.1882 91.0807 27.0846 91.2404 26.9968C91.4163 26.8941 91.5844 26.791 91.7447 26.6877C92.0076 26.3537 92.2396 26.0107 92.4406 25.6587C92.5408 25.4905 92.6263 25.2983 92.6971 25.0821C92.7835 24.8665 92.8846 24.6749 93.0005 24.5073C93.1007 24.3391 93.224 24.1796 93.3705 24.0288C93.5326 23.8787 93.6715 23.7198 93.7874 23.5522C93.9188 23.3852 94.0271 23.2095 94.1123 23.0251C94.2132 22.8413 94.3215 22.6656 94.4373 22.498C94.669 22.1628 94.9235 21.8442 95.2008 21.542L95.3741 20.071L96.2547 19.1194L96.4057 18.2339L97.0224 17.4365L97.1426 16.1276L96.789 14.9414ZM105.528 19.4256C105.243 19.5242 105.08 19.6822 105.041 19.8996C105.001 20.117 104.977 20.3428 104.968 20.577C104.975 20.8118 104.959 21.0301 104.92 21.2319C104.881 21.4336 104.719 21.5604 104.436 21.6122C104.334 21.4206 104.2 21.2435 104.034 21.0809C103.885 20.9032 103.735 20.7333 103.584 20.5712C103.435 20.3935 103.317 20.2092 103.23 20.0183C103.144 19.8273 103.121 19.5997 103.162 19.3355L104.385 18.0217C104.57 18.0913 104.715 18.175 104.821 18.2728C104.927 18.3707 105.016 18.4836 105.09 18.6114C105.163 18.7393 105.228 18.8747 105.285 19.0176C105.359 19.1455 105.44 19.2815 105.528 19.4256ZM109.672 30.091C109.674 30.4351 109.634 30.6759 109.551 30.8134C109.483 30.9516 109.4 31.0657 109.303 31.1558C109.206 31.2303 109.117 31.3207 109.035 31.4271C108.969 31.5184 108.931 31.6889 108.921 31.9387C108.547 32.3154 108.248 32.5933 108.022 32.7723C107.797 32.9357 107.58 33.076 107.373 33.1932C107.165 33.2948 106.934 33.4111 106.679 33.5421C106.424 33.6731 106.072 33.8786 105.624 34.1586L105.459 34.1758C105.403 34.4082 105.312 34.5377 105.186 34.5641C105.075 34.6068 104.941 34.6252 104.785 34.6192C104.645 34.6139 104.504 34.6242 104.362 34.65C104.22 34.6759 104.098 34.8042 103.995 35.0348C103.727 35.1028 103.499 35.1254 103.313 35.1026C103.126 35.0799 102.884 35.0629 102.587 35.0516C102.494 35.048 102.369 35.0354 102.214 35.0139C102.074 34.9929 101.956 34.9963 101.861 35.0239C101.798 35.0372 101.727 35.0735 101.646 35.133C101.581 35.2087 101.508 35.2685 101.428 35.3123C101.348 35.3562 101.27 35.3689 101.192 35.3503C101.114 35.3473 101.046 35.2822 100.989 35.1549C100.799 35.1946 100.628 35.188 100.473 35.1353C100.319 35.0825 100.174 34.9988 100.037 34.8841C99.9009 34.7695 99.7733 34.6317 99.6543 34.4708C99.5504 34.3261 99.4461 34.1892 99.3416 34.0602C99.2671 33.9635 99.1845 33.8744 99.0938 33.7927C99.0031 33.7111 98.9202 33.6298 98.8451 33.5487C98.6799 33.3704 98.5633 33.1471 98.4953 32.8787C98.4273 32.6103 98.3909 32.3352 98.386 32.0536C98.3811 31.772 98.3996 31.4912 98.4415 31.2114C98.4834 30.9315 98.5398 30.6835 98.6106 30.4673C98.7564 30.3321 98.8639 30.1798 98.9329 30.0104C98.9868 29.8249 99.033 29.639 99.0714 29.4528C99.1254 29.2672 99.179 29.0894 99.2324 28.9195C99.302 28.7345 99.4097 28.5744 99.5556 28.4392C99.5633 28.2363 99.6017 28.0501 99.6707 27.8807C99.7553 27.7119 99.8552 27.5516 99.9705 27.3996C100.101 27.2482 100.239 27.1127 100.385 26.9932C100.546 26.8586 100.692 26.7312 100.821 26.6111C100.946 26.6158 101.071 26.6206 101.196 26.6253C101.322 26.6145 101.438 26.6268 101.547 26.6621C101.655 26.6819 101.747 26.7323 101.822 26.8134C101.898 26.8788 101.956 26.9905 101.997 27.1484C102.09 27.5741 102.046 27.9164 101.864 28.1753C101.699 28.4192 101.51 28.6544 101.298 28.8808C101.086 29.1073 100.913 29.3431 100.778 29.5882C100.644 29.8332 100.663 30.1545 100.836 30.552C100.664 30.5454 100.545 30.5878 100.479 30.6791C100.428 30.771 100.385 30.8788 100.349 31.0025C100.33 31.1112 100.294 31.2194 100.243 31.3269C100.192 31.4344 100.095 31.5089 99.9531 31.5504C100.043 31.6476 100.084 31.8133 100.075 32.0475C100.082 32.2823 100.096 32.5096 100.119 32.7294C100.158 32.9342 100.222 33.1008 100.311 33.2293C100.416 33.3583 100.611 33.3736 100.896 33.275C101.092 33.4545 101.332 33.5339 101.614 33.5134C101.912 33.4935 102.185 33.4961 102.435 33.5212C102.659 33.389 102.849 33.3259 103.005 33.3318C103.161 33.3222 103.309 33.3434 103.448 33.3956C103.587 33.4322 103.734 33.4691 103.889 33.5062C104.044 33.5434 104.233 33.5271 104.454 33.4574C104.527 33.1943 104.642 33.0423 104.8 33.0014C104.958 32.9606 105.115 32.9431 105.271 32.949C105.428 32.9394 105.569 32.9135 105.696 32.8714C105.838 32.8299 105.938 32.6773 105.995 32.4137C106.126 32.2623 106.277 32.1821 106.45 32.173C106.623 32.1483 106.796 32.1236 106.969 32.0989C107.157 32.0748 107.323 32.0186 107.468 31.9303C107.628 31.8269 107.745 31.6281 107.819 31.3338C108.092 31.141 108.285 30.9998 108.398 30.9103C108.527 30.8057 108.632 30.7237 108.712 30.6642C108.792 30.6047 108.897 30.5383 109.024 30.465C109.152 30.3917 109.368 30.267 109.672 30.091ZM119.662 33.7549C119.67 33.9429 119.634 34.0822 119.552 34.1729C119.47 34.2637 119.358 34.3298 119.216 34.3712C119.089 34.4133 118.947 34.447 118.79 34.4723C118.633 34.482 118.499 34.5159 118.387 34.5742C117.936 34.5102 117.502 34.4311 117.083 34.3369C116.665 34.2272 116.28 34.0796 115.927 33.8942C115.575 33.6932 115.256 33.4387 114.971 33.1307C114.701 32.8234 114.474 32.4394 114.288 31.9789C114.503 31.6587 114.587 31.3023 114.54 30.9096C114.493 30.5012 114.445 30.1085 114.397 29.7314C114.364 29.3549 114.385 29.0117 114.46 28.7018C114.549 28.3925 114.832 28.1531 115.308 27.9835C115.283 27.8106 115.29 27.6232 115.329 27.4215C115.384 27.2203 115.336 27.0464 115.185 26.9C114.631 27.0665 114.145 27.3138 113.726 27.6419C113.307 27.9699 112.902 28.3298 112.512 28.7215C112.137 29.1137 111.755 29.5135 111.364 29.9208C110.989 30.3131 110.578 30.6571 110.129 30.9527C109.925 30.9606 109.707 30.9445 109.474 30.9043C109.257 30.8492 109.067 30.9045 108.904 31.0703C108.916 31.1802 108.951 31.2753 109.011 31.3558C109.07 31.4362 109.114 31.5161 109.142 31.5953C109.186 31.6752 109.206 31.762 109.203 31.8556C109.2 31.9337 109.142 32.0253 109.028 32.1304C108.866 32.2806 108.689 32.4068 108.498 32.509C108.323 32.5961 108.147 32.6989 107.97 32.8172C107.81 32.9206 107.672 33.0483 107.557 33.2002C107.442 33.3522 107.379 33.5609 107.369 33.8263C107.277 33.7759 107.191 33.7649 107.112 33.7931C107.033 33.8058 106.962 33.8421 106.897 33.9022C106.816 33.9617 106.743 34.0293 106.678 34.105C106.613 34.1806 106.548 34.2407 106.484 34.2852C106.449 34.3621 106.455 34.4248 106.5 34.4734C106.544 34.5377 106.597 34.6022 106.657 34.667C106.588 34.8364 106.506 34.9349 106.411 34.9626C106.3 35.0053 106.19 35.0089 106.082 34.9735C105.958 34.9375 105.843 34.8784 105.737 34.7962C105.614 34.729 105.507 34.6702 105.415 34.6198C105.376 34.415 105.354 34.1796 105.348 33.9136C105.343 33.6476 105.36 33.3902 105.401 33.1416C105.443 32.8774 105.515 32.6299 105.617 32.3993C105.72 32.1687 105.868 31.9788 106.061 31.8298C106.125 31.7854 106.165 31.7634 106.181 31.764C106.197 31.749 106.205 31.7415 106.205 31.7415C106.205 31.7415 106.213 31.7418 106.229 31.7424C106.245 31.7274 106.277 31.6973 106.326 31.6523C106.456 31.5165 106.548 31.3714 106.6 31.2171C106.654 31.0471 106.699 30.8769 106.737 30.7063C106.775 30.5357 106.828 30.3736 106.896 30.2198C106.95 30.0499 107.049 29.9051 107.194 29.7855C107.141 29.5333 107.15 29.3147 107.219 29.1298C107.305 28.9298 107.406 28.746 107.522 28.5784C107.654 28.3958 107.778 28.2207 107.894 28.0531C108.026 27.8705 108.111 27.6705 108.151 27.4531C108.169 27.3756 108.172 27.3053 108.159 27.2423C108.162 27.1642 108.165 27.0861 108.168 27.0081C108.146 26.7571 108.177 26.5706 108.26 26.4486C108.359 26.3117 108.472 26.2066 108.6 26.1332C108.744 26.0449 108.888 25.9566 109.032 25.8682C109.192 25.7805 109.33 25.645 109.446 25.4618C109.891 25.6977 110.145 26.0044 110.209 26.3821C110.289 26.7448 110.305 27.152 110.256 27.6036C109.984 27.7652 109.772 27.9995 109.62 28.3064C109.468 28.5977 109.363 28.883 109.305 29.1623C109.333 29.2572 109.37 29.3133 109.416 29.3307C109.479 29.3331 109.542 29.3276 109.605 29.3144C109.684 29.2861 109.755 29.2576 109.819 29.2287C109.883 29.1999 109.946 29.1867 110.008 29.189C110.585 28.8201 111.156 28.404 111.721 27.9408C112.301 27.4782 112.76 26.9405 113.096 26.3279C113.557 26.1265 113.996 25.8931 114.412 25.6275C114.83 25.3463 115.283 25.1446 115.772 25.0225L116.332 24.5044C116.405 24.6322 116.497 24.667 116.609 24.6087C116.721 24.5348 116.834 24.4531 116.947 24.3636C117.06 24.2741 117.163 24.2233 117.257 24.2112C117.367 24.1998 117.465 24.3129 117.549 24.5507C117.69 24.9626 117.714 25.3623 117.621 25.7496C117.529 26.1214 117.39 26.4914 117.203 26.8595C117.034 27.2127 116.856 27.5734 116.67 27.9416C116.484 28.3098 116.368 28.6884 116.322 29.0776C116.318 29.1713 116.314 29.2728 116.31 29.3821C116.306 29.4757 116.295 29.5769 116.275 29.6856C116.231 30.0123 116.171 30.3697 116.093 30.7576C116.032 31.1306 116.043 31.475 116.124 31.7908C116.192 32.0748 116.346 32.3309 116.588 32.559C116.829 32.7871 117.04 33.014 117.219 33.2397C117.328 33.2283 117.437 33.2403 117.546 33.2756C117.654 33.311 117.754 33.3461 117.846 33.3809C117.955 33.4163 118.055 33.4358 118.149 33.4394C118.243 33.4273 118.339 33.3762 118.436 33.2861C118.548 33.2434 118.649 33.2551 118.74 33.3211C118.848 33.3721 118.947 33.4384 119.037 33.5201C119.128 33.6017 119.219 33.6755 119.31 33.7416C119.418 33.7926 119.535 33.797 119.662 33.7549ZM137.189 28.5587C137.009 28.7707 136.867 29.0077 136.763 29.2696C136.66 29.5314 136.533 29.7768 136.384 30.0056C136.25 30.2351 136.078 30.424 135.869 30.5724C135.676 30.7214 135.408 30.7816 135.065 30.7529C134.812 30.8371 134.618 31.0017 134.483 31.2467C134.365 31.4768 134.247 31.7146 134.128 31.9603C134.01 32.1903 133.862 32.3802 133.684 32.5297C133.507 32.6637 133.249 32.6695 132.909 32.5472C132.465 32.7179 132.057 32.9525 131.686 33.2511C131.332 33.5347 130.992 33.8345 130.667 34.1505C130.554 34.2556 130.423 34.3914 130.276 34.5578C130.13 34.7086 129.993 34.8206 129.865 34.894C129.753 34.9523 129.644 34.9559 129.536 34.9049C129.428 34.8539 129.329 34.8032 129.237 34.7528C129.146 34.6868 129.053 34.652 128.959 34.6484C128.881 34.6454 128.808 34.713 128.741 34.8512C128.842 35.0739 128.859 35.2231 128.794 35.2988C128.728 35.3901 128.624 35.4565 128.481 35.498C128.339 35.5395 128.189 35.5729 128.032 35.5982C127.875 35.6235 127.748 35.6734 127.651 35.7479C127.457 35.9125 127.316 36.1182 127.229 36.365C127.141 36.6119 127.061 36.859 126.989 37.1065C126.917 37.3539 126.815 37.5846 126.682 37.7984C126.563 38.0284 126.369 38.2009 126.099 38.3157C126.251 38.4309 126.309 38.5426 126.274 38.6507C126.254 38.7594 126.211 38.8672 126.144 38.9741C126.077 39.0966 126.026 39.212 125.99 39.3201C125.971 39.4288 126.029 39.5404 126.165 39.6551C125.92 39.9428 125.697 40.2549 125.496 40.5913C125.312 40.9282 125.127 41.2652 124.942 41.6021C124.756 41.9547 124.556 42.2911 124.341 42.6112C124.14 42.9476 123.887 43.2429 123.58 43.497L123.629 44.0618C123.397 43.9904 123.248 43.9926 123.183 44.0682C123.133 44.1445 123.105 44.2529 123.1 44.3935C123.095 44.534 123.089 44.6745 123.084 44.815C123.094 44.9718 123.042 45.0871 122.93 45.161C122.881 45.2217 122.824 45.2664 122.761 45.2953C122.713 45.3247 122.664 45.362 122.616 45.407C122.102 45.7627 121.74 46.2259 121.531 46.7964C121.496 46.8889 121.469 46.9817 121.45 47.0748C121.431 47.1679 121.403 47.2685 121.368 47.3766C121.282 47.5922 121.148 47.8139 120.967 48.0415C120.787 48.2692 120.59 48.5041 120.378 48.7462C120.165 48.9883 119.96 49.2384 119.763 49.4967C119.565 49.7707 119.406 50.0461 119.286 50.3229C119.037 50.2822 118.841 50.2982 118.698 50.3709C118.538 50.4587 118.408 50.571 118.309 50.708C118.21 50.8605 118.125 51.0215 118.056 51.1909C117.987 51.3602 117.904 51.5056 117.805 51.6269C117.691 51.7633 117.554 51.8597 117.396 51.9162C117.221 51.9878 117.002 51.9795 116.74 51.8913L115.649 52.8114C115.466 52.695 115.287 52.6647 115.113 52.7206C114.924 52.7759 114.741 52.855 114.565 52.9577C114.373 53.0599 114.191 53.1389 114.016 53.1949C113.827 53.2502 113.632 53.2193 113.434 53.1023C113.319 53.223 113.223 53.2819 113.145 53.279C113.067 53.2916 112.975 53.2256 112.871 53.0809L112.506 53.4423C112.324 53.279 112.104 53.122 111.844 52.9714C111.567 52.8358 111.315 52.6777 111.088 52.497C110.859 52.3319 110.679 52.1374 110.547 51.9135C110.414 51.7052 110.401 51.4388 110.507 51.1145C110.479 51.0196 110.436 50.9164 110.378 50.8047C110.304 50.6924 110.246 50.573 110.204 50.4463C110.161 50.3352 110.135 50.2169 110.124 50.0914C110.112 49.9815 110.147 49.8812 110.229 49.7905C110.099 49.5197 110.062 49.2447 110.12 48.9654C110.161 48.7012 110.226 48.4378 110.314 48.1754C110.402 47.9129 110.475 47.6498 110.532 47.3862C110.589 47.1225 110.552 46.8553 110.422 46.5845C110.614 46.4512 110.762 46.2769 110.864 46.0619C110.95 45.8463 111.037 45.6229 111.124 45.3916C111.195 45.1598 111.274 44.9361 111.36 44.7205C111.447 44.5049 111.586 44.3304 111.779 44.197L111.77 43.8213C112.533 43.0686 113.341 42.3801 114.194 41.7558C115.03 41.1466 115.97 40.7054 117.012 40.4324C117.229 40.081 117.504 39.8257 117.839 39.6664C118.172 39.5228 118.514 39.3872 118.863 39.2598C119.195 39.1473 119.506 38.995 119.795 38.8027C120.083 38.6261 120.305 38.3296 120.462 37.9134C120.533 38.0881 120.609 38.1614 120.688 38.1331C120.767 38.1205 120.846 38.0844 120.927 38.0249C121.022 37.9816 121.11 37.9459 121.189 37.9176C121.267 37.905 121.343 37.9782 121.415 38.1373C121.589 37.6749 121.853 37.3096 122.207 37.0417C122.577 36.7743 122.977 36.5393 123.407 36.3368C123.852 36.1505 124.297 35.9641 124.742 35.7778C125.186 35.6071 125.577 35.3874 125.916 35.1189C126.27 34.8509 126.541 34.5172 126.728 34.1178C126.916 33.7028 126.975 33.1656 126.907 32.5062C127.051 32.4179 127.149 32.3044 127.201 32.1656C127.254 32.0113 127.291 31.8563 127.313 31.7008C127.35 31.5458 127.394 31.4068 127.446 31.2837C127.497 31.1606 127.602 31.0785 127.76 31.0377C127.657 30.8617 127.527 30.7786 127.371 30.7883C127.214 30.798 127.048 30.8386 126.874 30.9101C126.714 30.9822 126.563 31.0546 126.42 31.1273C126.276 31.2001 126.158 31.2112 126.067 31.1608C126.011 31.3776 125.904 31.5299 125.744 31.6176C125.6 31.706 125.441 31.7859 125.266 31.8574C125.092 31.9133 124.91 31.9768 124.719 32.0477C124.529 32.1186 124.376 32.2379 124.26 32.4055C124.122 32.3377 123.988 32.3639 123.858 32.484C123.745 32.5891 123.623 32.7096 123.493 32.8454C123.379 32.9661 123.25 33.055 123.107 33.1121C122.964 33.1692 122.803 33.1005 122.623 32.906C122.519 33.1523 122.357 33.3103 122.136 33.38C121.93 33.4504 121.702 33.4808 121.452 33.4713C121.202 33.4618 120.945 33.4363 120.681 33.395C120.432 33.3543 120.205 33.3535 120.001 33.3926L119.618 32.9793C119.584 33.0561 119.534 33.1168 119.47 33.1613C119.39 33.2052 119.312 33.21 119.235 33.1758C119.12 32.9056 119.014 32.6201 118.916 32.3193C118.803 32.0022 118.736 31.6948 118.716 31.397C118.681 31.0829 118.716 30.7871 118.82 30.5096C118.925 30.2166 119.123 29.9661 119.412 29.7582C119.879 28.9785 120.473 28.3757 121.193 27.9496C121.269 28.0151 121.354 28.0417 121.448 28.0297C121.543 28.002 121.638 27.9666 121.733 27.9233C121.845 27.865 121.949 27.8064 122.045 27.7475C122.142 27.673 122.229 27.6294 122.308 27.6168C122.361 27.4468 122.454 27.2862 122.584 27.1348C122.731 26.984 122.885 26.8491 123.045 26.7302C123.222 26.6118 123.398 26.509 123.573 26.4219C123.765 26.3197 123.94 26.2326 124.099 26.1605C124.401 26.0312 124.681 25.8699 124.938 25.6764C125.212 25.4679 125.485 25.2751 125.758 25.0978C126.031 24.9049 126.311 24.7436 126.597 24.6138C126.884 24.4839 127.206 24.4259 127.566 24.4395L127.973 24.8303C127.701 24.9763 127.46 25.1626 127.248 25.3891C127.052 25.6005 126.848 25.8195 126.637 26.046C126.425 26.2568 126.199 26.4515 125.958 26.6299C125.716 26.8084 125.423 26.9223 125.077 26.9717C124.775 27.5075 124.375 27.9613 123.876 28.3332C123.393 28.6901 122.896 29.023 122.383 29.3319C122.375 29.5661 122.297 29.7508 122.151 29.8859C122.005 30.0211 121.837 30.1398 121.645 30.2419C121.454 30.3441 121.262 30.4384 121.072 30.525C120.881 30.5959 120.721 30.6993 120.591 30.835C120.477 30.9558 120.416 31.1177 120.408 31.3206C120.401 31.508 120.493 31.7617 120.684 32.0817C120.875 31.9951 121.104 31.9413 121.37 31.9202C121.637 31.8991 121.896 31.8698 122.148 31.8325C122.4 31.7796 122.622 31.702 122.813 31.5998C123.021 31.4827 123.169 31.3007 123.256 31.0538C123.482 30.8748 123.72 30.7666 123.972 30.7292C124.224 30.6919 124.482 30.6939 124.746 30.7353C125.283 30.1928 125.817 29.6971 126.35 29.2484C126.9 28.7845 127.418 28.3117 127.906 27.8299C128.393 27.3481 128.843 26.8336 129.254 26.2864C129.682 25.7241 130.059 25.0739 130.384 24.3358C130.7 24.254 130.979 24.3037 131.223 24.485C131.466 24.6662 131.637 24.8917 131.736 25.1613C131.698 25.3474 131.637 25.5249 131.552 25.6937C131.484 25.8474 131.415 26.0012 131.347 26.155C131.295 26.2937 131.25 26.4483 131.212 26.6189C131.19 26.7901 131.213 26.9864 131.283 27.208C131.16 27.172 131.057 27.2072 130.974 27.3135C130.908 27.4204 130.834 27.5114 130.753 27.5865C130.792 27.7913 130.777 27.9783 130.708 28.1477C130.64 28.3015 130.556 28.4546 130.456 28.6072C130.357 28.7442 130.265 28.897 130.18 29.0658C130.112 29.2352 130.089 29.422 130.112 29.6261C129.878 30.0238 129.698 30.4469 129.571 30.8955C129.461 31.3291 129.382 31.7718 129.333 32.2234L129.74 32.6141C129.955 32.3252 130.213 32.1239 130.514 32.0103C130.831 31.8973 131.147 31.8077 131.462 31.7415C131.778 31.6597 132.087 31.5698 132.387 31.4718C132.689 31.3582 132.954 31.1572 133.184 30.8689C133.295 30.4197 133.503 30.107 133.806 29.931C134.111 29.7393 134.43 29.5794 134.763 29.4514C135.096 29.3233 135.414 29.1791 135.718 29.0186C136.037 28.8432 136.267 28.5548 136.407 28.1536L136.993 28.1759C136.959 28.2528 136.971 28.3237 137.032 28.3885C137.092 28.4533 137.144 28.51 137.189 28.5587ZM123.843 38.4408C123.683 38.5286 123.508 38.6079 123.318 38.6789C123.127 38.7498 122.937 38.8285 122.746 38.9151C122.555 39.0016 122.379 39.1044 122.218 39.2233C122.057 39.3423 121.934 39.494 121.849 39.6784C121.681 39.5782 121.517 39.5641 121.358 39.6362C121.214 39.7246 121.069 39.8207 120.925 39.9246C120.779 40.0442 120.627 40.1401 120.468 40.2122C120.325 40.2849 120.169 40.2711 120.001 40.1709C119.697 40.347 119.408 40.5393 119.134 40.7478C118.845 40.9556 118.556 41.1557 118.267 41.348C117.978 41.5559 117.681 41.7401 117.378 41.9005C117.059 42.076 116.726 42.204 116.379 42.2846C116.196 42.5591 115.961 42.7691 115.674 42.9146C115.387 43.0756 115.099 43.2288 114.812 43.3743C114.51 43.5191 114.237 43.6964 113.995 43.9061C113.752 44.1157 113.592 44.4146 113.515 44.8025C113.019 45.0964 112.676 45.482 112.486 45.9595C112.279 46.452 112.158 46.9712 112.122 47.5171C112.085 48.0786 112.087 48.6416 112.128 49.206C112.168 49.7861 112.179 50.3104 112.162 50.7788C112.356 51.0207 112.552 51.1924 112.752 51.2938C112.951 51.3952 113.16 51.4501 113.379 51.4584C113.597 51.4667 113.825 51.4441 114.062 51.3906C114.282 51.3521 114.526 51.3144 114.793 51.2777C114.864 51.0459 114.987 50.8942 115.162 50.8227C115.321 50.7662 115.494 50.7259 115.683 50.7018C115.856 50.6771 116.021 50.6365 116.18 50.58C116.322 50.5385 116.405 50.4165 116.428 50.2142L116.632 50.4095C116.657 50.1603 116.735 49.9522 116.867 49.7852C116.998 49.6338 117.152 49.4912 117.329 49.3572C117.506 49.2232 117.698 49.0976 117.906 48.9804C118.098 48.8626 118.268 48.7284 118.414 48.5776C118.394 48.2797 118.458 48.032 118.606 47.8344C118.755 47.6367 118.918 47.4553 119.096 47.2901C119.275 47.1249 119.438 46.9435 119.586 46.7458C119.719 46.5476 119.775 46.2918 119.756 45.9783C119.915 45.9218 120.028 45.8245 120.096 45.6863C120.163 45.5482 120.231 45.4179 120.298 45.2953C120.365 45.1728 120.447 45.0821 120.543 45.0232C120.655 44.9649 120.818 44.9868 121.033 45.0888C120.821 44.9087 120.732 44.7724 120.767 44.6799C120.818 44.588 120.899 44.5051 121.011 44.4312C121.123 44.3729 121.227 44.2987 121.325 44.2086C121.422 44.1185 121.427 43.9779 121.341 43.787C121.721 43.6451 121.972 43.428 122.092 43.1355C122.213 42.843 122.303 42.5259 122.363 42.1841C122.438 41.8586 122.537 41.534 122.658 41.2103C122.779 40.9022 123.031 40.6616 123.413 40.4885C123.392 40.2062 123.449 39.9582 123.582 39.7444C123.73 39.5467 123.87 39.3566 124.002 39.174C124.15 38.992 124.251 38.8004 124.306 38.5992C124.376 38.3986 124.33 38.1545 124.169 37.8669L123.843 38.4408ZM151.527 25.7506C151.454 26.0136 151.361 26.1977 151.248 26.3029C151.151 26.393 151.043 26.5453 150.925 26.7597L150.834 26.7093C150.703 26.8607 150.58 27.0045 150.465 27.1409C150.366 27.2778 150.259 27.4301 150.143 27.5977C150.044 27.7347 149.952 27.8797 149.868 28.0329C149.801 28.171 149.717 28.3086 149.618 28.4455C149.69 28.6203 149.737 28.8097 149.761 29.0139C149.784 29.218 149.816 29.4069 149.856 29.5804C149.895 29.8008 149.926 30.0131 149.949 30.2172C149.989 30.422 150.012 30.634 150.019 30.8532C150.026 31.0723 150.011 31.2828 149.972 31.4846C149.933 31.6708 149.902 31.8729 149.878 32.0909C149.831 32.5113 149.822 32.9409 149.852 33.3799C149.883 33.8033 149.859 34.2245 149.781 34.6437C149.72 35.001 149.589 35.3713 149.387 35.7545C149.184 36.1533 148.999 36.5059 148.831 36.8123C148.952 36.9107 149.098 36.971 149.269 36.9931C149.44 37.0309 149.593 37.1071 149.73 37.2218C149.82 37.3034 149.895 37.3922 149.954 37.4883C150.012 37.6 150.079 37.6963 150.154 37.7774C150.229 37.8584 150.336 37.925 150.475 37.9772C150.629 38.0456 150.687 38.1651 150.649 38.3357C150.63 38.4131 150.598 38.4432 150.552 38.4258C150.505 38.424 150.451 38.4063 150.389 38.3727C150.328 38.3391 150.259 38.2974 150.183 38.2476C150.107 38.1978 150.037 38.1717 149.975 38.1693C149.897 38.1663 149.826 38.1714 149.763 38.1847C149.715 38.2141 149.667 38.2436 149.619 38.273C149.571 38.3181 149.523 38.3475 149.475 38.3613C149.427 38.3908 149.356 38.4037 149.263 38.4002C149.075 38.393 148.897 38.355 148.728 38.286C148.558 38.217 148.38 38.1711 148.193 38.1484C148.142 38.2715 148.106 38.3952 148.085 38.5195C148.065 38.6438 148.037 38.7678 148.001 38.8916C147.965 39.0153 147.906 39.1303 147.823 39.2366C147.741 39.343 147.682 39.458 147.646 39.5817L147.693 39.5835C147.523 39.9367 147.361 40.2979 147.206 40.6673C147.066 41.0529 146.912 41.4223 146.742 41.7754L146.672 41.7493C146.59 41.8713 146.522 41.9938 146.471 42.1169C146.419 42.2557 146.366 42.3944 146.314 42.5332C146.281 42.5788 146.256 42.6326 146.238 42.6944C146.235 42.7569 146.226 42.8034 146.209 42.8341C146.093 43.0016 145.985 43.1695 145.885 43.3377C145.785 43.5059 145.684 43.6741 145.584 43.8423C145.483 44.0261 145.383 44.2021 145.283 44.3702C145.182 44.5384 145.074 44.7063 144.959 44.8739C144.876 44.9958 144.786 45.1019 144.688 45.192C144.606 45.2983 144.516 45.4043 144.418 45.5101C144.385 45.5557 144.345 45.5933 144.297 45.6227C144.248 45.6678 144.207 45.7131 144.174 45.7588C144.06 45.8951 143.959 46.0633 143.874 46.2633C143.788 46.4633 143.703 46.6477 143.618 46.8165C143.602 46.8159 143.595 46.8156 143.595 46.8156C143.594 46.8312 143.586 46.8387 143.57 46.8381C143.409 46.9571 143.271 47.1004 143.155 47.268C143.055 47.4361 142.924 47.5797 142.763 47.6987C142.634 47.8188 142.465 47.9453 142.257 48.0781C142.064 48.2115 141.919 48.3232 141.822 48.4134C141.691 48.5491 141.554 48.6768 141.408 48.7963C141.262 48.9315 141.117 49.0667 140.971 49.2019C140.794 49.3359 140.648 49.471 140.533 49.6074C140.418 49.7594 140.264 49.8942 140.072 50.012C139.88 50.1142 139.691 50.1695 139.503 50.178C139.315 50.1865 139.126 50.2262 138.935 50.2971L138.913 50.2728C138.724 50.2969 138.544 50.3057 138.372 50.2991C138.184 50.3076 137.996 50.3239 137.808 50.348C137.682 50.3588 137.579 50.3862 137.5 50.4301C137.404 50.4733 137.317 50.5091 137.237 50.5374C137.142 50.5806 137.047 50.6083 136.953 50.6203C136.858 50.648 136.749 50.6438 136.625 50.6079C136.361 50.5509 136.177 50.4735 136.071 50.3757C135.965 50.2778 135.806 50.1467 135.593 49.9822C135.26 49.7037 134.983 49.3726 134.763 48.989C134.527 48.6204 134.354 48.2307 134.245 47.82C134.178 47.5203 134.147 47.3003 134.153 47.1597C134.158 47.0348 134.181 46.8246 134.224 46.5292C134.229 46.3886 134.268 46.1869 134.341 45.9238C134.413 45.6607 134.498 45.4764 134.596 45.3706C134.598 45.3238 134.617 45.2385 134.653 45.1148C134.688 45.0067 134.732 44.8911 134.783 44.7679C134.835 44.6448 134.886 44.5295 134.937 44.422C134.988 44.3301 135.029 44.2691 135.061 44.2391C135.093 44.2246 135.14 44.2264 135.202 44.2444C135.248 44.2774 135.278 44.302 135.293 44.3182C135.36 44.1957 135.412 44.0648 135.449 43.9255C135.485 43.7861 135.522 43.6468 135.558 43.5074C135.576 43.4612 135.586 43.4069 135.588 43.3444C135.59 43.2976 135.599 43.2588 135.616 43.2282C135.771 42.8588 135.964 42.5143 136.195 42.1948C136.426 41.8752 136.717 41.6127 137.069 41.4072C137.202 41.2089 137.271 41.0239 137.278 40.8522C137.284 40.6804 137.369 40.5039 137.533 40.3224C137.663 40.1711 137.809 40.0515 137.968 39.9638C138.128 39.876 138.273 39.7565 138.404 39.6051C138.551 39.4387 138.683 39.2717 138.799 39.1041C138.898 38.9515 139.037 38.8004 139.215 38.6509C139.488 38.4424 139.783 38.2972 140.099 38.2154C140.414 38.1493 140.708 38.0197 140.982 37.8269C141.109 37.7535 141.191 37.6628 141.226 37.5547C141.246 37.4616 141.334 37.3868 141.493 37.3303C141.588 37.2871 141.691 37.2597 141.801 37.2482C141.895 37.2362 141.998 37.2166 142.108 37.1896C142.377 37.1216 142.622 37.045 142.844 36.9596C143.081 36.8904 143.334 36.8297 143.602 36.7773C143.759 36.7521 143.909 36.7187 144.051 36.6772C144.193 36.6513 144.343 36.6101 144.501 36.5536C144.549 36.5242 144.597 36.4947 144.645 36.4653C144.708 36.452 144.771 36.4388 144.835 36.4256C145.055 36.387 145.267 36.356 145.471 36.3325C145.676 36.309 145.887 36.2936 146.106 36.2864C146.311 36.2629 146.498 36.2778 146.668 36.3312C146.838 36.3846 147.001 36.4064 147.158 36.3967C147.243 36.1967 147.337 35.997 147.438 35.7976C147.539 35.6138 147.624 35.4294 147.694 35.2444C147.747 35.0745 147.785 34.9039 147.807 34.7328C147.846 34.5466 147.899 34.3688 147.968 34.1994C147.976 34.0121 147.998 33.8253 148.037 33.6391C148.076 33.4373 148.114 33.2434 148.153 33.0572C148.172 32.9485 148.2 32.8401 148.235 32.732C148.271 32.6239 148.306 32.5158 148.342 32.4076L148.498 31.9914C148.52 31.8359 148.526 31.6641 148.518 31.4762C148.509 31.2882 148.524 31.1168 148.561 30.9618C148.502 30.8658 148.435 30.7772 148.36 30.6962C148.301 30.6001 148.242 30.504 148.183 30.408C148.056 30.4657 147.906 30.5069 147.733 30.5316C147.56 30.5563 147.418 30.5977 147.306 30.656C147.275 30.6548 147.203 30.6834 147.091 30.7417C146.995 30.8006 146.883 30.8667 146.756 30.94C146.628 31.0133 146.508 31.0869 146.395 31.1608C146.284 31.2191 146.212 31.2555 146.18 31.2699C146.083 31.3444 146.002 31.4195 145.937 31.4952C145.872 31.5709 145.783 31.6379 145.671 31.6962C145.56 31.7545 145.416 31.8194 145.242 31.8909C145.083 31.9474 144.909 32.0033 144.719 32.0586C144.53 32.114 144.348 32.1696 144.174 32.2255C144 32.2658 143.858 32.2917 143.748 32.3031C143.607 32.329 143.473 32.3396 143.348 32.3348C143.224 32.3144 143.099 32.3097 142.974 32.3205C142.896 32.3176 142.817 32.338 142.737 32.3819C142.673 32.4107 142.61 32.4396 142.546 32.4684C142.467 32.4811 142.397 32.4862 142.334 32.4838C142.257 32.4652 142.188 32.4157 142.129 32.3353C142.085 32.2554 142.08 32.1849 142.113 32.1236C142.131 32.0617 142.173 32.0008 142.238 31.9407C142.287 31.88 142.344 31.8275 142.408 31.783C142.457 31.7223 142.499 31.6536 142.533 31.5767C142.602 31.4073 142.623 31.2674 142.596 31.1569C142.569 31.0464 142.621 30.9077 142.752 30.7407C142.835 30.6187 142.924 30.5595 143.017 30.5631C143.127 30.5517 143.238 30.509 143.35 30.4351C143.479 30.3461 143.546 30.2392 143.55 30.1143C143.555 29.9894 143.645 29.8912 143.82 29.8197C143.978 29.7632 144.136 29.7301 144.292 29.7204C144.45 29.6951 144.615 29.6779 144.787 29.6689C144.834 29.6706 144.88 29.6802 144.927 29.6976C144.989 29.7 145.044 29.6943 145.091 29.6805C145.254 29.5146 145.377 29.363 145.46 29.2254C145.545 29.0723 145.73 28.923 146.017 28.7775C146.288 28.6471 146.508 28.6086 146.678 28.662C146.848 28.7153 147.004 28.7291 147.146 28.7032C147.275 28.5831 147.405 28.4707 147.534 28.3662C147.679 28.2466 147.824 28.1271 147.97 28.0075C148.099 27.8873 148.229 27.7672 148.359 27.647C148.489 27.5113 148.634 27.3995 148.794 27.3118C148.863 27.1424 148.939 26.9811 149.023 26.828C149.123 26.6754 149.214 26.5225 149.298 26.3694C149.382 26.2318 149.473 26.1102 149.57 26.0045C149.684 25.8993 149.782 25.7858 149.865 25.6638C149.711 25.5954 149.549 25.5424 149.378 25.5046C149.224 25.4518 149.086 25.384 148.964 25.3012C148.76 25.3247 148.564 25.3407 148.376 25.3491C148.188 25.342 147.993 25.3424 147.789 25.3503C147.507 25.3708 147.224 25.4069 146.941 25.4587C146.893 25.4725 146.83 25.4858 146.752 25.4984C146.689 25.5116 146.634 25.5174 146.587 25.5156C146.383 25.5391 146.179 25.5548 145.975 25.5627C145.787 25.5711 145.591 25.5793 145.388 25.5872C145.153 25.5939 144.95 25.5784 144.78 25.5406C144.625 25.5034 144.439 25.4573 144.222 25.4021C143.959 25.3295 143.749 25.2981 143.593 25.3078C143.436 25.3018 143.245 25.2085 143.017 25.0278C142.865 24.897 142.791 24.7925 142.794 24.7145C142.782 24.6202 142.74 24.5091 142.666 24.3812C142.637 24.3332 142.592 24.2768 142.532 24.2119C142.472 24.1471 142.42 24.0826 142.375 24.0183C142.331 23.9541 142.302 23.8904 142.289 23.8274C142.275 23.7643 142.293 23.7025 142.343 23.6418C142.456 23.5367 142.568 23.4784 142.678 23.4669C142.788 23.4399 142.898 23.4362 143.006 23.456C143.116 23.4602 143.225 23.4721 143.333 23.4919C143.458 23.4967 143.584 23.478 143.711 23.4359C143.896 23.5055 144.095 23.6147 144.308 23.7636C144.522 23.8968 144.667 23.9805 144.744 24.0147C144.775 24.0315 144.891 24.0516 145.094 24.0749C145.312 24.0832 145.546 24.0922 145.796 24.1017C146.062 24.1118 146.304 24.121 146.522 24.1293C146.757 24.1382 146.913 24.1442 146.991 24.1471C147.134 24.09 147.306 24.0732 147.509 24.0965C147.727 24.1048 147.923 24.1045 148.095 24.0954C148.416 23.8731 148.781 23.7462 149.188 23.7148C149.471 23.6943 149.666 23.7095 149.773 23.7605C149.896 23.8121 150.089 23.8742 150.352 23.9468C150.492 23.9834 150.616 24.0037 150.725 24.0079C150.835 24.012 150.936 24.0237 151.029 24.0429C151.123 24.0465 151.207 24.081 151.283 24.1464C151.375 24.1968 151.457 24.2937 151.53 24.4372C151.676 24.7086 151.73 24.9296 151.692 25.1002C151.655 25.2551 151.6 25.4719 151.527 25.7506ZM146.632 37.8778C145.82 37.8469 145.009 37.9958 144.199 38.3246C144.074 38.3355 143.948 38.3542 143.822 38.3806C143.711 38.4077 143.593 38.4345 143.467 38.4609L142.216 38.6713C142.039 38.7897 141.871 38.8927 141.712 38.9805C141.584 39.0538 141.464 39.1196 141.352 39.1779C141.224 39.2512 141.152 39.2954 141.136 39.3104C141.121 39.3098 141.08 39.3473 141.015 39.423C140.933 39.5137 140.851 39.6044 140.77 39.6952C140.688 39.7859 140.606 39.8766 140.525 39.9673C140.443 40.058 140.394 40.1187 140.377 40.1493C140.171 40.2352 139.972 40.3137 139.782 40.3846C139.591 40.4712 139.392 40.5574 139.186 40.6434C139.153 40.689 139.103 40.7575 139.037 40.8488C138.955 40.9395 138.874 41.0302 138.792 41.1209C138.694 41.2267 138.613 41.3174 138.547 41.3931C138.466 41.4838 138.417 41.5366 138.4 41.5517C138.384 41.5823 138.343 41.6355 138.277 41.7112C138.195 41.8019 138.114 41.8926 138.032 41.9833C137.951 42.074 137.869 42.1647 137.787 42.2554C137.69 42.3455 137.625 42.4056 137.593 42.4356C137.552 42.6843 137.497 42.9089 137.426 43.1095C137.34 43.3251 137.284 43.5575 137.259 43.8067C137.035 43.9546 136.887 44.1288 136.817 44.3294C136.746 44.5456 136.714 44.7867 136.719 45.0527C136.585 45.2978 136.452 45.5038 136.32 45.6708C136.173 45.8528 135.986 46.0334 135.76 46.2124C135.721 46.4298 135.689 46.6397 135.666 46.8421C135.642 47.0601 135.626 47.2784 135.618 47.497C135.736 47.6735 135.87 47.8428 136.02 48.0048C136.155 48.1663 136.29 48.32 136.425 48.4659C136.58 48.5031 136.751 48.5408 136.937 48.5792C137.107 48.617 137.262 48.6697 137.4 48.7375C137.432 48.7231 137.495 48.7099 137.589 48.6978C137.683 48.6858 137.793 48.6665 137.919 48.6401C138.029 48.6286 138.139 48.6172 138.249 48.6057C138.343 48.5937 138.406 48.5882 138.437 48.5894C138.58 48.5479 138.737 48.5226 138.909 48.5136C139.082 48.5045 139.239 48.487 139.38 48.4611C139.703 48.2076 140.011 47.93 140.303 47.6285C140.596 47.3269 140.889 47.0253 141.182 46.7237C141.329 46.573 141.483 46.4225 141.645 46.2723C141.792 46.1215 141.938 45.9629 142.085 45.7965C142.217 45.6295 142.34 45.4622 142.456 45.2946C142.588 45.1276 142.719 44.9606 142.851 44.7936C142.982 44.6266 143.106 44.4515 143.222 44.2683C143.355 44.0857 143.486 43.9109 143.618 43.7439C143.65 43.7139 143.707 43.6535 143.789 43.5628C143.886 43.4727 143.984 43.3748 144.081 43.2691C144.179 43.1633 144.269 43.0651 144.351 42.9744C144.432 42.8993 144.481 42.8464 144.497 42.8158C144.598 42.632 144.691 42.4479 144.776 42.2635C144.877 42.0797 144.978 41.8881 145.08 41.6887C145.113 41.6431 145.155 41.5587 145.207 41.4355C145.258 41.328 145.309 41.2049 145.361 41.0662C145.429 40.9436 145.48 40.8283 145.515 40.7202C145.566 40.6283 145.607 40.5673 145.64 40.5373C145.708 40.3835 145.809 40.1841 145.944 39.9391C146.093 39.7102 146.186 39.5339 146.222 39.4102C146.259 39.2553 146.272 39.1228 146.261 39.0129C146.265 38.9036 146.269 38.7944 146.273 38.6851C146.277 38.5914 146.297 38.4749 146.333 38.3355C146.385 38.2124 146.484 38.0598 146.632 37.8778ZM168.705 29.1019C168.759 29.3385 168.728 29.5406 168.612 29.7082C168.497 29.8601 168.343 29.995 168.151 30.1128C167.974 30.2312 167.775 30.3408 167.552 30.4418C167.346 30.5278 167.17 30.6305 167.024 30.7501C166.316 30.8795 165.671 30.9722 165.09 31.0283C164.526 31.0693 163.898 31.1314 163.207 31.2146C163.003 31.2381 162.808 31.2306 162.622 31.1923C162.452 31.1389 162.273 31.1164 162.085 31.1249C161.975 31.1208 161.874 31.1169 161.78 31.1133C161.687 31.0941 161.593 31.0906 161.499 31.1026C161.139 31.1202 160.9 31.2362 160.782 31.4506C160.665 31.6494 160.562 31.8879 160.474 32.1659C160.401 32.429 160.305 32.6833 160.186 32.929C160.084 33.1596 159.867 33.3156 159.535 33.3968C159.501 33.4736 159.506 33.5442 159.551 33.6084C159.611 33.6733 159.656 33.7297 159.685 33.7777C159.417 33.8457 159.232 33.9794 159.13 34.1788C159.045 34.3788 158.967 34.5791 158.896 34.7797C158.826 34.9803 158.726 35.1485 158.596 35.2842C158.481 35.4206 158.261 35.4591 157.935 35.3998C157.431 35.8966 156.845 36.2887 156.178 36.576C155.509 36.8789 154.822 37.0638 154.116 37.1308C153.993 37.0636 153.872 36.9807 153.75 36.8823C153.644 36.7845 153.531 36.6941 153.409 36.6113C153.302 36.5291 153.18 36.4619 153.041 36.4097C152.917 36.3737 152.769 36.368 152.596 36.3927C152.593 36.0642 152.542 35.7574 152.444 35.4722C152.329 35.1864 152.183 34.915 152.005 34.6581C151.985 34.3758 152.034 34.1197 152.152 33.8896C152.255 33.6434 152.366 33.4052 152.484 33.1752C152.602 32.9451 152.705 32.7145 152.792 32.4833C152.864 32.2358 152.859 31.9542 152.777 31.6384C152.937 31.5506 153.042 31.4452 153.094 31.3221C153.161 31.1995 153.205 31.0761 153.225 30.9518C153.262 30.8125 153.306 30.689 153.357 30.5815C153.408 30.4584 153.522 30.3611 153.696 30.2895C153.586 29.91 153.612 29.6374 153.774 29.4716C153.953 29.2908 154.162 29.1346 154.402 29.003C154.642 28.8713 154.866 28.7235 155.076 28.5595C155.285 28.3955 155.373 28.1408 155.339 27.7955C155.436 27.7054 155.549 27.6315 155.676 27.5738C155.803 27.5161 155.923 27.4659 156.034 27.4233C156.161 27.3656 156.28 27.3076 156.392 27.2493C156.504 27.191 156.608 27.109 156.706 27.0032C156.6 26.921 156.548 26.8409 156.551 26.7628C156.57 26.6853 156.596 26.6081 156.63 26.5313C156.665 26.4388 156.7 26.3463 156.735 26.2538C156.785 26.1619 156.789 26.0682 156.746 25.9727C157.165 26.0512 157.534 26.0106 157.853 25.8507C158.188 25.6758 158.499 25.5001 158.787 25.3234C159.091 25.1473 159.393 25.0259 159.692 24.9591C159.992 24.8924 160.332 24.9991 160.712 25.2794C160.739 25.3899 160.78 25.5556 160.834 25.7766C160.904 25.9825 160.967 26.196 161.021 26.417C161.091 26.6385 161.153 26.852 161.208 27.0573C161.262 27.2627 161.296 27.4125 161.308 27.5068C161.305 27.5849 161.3 27.7098 161.293 27.8815C161.287 28.0533 161.28 28.2406 161.272 28.4436C161.265 28.631 161.258 28.8105 161.251 28.9823C161.245 29.154 161.24 29.2868 161.236 29.3804C161.679 29.6631 162.126 29.8443 162.576 29.924C163.027 29.9881 163.484 29.896 163.947 29.6478C164.113 29.8105 164.275 29.8636 164.433 29.8071C164.592 29.7349 164.744 29.6547 164.888 29.5664C165.048 29.4787 165.206 29.4378 165.362 29.4437C165.519 29.434 165.67 29.5649 165.816 29.8363C166.042 29.6416 166.274 29.5253 166.51 29.4874C166.746 29.4339 166.989 29.4118 167.239 29.4214C167.49 29.4153 167.732 29.401 167.968 29.3787C168.219 29.357 168.465 29.2647 168.705 29.1019ZM159.697 29.1576C159.706 28.9234 159.754 28.6751 159.842 28.4126C159.931 28.1502 160.003 27.8949 160.059 27.6469C160.116 27.3832 160.118 27.1331 160.064 26.8966C160.026 26.6606 159.886 26.4441 159.643 26.2473C159.468 26.3344 159.323 26.4618 159.207 26.6294C159.091 26.7813 158.976 26.9411 158.86 27.1087C158.745 27.2607 158.607 27.3883 158.447 27.4917C158.302 27.5956 158.114 27.6197 157.881 27.564C157.796 27.7484 157.79 27.9045 157.863 28.0324C157.937 28.1446 158.027 28.2575 158.132 28.371C158.238 28.4688 158.335 28.5742 158.425 28.687C158.53 28.8005 158.564 28.9425 158.526 29.1131C158.586 29.1623 158.671 29.2124 158.778 29.2634C158.886 29.2988 158.995 29.3264 159.103 29.3461C159.228 29.3509 159.346 29.3397 159.456 29.3127C159.567 29.2856 159.647 29.2339 159.697 29.1576ZM159.462 31.025C159.149 31.0132 158.879 30.9325 158.65 30.783C158.437 30.6186 158.217 30.4382 157.99 30.2419C157.779 30.0462 157.551 29.8656 157.307 29.6999C157.08 29.5193 156.795 29.4068 156.452 29.3625C156.305 29.5445 156.134 29.7178 155.94 29.8824C155.747 30.0314 155.576 30.1969 155.429 30.3789C155.281 30.561 155.172 30.7601 155.101 30.9763C155.046 31.1931 155.075 31.4444 155.189 31.7302C154.824 31.8883 154.572 32.1289 154.435 32.452C154.298 32.7595 154.199 33.0998 154.138 33.4727C154.093 33.8462 154.047 34.2198 154.002 34.5933C153.956 34.9669 153.842 35.2987 153.659 35.5888L154.187 35.2571C154.249 35.2907 154.294 35.3394 154.322 35.403C154.367 35.4672 154.372 35.5378 154.338 35.6147C154.468 35.4945 154.612 35.4062 154.77 35.3497C154.929 35.2776 155.087 35.2289 155.245 35.2036C155.418 35.1633 155.584 35.1305 155.741 35.1052C155.914 35.0805 156.08 35.0399 156.238 34.9834C156.62 35.2169 156.9 35.2744 157.076 35.156C157.253 35.0377 157.4 34.8556 157.519 34.61C157.638 34.3643 157.765 34.1112 157.9 33.8505C158.035 33.5742 158.245 33.4102 158.528 33.3584L158.371 33.1882C158.649 32.8704 158.896 32.5437 159.112 32.2079C159.344 31.8571 159.461 31.4628 159.462 31.025ZM177.425 35.9542C177.433 36.1422 177.396 36.2815 177.315 36.3722C177.233 36.4629 177.121 36.529 176.979 36.5705C176.852 36.6126 176.71 36.6463 176.553 36.6716C176.396 36.6813 176.262 36.7152 176.15 36.7735C175.699 36.7095 175.264 36.6304 174.846 36.5362C174.428 36.4265 174.043 36.2789 173.69 36.0935C173.338 35.8925 173.019 35.638 172.734 35.33C172.464 35.0226 172.236 34.6387 172.051 34.1782C172.266 33.858 172.35 33.5016 172.302 33.1089C172.255 32.7005 172.208 32.3078 172.16 31.9307C172.127 31.5542 172.148 31.211 172.222 30.9011C172.312 30.5918 172.595 30.3524 173.071 30.1828C173.046 30.0099 173.053 29.8225 173.092 29.6207C173.147 29.4196 173.098 29.2457 172.948 29.0993C172.394 29.2658 171.908 29.5131 171.489 29.8412C171.07 30.1692 170.665 30.5291 170.275 30.9208C169.9 31.313 169.518 31.7128 169.127 32.1201C168.752 32.5124 168.34 32.8564 167.891 33.152C167.688 33.1599 167.47 33.1438 167.237 33.1036C167.02 33.0484 166.83 33.1038 166.667 33.2696C166.679 33.3795 166.714 33.4746 166.774 33.5551C166.833 33.6355 166.877 33.7154 166.905 33.7946C166.949 33.8745 166.969 33.9613 166.966 34.0549C166.963 34.133 166.905 34.2246 166.791 34.3297C166.629 34.4799 166.452 34.6061 166.261 34.7083C166.085 34.7954 165.909 34.8982 165.733 35.0165C165.573 35.1199 165.435 35.2476 165.32 35.3995C165.204 35.5515 165.142 35.7602 165.132 36.0256C165.04 35.9752 164.954 35.9642 164.875 35.9924C164.796 36.0051 164.724 36.0414 164.66 36.1015C164.579 36.161 164.506 36.2286 164.441 36.3042C164.375 36.3799 164.311 36.44 164.246 36.4845C164.212 36.5614 164.218 36.6241 164.263 36.6727C164.307 36.737 164.359 36.8015 164.419 36.8663C164.35 37.0357 164.269 37.1342 164.174 37.1619C164.063 37.2046 163.953 37.2082 163.845 37.1728C163.721 37.1368 163.606 37.0777 163.5 36.9955C163.377 36.9283 163.27 36.8695 163.178 36.8191C163.139 36.6143 163.117 36.3789 163.111 36.1129C163.106 35.8469 163.123 35.5895 163.164 35.3409C163.205 35.0767 163.277 34.8292 163.38 34.5986C163.483 34.368 163.631 34.1781 163.824 34.0291C163.888 33.9847 163.928 33.9627 163.944 33.9633C163.96 33.9483 163.968 33.9408 163.968 33.9408C163.968 33.9408 163.976 33.9411 163.991 33.9417C164.008 33.9267 164.04 33.8966 164.089 33.8516C164.219 33.7158 164.31 33.5707 164.363 33.4164C164.417 33.2464 164.462 33.0762 164.5 32.9056C164.538 32.735 164.591 32.5729 164.659 32.4191C164.713 32.2491 164.812 32.1044 164.957 31.9848C164.904 31.7326 164.913 31.514 164.982 31.3291C165.068 31.129 165.169 30.9452 165.285 30.7777C165.417 30.5951 165.541 30.42 165.656 30.2524C165.788 30.0698 165.874 29.8698 165.914 29.6523C165.932 29.5749 165.935 29.5046 165.922 29.4416C165.925 29.3635 165.928 29.2854 165.931 29.2074C165.909 28.9563 165.94 28.7699 166.022 28.6479C166.121 28.511 166.235 28.4058 166.363 28.3325C166.507 28.2442 166.651 28.1559 166.795 28.0675C166.955 27.9798 167.093 27.8443 167.209 27.6611C167.654 27.897 167.908 28.2037 167.972 28.5814C168.052 28.9441 168.067 29.3513 168.019 29.8029C167.747 29.9645 167.535 30.1988 167.382 30.5057C167.231 30.797 167.126 31.0823 167.068 31.3616C167.096 31.4564 167.133 31.5126 167.179 31.53C167.242 31.5324 167.304 31.5269 167.367 31.5137C167.447 31.4854 167.518 31.4569 167.582 31.428C167.645 31.3992 167.708 31.3859 167.771 31.3883C168.348 31.0194 168.919 30.6033 169.484 30.1401C170.064 29.6775 170.523 29.1398 170.859 28.5272C171.32 28.3258 171.759 28.0923 172.175 27.8268C172.592 27.5456 173.046 27.3439 173.535 27.2218L174.094 26.7036C174.168 26.8315 174.26 26.8663 174.372 26.808C174.484 26.7341 174.597 26.6524 174.71 26.5629C174.822 26.4734 174.926 26.4226 175.02 26.4105C175.13 26.3991 175.227 26.5122 175.312 26.75C175.453 27.1619 175.477 27.5616 175.384 27.9489C175.292 28.3207 175.152 28.6907 174.966 29.0588C174.797 29.412 174.619 29.7727 174.433 30.1409C174.247 30.5091 174.131 30.8877 174.084 31.2769C174.081 31.3706 174.077 31.4721 174.073 31.5814C174.069 31.675 174.058 31.7762 174.038 31.8849C173.994 32.2116 173.934 32.569 173.856 32.9569C173.795 33.3299 173.806 33.6743 173.887 33.9901C173.955 34.2741 174.109 34.5302 174.351 34.7583C174.592 34.9864 174.802 35.2133 174.981 35.439C175.091 35.4276 175.2 35.4396 175.308 35.4749C175.416 35.5103 175.517 35.5454 175.609 35.5802C175.717 35.6156 175.818 35.6351 175.912 35.6386C176.006 35.6266 176.102 35.5755 176.199 35.4854C176.31 35.4427 176.412 35.4544 176.503 35.5204C176.61 35.5714 176.709 35.6377 176.8 35.7194C176.891 35.801 176.982 35.8748 177.073 35.9409C177.181 35.9919 177.298 35.9963 177.425 35.9542ZM195.649 30.3154C195.503 30.4506 195.39 30.5557 195.309 30.6308C195.243 30.7065 195.178 30.7822 195.112 30.8579C195.063 30.9186 194.998 30.9864 194.917 31.0615C194.852 31.1372 194.746 31.2505 194.599 31.4013C194.47 31.5214 194.347 31.6497 194.233 31.786C194.118 31.9224 193.988 32.0425 193.844 32.1465C193.658 32.0925 193.509 32.1103 193.396 32.1998C193.299 32.2899 193.201 32.3957 193.103 32.517C193.02 32.6233 192.938 32.7296 192.856 32.836C192.79 32.9273 192.702 32.963 192.594 32.9433C192.211 33.132 191.83 33.2973 191.449 33.4391C191.069 33.5654 190.702 33.7625 190.348 34.0305L190.167 33.836L187.687 34.9143C187.608 34.9425 187.528 34.9864 187.448 35.0459C187.367 35.1053 187.287 35.157 187.207 35.2009C186.856 35.3752 186.491 35.5333 186.11 35.6751C185.746 35.802 185.382 35.921 185.018 36.0323L184.71 36.1143C184.823 36.4314 184.814 36.65 184.685 36.7701C184.555 36.8903 184.372 36.9771 184.135 37.0307C183.899 37.0686 183.64 37.09 183.359 37.0949C183.077 37.0998 182.857 37.1461 182.697 37.2339C182.511 37.1955 182.316 37.1725 182.113 37.1647C181.925 37.1732 181.729 37.1892 181.525 37.2127C181.305 37.2356 181.102 37.2435 180.914 37.2364C180.727 37.2292 180.525 37.1981 180.308 37.1429L180.261 37.1411C179.991 37.2559 179.756 37.2704 179.556 37.1847C179.371 37.1151 179.203 36.9992 179.053 36.8371C178.903 36.6595 178.763 36.4586 178.63 36.2347C178.514 35.9957 178.39 35.7799 178.256 35.5872C178.167 35.4587 178.057 35.2747 177.925 35.0351C177.794 34.7956 177.686 34.5413 177.603 34.2723C177.503 34.0027 177.451 33.7349 177.446 33.4689C177.425 33.1866 177.489 32.9467 177.637 32.7491C177.785 32.5514 177.911 32.3373 178.014 32.1067C178.1 31.8754 178.15 31.6037 178.162 31.2914C178.166 31.1821 178.17 31.0806 178.173 30.9869C178.161 30.8927 178.157 30.7909 178.162 30.6816C178.24 30.6846 178.325 30.6956 178.418 30.7148C178.512 30.7184 178.598 30.7217 178.676 30.7246C178.77 30.7126 178.842 30.684 178.89 30.639C178.955 30.5789 178.99 30.4786 178.996 30.3381C178.999 30.26 178.97 30.1964 178.909 30.1471C178.864 30.0985 178.835 30.0505 178.821 30.003C178.92 29.8661 179.01 29.7601 179.091 29.685C179.188 29.5949 179.269 29.512 179.335 29.4363C179.401 29.345 179.452 29.2453 179.487 29.1371C179.523 29.0134 179.521 28.8492 179.482 28.6444C179.682 28.3237 179.912 28.0431 180.171 27.8028C180.447 27.5475 180.729 27.3159 181.018 27.108C181.308 26.8845 181.606 26.6691 181.911 26.4618C182.216 26.2545 182.506 26.031 182.781 25.7913C183.073 25.9275 183.307 25.9364 183.483 25.818C183.675 25.7003 183.844 25.5738 183.99 25.4386C184.137 25.2878 184.282 25.1683 184.426 25.0799C184.57 24.9916 184.756 25.0378 184.984 25.2184L185.029 25.2671C185.466 24.8615 185.895 24.6902 186.315 24.7531C186.75 24.8166 187.112 24.9711 187.4 25.2166C187.703 25.4627 187.896 25.7437 187.977 26.0595C188.06 26.3597 187.966 26.5594 187.697 26.6586C187.862 26.8369 187.94 27.0432 187.931 27.2774C187.922 27.5116 187.852 27.7122 187.72 27.8792C187.573 28.0612 187.44 28.2516 187.323 28.4504C187.223 28.6342 187.113 28.8333 186.996 29.0478C186.826 29.4009 186.641 29.7379 186.441 30.0587C186.242 30.3638 185.966 30.6191 185.615 30.8246C185.337 30.7359 185.14 30.7597 185.026 30.896C184.927 31.033 184.85 31.1864 184.797 31.3564C184.744 31.5108 184.685 31.6336 184.619 31.7249C184.553 31.8162 184.421 31.7799 184.224 31.6161L184.179 31.5674L184.13 31.6125C184.001 31.7326 183.894 31.8693 183.81 32.0225C183.742 32.1762 183.643 32.2898 183.516 32.3631C183.377 32.3109 183.23 32.2662 183.075 32.229C182.92 32.1919 182.773 32.155 182.634 32.1184C182.621 32.4463 182.549 32.7015 182.417 32.8841C182.285 33.0668 182.115 33.2166 181.907 33.3338C181.716 33.436 181.493 33.5213 181.241 33.5899C180.988 33.6428 180.735 33.7192 180.481 33.819C180.244 33.9038 180.012 34.02 179.788 34.1679C179.58 34.3007 179.408 34.4974 179.273 34.7581C179.423 34.9358 179.614 35.0447 179.847 35.0848C180.08 35.1094 180.322 35.1186 180.573 35.1125C180.824 35.0908 181.066 35.0844 181.301 35.0933C181.551 35.1028 181.767 35.1736 181.949 35.3056L181.972 35.3299L181.996 35.3074C182.373 35.2748 182.735 35.2026 183.083 35.0908C183.448 34.9639 183.797 34.8365 184.13 34.7085C184.479 34.5654 184.828 34.438 185.176 34.3261C185.541 34.1993 185.912 34.1118 186.289 34.0636C186.362 34.1914 186.461 34.2656 186.585 34.2859C186.725 34.3069 186.858 34.3042 186.984 34.2777L187.009 34.2317C187.045 34.1236 187.08 34.0311 187.114 33.9543C187.149 33.8618 187.199 33.7621 187.266 33.6551C187.382 33.4875 187.52 33.3599 187.679 33.2721C187.839 33.1844 188.006 33.1204 188.179 33.0801C188.368 33.0404 188.565 33.0166 188.768 33.0087C188.972 33.0008 189.176 32.9851 189.38 32.9616L189.427 32.9634L189.453 32.894C189.522 32.709 189.605 32.5871 189.701 32.5282C189.814 32.4543 189.925 32.4038 190.035 32.3768C190.161 32.3503 190.287 32.3316 190.413 32.3208C190.554 32.3105 190.688 32.2687 190.816 32.1954C191.094 32.2998 191.329 32.2775 191.522 32.1285C191.716 31.9795 191.902 31.8224 192.08 31.6572L192.258 31.8985L192.332 31.8075C192.575 31.5978 192.753 31.4404 192.866 31.3353C192.995 31.2307 193.116 31.1415 193.228 31.0676C193.341 30.9781 193.469 30.897 193.613 30.8242C193.772 30.7365 193.988 30.6118 194.26 30.4502C194.484 30.318 194.7 30.1855 194.909 30.0527C195.133 29.9205 195.349 29.7724 195.559 29.6083C195.636 29.6425 195.672 29.7065 195.669 29.8002C195.666 29.8782 195.663 29.9563 195.66 30.0344C195.643 30.065 195.626 30.1113 195.608 30.1731C195.605 30.2356 195.619 30.283 195.649 30.3154ZM186.064 27.0187C186.049 27.0025 186.034 26.9941 186.019 26.9935C186.019 26.9935 186.011 26.9854 185.996 26.9692C185.675 26.7849 185.404 26.6965 185.185 26.7037C184.967 26.6954 184.761 26.7501 184.569 26.8679C184.393 26.9707 184.224 27.1128 184.06 27.2942C183.913 27.4606 183.751 27.6186 183.573 27.7682C183.412 27.9028 183.22 28.0049 182.999 28.0747C182.777 28.1444 182.512 28.1265 182.203 28.0209C182.147 28.269 182.091 28.517 182.034 28.765C181.994 28.9981 181.961 29.2392 181.936 29.4884C181.667 29.572 181.451 29.6967 181.289 29.8625C181.142 30.0289 181.01 30.2115 180.893 30.4103C180.791 30.6097 180.689 30.8247 180.587 31.0554C180.5 31.271 180.383 31.4776 180.235 31.6752L180.324 31.7959C180.388 31.7671 180.457 31.7932 180.532 31.8742C180.607 31.9552 180.66 32.012 180.69 32.0444C180.871 31.8011 181.105 31.5989 181.393 31.4379C181.696 31.2774 181.999 31.1326 182.301 31.0034C182.619 30.8591 182.922 30.7065 183.209 30.5454C183.497 30.3844 183.716 30.166 183.868 29.8903C184.373 29.7688 184.758 29.502 185.024 29.09C185.29 28.6779 185.517 28.2487 185.706 27.8025C185.741 27.71 185.801 27.5794 185.885 27.4106C185.986 27.2268 186.046 27.0962 186.064 27.0187Z" fill="white"/>
<path d="M36.1917 25.1496C29.1363 29.2557 14.1236 44.8892 25.1454 55.6548C30.4685 60.8541 33.7063 55.6777 31.9957 47.6288C26.1216 38.9469 16.8733 34.447 6.38638 62.8917M6.38638 62.8917L16.7673 64.037M6.38638 62.8917L3.66046 50.0651" stroke="white" stroke-width="2" stroke-dasharray="2 3"/>
</svg>
