<svg width="316" height="156" viewBox="0 0 316 156" fill="none" xmlns="http://www.w3.org/2000/svg">
<path d="M83.3993 65.2731C82.9442 66.444 82.2326 67.3706 81.2646 68.053C80.3479 68.7065 79.3185 69.2205 78.1765 69.5951C77.0457 69.9295 75.8569 70.1614 74.6101 70.2906C73.3633 70.4199 72.2024 70.5514 71.1273 70.6851C70.96 71.2873 70.7135 71.6296 70.3879 71.7121C70.1024 71.8058 69.7734 71.8225 69.401 71.7622C69.0396 71.6618 68.6382 71.5503 68.1966 71.4276C67.7951 71.316 67.4004 71.336 67.0123 71.4877L66.5439 70.8386C66.3789 70.9657 66.1993 71.0672 66.0053 71.143C65.8625 71.1898 65.7086 71.2768 65.5436 71.4039C65.3272 71.56 65.1108 71.7161 64.8945 71.8722C64.7294 71.9993 64.5064 72.0239 64.2254 71.9458C63.7593 71.6 63.2485 71.4149 62.6932 71.3903C62.1378 71.3657 61.5456 71.3958 60.9167 71.4805C60.3278 71.5763 59.7189 71.6666 59.09 71.7513C58.4722 71.7958 57.8822 71.74 57.3202 71.5839L57.2432 71.6273C56.7124 71.8258 56.3076 72.0376 56.0288 72.2629C55.7611 72.448 55.4254 72.7223 55.0217 73.0858C54.5778 73.4382 54.1507 73.7303 53.7402 73.9622C53.3588 74.2454 52.8581 74.2577 52.2381 73.9989C52.1511 73.845 52.024 73.6799 51.8567 73.5037C51.6895 73.3275 51.5367 73.1769 51.3984 73.052C51.0126 72.7286 50.8164 72.5011 50.8097 72.3695C50.832 72.2892 50.7305 72.1096 50.5053 71.8308C50.1283 71.9423 49.5306 71.9924 48.7121 71.9812C47.8824 72.0101 47.0036 71.9822 46.0758 71.8974C45.1769 71.8638 44.2837 71.8102 43.396 71.7365C42.5485 71.674 41.9184 71.607 41.5058 71.5356C41.3608 71.2791 41.2304 71.0483 41.1144 70.8431C40.9873 70.678 40.8513 70.4672 40.7063 70.2107L40.6461 70.194C39.5867 70.1158 38.5696 69.963 37.595 69.7354C36.6493 69.5591 35.7148 69.3427 34.7915 69.0861C33.8681 68.8295 32.9448 68.573 32.0214 68.3164C31.0981 68.0598 30.1491 67.8177 29.1744 67.5902C28.8511 66.4192 28.394 65.73 27.8029 65.5225C27.2008 65.3552 26.554 65.3484 25.8625 65.5022C25.1711 65.6561 24.4942 65.8356 23.8317 66.0407C23.1292 66.2347 22.5214 66.0874 22.0085 65.5989L21.9315 65.6424C20.8052 65.8051 19.7624 66.056 18.8033 66.3949C17.8331 66.774 16.8885 67.1386 15.9696 67.4886C14.9993 67.8677 14.0257 68.181 13.0488 68.4285C12.0206 68.705 10.9166 68.7874 9.73671 68.6758C9.22824 68.0155 8.6651 67.7077 8.04729 67.7522C7.42947 67.7968 6.815 67.9072 6.20386 68.0833C5.55258 68.2483 4.96376 68.3441 4.43739 68.3709C3.91102 68.3976 3.49954 68.0886 3.20296 67.444L3.14274 67.4273L3.15948 67.3671C2.96322 67.1396 2.75916 67.018 2.54727 67.0024C2.33539 66.9867 2.138 66.9968 1.95511 67.0324C1.72091 67.0971 1.52687 67.1729 1.37296 67.2599C1.21906 67.3468 1.08747 67.3535 0.978186 67.2799C0.817604 67.2353 0.725055 67.1015 0.700541 66.8784C1.02398 66.4926 1.46004 66.2462 2.00871 66.1392C2.55739 66.0322 3.14622 65.9363 3.77519 65.8516C4.393 65.807 5.02755 65.7023 5.67883 65.5373C6.31896 65.4124 6.89777 65.1192 7.41525 64.6576C8.47246 64.4324 9.53859 64.2529 10.6136 64.1192C11.6485 63.9743 12.6422 63.6666 13.5946 63.1961C14.2436 63.5062 15.0945 63.6345 16.1472 63.5811C17.1487 63.5566 18.0185 63.5388 18.7568 63.5278L18.9709 63.4575C19.1694 63.21 19.4114 63.0394 19.6969 62.9457C19.9423 62.8409 20.2222 62.7673 20.5367 62.725C20.8222 62.6313 21.1333 62.5232 21.4701 62.4005C21.818 62.2378 22.1627 62.0092 22.5039 61.7148L22.5809 61.6713L22.5374 61.5944C22.5085 60.7647 22.397 59.9985 22.203 59.2959C21.9689 58.5822 21.7493 57.8941 21.5441 57.2317C21.31 56.5179 21.1417 55.8009 21.0392 55.0804C20.9366 54.36 21.0025 53.5783 21.2368 52.7352C21.5044 52.5501 21.7832 52.3249 22.0732 52.0595C22.3632 51.7941 22.6676 51.5544 22.9866 51.3403C23.3167 51.0861 23.6502 50.8976 23.987 50.775C24.3349 50.6122 24.6895 50.581 25.0509 50.6814L25.5459 51.4676C26.0701 51.1376 26.6533 51.0618 27.2957 51.2403C27.8979 51.4076 28.5379 51.672 29.2159 52.0334C29.865 52.3434 30.5285 52.6792 31.2065 53.0405C31.8555 53.3506 32.4833 53.5035 33.09 53.499C33.643 53.9987 34.1192 54.5418 34.5184 55.1285C34.9176 55.7151 35.3535 56.2471 35.8263 56.7244C36.259 57.1906 36.7797 57.5731 37.3886 57.8721C37.9685 58.1197 38.7157 58.1543 39.6301 57.976L39.8275 57.9659L39.861 57.8455C40.1086 57.2656 40.4778 56.8709 40.9685 56.6613C41.5105 56.4227 42.0614 56.2298 42.6212 56.0826C43.181 55.9355 43.7007 55.7772 44.1803 55.6077C44.671 55.3981 45.029 55.0435 45.2543 54.5439C46.5948 53.9218 47.7725 53.3409 48.7873 52.8012C49.8423 52.2727 50.8171 51.7219 51.7115 51.1488C52.6572 50.5466 53.574 49.8932 54.4617 49.1885C55.3896 48.4949 56.4223 47.6575 57.5599 46.6763L57.6368 46.6328C57.6346 46.3294 57.8298 46.0161 58.2224 45.6927C58.6663 45.3404 59.1012 44.9423 59.5273 44.4985C59.9533 44.0547 60.2901 43.5428 60.5378 42.963C60.7854 42.3831 60.7631 41.685 60.471 40.8686C60.9082 40.3847 61.2451 39.8729 61.4815 39.3331C61.7581 38.8046 62.1496 38.3295 62.6559 37.908L62.8433 37.7006C62.5266 37.4396 62.3984 37.1229 62.4586 36.7505C62.5702 36.349 62.713 35.913 62.887 35.4424C63.1011 34.9829 63.2752 34.5123 63.409 34.0306C63.5942 33.5199 63.5764 33.0392 63.3556 32.5887C64.3259 32.2096 65.0229 31.6465 65.4467 30.8993C65.9107 30.1634 66.3056 29.3649 66.6313 28.504C66.9235 27.7636 67.1856 27.2094 67.4176 26.8414C67.7009 26.4444 68.1035 25.9292 68.6255 25.2958L68.582 25.2189C68.4126 23.9609 68.6346 23.0064 69.248 22.3551C69.8614 21.7039 70.6187 21.1576 71.5198 20.716C72.4321 20.2343 73.3588 19.7783 74.3001 19.3479C75.2815 18.9287 76.041 18.2965 76.5785 17.4512C77.3949 17.1591 78.2023 17.2105 79.0007 17.6053C79.6787 17.9667 80.2407 18.5121 80.6867 19.2414C81.1439 19.9307 81.5096 20.6377 81.7839 21.3626C81.8419 21.4652 81.9088 21.6135 81.9846 21.8076C82.0604 22.0016 82.0927 22.1187 82.0816 22.1589C82.0971 22.7254 82.0067 23.2841 81.8104 23.835C81.6253 24.3457 81.4 24.8453 81.1345 25.3337C80.869 25.8221 80.6237 26.3162 80.3983 26.8157C80.2132 27.3265 80.1284 27.8651 80.1439 28.4316C79.4391 29.1007 78.8435 29.8433 78.3572 30.6596C77.9111 31.487 77.4649 32.3144 77.0188 33.1419C76.6128 33.9805 76.1521 34.7822 75.6369 35.5472C75.1327 36.272 74.4502 36.8608 73.5892 37.3135L73.5725 37.3737C72.7427 38.181 71.9297 38.9281 71.1334 39.615C70.3884 40.2729 69.6178 40.9453 68.8215 41.6322C68.0363 42.2789 67.2601 42.9714 66.4928 43.7095C65.7255 44.4477 64.9615 45.2517 64.2009 46.1215L64.1239 46.165C64.2777 46.8564 64.1617 47.4296 63.7758 47.8846C63.3899 48.3395 62.9784 48.809 62.5412 49.2929C62.104 49.7769 61.7761 50.3344 61.5575 50.9656C61.35 51.5566 61.5072 52.3139 62.029 53.2373C61.7613 53.4224 61.5717 53.7156 61.4602 54.1171C61.3486 54.5186 61.2371 54.92 61.1255 55.3215C61.0652 55.6939 60.9648 56.0552 60.8243 56.4054C60.6949 56.7154 60.4674 56.9117 60.1418 56.9942C60.2399 57.1079 60.3124 57.2362 60.3592 57.3789C60.4462 57.5328 60.5387 57.6667 60.6368 57.7804C60.5587 58.0614 60.4606 58.3369 60.3424 58.6067C60.2643 58.8878 60.1605 59.1833 60.0311 59.4933C59.8683 59.9237 59.7255 60.3597 59.6028 60.8013C59.4801 61.243 59.3373 61.679 59.1745 62.1094C59.1521 62.1897 59.1042 62.2845 59.0306 62.3938C58.9681 62.4629 58.9202 62.5577 58.8867 62.6781C58.7974 62.9993 58.774 63.3171 58.8163 63.6316C58.8988 63.9573 58.9613 64.2773 59.0036 64.5918C59.0571 64.8661 59.0248 65.1382 58.9065 65.4081C58.8284 65.6891 58.6098 65.9311 58.2507 66.134L58.2775 66.2712C58.5116 66.9849 58.8037 67.4121 59.1539 67.5526C59.5442 67.7043 59.9312 67.7902 60.3148 67.8103C60.7497 67.8015 61.1735 67.8327 61.5861 67.9041C62.0099 67.9354 62.3812 68.2332 62.7001 68.7975C63.9402 68.5366 65.1781 68.3617 66.4137 68.2726C67.6493 68.1834 68.8738 68.1345 70.0871 68.1257C71.684 68.137 73.2319 68.0914 74.7307 67.9889C76.2809 67.8575 77.7975 67.4572 79.2808 66.7883C79.8741 66.5207 80.5499 66.1895 81.3083 65.7948C82.1068 65.4112 82.8038 65.2373 83.3993 65.2731ZM78.5721 22.4162C78.3825 22.3203 78.1907 22.3102 77.9966 22.386C77.8137 22.4217 77.6253 22.4774 77.4312 22.5532C77.2483 22.5889 77.0766 22.5844 76.916 22.5398C76.8067 22.4662 76.7253 22.2922 76.6718 22.0179L76.2168 22.0212C76.0294 23.007 75.678 23.8824 75.1628 24.6474C74.6475 25.4123 74.0575 26.1349 73.3928 26.8151C72.7794 27.4663 72.1202 28.1265 71.4154 28.7955C70.7217 29.4244 70.0971 30.1158 69.5417 30.8696C68.9863 31.6234 68.5345 32.4709 68.1865 33.4121C67.8497 34.3131 67.7113 35.3558 67.7714 36.5401L67.7981 36.6773C68.4806 36.867 68.9869 36.8347 69.317 36.5804C69.6583 36.286 69.9048 35.9437 70.0565 35.5534C70.2483 35.1743 70.4234 34.8553 70.5818 34.5966C70.7514 34.2978 71.0313 34.2242 71.4216 34.3759C71.5778 33.8139 71.8521 33.3712 72.2447 33.0478C72.6886 32.6954 73.1068 32.3576 73.4994 32.0342C73.8919 31.7108 74.2098 31.3451 74.4529 30.9369C74.7362 30.54 74.792 29.95 74.6204 29.1672C75.0464 28.7233 75.3487 28.1803 75.5272 27.5379C75.7458 26.9068 75.9444 26.27 76.1228 25.6277C76.3415 24.9965 76.6092 24.4222 76.9259 23.9048C77.2828 23.3985 77.807 23.0685 78.4984 22.9147L78.5721 22.4162ZM54.5539 66.5987C54.7881 65.7557 54.825 64.9226 54.6645 64.0996C54.5553 63.2476 54.6178 62.4001 54.8521 61.557C54.919 61.3162 54.9893 61.1411 55.0629 61.0318C55.5157 60.336 55.8369 59.6468 56.0266 58.9643C56.2162 58.2819 56.3601 57.6083 56.4583 56.9437C56.5677 56.2389 56.7172 55.5452 56.9068 54.8628C56.8198 54.7089 56.9046 54.5594 57.1611 54.4145C57.4578 54.2807 57.6574 54.1848 57.76 54.1268C57.6619 54.0131 57.4913 53.7711 57.2482 53.4008C57.0452 53.0417 56.9003 52.7852 56.8133 52.6313L56.4018 52.7115C56.3237 52.9926 56.1364 53.2 55.8397 53.3338C55.5542 53.4274 55.2431 53.5356 54.9063 53.6582C54.5806 53.7407 54.3041 53.8801 54.0765 54.0763C53.849 54.2726 53.7286 54.6283 53.7151 55.1435C52.6021 55.5694 51.5527 56.0778 50.5668 56.6688C49.581 57.2598 48.5895 57.8708 47.5925 58.5019C46.6468 59.104 45.6865 59.6805 44.7118 60.2313C43.7482 60.742 42.7412 61.1757 41.6907 61.5325L42.9952 63.841L43.1926 63.831C43.6788 63.7931 44.0602 63.8991 44.3368 64.1489C44.6535 64.4099 44.9244 64.6798 45.1497 64.9586C45.4262 65.2084 45.6938 65.4125 45.9525 65.5709C46.2113 65.7293 46.5402 65.7126 46.9395 65.5208C47.1357 65.7483 47.2573 65.9335 47.3041 66.0762C47.8951 66.2837 48.4549 66.5257 48.9835 66.8023C49.5522 67.0901 50.112 67.3321 50.6629 67.5285C51.2539 67.7359 51.8271 67.852 52.3825 67.8766C52.9891 67.8721 53.6003 67.696 54.2159 67.3481L54.2761 67.3649C54.3096 67.2444 54.343 67.124 54.3765 67.0035C54.4613 66.8541 54.5204 66.7192 54.5539 66.5987ZM38.0405 63.6967L37.9803 63.68C37.8844 63.0912 37.5532 62.8045 36.9867 62.8201C36.8953 62.8379 36.7235 62.8334 36.4715 62.8067C36.2195 62.7799 35.9619 62.7732 35.6987 62.7865C35.4065 62.7486 35.1634 62.7675 34.9693 62.8433C34.7463 62.8678 34.6381 62.9459 34.6448 63.0775L32.6307 63.5557L40.0844 66.1458L38.0405 63.6967ZM33.3805 59.2233C33.0125 58.9913 32.6579 58.6333 32.3167 58.1493C31.9465 57.614 31.66 57.1668 31.457 56.8077C30.9084 56.9147 30.4445 56.8722 30.0653 56.6804C29.6973 56.4484 29.355 56.2019 29.0383 55.9409C28.7328 55.6398 28.4361 55.3844 28.1484 55.1747C27.8206 54.9539 27.4426 54.9137 27.0143 55.0542C26.876 54.9293 26.7779 54.8155 26.7199 54.7129C26.633 54.559 26.5605 54.4308 26.5025 54.3282C25.8311 54.8768 25.5634 55.4511 25.6994 56.0511C25.8466 56.6109 26.0796 57.173 26.3985 57.7373C26.6884 58.2503 26.9382 58.7521 27.1478 59.2428C27.3284 59.6822 27.151 60.087 26.6157 60.4572L26.696 60.8687L28.4423 61.354C28.5449 61.296 28.7646 61.2057 29.1014 61.0831C29.4092 60.9091 29.5999 60.7675 29.6735 60.6582C29.8676 60.5824 30.1185 60.4575 30.4263 60.2836C30.7453 60.0695 31.0787 59.8811 31.4267 59.7183C31.7858 59.5153 32.1337 59.3526 32.4705 59.2299C32.8073 59.1073 33.1107 59.1051 33.3805 59.2233ZM115.46 86.5067C114.978 86.3729 114.591 86.287 114.299 86.249C114.058 86.1821 113.832 86.1408 113.62 86.1252C113.408 86.1095 113.165 86.1285 112.89 86.182C112.616 86.2355 112.245 86.3269 111.776 86.4562C111.493 86.8532 111.177 87.1331 110.83 87.2959C110.533 87.4297 110.182 87.5267 109.776 87.5868C109.421 87.618 109.041 87.6637 108.635 87.7239C108.24 87.7439 107.837 87.8699 107.427 88.1019C104.242 87.7358 101.742 86.3059 99.9267 83.8122C99.7015 83.5334 99.5019 83.2401 99.3279 82.9323C99.1941 82.6356 99.0146 82.3479 98.7894 82.0691C98.6333 81.8527 98.5295 81.759 98.4782 81.788C98.4782 81.788 98.4258 81.6653 98.321 81.42C98.1516 80.9405 98.1048 80.4085 98.1807 79.8242C98.3078 79.2108 98.3837 78.6265 98.4083 78.0711C98.4441 77.4756 98.3315 76.947 98.0706 76.4853C97.8609 75.9946 97.329 75.6522 96.4748 75.4581C95.8391 76.1896 95.0171 76.891 94.009 77.5622C93.0521 78.2045 92.0171 78.7385 90.9042 79.1644C89.7912 79.5904 88.6514 79.8791 87.4849 80.0306C86.3586 80.1934 85.3337 80.1464 84.4104 79.8899C83.8326 80.724 83.081 81.2503 82.1553 81.4688C81.2587 81.7386 80.3353 81.8712 79.3852 81.8666C79.2937 81.8845 79.122 81.88 78.87 81.8532C78.6068 81.8666 78.4551 81.8677 78.415 81.8565C77.8418 81.7405 77.4281 81.5174 77.1738 81.1873C76.9196 80.8572 76.691 80.5126 76.4881 80.1535C76.2852 79.7944 76.0566 79.4498 75.8024 79.1196C75.5481 78.7895 75.14 78.5464 74.5779 78.3902C74.4264 77.2237 74.2692 76.0773 74.1065 74.9509C73.9438 73.8246 73.9071 72.7116 73.9964 71.6121C74.4135 71.5117 74.6812 71.3266 74.7994 71.0568C74.8886 70.7356 74.9779 70.4145 75.0671 70.0933C74.4806 69.7141 74.2263 69.384 74.3044 69.1029C74.3535 68.7706 74.503 68.4662 74.7528 68.1896C74.9625 67.9019 75.1867 67.6399 75.4253 67.4035C75.635 67.1158 75.6272 66.8325 75.402 66.5537C76.4036 64.1941 77.7643 62.0207 79.4841 60.0336C81.2039 58.0465 83.2794 56.5691 85.7106 55.6013C85.6817 54.7716 85.9036 54.2062 86.3765 53.9052C86.8895 53.6153 87.4125 53.5227 87.9456 53.6276C88.5188 53.7436 89.0016 54.0292 89.3941 54.4842C89.8379 54.9102 89.9706 55.4444 89.7921 56.0868C89.7542 56.3789 89.656 56.6544 89.4976 56.9131C89.3392 57.1718 89.1864 57.4104 89.0392 57.629C88.4637 58.7664 87.7789 59.8303 86.9848 60.8205C86.1907 61.8107 85.362 62.7697 84.4988 63.6974C83.6355 64.6252 82.7522 65.5474 81.8489 66.464C80.9856 67.3917 80.1915 68.3819 79.4666 69.4346C78.8956 69.6219 78.6402 69.9185 78.7004 70.3244C78.7605 70.7304 78.8609 71.1475 79.0014 71.5757C79.1931 71.975 79.2444 72.3352 79.1552 72.6563C79.1061 72.9887 78.6611 73.1893 77.8202 73.2584C77.4232 73.7535 77.344 74.2721 77.5826 74.8141C77.8323 75.3159 78.0163 75.8211 78.1344 76.3297C78.4445 76.459 78.7455 76.5427 79.0377 76.5807C79.37 76.6297 79.6812 76.5216 79.9712 76.2562C80.3637 76.7112 80.7685 76.8886 81.1855 76.7883C81.6428 76.6991 82.1112 76.5698 82.5907 76.4003C83.1216 76.2018 83.6557 76.0692 84.1933 76.0023C84.7709 75.9466 85.3363 76.1686 85.8894 76.6682C86.2485 76.4653 86.5641 76.1854 86.8363 75.8286C87.1485 75.4829 87.4552 75.1573 87.7564 74.8518C88.0575 74.5462 88.382 74.3121 88.73 74.1493C89.1181 73.9977 89.582 74.0401 90.1217 74.2765C90.9626 73.4291 91.934 72.8125 93.0359 72.4267C94.1488 72.0008 95.2507 71.615 96.3414 71.2694C97.4722 70.935 98.4937 70.5269 99.406 70.0452C100.358 69.5747 101.086 68.8254 101.587 67.7972C102.685 66.8048 103.821 65.6719 104.997 64.3984C106.224 63.096 107.498 62.088 108.821 61.3744C109.031 61.0867 109.298 60.9016 109.624 60.8191C109.961 60.6965 110.295 60.6597 110.628 60.7088C110.971 60.7177 111.287 60.827 111.575 61.0367C111.873 61.2063 112.11 61.4449 112.284 61.7527C112.163 62.4977 111.879 63.1322 111.43 63.6563C111.022 64.1915 110.574 64.7156 110.085 65.2286C109.648 65.7125 109.26 66.2533 108.921 66.8511C108.582 67.4488 108.436 68.2082 108.483 69.1293C107.831 69.2943 107.191 69.4192 106.562 69.5039C105.973 69.5997 105.399 69.7212 104.839 69.8684C104.319 70.0267 103.818 70.2765 103.334 70.6177C102.89 70.97 102.507 71.4908 102.186 72.1799C103.158 72.8826 103.661 73.5629 103.695 74.2208C103.728 74.8788 103.644 75.5691 103.444 76.2917C103.254 76.9742 103.093 77.708 102.962 78.493C102.881 79.2491 103.202 80.1168 103.925 81.096C104.052 81.261 104.124 81.3893 104.142 81.4807C104.211 81.5432 104.335 81.6424 104.514 81.7785C104.882 82.0105 105.243 82.1109 105.598 82.0797C105.963 82.0084 106.303 81.9515 106.618 81.9092C106.973 81.878 107.305 81.9271 107.615 82.0565C107.976 82.1569 108.311 82.5093 108.618 83.1137C109.433 82.5183 109.995 82.6745 110.305 83.5823C111.032 82.8329 111.613 82.4538 112.048 82.4449C112.483 82.436 112.875 82.5019 113.225 82.6424C113.616 82.7941 114.028 82.8655 114.463 82.8566C114.898 82.8478 115.479 82.4686 116.206 81.7193L116.598 82.4119C117.017 81.8365 117.382 81.6135 117.692 81.7429C118.053 81.8433 118.378 81.9983 118.665 82.208C118.964 82.3775 119.245 82.4556 119.508 82.4422C119.783 82.3887 120.037 81.9404 120.271 81.0974C120.633 81.1978 120.956 81.2012 121.241 81.1075C121.567 81.025 121.878 80.9169 122.175 80.7831C122.512 80.6604 122.857 80.5835 123.212 80.5523C123.578 80.481 123.981 80.5067 124.423 80.6294L121.803 83.9881L115.46 86.5067ZM185.774 98.0015C185.324 98.2222 184.705 98.5043 183.917 98.8477C183.181 99.1621 182.657 99.4922 182.345 99.8379C181.992 100.172 181.691 100.478 181.442 100.754C181.232 101.042 180.993 101.279 180.726 101.464C180.509 101.62 180.224 101.713 179.869 101.745C179.555 101.787 179.136 101.736 178.614 101.591C178.581 101.711 178.288 101.911 177.735 102.189C177.233 102.439 176.68 102.718 176.075 103.026C175.482 103.293 174.929 103.572 174.416 103.862C173.914 104.112 173.646 104.297 173.613 104.417L173.154 103.965C173.085 103.903 172.839 103.856 172.415 103.825C172.042 103.765 171.567 103.762 170.99 103.818C170.463 103.845 169.915 103.952 169.344 104.139C168.773 104.326 168.274 104.642 167.848 105.086L167.624 104.959C167.066 104.631 166.455 104.418 165.791 104.319C165.155 104.273 164.536 104.165 163.934 103.998C162.627 103.721 161.739 103.259 161.271 102.609C160.792 102.001 160.389 100.959 160.064 99.4847C159.981 99.159 159.924 98.8189 159.893 98.4642C159.862 98.1096 159.851 97.7606 159.86 97.4171L159.927 97.1762C160.578 97.0112 160.996 96.6734 161.181 96.1626C161.378 95.6117 161.519 95.024 161.606 94.3996C161.693 93.7751 161.795 93.1762 161.911 92.603C162.067 92.041 162.416 91.6407 162.958 91.4021C162.896 90.6928 163.083 90.0962 163.52 89.6122C164.009 89.0993 164.466 88.6209 164.892 88.1771C165.318 87.7333 165.598 87.2705 165.732 86.7888C165.866 86.307 165.564 85.6825 164.826 84.9152C163.802 85.0199 162.79 85.2362 161.791 85.564C160.843 85.8628 159.864 86.1961 158.854 86.564C157.895 86.903 156.915 87.2363 155.916 87.5641C154.957 87.903 153.966 88.1249 152.942 88.2296C151.842 88.9187 150.736 89.4762 149.623 89.9021C148.521 90.2878 147.428 90.7193 146.344 91.1965C145.3 91.6849 144.289 92.2903 143.31 93.0129C142.382 93.7065 141.553 94.6654 140.824 95.8899C140.69 95.5932 140.534 95.3768 140.355 95.2408C140.177 95.1047 139.938 94.9519 139.639 94.7824C139.231 94.5392 138.944 94.3295 138.776 94.1533C138.62 93.937 138.421 93.6437 138.178 93.2734L138.271 93.1697C138.923 92.2263 139.64 91.2796 140.423 90.3295C141.206 89.3795 141.748 88.3625 142.049 87.2785C142.16 86.8771 142.221 86.5046 142.23 86.1611C142.25 85.7775 142.316 85.385 142.427 84.9835C142.628 84.2609 142.932 83.6319 143.341 83.0967C143.749 82.5614 144.166 82.0719 144.592 81.6281C145.058 81.1955 145.479 80.7717 145.853 80.3569C146.279 79.9131 146.57 79.4102 146.727 78.8481C146.849 78.4065 146.872 77.9371 146.794 77.4397C146.716 76.9423 146.561 76.4884 146.329 76.078C145.738 75.8705 145.153 75.7946 144.576 75.8503C144.009 75.8659 143.432 75.9216 142.843 76.0175C142.254 76.1133 141.651 76.1835 141.033 76.2281C140.426 76.2325 139.807 76.1254 139.176 75.9067C138.099 76.5155 137.001 77.1188 135.884 77.7164C134.778 78.2739 133.671 78.8314 132.565 79.3889C130.261 80.5217 127.98 81.7259 125.723 83.0015C123.506 84.2882 121.563 85.9106 119.895 87.8687C119.571 88.2546 119.262 88.666 118.968 89.1032C118.725 89.5113 118.441 89.9083 118.118 90.2941C118.096 90.3744 118.033 90.4435 117.931 90.5015L117.629 90.4179C117.188 90.2952 116.853 90.3319 116.626 90.5282C116.438 90.7356 116.266 90.9686 116.107 91.2273C115.978 91.5374 115.834 91.8217 115.675 92.0804C115.517 92.3391 115.286 92.4696 114.983 92.4718C114.639 92.4628 114.355 92.319 114.13 92.0401C113.864 91.7502 113.659 91.4769 113.514 91.2204L113.471 91.1435C113.248 90.3896 113.211 89.6658 113.361 88.9722C113.51 88.2786 113.774 87.6385 114.154 87.0519C114.504 86.4141 114.949 85.8242 115.489 85.2823C115.988 84.7292 116.477 84.2162 116.954 83.7434C117.67 83.0342 118.352 82.2938 118.999 81.5222C119.697 80.7215 120.185 79.8194 120.464 78.8157C120.587 78.3741 120.633 77.976 120.601 77.6214C120.621 77.2378 120.642 76.8542 120.662 76.4705L122.238 75.9354C122.115 75.5986 122.061 75.3242 122.077 75.1124C122.144 74.8715 122.205 74.6507 122.261 74.45C122.357 74.2604 122.427 74.0853 122.472 73.9247C122.568 73.7352 122.603 73.5288 122.579 73.3058L122.629 73.1252L123.262 72.7171C123.549 71.3699 123.855 70.1143 124.179 68.95C124.502 67.7858 124.601 66.4945 124.477 65.0759C125.184 64.7102 125.759 64.7404 126.203 65.1664C126.658 65.5523 127.102 65.9783 127.534 66.4445L127.518 66.5047L127.561 66.5817C127.748 67.1527 127.868 67.8129 127.919 68.5623C127.97 69.3117 127.95 70.0845 127.858 70.8807C127.818 71.648 127.738 72.4041 127.617 73.149C127.497 73.8939 127.359 74.5474 127.202 75.1095C127.158 75.27 127.093 75.4251 127.008 75.5745C126.975 75.6949 126.936 75.8354 126.891 75.996L126.429 76.2569C126.574 76.5134 126.739 76.7755 126.925 77.0432C127.11 77.3108 127.348 77.4636 127.64 77.5016C128.082 76.8459 128.592 76.4902 129.169 76.4345C129.758 76.3386 130.33 76.303 130.886 76.3276C131.481 76.3633 132.008 76.3366 132.465 76.2474C132.973 76.1292 133.328 75.7089 133.529 74.9862C133.573 74.8256 133.587 74.6996 133.569 74.6082L133.723 74.5212C135.159 73.7095 136.582 73.0238 137.992 72.4641C139.453 71.8754 140.887 71.5387 142.294 71.4541C143.742 71.3806 145.157 71.5792 146.54 72.05C147.963 72.5319 149.386 73.4029 150.809 74.6632L150.912 74.7569L150.889 77.4099L150.35 77.7143C150.595 78.3879 150.552 79.0894 150.219 79.8187C149.938 80.519 149.577 81.197 149.135 81.8527C148.694 82.5083 148.283 83.1295 147.904 83.716C147.536 84.2624 147.433 84.7096 147.596 85.0576C147.719 85.3944 148.046 85.6152 148.58 85.7201C149.153 85.8361 149.605 85.9187 149.938 85.9678C150.382 85.6154 150.929 85.3567 151.581 85.1917C152.272 85.0379 152.938 84.8986 153.578 84.7737C154.258 84.66 154.858 84.524 155.378 84.3657C155.909 84.1673 156.244 83.8929 156.385 83.5428C156.994 83.8417 157.521 83.9667 157.967 83.9176C158.424 83.8285 158.824 83.6367 159.165 83.3423C159.506 83.0479 159.833 82.7279 160.145 82.3822C160.469 81.9964 160.801 81.6563 161.142 81.3619C161.535 81.0385 161.96 80.8323 162.417 80.7431C162.874 80.6539 163.433 80.7443 164.093 81.0142C165.273 80.3475 166.541 79.9862 167.897 79.9306C169.305 79.846 170.656 79.9621 171.952 80.2789C172.886 80.4953 173.451 80.9548 173.645 81.6574C173.85 82.3198 173.841 83.0525 173.618 83.8554C173.328 84.8992 172.808 85.8359 172.058 86.6656C171.309 87.4952 170.494 88.3282 169.613 89.1645C168.732 90.0008 167.9 90.894 167.117 91.844C166.334 92.7941 165.758 93.9315 165.39 95.2563C165.357 95.3768 165.295 95.5976 165.206 95.9187C165.128 96.1998 165.064 96.5064 165.015 96.8388C164.977 97.1309 164.939 97.4231 164.901 97.7153C164.915 97.9785 164.97 98.1669 165.069 98.2807C165.207 98.4056 165.331 98.5049 165.44 98.5785L165.072 98.7357C165.962 99.1127 166.735 99.522 167.39 99.9637C168.057 100.365 168.862 100.502 169.806 100.375C170.069 100.362 170.327 100.369 170.579 100.396C170.871 100.433 171.148 100.446 171.412 100.432C171.784 100.493 172.044 100.414 172.191 100.195C172.349 99.9363 172.563 99.7144 172.83 99.5293C173.149 99.3152 173.577 99.1747 174.115 99.1078C174.704 99.012 175.58 99.1258 176.744 99.4493L177.012 98.4858C177.882 98.468 178.648 98.3566 179.311 98.1515C179.984 97.9062 180.627 97.6955 181.238 97.5193C181.889 97.3543 182.558 97.2808 183.245 97.2987C183.972 97.3277 184.815 97.562 185.774 98.0015ZM248.413 115.407C247.963 115.628 247.344 115.91 246.557 116.253C245.821 116.568 245.296 116.898 244.984 117.244C244.632 117.578 244.331 117.884 244.081 118.16C243.871 118.448 243.632 118.684 243.365 118.869C243.148 119.025 242.863 119.119 242.508 119.15C242.194 119.193 241.776 119.141 241.254 118.996C241.22 119.117 240.927 119.316 240.374 119.595C239.872 119.845 239.319 120.124 238.714 120.431C238.121 120.699 237.568 120.978 237.055 121.268C236.553 121.517 236.285 121.702 236.252 121.823L235.794 121.371C235.724 121.309 235.478 121.262 235.054 121.231C234.682 121.17 234.207 121.168 233.629 121.224C233.103 121.25 232.554 121.357 231.983 121.545C231.412 121.732 230.913 122.048 230.487 122.491L230.263 122.364C229.706 122.036 229.095 121.823 228.43 121.725C227.794 121.678 227.175 121.571 226.573 121.404C225.266 121.127 224.379 120.664 223.91 120.015C223.431 119.406 223.028 118.365 222.703 116.89C222.62 116.565 222.563 116.225 222.532 115.87C222.501 115.515 222.49 115.166 222.499 114.823L222.566 114.582C223.217 114.417 223.635 114.079 223.82 113.568C224.017 113.017 224.158 112.43 224.246 111.805C224.333 111.181 224.434 110.582 224.55 110.009C224.706 109.447 225.055 109.046 225.597 108.808C225.535 108.098 225.722 107.502 226.16 107.018C226.648 106.505 227.105 106.027 227.531 105.583C227.957 105.139 228.237 104.676 228.371 104.194C228.505 103.713 228.203 103.088 227.465 102.321C226.441 102.426 225.43 102.642 224.43 102.97C223.482 103.268 222.503 103.602 221.493 103.97C220.534 104.309 219.555 104.642 218.555 104.97C217.596 105.309 216.605 105.531 215.581 105.635C214.481 106.324 213.375 106.882 212.262 107.308C211.16 107.694 210.067 108.125 208.983 108.602C207.94 109.091 206.928 109.696 205.949 110.419C205.021 111.112 204.192 112.071 203.463 113.296C203.329 112.999 203.173 112.783 202.995 112.646C202.816 112.51 202.577 112.358 202.279 112.188C201.87 111.945 201.583 111.735 201.416 111.559C201.259 111.343 201.06 111.049 200.817 110.679L200.91 110.575C201.562 109.632 202.279 108.685 203.062 107.735C203.845 106.785 204.387 105.768 204.688 104.684C204.8 104.283 204.86 103.91 204.869 103.567C204.889 103.183 204.955 102.791 205.066 102.389C205.267 101.667 205.572 101.038 205.98 100.502C206.388 99.9671 206.805 99.4776 207.231 99.0338C207.697 98.6011 208.118 98.1774 208.493 97.7626C208.919 97.3188 209.21 96.8158 209.366 96.2538C209.489 95.8122 209.511 95.3427 209.433 94.8453C209.355 94.348 209.2 93.8941 208.968 93.4837C208.377 93.2762 207.793 93.2003 207.215 93.256C206.648 93.2716 206.071 93.3273 205.482 93.4231C204.893 93.519 204.29 93.5892 203.672 93.6337C203.065 93.6382 202.446 93.531 201.815 93.3124C200.738 93.9212 199.641 94.5244 198.523 95.1221C197.417 95.6796 196.31 96.2371 195.204 96.7946C192.9 97.9274 190.619 99.1316 188.362 100.407C186.145 101.694 184.202 103.316 182.534 105.274C182.21 105.66 181.901 106.072 181.607 106.509C181.364 106.917 181.081 107.314 180.757 107.7C180.735 107.78 180.672 107.849 180.57 107.907L180.269 107.824C179.827 107.701 179.492 107.738 179.265 107.934C179.078 108.141 178.905 108.374 178.746 108.633C178.617 108.943 178.473 109.227 178.315 109.486C178.156 109.745 177.925 109.875 177.622 109.877C177.279 109.869 176.994 109.725 176.769 109.446C176.504 109.156 176.298 108.883 176.154 108.626L176.11 108.549C175.887 107.795 175.85 107.072 176 106.378C176.149 105.684 176.414 105.044 176.793 104.458C177.143 103.82 177.588 103.23 178.128 102.688C178.628 102.135 179.116 101.622 179.593 101.149C180.309 100.44 180.991 99.6995 181.638 98.9278C182.336 98.1272 182.824 97.225 183.103 96.2214C183.226 95.7798 183.272 95.3817 183.241 95.0271C183.261 94.6434 183.281 94.2598 183.301 93.8762L184.877 93.341C184.754 93.0042 184.701 92.7299 184.716 92.518C184.783 92.2772 184.844 92.0564 184.9 91.8556C184.996 91.6661 185.066 91.491 185.111 91.3304C185.207 91.1408 185.243 90.9345 185.218 90.7115L185.268 90.5308L185.901 90.1227C186.189 88.7756 186.494 87.5199 186.818 86.3557C187.141 85.1915 187.241 83.9001 187.116 82.4816C187.823 82.1159 188.398 82.146 188.842 82.5721C189.297 82.958 189.741 83.384 190.174 83.8502L190.157 83.9104L190.2 83.9874C190.388 84.5583 190.507 85.2185 190.558 85.968C190.609 86.7174 190.589 87.4902 190.498 88.2864C190.457 89.0537 190.377 89.8097 190.257 90.5547C190.136 91.2996 189.998 91.9531 189.842 92.5151C189.797 92.6757 189.732 92.8307 189.647 92.9801C189.614 93.1006 189.575 93.2411 189.53 93.4017L189.069 93.6626C189.214 93.9191 189.379 94.1812 189.564 94.4488C189.749 94.7165 189.987 94.8693 190.28 94.9072C190.721 94.2515 191.231 93.8958 191.809 93.8401C192.397 93.7443 192.97 93.7086 193.525 93.7332C194.12 93.769 194.647 93.7422 195.104 93.6531C195.613 93.5349 195.967 93.1145 196.168 92.3919C196.213 92.2313 196.226 92.1053 196.208 92.0139L196.362 91.9269C197.799 91.1152 199.222 90.4294 200.631 89.8697C202.092 89.2811 203.526 88.9444 204.934 88.8598C206.381 88.7863 207.796 88.9849 209.179 89.4556C210.602 89.9375 212.025 90.8086 213.448 92.0689L213.552 92.1626L213.528 94.8156L212.989 95.12C213.234 95.7936 213.191 96.495 212.859 97.2243C212.577 97.9246 212.216 98.6026 211.774 99.2583C211.333 99.914 210.922 100.535 210.543 101.122C210.175 101.668 210.072 102.115 210.235 102.463C210.358 102.8 210.686 103.021 211.219 103.126C211.792 103.242 212.245 103.324 212.577 103.373C213.021 103.021 213.568 102.762 214.22 102.597C214.911 102.444 215.577 102.304 216.217 102.179C216.897 102.066 217.497 101.93 218.017 101.771C218.548 101.573 218.884 101.299 219.024 100.948C219.633 101.247 220.16 101.372 220.606 101.323C221.064 101.234 221.463 101.042 221.804 100.748C222.145 100.454 222.472 100.134 222.785 99.7879C223.108 99.4021 223.44 99.062 223.782 98.7676C224.174 98.4442 224.599 98.2379 225.056 98.1488C225.514 98.0596 226.072 98.15 226.732 98.4199C227.912 97.7531 229.18 97.3919 230.536 97.3363C231.944 97.2516 233.295 97.3677 234.591 97.6846C235.526 97.901 236.09 98.3605 236.284 99.0631C236.489 99.7255 236.48 100.458 236.257 101.261C235.967 102.305 235.447 103.242 234.698 104.071C233.948 104.901 233.133 105.734 232.252 106.57C231.371 107.406 230.539 108.3 229.756 109.25C228.973 110.2 228.397 111.337 228.029 112.662C227.996 112.782 227.934 113.003 227.845 113.324C227.767 113.605 227.704 113.912 227.654 114.244C227.616 114.537 227.579 114.829 227.541 115.121C227.554 115.384 227.61 115.573 227.708 115.686C227.846 115.811 227.97 115.911 228.079 115.984L227.711 116.141C228.601 116.518 229.374 116.928 230.029 117.369C230.696 117.771 231.501 117.908 232.445 117.781C232.708 117.768 232.966 117.774 233.218 117.801C233.51 117.839 233.788 117.851 234.051 117.838C234.423 117.898 234.683 117.819 234.83 117.601C234.989 117.342 235.202 117.12 235.469 116.935C235.788 116.721 236.217 116.58 236.754 116.513C237.343 116.418 238.219 116.531 239.384 116.855L239.651 115.891C240.521 115.874 241.287 115.762 241.95 115.557C242.623 115.312 243.266 115.101 243.877 114.925C244.528 114.76 245.197 114.686 245.884 114.704C246.611 114.733 247.454 114.968 248.413 115.407ZM291.402 118.79C290.94 119.051 290.581 119.254 290.325 119.399C290.108 119.555 289.892 119.711 289.676 119.867C289.511 119.994 289.3 120.13 289.043 120.275C288.827 120.431 288.482 120.66 288.01 120.961C287.599 121.193 287.203 121.45 286.822 121.734C286.44 122.017 286.03 122.249 285.591 122.429C285.142 122.175 284.744 122.129 284.396 122.292C284.088 122.466 283.769 122.68 283.439 122.934C283.161 123.16 282.882 123.385 282.603 123.61C282.375 123.806 282.127 123.845 281.857 123.727C280.748 123.981 279.657 124.175 278.581 124.309C277.518 124.403 276.444 124.688 275.36 125.165L275.012 124.549L267.912 125.82C267.689 125.845 267.455 125.909 267.21 126.014C266.964 126.119 266.725 126.204 266.49 126.268C265.473 126.505 264.427 126.69 263.352 126.823C262.329 126.928 261.31 127.013 260.298 127.077L259.448 127.101C259.546 127.993 259.39 128.555 258.98 128.787C258.569 129.019 258.04 129.131 257.394 129.125C256.758 129.078 256.073 128.974 255.34 128.813C254.606 128.653 254.005 128.637 253.536 128.766C253.077 128.552 252.586 128.373 252.064 128.228C251.571 128.134 251.053 128.055 250.509 127.99C249.924 127.914 249.391 127.809 248.91 127.675C248.428 127.541 247.923 127.336 247.394 127.06L247.274 127.026C246.502 127.158 245.883 127.051 245.417 126.705C244.98 126.41 244.616 126.007 244.326 125.494C244.048 124.94 243.806 124.333 243.6 123.67C243.447 122.979 243.256 122.342 243.029 121.76C242.877 121.372 242.704 120.826 242.51 120.124C242.316 119.421 242.194 118.695 242.142 117.946C242.051 117.185 242.08 116.458 242.229 115.765C242.35 115.02 242.663 114.436 243.17 114.015C243.676 113.593 244.133 113.115 244.542 112.58C244.91 112.033 245.205 111.359 245.428 110.556C245.506 110.275 245.579 110.014 245.646 109.773C245.673 109.521 245.725 109.254 245.803 108.973C246.004 109.029 246.219 109.111 246.449 109.218C246.69 109.285 246.91 109.346 247.111 109.402C247.363 109.429 247.566 109.398 247.72 109.311C247.925 109.196 248.078 108.957 248.178 108.596C248.234 108.395 248.199 108.212 248.071 108.047C247.985 107.893 247.938 107.75 247.931 107.619C248.272 107.324 248.571 107.105 248.828 106.96C249.135 106.786 249.398 106.621 249.614 106.465C249.841 106.268 250.034 106.041 250.193 105.782C250.362 105.483 250.459 105.056 250.484 104.501C251.2 103.792 251.968 103.205 252.789 102.741C253.661 102.248 254.537 101.821 255.416 101.46C256.305 101.059 257.21 100.683 258.129 100.333C259.048 99.9829 259.938 99.5815 260.799 99.1288C261.472 99.6619 262.074 99.8292 262.605 99.6308C263.176 99.4435 263.693 99.2194 264.154 98.9584C264.627 98.6574 265.078 98.4366 265.506 98.2961C265.934 98.1557 266.388 98.3899 266.868 98.9988L266.955 99.1527C268.34 98.37 269.557 98.1894 270.608 98.6111C271.699 99.0439 272.542 99.6673 273.137 100.481C273.773 101.307 274.099 102.154 274.117 103.024C274.146 103.854 273.78 104.314 273.02 104.406C273.338 104.97 273.414 105.553 273.247 106.156C273.08 106.758 272.774 107.235 272.33 107.587C271.835 107.969 271.374 108.381 270.948 108.825C270.574 109.24 270.168 109.689 269.73 110.173C269.072 110.985 268.385 111.745 267.669 112.455C266.964 113.124 266.092 113.617 265.053 113.933C264.386 113.532 263.862 113.473 263.481 113.756C263.139 114.05 262.847 114.401 262.604 114.81C262.372 115.178 262.142 115.46 261.915 115.656C261.687 115.852 261.368 115.677 260.958 115.131L260.871 114.977L260.717 115.064C260.307 115.296 259.945 115.584 259.633 115.93C259.361 116.287 259.036 116.521 258.659 116.632C258.332 116.412 257.978 116.205 257.599 116.013C257.22 115.822 256.861 115.635 256.522 115.455C256.287 116.298 255.943 116.916 255.488 117.308C255.033 117.701 254.5 117.985 253.889 118.161C253.329 118.308 252.7 118.393 252.002 118.415C251.315 118.397 250.611 118.44 249.891 118.542C249.221 118.616 248.55 118.775 247.876 119.02C247.254 119.237 246.688 119.641 246.177 120.235C246.456 120.788 246.885 121.188 247.465 121.436C248.056 121.643 248.678 121.816 249.332 121.954C249.996 122.053 250.63 122.185 251.232 122.353C251.874 122.531 252.392 122.848 252.784 123.303L252.828 123.38L252.904 123.336C253.901 123.484 254.886 123.52 255.859 123.444C256.882 123.339 257.866 123.223 258.809 123.096C259.804 122.94 260.788 122.824 261.76 122.748C262.784 122.644 263.8 122.645 264.808 122.752C264.919 123.129 265.13 123.382 265.44 123.512C265.79 123.652 266.137 123.727 266.481 123.736L266.574 123.632C266.733 123.373 266.88 123.155 267.016 122.976C267.163 122.758 267.356 122.53 267.595 122.294C267.999 121.93 268.435 121.684 268.903 121.555C269.371 121.425 269.843 121.362 270.318 121.364C270.833 121.378 271.358 121.437 271.891 121.542C272.424 121.646 272.962 121.731 273.506 121.796L273.627 121.829L273.737 121.666C274.032 121.228 274.322 120.963 274.607 120.869C274.944 120.747 275.264 120.684 275.567 120.682C275.911 120.691 276.249 120.72 276.581 120.769C276.954 120.829 277.328 120.804 277.705 120.692C278.361 121.134 278.985 121.221 279.579 120.953C280.172 120.686 280.751 120.393 281.315 120.074L281.63 120.81L281.877 120.619C282.636 120.224 283.194 119.926 283.553 119.723C283.953 119.531 284.321 119.374 284.657 119.251C285.005 119.088 285.388 118.957 285.805 118.856C286.273 118.727 286.91 118.536 287.715 118.284C288.378 118.079 289.02 117.869 289.642 117.652C290.305 117.447 290.958 117.196 291.603 116.9C291.781 117.036 291.837 117.224 291.77 117.465C291.714 117.666 291.659 117.867 291.603 118.067C291.54 118.136 291.467 118.246 291.382 118.395C291.337 118.556 291.344 118.687 291.402 118.79ZM268.563 104.335C268.534 104.284 268.5 104.253 268.46 104.241C268.46 104.241 268.445 104.216 268.416 104.164C267.696 103.489 267.049 103.093 266.476 102.977C265.914 102.82 265.347 102.836 264.776 103.023C264.257 103.182 263.729 103.446 263.194 103.816C262.71 104.157 262.191 104.467 261.638 104.746C261.136 104.996 260.576 105.143 259.958 105.187C259.341 105.232 258.664 105.022 257.928 104.558C257.629 105.167 257.33 105.776 257.031 106.385C256.783 106.965 256.55 107.57 256.332 108.202C255.582 108.253 254.945 108.443 254.421 108.773C253.937 109.115 253.482 109.507 253.056 109.951C252.67 110.406 252.273 110.901 251.865 111.436C251.508 111.943 251.077 112.406 250.57 112.828L250.727 113.196C250.91 113.16 251.074 113.271 251.219 113.527C251.364 113.784 251.466 113.963 251.524 114.066C252.144 113.546 252.876 113.166 253.722 112.925C254.607 112.696 255.481 112.506 256.345 112.357C257.259 112.178 258.139 111.969 258.984 111.728C259.83 111.487 260.533 111.056 261.096 110.433C262.481 110.429 263.645 109.974 264.588 109.069C265.532 108.163 266.386 107.19 267.151 106.148C267.299 105.93 267.534 105.628 267.857 105.242C268.232 104.827 268.467 104.525 268.563 104.335ZM323.63 134.751C322.584 134.936 321.811 135.305 321.312 135.858C320.812 136.411 320.367 137.001 319.977 137.628C319.627 138.266 319.222 138.867 318.762 139.431C318.354 139.966 317.673 140.317 316.718 140.485C316.316 141.151 315.776 141.542 315.095 141.655C314.455 141.78 313.78 141.874 313.071 141.936C312.373 141.959 311.713 142.078 311.091 142.294C310.508 142.522 310.095 143.077 309.849 143.96C308.924 144.179 307.929 144.335 306.865 144.428C305.841 144.533 304.785 144.521 303.697 144.391C302.637 144.313 301.611 144.114 300.619 143.795C299.626 143.476 298.739 143.013 297.956 142.407C297.432 141.958 296.95 141.435 296.511 140.837C296.355 140.621 296.193 140.425 296.026 140.249C295.888 140.124 295.746 139.933 295.601 139.677C295.253 139.061 295.008 138.387 294.865 137.656C294.722 136.924 294.651 136.169 294.651 135.391C294.651 134.612 294.691 133.845 294.772 133.089C294.852 132.333 294.941 131.623 295.04 130.958L298.941 125.555C298.033 124.308 297.386 122.982 296.998 121.577C296.621 120.132 296.056 118.742 295.302 117.409C295.023 117.634 294.695 117.802 294.318 117.914C293.941 118.025 293.732 118.313 293.689 118.777L294.141 119.486C292.414 120.563 290.612 121.835 288.734 123.303C286.907 124.741 285.356 126.278 284.08 127.913C283.208 127.627 282.524 127.675 282.029 128.056C281.545 128.397 281.099 128.836 280.691 129.371C280.294 129.866 279.848 130.304 279.352 130.686C278.857 131.067 278.199 131.1 277.379 130.786C277.055 131.172 276.72 131.598 276.375 132.064C276.04 132.49 275.671 132.884 275.267 133.248C274.864 133.611 274.422 133.878 273.942 134.047C273.452 134.257 272.905 134.278 272.303 134.111C272.071 133.7 271.985 133.309 272.046 132.937C272.106 132.564 272.246 132.214 272.467 131.886C272.699 131.518 272.966 131.181 273.267 130.876C273.579 130.53 273.826 130.188 274.006 129.849C274.651 128.774 275.523 127.892 276.623 127.203C277.734 126.473 278.839 125.764 279.938 125.075C281.049 124.346 282.051 123.543 282.943 122.667C283.835 121.79 284.416 120.633 284.686 119.194C285.219 119.299 285.769 119.344 286.336 119.328C286.953 119.284 287.522 119.182 288.042 119.024C288.613 118.836 289.08 118.555 289.444 118.181C289.859 117.777 290.115 117.243 290.213 116.578C289.937 116.329 289.817 116.058 289.855 115.765C289.904 115.433 289.994 115.112 290.123 114.802C291.084 114.766 291.921 114.48 292.632 113.942C293.395 113.376 294.109 112.753 294.774 112.072C295.438 111.392 296.083 110.706 296.708 110.015C297.383 109.295 298.146 108.728 298.996 108.316C299.469 108.793 299.953 109.23 300.448 109.627C300.954 109.984 301.418 110.416 301.84 110.922C301.344 111.303 300.995 111.704 300.792 112.123C300.589 112.542 300.421 112.993 300.287 113.475C300.164 113.916 300.042 114.358 299.919 114.799C299.796 115.241 299.547 115.669 299.173 116.084C299.659 116.825 300.017 117.638 300.246 118.523C300.476 119.408 300.86 120.207 301.397 120.919C301.979 120.691 302.571 120.661 303.174 120.828C303.787 120.956 304.389 121.123 304.98 121.33C305.622 121.509 306.236 121.636 306.82 121.712C307.416 121.748 307.972 121.535 308.49 121.073C308.606 121.278 308.824 121.425 309.145 121.515C309.466 121.604 309.788 121.693 310.109 121.782C310.43 121.872 310.694 122.01 310.902 122.197C311.12 122.345 311.211 122.564 311.173 122.856C311.123 123.189 311.042 123.404 310.928 123.502C310.855 123.611 310.739 123.795 310.58 124.054C310.411 124.353 310.346 124.508 310.386 124.519C310.426 124.53 310.347 124.66 310.149 124.907C309.803 125.373 309.339 125.72 308.757 125.948C308.215 126.186 307.653 126.419 307.071 126.647C306.54 126.845 306.012 127.109 305.488 127.439C305.015 127.74 304.69 128.212 304.511 128.854C303.539 128.93 302.783 129.239 302.243 129.781C301.714 130.283 301.278 130.918 300.934 131.688C300.602 132.417 300.299 133.198 300.024 134.03C299.761 134.821 299.414 135.525 298.984 136.141L299.358 136.893L300.007 136.425C300.346 137.384 300.869 138.07 301.576 138.483C302.323 138.907 303.13 139.195 303.995 139.349C304.564 138.859 305.159 138.505 305.782 138.289C306.444 138.084 307.11 137.945 307.779 137.871C308.488 137.809 309.192 137.766 309.89 137.744C310.628 137.733 311.337 137.671 312.018 137.557C312.566 137.45 313.04 137.3 313.44 137.109C313.879 136.928 314.35 136.713 314.852 136.463C316.368 135.674 317.859 134.899 319.325 134.138C320.83 133.389 322.341 132.62 323.858 131.83C324.099 131.897 324.226 132.062 324.239 132.325C324.253 132.589 324.215 132.881 324.126 133.202C324.048 133.483 323.944 133.779 323.814 134.089C323.736 134.37 323.675 134.59 323.63 134.751Z" fill="#F0F0F0"/>
</svg>
