<svg width="201" height="80" viewBox="0 0 201 80" fill="none" xmlns="http://www.w3.org/2000/svg">
<path d="M17.3688 56.9229C17.1163 57.2761 16.9169 57.5635 16.7707 57.7853C16.6416 57.993 16.5075 58.1688 16.3686 58.3128C16.2466 58.4427 16.1021 58.5627 15.9349 58.6726C15.7848 58.7685 15.5695 58.8897 15.2891 59.0363C15.1035 59.1759 14.9201 59.2922 14.7388 59.3852C14.5886 59.4811 14.4399 59.5614 14.2927 59.6262C14.161 59.6924 14.0562 59.7219 13.9785 59.7147C13.9473 59.7118 13.9169 59.7011 13.8873 59.6826C13.8562 59.6797 13.825 59.6768 13.7939 59.674C13.7006 59.6653 13.6072 59.6566 13.5139 59.6479C13.4347 59.6562 13.3697 59.5953 13.3191 59.465C13.268 59.5073 13.2241 59.5582 13.1872 59.6175C13.1503 59.6768 13.1141 59.7284 13.0786 59.7722C13.0417 59.8315 12.9907 59.8739 12.9256 59.8992C12.876 59.926 12.806 59.9194 12.7156 59.8796L12.6119 59.7288L12.2336 59.9996C11.8183 59.7412 11.4156 59.5155 11.0255 59.3223C10.6496 59.1461 10.3155 58.9424 10.0231 58.7112C9.73081 58.48 9.4902 58.1987 9.30134 57.8672C9.11392 57.5203 8.99959 57.0624 8.95835 56.4936C8.88924 56.393 8.81091 56.3073 8.72335 56.2364C8.63724 56.1499 8.53051 56.1164 8.40315 56.136C8.22297 56.386 8.01529 56.5942 7.78011 56.7606C7.54493 56.9271 7.30831 57.1091 7.07024 57.3066C6.98521 57.3772 6.91502 57.4569 6.85966 57.5459C6.80431 57.6349 6.73412 57.7147 6.64909 57.7853C6.5116 57.9137 6.3544 58.0011 6.17747 58.0474C6.00199 58.0782 5.82651 58.1089 5.65104 58.1397C5.47556 58.1704 5.30497 58.233 5.13926 58.3274C4.9891 58.4233 4.87061 58.6006 4.78378 58.8593C4.60721 58.733 4.42341 58.6846 4.23238 58.7139C4.08946 58.7319 3.93877 58.7493 3.7803 58.766C3.62038 58.7982 3.46263 58.807 3.30705 58.7925C3.16558 58.7951 3.02701 58.7665 2.89133 58.7068C2.75565 58.6471 2.6406 58.5344 2.54616 58.3687C2.31967 58.4418 2.11814 58.4152 1.94158 58.2889C1.76357 58.1782 1.59696 58.0293 1.44174 57.8423C1.30353 57.6411 1.16604 57.4321 1.02928 57.2154C0.892515 56.9987 0.758465 56.8371 0.627128 56.7308C0.556938 56.4732 0.584255 56.2639 0.70908 56.1028C0.819794 55.9248 0.944619 55.7638 1.08355 55.6198C1.20838 55.4588 1.30137 55.3027 1.36251 55.1515C1.42511 54.9847 1.37391 54.7759 1.20893 54.5252C1.38621 54.3063 1.54867 54.0782 1.69629 53.8408C1.84535 53.5879 1.99369 53.3428 2.14131 53.1054C2.30594 52.854 2.46912 52.6181 2.63085 52.3977C2.80958 52.1633 3.01581 51.9706 3.24954 51.8197C3.16633 51.7022 3.12906 51.5967 3.13774 51.5033C3.14787 51.3944 3.18062 51.2955 3.23598 51.2065C3.29278 51.1019 3.35664 51.0059 3.42756 50.9183C3.49992 50.8152 3.556 50.7184 3.5958 50.6279L4.30296 50.3642L4.1917 49.7889C4.35994 49.8359 4.48513 49.8397 4.56726 49.8003C4.66495 49.7623 4.73369 49.6981 4.77349 49.6076C4.82885 49.5186 4.86937 49.4204 4.89506 49.313C4.93776 49.1914 4.98678 49.0861 5.04214 48.9971C5.13295 48.8643 5.25904 48.774 5.42041 48.7263C5.77028 48.5077 6.11382 48.2729 6.45103 48.0218C6.8038 47.7722 7.14806 47.5296 7.48382 47.2941C7.83514 47.06 8.19279 46.8422 8.55677 46.6406C8.9222 46.4236 9.31512 46.2483 9.73555 46.1147C10.0112 46.1875 10.2211 46.2933 10.3651 46.4322C10.5247 46.5726 10.6354 46.732 10.6972 46.9104C10.7747 47.0902 10.8266 47.2912 10.853 47.5133C10.8809 47.7199 10.9087 47.9265 10.9366 48.1331C10.9898 48.4048 11.0621 48.6391 11.1537 48.8359C11.2452 49.0328 11.4174 49.2057 11.6703 49.3548C11.4178 49.7079 11.2975 50.0733 11.3094 50.451C11.3228 50.8132 11.334 51.1987 11.3431 51.6076C11.355 51.9853 11.3132 52.3502 11.2177 52.7022C11.1377 53.0557 10.8825 53.3537 10.4519 53.5961C10.4107 53.7021 10.392 53.818 10.396 53.944C10.4 54.0699 10.3962 54.1951 10.3846 54.3195C10.373 54.444 10.3388 54.5585 10.282 54.6631C10.2252 54.7676 10.1317 54.8452 10.0015 54.8959C10.1256 55.08 10.1796 55.2577 10.1637 55.4288C10.1634 55.6014 10.1559 55.7655 10.1415 55.9211C10.1426 56.0781 10.1684 56.2217 10.2191 56.352C10.2853 56.4837 10.4477 56.5929 10.7064 56.6798C10.7343 56.8864 10.7587 57.0456 10.7797 57.1574C10.8177 57.2551 10.8571 57.3372 10.898 57.4038C10.9545 57.4718 11.0265 57.5413 11.114 57.6122C11.203 57.6675 11.3202 57.7569 11.4657 57.8803C11.5873 57.923 11.7273 57.936 11.8857 57.9193C12.0442 57.9027 12.1643 57.961 12.2461 58.0941C12.3311 58.0236 12.4281 57.9933 12.537 58.0035C12.6474 57.998 12.7485 58.0075 12.8404 58.0317L13.096 58.5733C13.2787 58.4648 13.4833 58.374 13.7098 58.3009C13.9363 58.2278 14.1536 58.1695 14.3616 58.1261C14.6008 58.0856 14.8392 58.0529 15.0769 58.0279L17.3688 56.9229ZM9.14995 48.1081C8.99835 48.2196 8.81564 48.3281 8.60181 48.4338C8.38798 48.5394 8.17342 48.6528 7.95815 48.774C7.75843 48.8967 7.5806 49.0371 7.42466 49.1952C7.27016 49.3377 7.16723 49.5165 7.11585 49.7314C6.75223 49.7603 6.48956 49.885 6.32783 50.1053C6.1661 50.3257 6.02553 50.5715 5.90614 50.8429C5.78674 51.1142 5.65956 51.3849 5.5246 51.6548C5.3911 51.9091 5.17708 52.1011 4.88257 52.2306C4.78343 52.2841 4.69497 52.3073 4.61718 52.3001C4.63274 52.3015 4.58317 52.3283 4.46848 52.3804C4.28576 52.4889 4.12349 52.6307 3.98166 52.8059C3.83983 52.981 3.71211 53.1731 3.5985 53.3822C3.50045 53.5928 3.40168 53.8112 3.30218 54.0373C3.21969 54.2493 3.13864 54.4458 3.05904 54.6267C2.83834 54.6375 2.67064 54.669 2.55594 54.7211C2.44125 54.7732 2.36473 54.8367 2.32637 54.9116C2.30503 54.9724 2.30557 55.0509 2.328 55.1471C2.35043 55.2434 2.3877 55.3488 2.4398 55.4635C2.49335 55.5627 2.54545 55.6774 2.5961 55.8076C2.66231 55.9393 2.71296 56.0696 2.74806 56.1984C2.78316 56.3272 2.79491 56.4538 2.78334 56.5783C2.78731 56.7042 2.74534 56.818 2.65742 56.9196C2.85931 57.111 3.06573 57.1695 3.27666 57.0949C3.48904 57.0048 3.68659 56.9055 3.86931 56.797C3.93588 56.7561 4.00245 56.7152 4.06903 56.6743C4.1526 56.6193 4.23474 56.5799 4.31542 56.556C4.66601 56.6671 4.9949 56.6742 5.30208 56.5772C5.60925 56.4802 5.89743 56.3344 6.16662 56.1398C6.43581 55.9451 6.69866 55.7342 6.95519 55.507C7.21171 55.2797 7.46534 55.0836 7.71608 54.9187L7.54675 54.7146C7.83403 54.6629 8.03791 54.5798 8.15839 54.4655C8.29588 54.3371 8.38814 54.1887 8.43518 54.0205C8.48221 53.8522 8.49886 53.6733 8.48511 53.4837C8.47281 53.2786 8.46901 53.0664 8.47371 52.8471C8.46973 52.7212 8.47281 52.6038 8.48294 52.4949C8.51008 52.3719 8.55277 52.2503 8.61102 52.1302C8.51985 51.7608 8.52835 51.4163 8.63653 51.0969C8.76027 50.7788 8.9059 50.4785 9.07342 50.196C9.25795 49.8993 9.43469 49.6019 9.60366 49.3037C9.77262 49.0056 9.87303 48.6854 9.90487 48.3431L9.14995 48.1081Z" fill="white"/>
<path d="M26.8493 46.0355C26.6427 46.0634 26.4925 46.1593 26.3988 46.3232C26.3221 46.473 26.2595 46.6397 26.211 46.8235C26.1781 47.0088 26.1452 47.194 26.1123 47.3793C26.0949 47.566 26.05 47.7109 25.9777 47.814C25.9053 47.9171 25.7913 47.9614 25.6358 47.947C25.4957 47.9339 25.2873 47.8126 25.0105 47.5828C24.7971 47.5159 24.6495 47.4158 24.5677 47.2827C24.4874 47.134 24.4311 46.9797 24.3989 46.8197C24.3682 46.6443 24.3452 46.4695 24.33 46.2955C24.3162 46.1059 24.277 45.9375 24.2122 45.7902L25.6857 44.3737C25.8807 44.4703 26.0354 44.5789 26.1497 44.6994C26.264 44.8198 26.3536 44.9537 26.4184 45.101C26.4831 45.2482 26.5472 45.4033 26.6105 45.5661C26.6752 45.7133 26.7548 45.8698 26.8493 46.0355ZM33.0715 57.8423C32.6138 58.2077 32.1809 58.5598 31.7727 58.8984C31.3802 59.2385 30.9806 59.5701 30.5739 59.8932C30.1687 60.2008 29.7486 60.4991 29.3137 60.7882C28.8944 61.0787 28.4298 61.3493 27.92 61.6001C27.6722 61.7339 27.4258 61.8522 27.1808 61.955C26.9359 62.0577 26.6761 62.1513 26.4015 62.2356C26.3208 62.2594 26.2401 62.2833 26.1594 62.3072C26.0787 62.3311 25.9981 62.355 25.9174 62.3788C25.8197 62.4168 25.6547 62.5035 25.4224 62.6388C25.1887 62.7897 25.006 62.8982 24.8743 62.9644C24.5117 63.1504 24.1322 63.3505 23.7357 63.5647C23.3532 63.7959 22.9997 64.0533 22.6752 64.337C22.3506 64.6206 22.0854 64.9412 21.8796 65.2986C21.6567 65.6702 21.5391 66.0908 21.5268 66.5604C21.2493 66.6759 21.0375 66.8445 20.8913 67.0663C20.7437 67.3036 20.6335 67.5601 20.5608 67.8358C20.488 68.1115 20.4309 68.3887 20.3893 68.6673C20.3306 68.96 20.2664 69.2286 20.1966 69.4732C20.151 69.6259 20.0998 69.7545 20.043 69.8591C19.9862 69.9636 19.9202 70.083 19.8449 70.2173C19.8095 70.261 19.7903 70.2985 19.7874 70.3296C19.7845 70.3607 19.7738 70.3911 19.7554 70.4208C19.6276 70.6129 19.5106 70.7746 19.4042 70.906C19.2964 71.0529 19.2698 71.2544 19.3244 71.5106C19.1349 71.5243 19.0194 71.5842 18.9782 71.6902C18.9199 71.8103 18.8914 71.9489 18.8924 72.1059C18.878 72.2615 18.8635 72.4171 18.849 72.5726C18.8331 72.7438 18.7664 72.871 18.6488 72.9542C18.5087 72.9411 18.4047 72.9629 18.3367 73.0193C18.2517 73.0898 18.1815 73.1696 18.1261 73.2586C18.0693 73.3632 18.0203 73.4685 17.979 73.5745C17.9222 73.679 17.8591 73.7673 17.7896 73.8393C17.7053 74.2395 17.5624 74.595 17.3609 74.9058C17.1424 75.2307 16.9168 75.5471 16.6841 75.855C16.4359 76.1614 16.2033 76.4693 15.9862 76.7787C15.7677 77.1036 15.6092 77.4576 15.5108 77.8408C15.3519 78.03 15.1924 78.227 15.0321 78.4318C14.8563 78.6351 14.6755 78.8066 14.4899 78.9463C14.2873 79.1 14.0728 79.2135 13.8463 79.2866C13.6183 79.3752 13.358 79.3902 13.0653 79.3316C12.6185 79.243 12.2051 79.0476 11.8252 78.7455C11.4438 78.4589 11.0994 78.113 10.7919 77.7078C10.4843 77.3026 10.2186 76.8698 9.99462 76.4096C9.76921 75.9649 9.58831 75.548 9.45191 75.1586C9.57094 75.0599 9.64403 74.949 9.67117 74.826C9.68274 74.7015 9.67171 74.5671 9.63806 74.4227C9.60297 74.2939 9.56009 74.1644 9.50944 74.0341C9.44323 73.9024 9.40813 73.7736 9.40415 73.6477C9.70482 73.2834 9.90798 72.8707 10.0136 72.4098C10.1037 71.9474 10.232 71.4964 10.3984 71.0568C10.7298 70.8679 11.0148 70.5884 11.2532 70.2183C11.4916 69.8482 11.5823 69.4643 11.5251 69.0667C11.7874 68.7772 12.1027 68.5084 12.4711 68.2602C12.8238 68.0106 13.1844 67.7616 13.5527 67.5134C13.9055 67.2638 14.2441 66.9971 14.5687 66.7135C14.8762 66.4439 15.1166 66.1368 15.2899 65.7919C15.5515 65.8477 15.7659 65.8205 15.933 65.7105C16.0987 65.6161 16.2581 65.5054 16.4112 65.3784C16.5642 65.2514 16.725 65.1251 16.8936 64.9996C17.0452 64.8882 17.2392 64.8277 17.4754 64.8183C17.5663 64.6855 17.6811 64.5471 17.8201 64.4031C17.9576 64.2747 18.1084 64.171 18.2727 64.0922C18.4369 64.0133 18.6046 63.9818 18.7758 63.9977C18.9314 64.0122 19.0882 64.0974 19.2463 64.2534C19.4442 64.3188 19.6119 64.2874 19.7494 64.1589C19.8699 64.0446 19.984 63.914 20.0919 63.7671C20.1982 63.6358 20.3095 63.5363 20.4256 63.4686C20.5262 63.3995 20.6626 63.4514 20.8348 63.6244C20.9836 63.544 21.0878 63.436 21.1475 63.3004C21.1916 63.1632 21.1735 63.0203 21.0932 62.8716C21.5422 61.9248 21.9601 60.975 22.3469 60.0224C22.7166 59.0838 23.0956 58.1305 23.4839 57.1623L24.2518 55.2329C24.2945 55.1113 24.3379 54.982 24.3821 54.8449C24.4432 54.6936 24.5036 54.5502 24.5633 54.4145C24.6216 54.2944 24.6876 54.175 24.7614 54.0563C24.8508 53.9391 24.9402 53.8219 25.0295 53.7046C25.1728 53.514 25.3224 53.3396 25.4783 53.1815C25.6343 53.0233 25.7929 52.9204 25.9543 52.8727C26.1327 52.8108 26.3038 52.8267 26.4677 52.9204C26.6331 52.9986 26.7883 53.1856 26.9334 53.4816C26.8364 53.8492 26.7295 54.2394 26.6126 54.6522C26.5128 55.0509 26.3896 55.4475 26.243 55.8418C26.0965 56.2362 25.9203 56.6121 25.7144 56.9696C25.5256 57.313 25.2929 57.6209 25.0165 57.8933C25.1134 58.2005 25.1348 58.4771 25.0805 58.7231C25.0263 58.9691 24.9494 59.2052 24.8499 59.4314C24.7504 59.6575 24.6431 59.8829 24.528 60.1076C24.4115 60.3478 24.348 60.6087 24.3375 60.8902C24.2525 60.9607 24.1519 61.0298 24.0358 61.0975C23.9338 61.1822 23.8925 61.2882 23.912 61.4155C24.0405 61.553 24.2746 61.5669 24.6143 61.4573C24.9541 61.3477 25.3215 61.1936 25.7166 60.9949C26.1102 60.8118 26.489 60.6195 26.853 60.418C27.2311 60.2335 27.5072 60.1336 27.6812 60.1184C27.6389 60.0674 27.5895 60.0079 27.533 59.9399C27.4922 59.8733 27.4916 59.7948 27.5314 59.7043C27.9392 59.5383 28.2796 59.4209 28.5528 59.3521C28.8415 59.2848 29.114 59.2239 29.3701 59.1692C29.6277 59.099 29.8883 58.9977 30.1517 58.8653C30.4306 58.7343 30.7564 58.5214 31.1291 58.2265C31.3856 57.9993 31.6886 57.8628 32.0381 57.8168C32.3891 57.7553 32.7335 57.7638 33.0715 57.8423ZM20.4023 65.4908C20.0799 65.4137 19.804 65.4273 19.5747 65.5315C19.3453 65.6357 19.1363 65.7731 18.9478 65.9439C18.7593 66.1147 18.5786 66.2862 18.4056 66.4584C18.2171 66.6292 18.0111 66.7356 17.7875 66.7775C17.6757 66.7985 17.5583 66.7954 17.4353 66.7683C17.2967 66.7397 17.1737 66.7126 17.0662 66.6869C16.9418 66.6753 16.8307 66.6885 16.733 66.7265C16.6183 66.7786 16.5219 66.8873 16.4437 67.0527C16.1973 67.171 15.9869 67.324 15.8125 67.5118C15.6382 67.6996 15.4715 67.8881 15.3127 68.0773C15.1383 68.2651 14.9498 68.4359 14.7472 68.5896C14.5446 68.7434 14.2911 68.8532 13.9869 68.9191C13.7072 69.3952 13.3985 69.8451 13.061 70.2688C12.7078 70.691 12.3781 71.1154 12.0716 71.542C11.7637 71.9841 11.5088 72.4469 11.3069 72.9303C11.0895 73.4122 10.9759 73.9587 10.9661 74.5698C11.1213 74.7569 11.2673 74.9588 11.4041 75.1755C11.5394 75.4078 11.6839 75.6252 11.8377 75.8278C11.9744 76.0445 12.1367 76.2401 12.3245 76.4145C12.4967 76.5874 12.7044 76.7166 12.9475 76.802C12.9928 76.8219 13.0769 76.8454 13.1999 76.8726C13.3073 76.8982 13.3851 76.9055 13.4333 76.8943C13.6384 76.882 13.8104 76.8038 13.9494 76.6598C14.0869 76.5314 14.2117 76.3704 14.3239 76.1768C14.436 75.9832 14.5404 75.7889 14.637 75.5939C14.7181 75.3975 14.8118 75.2336 14.9181 75.1022C15.2141 74.9571 15.45 74.7829 15.6258 74.5796C15.8017 74.3763 15.9556 74.1552 16.0877 73.9164C16.2197 73.6776 16.3448 73.4303 16.4627 73.1745C16.5651 72.9173 16.7057 72.6714 16.8844 72.437L16.7384 72.2351L17.3294 71.7016C17.1362 71.4168 17.078 71.1996 17.1547 71.0498C17.2299 70.9155 17.3519 70.7857 17.5205 70.6601C17.6876 70.5501 17.8484 70.4238 18.0029 70.2813C18.1404 70.1529 18.1748 69.952 18.1061 69.6789C18.3282 69.6525 18.4832 69.5884 18.5712 69.4868C18.6435 69.3836 18.6869 69.2543 18.7014 69.0987C18.6989 68.9572 18.6815 68.8066 18.6493 68.6466C18.6171 68.4867 18.6083 68.329 18.6227 68.1734C18.6372 68.0178 18.6898 67.8736 18.7807 67.7408C18.87 67.6236 19.035 67.537 19.2756 67.4809C19.1743 67.2204 19.172 66.9926 19.2686 66.7976C19.3482 66.6167 19.4652 66.455 19.6197 66.3124C19.7742 66.1699 19.9357 66.0358 20.1043 65.9103C20.2574 65.7833 20.3567 65.6434 20.4023 65.4908Z" fill="white"/>
<path d="M47.7835 55.021C47.6305 55.148 47.5115 55.2468 47.4264 55.3174C47.357 55.3894 47.2875 55.4614 47.218 55.5334C47.1656 55.5912 47.0968 55.6555 47.0118 55.726C46.9423 55.798 46.8303 55.9053 46.6758 56.0478C46.5398 56.1607 46.4108 56.2821 46.2889 56.412C46.167 56.5419 46.0309 56.6548 45.8808 56.7507C45.6984 56.6866 45.5484 56.6962 45.4309 56.7794C45.3288 56.8641 45.2253 56.9643 45.1204 57.0801C45.0325 57.1818 44.9446 57.2834 44.8567 57.3851C44.7857 57.4727 44.6966 57.5036 44.5891 57.4779C44.1969 57.6454 43.8069 57.7896 43.419 57.9104C43.0326 58.0157 42.6552 58.1925 42.2869 58.4407L42.1176 58.2366L39.582 59.1777C39.5013 59.2015 39.4192 59.241 39.3356 59.296C39.252 59.351 39.1692 59.3982 39.0871 59.4376C38.7274 59.5925 38.3537 59.7303 37.9658 59.8512C37.5949 59.9579 37.2248 60.0569 36.8554 60.148L36.5433 60.2132C36.6389 60.5359 36.6186 60.7537 36.4826 60.8666C36.3465 60.9795 36.1589 61.0562 35.9198 61.0967C35.6821 61.1217 35.4225 61.1289 35.141 61.1184C34.8595 61.1079 34.6366 61.1421 34.4723 61.221C34.2885 61.1725 34.0955 61.1388 33.8933 61.12C33.7051 61.1182 33.5085 61.1235 33.3033 61.1358C33.0826 61.1466 32.8789 61.1434 32.6922 61.126C32.5055 61.1086 32.3055 61.0665 32.092 60.9995L32.0453 60.9952C31.7693 61.0951 31.5337 61.0967 31.3387 61.0001C31.1578 60.9205 30.9968 60.7957 30.8557 60.6256C30.716 60.44 30.5863 60.2318 30.4666 60.0009C30.3638 59.756 30.2511 59.5337 30.1285 59.3339C30.0467 59.2008 29.9466 59.011 29.8283 58.7646C29.71 58.5182 29.6165 58.2585 29.5478 57.9853C29.4635 57.7107 29.4258 57.4404 29.4349 57.1745C29.4298 56.8915 29.5067 56.6555 29.6655 56.4662C29.8244 56.277 29.9613 56.07 30.0764 55.8454C30.1759 55.6192 30.2401 55.3506 30.269 55.0394C30.2792 54.9305 30.2886 54.8294 30.2973 54.7361C30.2904 54.6413 30.292 54.5394 30.3021 54.4305C30.3799 54.4377 30.4648 54.4535 30.5567 54.4777C30.65 54.4864 30.7356 54.4944 30.8134 54.5016C30.9082 54.4947 30.9811 54.4701 31.0321 54.4278C31.1001 54.3714 31.1406 54.2731 31.1537 54.1331C31.1609 54.0553 31.1356 53.9902 31.0777 53.9377C31.0354 53.8867 31.0086 53.8371 30.9974 53.789C31.1037 53.6577 31.1994 53.5567 31.2845 53.4862C31.3865 53.4015 31.4722 53.3232 31.5417 53.2512C31.6126 53.1636 31.6687 53.0668 31.7099 52.9608C31.7526 52.8393 31.7601 52.6752 31.7322 52.4686C31.9493 52.1593 32.1939 51.8917 32.466 51.6659C32.755 51.426 33.0497 51.2102 33.35 51.0185C33.6518 50.8112 33.9606 50.6123 34.2765 50.422C34.5923 50.2317 34.8941 50.0244 35.1817 49.8001C35.4657 49.952 35.6991 49.9737 35.8818 49.8652C36.0801 49.7581 36.2557 49.6411 36.4088 49.5141C36.5633 49.3715 36.7149 49.2601 36.8636 49.1798C37.0123 49.0994 37.1954 49.1557 37.4128 49.3485L37.4551 49.3996C37.9143 49.0186 38.3517 48.871 38.7674 48.9567C39.1987 49.0439 39.5513 49.2179 39.8252 49.4788C40.1146 49.7411 40.2915 50.0322 40.3559 50.352C40.4218 50.6563 40.3174 50.8506 40.0428 50.9349C40.198 51.122 40.2648 51.3322 40.2431 51.5655C40.2214 51.7989 40.1403 51.9954 39.9999 52.1549C39.8425 52.3286 39.7 52.5115 39.5723 52.7036C39.4615 52.8816 39.3416 53.0745 39.2124 53.2822C39.0236 53.6255 38.8206 53.9519 38.6035 54.2612C38.3879 54.555 38.0988 54.7949 37.7362 54.9808C37.4634 54.877 37.2661 54.89 37.1441 55.0199C37.0378 55.1513 36.9533 55.3003 36.8907 55.4671C36.8296 55.6183 36.7635 55.7377 36.6926 55.8253C36.6217 55.9129 36.4923 55.8694 36.3046 55.6951L36.2622 55.644L36.2112 55.6864C36.0752 55.7993 35.961 55.9299 35.8688 56.0782C35.7921 56.228 35.6879 56.336 35.5562 56.4022C35.4205 56.3425 35.2763 56.2899 35.1236 56.2443C34.9709 56.1987 34.826 56.1538 34.6889 56.1097C34.6585 56.4364 34.5724 56.6873 34.4306 56.8624C34.2887 57.0375 34.1109 57.1779 33.8971 57.2836C33.7003 57.3751 33.4738 57.4482 33.2176 57.5028C32.9629 57.5419 32.706 57.6043 32.4469 57.6901C32.2049 57.7617 31.9677 57.8652 31.7354 58.0005C31.5202 58.1217 31.338 58.3088 31.1889 58.5617C31.3286 58.7473 31.5136 58.8665 31.7441 58.9193C31.976 58.9566 32.2172 58.979 32.4676 58.9866C32.7194 58.9786 32.962 58.9855 33.1953 59.0072C33.4443 59.0304 33.6563 59.1129 33.8314 59.2547L33.8526 59.2802L33.8781 59.2591C34.2558 59.2471 34.6216 59.1948 34.9754 59.1022C35.3463 58.9955 35.7016 58.8873 36.0413 58.7777C36.3981 58.6539 36.7534 58.5458 37.1072 58.4531C37.4781 58.3464 37.8531 58.2793 38.2323 58.2518C38.2985 58.3835 38.3931 58.4629 38.5161 58.49C38.6547 58.5186 38.7877 58.5231 38.915 58.5036L38.9427 58.4591C38.9839 58.3531 39.0237 58.2626 39.0621 58.1878C39.1019 58.0973 39.158 58.0005 39.2303 57.8974C39.3552 57.7364 39.4997 57.6165 39.664 57.5376C39.8282 57.4587 39.9981 57.4039 40.1736 57.3731C40.3646 57.3438 40.562 57.3308 40.7657 57.3341C40.9694 57.3373 41.1738 57.3328 41.3789 57.3205L41.4256 57.3248L41.4555 57.257C41.5351 57.0761 41.6244 56.9589 41.7236 56.9053C41.8397 56.8377 41.9537 56.7933 42.0655 56.7724C42.1928 56.7528 42.3195 56.7411 42.4454 56.7371C42.5868 56.7346 42.7234 56.7002 42.8551 56.634C43.1265 56.7534 43.3628 56.744 43.5639 56.6058C43.7651 56.4675 43.9592 56.3208 44.1463 56.1656L44.3112 56.4163L44.3899 56.3295C44.6436 56.1334 44.8299 55.986 44.9489 55.8872C45.0835 55.7899 45.2089 55.7074 45.325 55.6397C45.4426 55.5565 45.575 55.4825 45.7223 55.4178C45.8866 55.3389 46.1089 55.2262 46.3893 55.0796C46.6201 54.9599 46.8432 54.8394 47.0585 54.7182C47.2893 54.5984 47.5138 54.4624 47.732 54.3101C47.8069 54.3484 47.84 54.4143 47.8313 54.5076C47.8241 54.5854 47.8168 54.6632 47.8096 54.741C47.7911 54.7707 47.7712 54.8159 47.7499 54.8767C47.7441 54.9389 47.7553 54.987 47.7835 55.021ZM38.3935 51.2052C38.3794 51.1882 38.3645 51.1789 38.349 51.1775C38.349 51.1775 38.3419 51.169 38.3278 51.152C38.017 50.9505 37.752 50.8473 37.5327 50.8426C37.3149 50.8224 37.1069 50.8658 36.9086 50.9729C36.7274 51.0659 36.5502 51.1985 36.3773 51.3707C36.2214 51.5288 36.0506 51.6777 35.865 51.8174C35.6964 51.9429 35.4995 52.0344 35.2745 52.092C35.0495 52.1495 34.7857 52.1171 34.4832 51.9948C34.4134 52.2394 34.3436 52.484 34.2737 52.7286C34.2209 52.959 34.1751 53.198 34.1364 53.4455C33.8633 53.5142 33.6409 53.6269 33.4694 53.7836C33.3135 53.9417 33.1717 54.1168 33.0439 54.3089C32.9318 54.5025 32.8182 54.7116 32.7031 54.9363C32.6051 55.1469 32.4766 55.3468 32.3178 55.536L32.4003 55.6614C32.4654 55.6361 32.5332 55.6659 32.6038 55.7509C32.6743 55.836 32.7237 55.8955 32.752 55.9295C32.9462 55.6965 33.1914 55.5074 33.4873 55.3624C33.7989 55.2187 34.1089 55.0906 34.4175 54.9781C34.7432 54.8515 35.054 54.7156 35.3499 54.5705C35.6459 54.4255 35.8769 54.2194 36.043 53.9524C36.5539 53.8587 36.9533 53.6134 37.2413 53.2165C37.5293 52.8196 37.7799 52.4035 37.993 51.9682C38.0328 51.8778 38.0995 51.7506 38.1932 51.5867C38.3039 51.4087 38.3707 51.2815 38.3935 51.2052Z" fill="white"/>
<path d="M61.3809 46.4703C61.1414 46.6834 60.8886 46.7854 60.6227 46.7764C60.3582 46.7518 60.0959 46.7039 59.8358 46.6326C59.5912 46.5627 59.3437 46.524 59.0933 46.5164C58.86 46.4947 58.6461 46.6004 58.4519 46.8334C58.2087 46.748 57.9527 46.7163 57.6839 46.7384C57.4165 46.7449 57.1392 46.774 56.8519 46.8258C56.5661 46.862 56.2803 46.8981 55.9944 46.9343C55.7086 46.9705 55.4264 46.9678 55.1478 46.9262L54.788 46.4925C54.6632 46.6535 54.4974 46.748 54.2909 46.7758C54.1013 46.7896 53.9189 46.7255 53.7438 46.5837C53.3968 46.7711 53.0607 46.8419 52.7354 46.7959C52.4102 46.75 52.092 46.7125 51.7808 46.6836C51.4711 46.6391 51.1697 46.6738 50.8766 46.7878C50.6006 46.8876 50.3453 47.1856 50.1109 47.6816C49.9376 48.0264 49.7713 48.3797 49.6121 48.7415C49.4544 49.0878 49.2966 49.434 49.1389 49.7803C48.7097 50.6819 48.2736 51.5751 47.8304 52.4597C47.4041 53.3302 46.932 54.1886 46.4139 55.0349C46.3176 55.7321 46.2673 56.4414 46.263 57.1628C46.2586 57.8843 46.2628 58.5987 46.2755 59.306C46.1959 59.4869 46.1544 59.6792 46.1512 59.8829C46.1635 60.0881 46.1991 60.2954 46.2581 60.5049C46.3171 60.7144 46.3923 60.9175 46.4839 61.1143C46.5768 61.2956 46.6791 61.462 46.7905 61.6136L47.2475 61.256L47.7549 62.1271C47.9293 61.9393 48.1277 61.7459 48.3503 61.5469C48.5898 61.3338 48.8349 61.1447 49.0856 60.9798C49.3378 60.7992 49.5942 60.6583 49.8547 60.557C50.1322 60.4416 50.4053 60.3728 50.6742 60.3508C50.7932 60.252 50.9052 60.1447 51.0101 60.0289C51.115 59.9132 51.2256 59.8214 51.3417 59.7538C51.4593 59.6706 51.5818 59.6192 51.7091 59.5996C51.8535 59.566 52.0161 59.589 52.197 59.6686C52.7209 59.4348 53.1969 59.126 53.6249 58.7422C54.0544 58.3427 54.4831 57.9511 54.9111 57.5672C55.3406 57.1678 55.782 56.8087 56.2354 56.4899C56.7043 56.1726 57.2331 55.9707 57.8217 55.8842C57.3644 56.7519 56.8081 57.5867 56.1529 58.3889C55.4991 59.1754 54.7832 59.8699 54.0053 60.4723C53.7984 60.6728 53.5469 60.8455 53.251 60.9906C53.1193 61.0568 52.9791 61.1301 52.8304 61.2104C52.6831 61.2752 52.5436 61.3407 52.4119 61.4069C51.9658 61.6479 51.5331 61.9136 51.1138 62.2041C50.6959 62.4791 50.2899 62.7944 49.8959 63.1501C49.8579 63.0524 49.8015 62.9844 49.7266 62.946C49.6517 62.9077 49.5598 62.8834 49.4509 62.8733C49.3575 62.8646 49.2557 62.863 49.1453 62.8684C49.0505 62.8753 48.965 62.8673 48.8886 62.8445C48.5728 63.0348 48.1679 63.1698 47.674 63.2494C47.1943 63.346 46.7713 63.338 46.4052 63.2255C46.2991 63.1843 46.1571 63.1083 45.9791 62.9976C45.7997 62.9024 45.6662 62.8194 45.5786 62.7485C45.0095 62.2875 44.5968 61.747 44.3407 61.1268C44.1015 60.4926 43.9997 59.8162 44.0351 59.0976L43.8658 58.8935C44.0854 58.7257 44.2273 58.5506 44.2913 58.3682C44.3709 58.1873 44.4038 58.0021 44.3901 57.8125C44.3933 57.6088 44.3733 57.4029 44.3298 57.1949C44.3034 56.9727 44.2926 56.752 44.2973 56.5327C44.2947 56.3913 44.3056 56.2746 44.3298 56.1827C44.3696 56.0922 44.4109 55.9862 44.4536 55.8647C44.6244 55.3784 44.7859 54.9069 44.9382 54.4503C45.092 53.9782 45.2535 53.5067 45.4229 53.036C45.844 51.8826 46.3104 50.749 46.822 49.6354C47.3506 48.5076 47.8933 47.3969 48.4502 46.3031C48.2099 46.1866 47.9661 46.109 47.7186 46.0703C47.4725 46.016 47.2173 45.9766 46.9528 45.952C46.7039 45.9288 46.4479 45.8972 46.1849 45.857C45.9374 45.8183 45.6935 45.7407 45.4533 45.6242C45.3487 45.5674 45.2964 45.539 45.2964 45.539C45.2979 45.5234 45.2364 45.5098 45.1119 45.4983C45.0341 45.491 44.9238 45.4965 44.7809 45.5145C44.6394 45.5171 44.4987 45.5118 44.3586 45.4988C44.2186 45.4858 44.0956 45.4586 43.9896 45.4174C43.868 45.3747 43.8045 45.2982 43.7991 45.1878L43.8208 44.9545C43.8595 44.707 43.9292 44.5487 44.0298 44.4796C44.1318 44.3949 44.2535 44.3513 44.395 44.3488C44.5379 44.3307 44.6949 44.3296 44.8661 44.3455C45.0387 44.3459 45.2071 44.3066 45.3713 44.2278C45.7983 44.3616 46.204 44.47 46.5886 44.5529C46.9747 44.6202 47.3488 44.6471 47.711 44.6337C48.0887 44.6218 48.456 44.5539 48.8127 44.4302C49.185 44.3079 49.5568 44.1071 49.928 43.8278C50.2218 43.3687 50.4562 42.8726 50.6313 42.3397C50.8079 41.7912 50.9986 41.2597 51.2034 40.7452C51.4252 40.2166 51.6893 39.739 51.9957 39.3124C52.3036 38.8703 52.7443 38.519 53.3178 38.2585C53.5696 38.2505 53.7845 38.3019 53.9625 38.4126C54.1405 38.5233 54.3178 38.6418 54.4944 38.7681C54.3963 38.9787 54.3131 39.1985 54.2447 39.4275C54.1764 39.6565 54.1002 39.8848 54.0163 40.1124C53.9479 40.3414 53.8647 40.5612 53.7666 40.7718C53.6686 40.9824 53.5331 41.1738 53.3601 41.346C53.5551 41.4426 53.6631 41.5468 53.6841 41.6586C53.7051 41.7704 53.6787 41.8856 53.6049 42.0043C53.5311 42.123 53.441 42.248 53.3346 42.3793C53.2282 42.5106 53.1622 42.63 53.1365 42.7375C52.9639 42.7371 52.806 42.8323 52.6627 43.023C52.535 43.2151 52.4038 43.3598 52.2693 43.4571C52.1202 43.71 52.1225 43.9378 52.2763 44.1404C52.4301 44.343 52.569 44.5364 52.6931 44.7206C52.8288 44.7803 52.9681 44.8011 53.111 44.783C53.2554 44.7493 53.3842 44.7142 53.4974 44.6777C53.6262 44.6426 53.7451 44.6301 53.854 44.6403C53.9629 44.6504 54.0582 44.722 54.14 44.8552C54.3115 44.6985 54.4736 44.643 54.6263 44.6886C54.7804 44.7186 54.9324 44.772 55.0821 44.8487C55.2334 44.9098 55.3868 44.9476 55.5424 44.9621C55.6994 44.961 55.8588 44.8503 56.0205 44.6299C56.2159 44.554 56.3892 44.5466 56.5404 44.6077C56.7072 44.6703 56.857 44.747 56.9898 44.8378C57.124 44.9131 57.2512 44.9798 57.3713 45.0381C57.5084 45.0822 57.6514 45.0641 57.8001 44.9838C58.0305 45.0366 58.2865 45.0683 58.568 45.0788C58.865 45.0907 59.1558 45.0864 59.4401 45.0658C59.7401 45.0466 60.033 45.0189 60.3188 44.9827C60.6216 44.9324 60.8919 44.8948 61.1296 44.8698C61.35 45.0316 61.4784 45.1691 61.5149 45.2823C61.5515 45.3956 61.5491 45.5052 61.5079 45.6112C61.4822 45.7187 61.4395 45.8402 61.3798 45.9759C61.3371 46.0975 61.3375 46.2623 61.3809 46.4703Z" fill="white"/>
<path d="M78.2438 58.702C78.0343 59.4358 77.729 60.0194 77.3277 60.4528C76.9435 60.8722 76.4341 61.2877 75.7994 61.6994C75.904 61.7563 75.9612 61.8165 75.9709 61.8802C75.9977 61.9297 76.0068 62.0012 75.9981 62.0945L75.9405 62.2069C75.8107 62.085 75.6835 62.0182 75.559 62.0066C75.436 61.9795 75.3171 61.992 75.2024 62.0441C75.0892 62.0806 74.9738 62.1405 74.8562 62.2237C74.7401 62.2914 74.6232 62.3668 74.5056 62.45C74.1633 62.4182 73.8004 62.4393 73.4169 62.5135C73.0348 62.5721 72.6627 62.6081 72.3006 62.6215C71.9539 62.6363 71.6372 62.5833 71.3503 62.4625C71.0648 62.3261 70.8475 62.047 70.6985 61.6251C70.5783 61.5668 70.4497 61.5156 70.3126 61.4715C70.1925 61.4132 70.0716 61.3628 69.9501 61.3201C69.6393 61.7933 69.2677 62.2452 68.8353 62.6758C68.42 63.0922 67.9601 63.481 67.4557 63.8421C66.9528 64.1876 66.4224 64.4913 65.8645 64.7533C65.3221 65.0167 64.7863 65.2101 64.257 65.3334L64.1848 65.3503C64.1312 65.2511 64.0826 65.1838 64.0388 65.1484C63.995 65.1129 63.9413 65.1001 63.8776 65.1098C63.8295 65.121 63.7658 65.1308 63.6866 65.1391C63.6214 65.1645 63.5344 65.1721 63.4255 65.1619L63.2361 65.4268C63.0328 65.2509 62.9172 65.0597 62.8893 64.8531C62.86 64.6621 62.7556 64.519 62.5762 64.4238L62.3423 64.661L62.2788 64.5845C62.0248 64.2784 61.8176 63.8903 61.6574 63.4204C61.4971 62.9504 61.3779 62.4607 61.2997 61.9512C61.223 61.4262 61.1923 60.9134 61.2075 60.4126C61.2071 59.9104 61.2476 59.4748 61.329 59.1058C61.2162 58.9697 61.0785 58.8471 60.916 58.7378C60.7536 58.6285 60.6655 58.4791 60.6517 58.2895L60.6772 58.2684C60.7257 58.0846 60.8306 57.9688 60.992 57.921C61.1378 57.8718 61.297 57.8474 61.4696 57.8478C61.6422 57.8481 61.8063 57.8555 61.9618 57.87C62.1174 57.8845 62.2214 57.8628 62.2739 57.8049C62.2826 57.7115 62.2524 57.6146 62.1833 57.514C62.1297 57.4149 62.0755 57.3235 62.0205 57.2399C62.0349 57.0843 62.0847 56.9713 62.1697 56.9007C62.2547 56.8302 62.3468 56.7681 62.446 56.7146C62.5451 56.661 62.6357 56.6145 62.7179 56.5751C62.8 56.5357 62.8447 56.477 62.8519 56.3993C62.8577 56.337 62.8472 56.2811 62.8204 56.2316C62.7937 56.182 62.7683 56.1169 62.7444 56.0362C62.9807 56.0268 63.128 55.962 63.1862 55.8419C63.2445 55.7218 63.3579 55.5989 63.5265 55.4734C63.4447 55.3402 63.4415 55.2065 63.5167 55.0723C63.5934 54.9225 63.6772 54.7812 63.768 54.6485C63.8603 54.5001 63.9278 54.3652 63.9704 54.2436C64.0301 54.1079 64.0028 53.9798 63.8885 53.8593C63.8729 53.8579 63.8652 53.8572 63.8652 53.8572C63.8666 53.8416 63.8596 53.8331 63.844 53.8317C64.2604 52.8975 64.6691 51.9626 65.07 51.0269C65.4879 50.0772 65.9199 49.1444 66.366 48.2287C66.8277 47.3144 67.3112 46.4178 67.8167 45.539C68.3377 44.6616 68.911 43.8126 69.5366 42.992C69.5709 42.7912 69.6399 42.6407 69.7433 42.5405C69.8624 42.4417 69.9941 42.3755 70.1384 42.3419C70.2842 42.2927 70.4449 42.2527 70.6204 42.2219C70.7958 42.1912 70.9572 42.1434 71.1045 42.0787C71.2532 41.9983 71.3807 41.8925 71.4871 41.7612C71.5935 41.6298 71.6589 41.4319 71.6835 41.1674C71.9267 41.2528 72.1572 41.3057 72.375 41.3259C72.5928 41.3462 72.8021 41.3735 73.0029 41.4079C73.2193 41.4437 73.4172 41.5092 73.5966 41.6043C73.7916 41.7009 73.9716 41.8746 74.1366 42.1253L74.1578 42.1508C74.1676 42.2145 74.1511 42.3071 74.1084 42.4287C74.0827 42.5362 74.0662 42.6288 74.059 42.7066C74.0301 43.0177 74.0237 43.3389 74.04 43.6699C74.0718 44.0024 74.0648 44.3313 74.0188 44.6566C73.9743 44.9663 73.8768 45.2554 73.7263 45.5238C73.5773 45.7767 73.3222 45.9884 72.9611 46.1588C73.079 46.5778 73.045 46.9434 72.8591 47.2556C72.6901 47.5537 72.4674 47.839 72.191 48.1115C71.9145 48.3839 71.6452 48.6649 71.3829 48.9543C71.1361 49.2452 70.9946 49.5851 70.9585 49.9741C70.698 50.0754 70.4868 50.2362 70.3251 50.4565C70.1648 50.6613 70.0031 50.8817 69.8399 51.1176C69.6923 51.3549 69.5228 51.5745 69.3314 51.7764C69.157 51.9642 68.9099 52.0903 68.59 52.1547C68.3979 52.7017 68.0949 53.1757 67.681 53.5766C67.2671 53.9775 66.8461 54.3699 66.4181 54.7537C65.9901 55.1376 65.5995 55.5407 65.2464 55.9629C64.9088 56.3866 64.7125 56.894 64.6575 57.4852C64.1828 57.8648 63.8501 58.3203 63.6595 58.8518C63.4843 59.3847 63.37 59.939 63.3165 60.5147C63.3005 60.6858 63.2924 60.8577 63.292 61.0302C63.2917 61.2028 63.2835 61.3747 63.2676 61.5458C63.1504 61.4565 63.0386 61.4774 62.9322 61.6088L62.9045 61.6533C62.9986 61.9916 63.109 62.3235 63.2356 62.6492C63.3792 62.9607 63.5632 63.2603 63.7875 63.5479C64.2036 63.4611 64.6126 63.3657 65.0146 63.2619C65.4336 63.1439 65.8582 63.0501 66.2884 62.9802C66.4164 62.6155 66.6114 62.3747 66.8734 62.2579C67.1524 62.1269 67.4214 62.0185 67.6804 61.9328C67.955 61.8485 68.2007 61.738 68.4174 61.6012C68.6342 61.4644 68.7613 61.1938 68.799 60.7893L68.8456 60.7936C69.0833 60.7687 69.2717 60.6842 69.4106 60.5402C69.551 60.3806 69.6617 60.2026 69.7427 60.0062C69.8408 59.7956 69.9084 59.5743 69.9457 59.3424C69.9985 59.1119 70.0414 58.9041 70.0743 58.7188C70.0349 58.6367 70.0295 58.5264 70.0581 58.3878C70.1037 58.2351 70.1415 58.0817 70.1715 57.9276C70.2185 57.7593 70.2422 57.5889 70.2426 57.4163C70.2585 57.2452 70.2341 57.086 70.1693 56.9387L70.1737 56.8921L70.2013 56.8476C70.2936 56.6992 70.3844 56.5664 70.4738 56.4492C70.5646 56.3164 70.6484 56.1751 70.7251 56.0253C70.9197 55.6198 71.129 55.3097 71.353 55.0951C71.577 54.8806 71.9379 54.7965 72.4357 54.8428C72.7295 55.0584 72.8896 55.2773 72.916 55.4995C72.958 55.7231 72.9363 55.9564 72.8509 56.1996C72.7655 56.4427 72.6709 56.7007 72.567 56.9735C72.4646 57.2307 72.4245 57.4938 72.4466 57.7626L72.4867 57.8369C72.3919 57.8438 72.302 57.8825 72.217 57.9531C72.132 58.0236 72.0462 58.102 71.9597 58.1881C71.8733 58.2742 71.7868 58.3603 71.7003 58.4464C71.6294 58.534 71.5677 58.6067 71.5153 58.6646C71.6082 58.8458 71.6538 59.0305 71.652 59.2187C71.6517 59.3913 71.652 59.5561 71.6531 59.7131C71.6712 59.856 71.7211 59.994 71.8029 60.1272C71.9017 60.2462 72.0826 60.3258 72.3456 60.366C72.6228 60.4232 72.9069 60.4888 73.1982 60.563C73.4895 60.6372 73.7744 60.6951 74.053 60.7367C74.3486 60.7642 74.6315 60.7591 74.9018 60.7215C75.1876 60.6853 75.4566 60.5769 75.7088 60.3964C75.7276 60.1941 75.7788 60.0655 75.8624 60.0105C75.9615 59.957 76.0663 59.9275 76.1766 59.9221C76.3025 59.9181 76.4277 59.9219 76.5522 59.9335C76.6781 59.9295 76.785 59.8767 76.8729 59.775C76.7825 59.7352 76.7231 59.6983 76.6949 59.6643C76.6837 59.6161 76.6193 59.6337 76.5017 59.7169L76.4621 59.3837L76.6108 59.3034C76.711 59.4068 76.817 59.4481 76.9288 59.4271C77.0421 59.3906 77.149 59.3377 77.2496 59.2686C77.3672 59.1854 77.477 59.1015 77.579 59.0168C77.698 58.918 77.8064 58.8497 77.9041 58.8117L78.0637 58.6147L78.2438 58.702ZM72.5769 43.2043C72.5287 43.2155 72.4721 43.2337 72.407 43.2591C72.179 43.3477 71.9341 43.4505 71.6721 43.5673C71.4102 43.6842 71.1616 43.8258 70.9265 43.9923C70.7083 44.1446 70.5183 44.3309 70.3566 44.5513C70.1963 44.756 70.1032 44.9985 70.0771 45.2785C70.0728 45.3252 70.0655 45.403 70.0554 45.5119C70.0467 45.6052 70.0565 45.6689 70.0847 45.7029C70.0196 45.7282 69.9508 45.7924 69.8785 45.8956C69.8231 45.9846 69.7507 46.0877 69.6614 46.2049C69.589 46.308 69.4933 46.409 69.3743 46.5077C69.2723 46.5924 69.142 46.6431 68.9835 46.6597C69.1047 46.875 69.1552 47.0915 69.1349 47.3093C69.1161 47.5116 69.0584 47.7102 68.9618 47.9052C68.8652 48.1003 68.7375 48.2924 68.5787 48.4816C68.4368 48.6567 68.2957 48.8241 68.1553 48.9836L68.0685 48.9049C68.1173 49.2233 68.0976 49.5196 68.0093 49.7939C67.9381 50.054 67.8357 50.3113 67.7022 50.5656C67.5857 50.8059 67.4536 51.0447 67.306 51.282C67.1584 51.5194 67.0326 51.7744 66.9288 52.0472C67.0663 51.9188 67.1889 51.7811 67.2968 51.6342C67.4201 51.4888 67.5435 51.3433 67.6669 51.1979C67.6951 51.2319 67.7452 51.2836 67.8172 51.3531C67.9062 51.4085 67.9663 51.4376 67.9974 51.4405C67.958 51.3583 67.9192 51.2684 67.8813 51.1707C67.8433 51.0731 67.8046 50.9832 67.7651 50.901L67.7695 50.8543C68.0035 50.5309 68.28 50.2584 68.5987 50.037C68.9189 49.8 69.2236 49.5616 69.5127 49.3217C69.5532 48.8861 69.6713 48.544 69.8671 48.2955C70.0798 48.0328 70.3052 47.8027 70.5433 47.6051C70.7984 47.3935 71.0216 47.1867 71.213 46.9848C71.4214 46.7688 71.5415 46.4897 71.5734 46.1474C71.5806 46.0696 71.5822 45.9678 71.5782 45.8418C71.5757 45.7004 71.5625 45.5893 71.5386 45.5086L71.6108 45.4918C71.9151 45.4259 72.1219 45.3118 72.2311 45.1493C72.3418 44.9713 72.4066 44.7812 72.4254 44.5789C72.4613 44.3626 72.4745 44.1363 72.465 43.9C72.4726 43.6496 72.5099 43.4177 72.5769 43.2043Z" fill="white"/>
<path d="M91.3348 58.8841C91.3753 59.1233 91.3332 59.3234 91.2084 59.4844C91.085 59.6298 90.9242 59.7561 90.7259 59.8632C90.5432 59.9717 90.3378 60.0703 90.1099 60.159C89.899 60.2335 89.7177 60.3265 89.5661 60.4379C88.8515 60.5284 88.2028 60.5857 87.6199 60.61C87.0541 60.6201 86.4238 60.6478 85.7291 60.693C85.524 60.7053 85.3295 60.6872 85.1457 60.6387C84.9789 60.5761 84.8014 60.5439 84.6133 60.5421C84.5044 60.532 84.4033 60.5226 84.3099 60.5139C84.218 60.4897 84.1247 60.481 84.0299 60.4878C83.6691 60.4857 83.4242 60.5884 83.295 60.7961C83.1673 60.9882 83.0515 61.2207 82.9477 61.4935C82.8609 61.7522 82.7514 62.0009 82.6193 62.2397C82.5043 62.4644 82.2791 62.6082 81.9437 62.6712C81.9053 62.7461 81.9066 62.8168 81.9475 62.8834C82.0039 62.9514 82.0455 63.0102 82.0723 63.0598C81.8006 63.113 81.6086 63.2363 81.4965 63.4299C81.3999 63.6249 81.311 63.8206 81.23 64.0171C81.1489 64.2136 81.0397 64.376 80.9022 64.5045C80.7803 64.6344 80.5581 64.6608 80.2357 64.5837C79.7057 65.0522 79.0995 65.4117 78.4171 65.6621C77.7333 65.928 77.037 66.0751 76.3282 66.1033C76.2095 66.0295 76.0923 65.9401 75.9765 65.8352C75.8763 65.7317 75.7676 65.6353 75.6503 65.5459C75.5487 65.458 75.43 65.3842 75.2943 65.3245C75.1727 65.2818 75.0249 65.268 74.8509 65.2832C74.8657 64.9551 74.8317 64.6459 74.7489 64.3557C74.6505 64.0641 74.5195 63.7852 74.356 63.5189C74.3509 63.2359 74.4137 62.9829 74.5443 62.7596C74.6608 62.5194 74.7843 62.2876 74.915 62.0644C75.0456 61.8412 75.1606 61.6165 75.2601 61.3904C75.3455 61.1472 75.356 60.8657 75.2916 60.5459C75.4559 60.467 75.5671 60.3675 75.6254 60.2474C75.6992 60.1287 75.7497 60.0079 75.7768 59.8849C75.8209 59.7477 75.8714 59.6269 75.9282 59.5223C75.9865 59.4022 76.1048 59.3112 76.2831 59.2493C76.1934 58.8644 76.2343 58.5936 76.4058 58.4369C76.5943 58.2661 76.8118 58.1216 77.0582 58.0033C77.3045 57.885 77.5368 57.7496 77.755 57.5973C77.9732 57.445 78.0748 57.1955 78.06 56.8489C78.162 56.7643 78.2782 56.6966 78.4084 56.6459C78.5387 56.5953 78.6604 56.5517 78.7737 56.5152C78.9039 56.4645 79.0264 56.4131 79.1411 56.361C79.2558 56.3089 79.3649 56.2328 79.4684 56.1325C79.3667 56.0446 79.3195 55.9618 79.3267 55.884C79.3495 55.8076 79.3801 55.732 79.4184 55.6571C79.4582 55.5667 79.498 55.4762 79.5378 55.3858C79.5932 55.2968 79.6019 55.2034 79.5639 55.1057C79.9782 55.207 80.3488 55.1866 80.6759 55.0444C81.02 54.8881 81.3407 54.7296 81.6381 54.569C81.9511 54.4098 82.259 54.305 82.5618 54.2548C82.8647 54.2045 83.1983 54.3297 83.5626 54.6303C83.5836 54.7421 83.6151 54.9098 83.657 55.1334C83.716 55.3429 83.7665 55.5594 83.8084 55.783C83.866 56.0081 83.9164 56.2246 83.9599 56.4327C84.0033 56.6407 84.0284 56.7921 84.0353 56.8869C84.0281 56.9647 84.0165 57.0892 84.0006 57.2603C83.9846 57.4315 83.9673 57.6181 83.9485 57.8204C83.9311 58.0071 83.9144 58.186 83.8985 58.3571C83.8826 58.5283 83.8703 58.6605 83.8616 58.7539C84.2882 59.0603 84.7242 59.2657 85.1696 59.3699C85.6164 59.4585 86.0777 59.3916 86.5535 59.1691C86.7102 59.3406 86.8692 59.4024 87.0305 59.3547C87.1934 59.2913 87.3491 59.2195 87.4978 59.1392C87.6621 59.0603 87.822 59.0281 87.9776 59.0426C88.1346 59.0415 88.2786 59.1805 88.4096 59.4594C88.6462 59.2774 88.8834 59.1739 89.1211 59.149C89.3602 59.1085 89.6043 59.0998 89.8532 59.1229C90.1036 59.1305 90.3469 59.1296 90.5832 59.1202C90.835 59.1123 91.0855 59.0336 91.3348 58.8841ZM82.3366 58.4472C82.3583 58.2139 82.4204 57.9686 82.5228 57.7113C82.6251 57.4541 82.7113 57.2031 82.7811 56.9586C82.8524 56.6984 82.8677 56.4488 82.8272 56.2096C82.8023 55.9719 82.674 55.7481 82.4424 55.5383C82.2626 55.6157 82.1103 55.7349 81.9855 55.8959C81.8621 56.0414 81.738 56.1946 81.6132 56.3556C81.4898 56.501 81.3452 56.621 81.1795 56.7154C81.0294 56.8113 80.8398 56.8251 80.6108 56.7567C80.5156 56.9361 80.5011 57.0917 80.5674 57.2234C80.635 57.3395 80.7182 57.4571 80.817 57.5762C80.9172 57.6796 81.0089 57.7902 81.0922 57.9078C81.1909 58.0268 81.2168 58.1704 81.1698 58.3387C81.2277 58.3911 81.3089 58.4458 81.4134 58.5026C81.5194 58.5438 81.6262 58.5773 81.7336 58.603C81.8581 58.6146 81.9762 58.6099 82.088 58.5889C82.1998 58.5679 82.2827 58.5207 82.3366 58.4472ZM81.9996 60.299C81.6884 60.27 81.4227 60.1747 81.2023 60.013C80.999 59.8371 80.7893 59.645 80.5733 59.4366C80.3729 59.2296 80.1554 59.0368 79.921 58.8581C79.7035 58.6652 79.4251 58.5373 79.0857 58.4744C78.9284 58.648 78.7483 58.8117 78.5457 58.9655C78.3446 59.1037 78.1653 59.2597 78.0079 59.4333C77.8505 59.607 77.7306 59.7998 77.6481 60.0119C77.5811 60.2253 77.5969 60.4779 77.6953 60.7695C77.3215 60.9073 77.0572 61.1338 76.9024 61.449C76.749 61.7485 76.6316 62.0829 76.5502 62.4519C76.4843 62.8224 76.4185 63.1929 76.3526 63.5634C76.2868 63.9339 76.1545 64.259 75.9559 64.5386L76.5019 64.2364C76.5612 64.2733 76.6035 64.3243 76.6288 64.3894C76.6697 64.456 76.671 64.5267 76.6326 64.6016C76.7687 64.4887 76.9174 64.4084 77.0788 64.3606C77.2416 64.2973 77.4022 64.2573 77.5607 64.2407C77.7362 64.2099 77.9031 64.1862 78.0616 64.1696C78.2356 64.1544 78.4033 64.1229 78.5647 64.0752C78.9334 64.3292 79.2091 64.4019 79.3918 64.2933C79.5745 64.1848 79.7319 64.0111 79.864 63.7723C79.996 63.5335 80.1366 63.2877 80.2857 63.0348C80.4362 62.7663 80.6543 62.614 80.9402 62.5778L80.792 62.3993C81.0869 62.0972 81.3514 61.7844 81.5855 61.4609C81.8366 61.1234 81.9746 60.736 81.9996 60.299Z" fill="white"/>
<path d="M103.456 64.9314C103.204 65.2845 103.005 65.572 102.858 65.7937C102.729 66.0014 102.595 66.1773 102.456 66.3213C102.334 66.4511 102.19 66.5711 102.023 66.6811C101.872 66.777 101.657 66.8982 101.377 67.0447C101.191 67.1844 101.008 67.3007 100.826 67.3937C100.676 67.4895 100.528 67.5699 100.38 67.6346C100.249 67.7008 100.144 67.7303 100.066 67.7231C100.035 67.7202 100.005 67.7095 99.975 67.6911C99.9438 67.6882 99.9127 67.6853 99.8816 67.6824C99.7883 67.6737 99.6949 67.665 99.6016 67.6563C99.5223 67.6646 99.4574 67.6037 99.4067 67.4734C99.3557 67.5158 99.3118 67.5666 99.2748 67.6259C99.2379 67.6853 99.2018 67.7368 99.1663 67.7806C99.1294 67.8399 99.0784 67.8823 99.0133 67.9076C98.9637 67.9344 98.8937 67.9279 98.8032 67.8881L98.6996 67.7372L98.3213 68.008C97.9059 67.7497 97.5032 67.5239 97.1132 67.3307C96.7373 67.1545 96.4032 66.9508 96.1108 66.7196C95.8185 66.4884 95.5779 66.2071 95.389 65.8757C95.2016 65.5287 95.0873 65.0708 95.046 64.502C94.9769 64.4015 94.8986 64.3157 94.811 64.2448C94.7249 64.1583 94.6182 64.1249 94.4908 64.1444C94.3106 64.3944 94.103 64.6026 93.8678 64.7691C93.6326 64.9355 93.396 65.1175 93.1579 65.315C93.0729 65.3856 93.0027 65.4654 92.9473 65.5544C92.892 65.6434 92.8218 65.7232 92.7368 65.7937C92.5993 65.9222 92.4421 66.0095 92.2651 66.0558C92.0897 66.0866 91.9142 66.1173 91.7387 66.1481C91.5632 66.1788 91.3926 66.2414 91.2269 66.3359C91.0768 66.4318 90.9583 66.609 90.8715 66.8677C90.6949 66.7415 90.5111 66.693 90.3201 66.7223C90.1771 66.7404 90.0264 66.7577 89.868 66.7744C89.7081 66.8066 89.5503 66.8154 89.3947 66.801C89.2533 66.8035 89.1147 66.7749 88.979 66.7152C88.8433 66.6555 88.7283 66.5428 88.6338 66.3771C88.4073 66.4502 88.2058 66.4236 88.0293 66.2973C87.8512 66.1866 87.6846 66.0377 87.5294 65.8507C87.3912 65.6495 87.2537 65.4406 87.117 65.2238C86.9802 65.0071 86.8461 64.8456 86.7148 64.7392C86.6446 64.4816 86.6719 64.2723 86.7968 64.1113C86.9075 63.9333 87.0323 63.7723 87.1712 63.6283C87.2961 63.4672 87.389 63.3111 87.4502 63.1599C87.5128 62.9931 87.4616 62.7843 87.2966 62.5336C87.4739 62.3147 87.6363 62.0866 87.784 61.8492C87.933 61.5963 88.0814 61.3512 88.229 61.1139C88.3936 60.8624 88.5568 60.6265 88.7185 60.4062C88.8973 60.1717 89.1035 59.979 89.3372 59.8282C89.254 59.7106 89.2167 59.6051 89.2254 59.5118C89.2355 59.4029 89.2683 59.3039 89.3237 59.2149C89.3805 59.1103 89.4443 59.0143 89.5152 58.9267C89.5876 58.8236 89.6437 58.7268 89.6835 58.6364L90.3906 58.3726L90.2794 57.7973C90.4476 57.8444 90.5728 57.8482 90.6549 57.8087C90.7526 57.7707 90.8214 57.7065 90.8612 57.6161C90.9165 57.5271 90.957 57.4288 90.9827 57.3214C91.0254 57.1998 91.0745 57.0945 91.1298 57.0055C91.2206 56.8727 91.3467 56.7825 91.5081 56.7347C91.858 56.5162 92.2015 56.2814 92.5387 56.0303C92.8915 55.7806 93.2357 55.538 93.5715 55.3025C93.9228 55.0684 94.2805 54.8506 94.6444 54.6491C95.0099 54.432 95.4028 54.2567 95.8232 54.1232C96.0989 54.1959 96.3088 54.3017 96.4528 54.4407C96.6123 54.581 96.723 54.7404 96.7849 54.9188C96.8623 55.0986 96.9143 55.2996 96.9407 55.5218C96.9685 55.7283 96.9964 55.9349 97.0242 56.1415C97.0774 56.4133 97.1498 56.6475 97.2413 56.8443C97.3329 57.0412 97.5051 57.2141 97.758 57.3632C97.5054 57.7163 97.3851 58.0817 97.3971 58.4595C97.4105 58.8216 97.4217 59.2071 97.4307 59.616C97.4427 59.9937 97.4009 60.3586 97.3054 60.7107C97.2254 61.0641 96.9701 61.3621 96.5396 61.6045C96.4983 61.7105 96.4797 61.8265 96.4837 61.9524C96.4877 62.0783 96.4839 62.2035 96.4723 62.3279C96.4607 62.4524 96.4265 62.5669 96.3697 62.6715C96.3129 62.776 96.2194 62.8536 96.0891 62.9043C96.2132 63.0885 96.2673 63.2661 96.2514 63.4372C96.251 63.6098 96.2436 63.7739 96.2291 63.9295C96.2302 64.0865 96.2561 64.2302 96.3067 64.3604C96.373 64.4921 96.5354 64.6014 96.7941 64.6882C96.822 64.8948 96.8464 65.054 96.8674 65.1658C96.9054 65.2635 96.9448 65.3456 96.9857 65.4122C97.0421 65.4802 97.1141 65.5497 97.2017 65.6206C97.2907 65.6759 97.4079 65.7653 97.5534 65.8887C97.6749 65.9314 97.8149 65.9444 97.9734 65.9278C98.1319 65.9111 98.252 65.9694 98.3338 66.1025C98.4188 66.032 98.5158 66.0018 98.6247 66.0119C98.735 66.0065 98.8362 66.0159 98.9281 66.0401L99.1837 66.5817C99.3664 66.4732 99.571 66.3824 99.7975 66.3093C100.024 66.2362 100.241 66.178 100.449 66.1346C100.688 66.094 100.927 66.0613 101.165 66.0363L103.456 64.9314ZM95.2376 56.1166C95.086 56.228 94.9033 56.3365 94.6895 56.4422C94.4757 56.5478 94.2611 56.6613 94.0458 56.7825C93.8461 56.9051 93.6683 57.0455 93.5123 57.2036C93.3578 57.3462 93.2549 57.5249 93.2035 57.7398C92.8399 57.7688 92.5772 57.8934 92.4155 58.1137C92.2538 58.3341 92.1132 58.5799 91.9938 58.8513C91.8744 59.1226 91.7472 59.3933 91.6123 59.6632C91.4788 59.9175 91.2648 60.1095 90.9702 60.239C90.8711 60.2926 90.7826 60.3157 90.7049 60.3085C90.7204 60.3099 90.6708 60.3367 90.5562 60.3888C90.3734 60.4973 90.2112 60.6392 90.0693 60.8143C89.9275 60.9894 89.7998 61.1815 89.6862 61.3906C89.5881 61.6012 89.4894 61.8196 89.3899 62.0457C89.3074 62.2577 89.2263 62.4542 89.1467 62.6351C88.926 62.6459 88.7583 62.6774 88.6436 62.7295C88.5289 62.7816 88.4524 62.8451 88.414 62.92C88.3927 62.9808 88.3932 63.0593 88.4157 63.1556C88.4381 63.2518 88.4754 63.3573 88.5275 63.472C88.581 63.5711 88.6331 63.6858 88.6838 63.816C88.75 63.9477 88.8006 64.078 88.8357 64.2068C88.8708 64.3356 88.8826 64.4622 88.871 64.5867C88.875 64.7126 88.833 64.8264 88.7451 64.9281C88.947 65.1195 89.1534 65.1779 89.3643 65.1034C89.5767 65.0133 89.7743 64.914 89.957 64.8054C90.0236 64.7645 90.0901 64.7236 90.1567 64.6828C90.2403 64.6278 90.3224 64.5883 90.4031 64.5644C90.7537 64.6755 91.0826 64.6826 91.3897 64.5856C91.6969 64.4887 91.9851 64.3428 92.2543 64.1482C92.5235 63.9535 92.7863 63.7426 93.0429 63.5154C93.2994 63.2882 93.553 63.0921 93.8037 62.9271L93.6344 62.723C93.9217 62.6713 94.1256 62.5883 94.2461 62.4739C94.3836 62.3455 94.4758 62.1971 94.5229 62.0289C94.5699 61.8607 94.5865 61.6817 94.5728 61.4922C94.5605 61.287 94.5567 61.0748 94.5614 60.8555C94.5574 60.7296 94.5605 60.6122 94.5706 60.5033C94.5978 60.3803 94.6404 60.2587 94.6987 60.1386C94.6075 59.7692 94.616 59.4248 94.7242 59.1053C94.848 58.7873 94.9936 58.487 95.1611 58.2044C95.3456 57.9077 95.5224 57.6103 95.6913 57.3122C95.8603 57.014 95.9607 56.6938 95.9925 56.3516L95.2376 56.1166Z" fill="white"/>
<path d="M119.894 51.9136C119.654 52.1267 119.402 52.2287 119.136 52.2197C118.871 52.195 118.609 52.1471 118.349 52.0758C118.104 52.006 117.857 51.9673 117.606 51.9597C117.373 51.938 117.159 52.0436 116.965 52.2766C116.722 52.1912 116.466 52.1596 116.197 52.1817C115.93 52.1882 115.652 52.2173 115.365 52.269C115.079 52.3052 114.793 52.3414 114.507 52.3776C114.222 52.4137 113.939 52.411 113.661 52.3694L113.301 51.9358C113.176 52.0968 113.01 52.1912 112.804 52.2191C112.614 52.2328 112.432 52.1688 112.257 52.027C111.91 52.2144 111.574 52.2851 111.248 52.2392C110.923 52.1932 110.605 52.1558 110.294 52.1268C109.984 52.0823 109.683 52.117 109.39 52.231C109.114 52.3309 108.858 52.6288 108.624 53.1249C108.451 53.4697 108.284 53.823 108.125 54.1848C107.967 54.531 107.81 54.8773 107.652 55.2235C107.223 56.1252 106.787 57.0183 106.343 57.9029C105.917 58.7734 105.445 59.6318 104.927 60.4781C104.831 61.1753 104.78 61.8846 104.776 62.6061C104.772 63.3275 104.776 64.0419 104.788 64.7493C104.709 64.9302 104.667 65.1225 104.664 65.3262C104.676 65.5313 104.712 65.7386 104.771 65.9481C104.83 66.1576 104.905 66.3608 104.997 66.5576C105.09 66.7389 105.192 66.9053 105.303 67.0569L105.76 66.6992L106.268 67.5703C106.442 67.3825 106.641 67.1891 106.863 66.9901C107.103 66.777 107.348 66.588 107.599 66.423C107.851 66.2425 108.107 66.1015 108.368 66.0002C108.645 65.8848 108.918 65.8161 109.187 65.794C109.306 65.6952 109.418 65.588 109.523 65.4722C109.628 65.3564 109.739 65.2647 109.855 65.197C109.972 65.1138 110.095 65.0624 110.222 65.0429C110.366 65.0092 110.529 65.0322 110.71 65.1118C111.234 64.8781 111.71 64.5693 112.138 64.1854C112.567 63.786 112.996 63.3943 113.424 63.0104C113.854 62.611 114.295 62.2519 114.748 61.9332C115.217 61.6158 115.746 61.414 116.335 61.3275C115.877 62.1951 115.321 63.03 114.666 63.8321C114.012 64.6187 113.296 65.3132 112.518 65.9156C112.311 66.116 112.06 66.2888 111.764 66.4339C111.632 66.5001 111.492 66.5734 111.343 66.6537C111.196 66.7184 111.057 66.7839 110.925 66.8501C110.479 67.0911 110.046 67.3569 109.627 67.6474C109.209 67.9224 108.803 68.2377 108.409 68.5933C108.371 68.4956 108.314 68.4276 108.24 68.3893C108.165 68.3509 108.073 68.3267 107.964 68.3165C107.871 68.3079 107.769 68.3062 107.658 68.3117C107.564 68.3185 107.478 68.3106 107.402 68.2878C107.086 68.4781 106.681 68.613 106.187 68.6926C105.707 68.7892 105.284 68.7813 104.918 68.6688C104.812 68.6275 104.67 68.5515 104.492 68.4408C104.313 68.3457 104.179 68.2626 104.092 68.1917C103.522 67.7308 103.11 67.1902 102.854 66.5701C102.615 65.9358 102.513 65.2594 102.548 64.5409L102.379 64.3368C102.598 64.1689 102.74 63.9938 102.804 63.8115C102.884 63.6305 102.917 63.4453 102.903 63.2557C102.906 63.052 102.886 62.8461 102.843 62.6381C102.816 62.416 102.806 62.1952 102.81 61.976C102.808 61.8345 102.819 61.7178 102.843 61.6259C102.883 61.5355 102.924 61.4295 102.967 61.3079C103.137 60.8216 103.299 60.3502 103.451 59.8936C103.605 59.4214 103.767 58.95 103.936 58.4793C104.357 57.3258 104.823 56.1923 105.335 55.0786C105.864 53.9509 106.406 52.8401 106.963 51.7464C106.723 51.6299 106.479 51.5523 106.232 51.5135C105.986 51.4593 105.73 51.4198 105.466 51.3952C105.217 51.3721 104.961 51.3404 104.698 51.3002C104.45 51.2615 104.207 51.1839 103.966 51.0674C103.862 51.0106 103.809 50.9822 103.809 50.9822C103.811 50.9667 103.749 50.9531 103.625 50.9415C103.547 50.9343 103.437 50.9397 103.294 50.9578C103.152 50.9603 103.012 50.9551 102.872 50.9421C102.732 50.929 102.609 50.9019 102.503 50.8606C102.381 50.8179 102.318 50.7414 102.312 50.6311L102.334 50.3977C102.373 50.1502 102.442 49.9919 102.543 49.9228C102.645 49.8382 102.767 49.7946 102.908 49.792C103.051 49.7739 103.208 49.7729 103.379 49.7888C103.552 49.7891 103.72 49.7499 103.884 49.671C104.311 49.8049 104.717 49.9132 105.102 49.9961C105.488 50.0634 105.862 50.0904 106.224 50.077C106.602 50.065 106.969 49.9972 107.326 49.8735C107.698 49.7512 108.07 49.5504 108.441 49.271C108.735 48.8119 108.969 48.3159 109.144 47.7829C109.321 47.2344 109.512 46.7029 109.716 46.1884C109.938 45.6598 110.202 45.1822 110.509 44.7557C110.817 44.3135 111.257 43.9622 111.831 43.7017C112.083 43.6938 112.298 43.7451 112.476 43.8559C112.654 43.9666 112.831 44.0851 113.007 44.2113C112.909 44.4219 112.826 44.6417 112.758 44.8707C112.689 45.0998 112.613 45.3281 112.529 45.5556C112.461 45.7847 112.378 46.0045 112.28 46.215C112.182 46.4256 112.046 46.617 111.873 46.7892C112.068 46.8858 112.176 46.99 112.197 47.1018C112.218 47.2136 112.192 47.3289 112.118 47.4475C112.044 47.5662 111.954 47.6912 111.848 47.8226C111.741 47.9539 111.675 48.0733 111.65 48.1807C111.477 48.1804 111.319 48.2755 111.176 48.4662C111.048 48.6583 110.917 48.8031 110.782 48.9004C110.633 49.1533 110.636 49.381 110.789 49.5837C110.943 49.7863 111.082 49.9797 111.206 50.1638C111.342 50.2235 111.481 50.2443 111.624 50.2262C111.768 50.1926 111.897 50.1575 112.01 50.1209C112.139 50.0859 112.258 50.0734 112.367 50.0835C112.476 50.0936 112.571 50.1653 112.653 50.2984C112.824 50.1418 112.987 50.0862 113.139 50.1318C113.293 50.1618 113.445 50.2152 113.595 50.2919C113.746 50.3531 113.9 50.3909 114.055 50.4053C114.212 50.4043 114.372 50.2935 114.533 50.0732C114.729 49.9972 114.902 49.9898 115.053 50.0509C115.22 50.1135 115.37 50.1902 115.503 50.2811C115.637 50.3563 115.764 50.4231 115.884 50.4813C116.021 50.5255 116.164 50.5074 116.313 50.4271C116.544 50.4799 116.799 50.5115 117.081 50.522C117.378 50.534 117.669 50.5296 117.953 50.509C118.253 50.4898 118.546 50.4622 118.832 50.426C119.135 50.3757 119.405 50.3381 119.643 50.3131C119.863 50.4748 119.991 50.6123 120.028 50.7256C120.064 50.8388 120.062 50.9484 120.021 51.0544C119.995 51.1619 119.952 51.2835 119.893 51.4191C119.85 51.5407 119.85 51.7055 119.894 51.9136Z" fill="white"/>
<path fill-rule="evenodd" clip-rule="evenodd" d="M173.876 22.5491C173.796 22.7148 173.676 22.8827 173.563 23.0298C173.227 23.4678 172.599 23.55 172.161 23.2136C172.112 23.1764 172.068 23.1357 172.029 23.092C171.908 23.0212 171.801 22.9237 171.716 22.8015C171.4 22.3482 171.512 21.7249 171.965 21.4094C172.09 21.3226 172.226 21.234 172.356 21.1657C172.419 21.1328 172.51 21.0886 172.617 21.055L172.62 21.0541C172.683 21.034 172.957 20.9472 173.278 21.0477C173.483 21.1117 173.7 21.2513 173.847 21.4896C173.982 21.7098 174.003 21.9263 174 22.0607C173.994 22.3 173.907 22.4848 173.876 22.5491ZM171.443 23.9263C171.84 24.3103 171.851 24.9434 171.467 25.3403C171.059 25.7615 170.588 26.2407 170.047 26.7841C169.657 27.1754 169.024 27.1767 168.633 26.787C168.242 26.3973 168.24 25.7641 168.63 25.3728C169.166 24.8349 169.63 24.3626 170.029 23.9496C170.413 23.5527 171.046 23.5423 171.443 23.9263ZM167.921 27.4912C168.308 27.8854 168.302 28.5185 167.908 28.9053C167.459 29.3455 166.979 29.8142 166.466 30.3129C166.07 30.6978 165.437 30.6887 165.052 30.2926C164.667 29.8965 164.676 29.2634 165.072 28.8785C165.583 28.3819 166.061 27.9155 166.507 27.4778C166.901 27.091 167.534 27.097 167.921 27.4912ZM164.332 30.9877C164.715 31.3858 164.702 32.0189 164.304 32.4016C163.843 32.845 163.361 33.3072 162.857 33.7889C162.458 34.1706 161.825 34.1564 161.443 33.7572C161.061 33.358 161.076 32.725 161.475 32.3433C161.977 31.8628 162.458 31.4019 162.918 30.9598C163.316 30.5771 163.949 30.5895 164.332 30.9877ZM160.714 34.4517C161.094 34.8521 161.078 35.4851 160.678 35.8654C160.436 36.0948 160.191 36.3278 159.941 36.5647C159.69 36.8028 159.443 37.0397 159.2 37.2753C158.803 37.6598 158.17 37.65 157.786 37.2534C157.401 36.8569 157.411 36.2238 157.808 35.8394C158.056 35.5985 158.308 35.3565 158.565 35.1133C158.814 34.8769 159.059 34.6443 159.3 34.4154C159.701 34.035 160.334 34.0513 160.714 34.4517ZM157.016 38.0256C157.414 38.4082 157.427 39.0412 157.044 39.4396C156.563 39.9406 156.1 40.4355 155.655 40.9241C155.283 41.3323 154.651 41.3618 154.243 40.9899C153.834 40.6179 153.805 39.9855 154.177 39.5772C154.634 39.0755 155.109 38.5678 155.602 38.0543C155.984 37.6559 156.617 37.6431 157.016 38.0256ZM153.525 41.8104C153.95 42.1641 154.007 42.7947 153.653 43.2189C153.207 43.7537 152.783 44.2797 152.38 44.7968C152.041 45.2323 151.412 45.3102 150.977 44.9706C150.541 44.6311 150.463 44.0027 150.803 43.5671C151.22 43.0325 151.657 42.4894 152.117 41.9382C152.471 41.514 153.101 41.4568 153.525 41.8104ZM140.572 47.4791C139.914 47.4453 139.272 47.4579 138.645 47.513C138.095 47.5613 137.609 47.1545 137.561 46.6043C137.513 46.0541 137.92 45.569 138.47 45.5207C139.189 45.4575 139.924 45.4432 140.674 45.4817C141.226 45.51 141.65 45.9801 141.622 46.5317C141.593 47.0833 141.123 47.5074 140.572 47.4791ZM150.328 45.8492C150.782 46.1638 150.894 46.7868 150.58 47.2407C150.309 47.6314 150.051 48.0159 149.804 48.3941C150.133 48.5831 150.463 48.7818 150.796 48.9906C151.263 49.2844 151.404 49.9016 151.11 50.3693C150.817 50.8369 150.199 50.9779 149.732 50.6841C149.15 50.3184 148.577 49.9875 148.013 49.6895C147.525 49.4314 147.338 48.8264 147.596 48.3381C147.606 48.3209 147.615 48.3041 147.625 48.2877C147.64 48.1383 147.689 47.9899 147.775 47.8543C148.136 47.2827 148.522 46.6982 148.936 46.1013C149.251 45.6474 149.874 45.5345 150.328 45.8492ZM142.712 46.6996C142.843 46.1632 143.385 45.8353 143.921 45.9672C144.601 46.1343 145.291 46.3442 145.99 46.599C146.509 46.7881 146.776 47.3621 146.587 47.881C146.398 48.3999 145.824 48.6672 145.305 48.478C144.672 48.2472 144.051 48.0586 143.444 47.9094C142.908 47.7775 142.58 47.2359 142.712 46.6996ZM136.482 46.8166C136.644 47.3446 136.347 47.904 135.819 48.066C135.203 48.255 134.602 48.4856 134.015 48.754C133.513 48.9838 132.92 48.7629 132.69 48.2607C132.46 47.7585 132.681 47.1651 133.183 46.9353C133.846 46.6321 134.529 46.3698 135.233 46.1539C135.761 45.9919 136.32 46.2886 136.482 46.8166ZM131.737 48.8101C132.05 49.2651 131.935 49.8877 131.48 50.2007C130.944 50.5689 130.424 50.9682 129.918 51.3947C129.496 51.7509 128.865 51.6974 128.509 51.2753C128.153 50.8532 128.207 50.2223 128.629 49.8662C129.181 49.4001 129.754 48.9606 130.346 48.5529C130.801 48.2399 131.424 48.3551 131.737 48.8101ZM147.536 50.1747C148.024 50.4335 148.21 51.0388 147.951 51.5267C147.621 52.1478 147.328 52.7462 147.066 53.3209C146.838 53.8237 146.245 54.0459 145.742 53.8172C145.239 53.5886 145.017 52.9957 145.246 52.4929C145.524 51.8801 145.836 51.2454 146.184 50.5897C146.443 50.1018 147.048 49.916 147.536 50.1747ZM151.997 50.9919C152.333 50.5532 152.961 50.4698 153.399 50.8054C153.68 51.0205 153.963 51.2428 154.246 51.4722C154.528 51.7002 154.802 51.9262 155.068 52.1504C155.49 52.5063 155.544 53.1372 155.188 53.5595C154.832 53.9818 154.201 54.0356 153.779 53.6797C153.524 53.4644 153.26 53.2469 152.989 53.0271C152.719 52.8088 152.45 52.5977 152.184 52.3937C151.745 52.0581 151.662 51.4305 151.997 50.9919ZM127.72 52.0393C128.126 52.4139 128.151 53.0466 127.776 53.4523C127.328 53.9383 126.894 54.444 126.477 54.9654C126.132 55.3964 125.502 55.466 125.071 55.1208C124.64 54.7756 124.571 54.1463 124.916 53.7152C125.361 53.1595 125.825 52.6181 126.307 52.0956C126.682 51.6899 127.314 51.6646 127.72 52.0393ZM155.952 54.2435C156.337 53.8478 156.97 53.8394 157.366 54.2247C157.888 54.733 158.369 55.2312 158.81 55.7193C159.18 56.1291 159.148 56.7615 158.738 57.1317C158.328 57.5019 157.696 57.4698 157.326 57.0599C156.915 56.6059 156.465 56.1384 155.971 55.6576C155.575 55.2723 155.567 54.6392 155.952 54.2435ZM145.34 54.83C145.866 54.9994 146.155 55.5628 145.985 56.0885C145.766 56.7684 145.6 57.3986 145.478 57.977C145.364 58.5174 144.834 58.8633 144.293 58.7494C143.753 58.6356 143.407 58.1053 143.521 57.5648C143.658 56.9145 143.842 56.217 144.082 55.4752C144.251 54.9495 144.814 54.6606 145.34 54.83ZM124.428 56.0106C124.888 56.3152 125.015 56.9355 124.71 57.3962C124.339 57.9576 123.985 58.528 123.647 59.1036C123.368 59.58 122.755 59.7397 122.279 59.4603C121.803 59.181 121.643 58.5683 121.922 58.0919C122.277 57.4869 122.65 56.8859 123.042 56.2933C123.347 55.8326 123.967 55.706 124.428 56.0106ZM159.366 57.9052C159.823 57.5945 160.445 57.7128 160.755 58.1694C161.193 58.8126 161.559 59.4382 161.856 60.0462C162.098 60.5424 161.892 61.1412 161.396 61.3835C160.9 61.6259 160.301 61.42 160.058 60.9237C159.808 60.4109 159.492 59.8678 159.102 59.2945C158.791 58.8379 158.91 58.2159 159.366 57.9052ZM144.155 59.8411C144.707 59.8089 145.18 60.2299 145.212 60.7812C145.232 61.1197 145.275 61.3959 145.329 61.6121L145.381 61.8182L145.345 62.0275C145.291 62.3362 145.259 62.631 145.246 62.9123C145.222 63.464 144.755 63.8915 144.203 63.8671C143.651 63.8427 143.224 63.3756 143.248 62.8239C143.262 62.5181 143.293 62.2061 143.341 61.8878C143.278 61.5847 143.236 61.2534 143.215 60.8976C143.183 60.3462 143.604 59.8732 144.155 59.8411ZM121.761 60.4263C122.257 60.6697 122.462 61.2689 122.218 61.7647C121.916 62.38 121.634 62.9933 121.371 63.5992C121.151 64.1059 120.563 64.3387 120.056 64.1191C119.549 63.8995 119.316 63.3107 119.536 62.8039C119.811 62.1697 120.107 61.5278 120.423 60.8833C120.666 60.3875 121.265 60.1829 121.761 60.4263ZM161.732 62.369C162.282 62.3175 162.769 62.7215 162.821 63.2713C162.9 64.1107 162.826 64.9012 162.614 65.6343C162.46 66.1648 161.906 66.4706 161.375 66.3171C160.845 66.1637 160.539 65.6093 160.692 65.0787C160.831 64.5997 160.886 64.0618 160.83 63.4579C160.778 62.908 161.182 62.4205 161.732 62.369ZM144.384 64.9041C144.881 64.6636 145.479 64.8717 145.719 65.3689C145.961 65.869 146.29 66.32 146.695 66.7222C147.086 67.1116 147.088 67.7447 146.699 68.1364C146.309 68.528 145.676 68.5299 145.285 68.1405C144.733 67.5922 144.267 66.959 143.919 66.2397C143.678 65.7425 143.886 65.1445 144.384 64.9041ZM119.656 65.1385C120.177 65.3205 120.453 65.8908 120.271 66.4122C120.158 66.7348 120.052 67.0523 119.953 67.3636C119.785 67.8897 119.222 68.18 118.696 68.0119C118.17 67.8438 117.879 67.2811 118.047 66.755C118.152 66.4266 118.264 66.0923 118.382 65.7532C118.564 65.2317 119.135 64.9565 119.656 65.1385ZM160.771 67.1895C161.133 67.6063 161.089 68.2379 160.672 68.6002C160.105 69.0933 159.456 69.5045 158.759 69.8386C158.261 70.0773 157.664 69.8671 157.425 69.3691C157.187 68.8711 157.397 68.2738 157.895 68.0351C158.453 67.7676 158.946 67.4506 159.36 67.0906C159.777 66.7283 160.409 66.7726 160.771 67.1895ZM147.586 68.6867C147.803 68.1788 148.39 67.9428 148.898 68.1596C149.444 68.3925 150.031 68.5784 150.645 68.7156C151.184 68.8361 151.524 69.3706 151.403 69.9096C151.283 70.4486 150.748 70.7879 150.209 70.6675C149.486 70.5059 148.781 70.2841 148.113 69.999C147.605 69.7822 147.369 69.1947 147.586 68.6867ZM156.429 69.6584C156.519 70.2032 156.151 70.7184 155.607 70.8093C154.899 70.9273 154.172 70.9905 153.444 70.999C152.892 71.0054 152.439 70.5629 152.432 70.0107C152.426 69.4584 152.868 69.0055 153.421 68.9991C154.049 68.9918 154.674 68.9372 155.278 68.8365C155.822 68.7457 156.338 69.1137 156.429 69.6584Z" fill="white"/>
<path d="M198.37 14.2476C197.644 13.6788 196.806 13.2509 195.96 13.0278C193.003 12.2484 189.554 12.724 186.757 14.0167C183.355 15.5892 181.246 18.3261 179.194 21.375C180.891 19.9498 183.157 19.3517 185.331 19.4389C187.505 19.5266 189.598 20.2519 191.53 21.226C192.974 21.9537 194.426 22.8451 196.054 22.8578C197.985 22.8723 199.829 21.5568 200.413 19.6643C201.063 17.5544 199.977 15.5057 198.37 14.2476Z" fill="white"/>
<path d="M173.9 1.05866C172.271 0.5799 170.889 1.59143 170.745 3.22934C170.59 4.99371 171.848 6.52169 172.723 7.92777C174.752 11.1896 175.628 14.5488 175.15 17.9505C176.836 15.4795 177.805 11.8211 177.779 8.91083C177.755 6.20021 176.942 1.95248 173.9 1.05866C174.675 1.28603 173.133 0.833406 173.9 1.05866Z" fill="white"/>
</svg>
